<?xml version="1.0"?>
<svg xmlns="http://www.w3.org/2000/svg" xmlns:xlink="http://www.w3.org/1999/xlink" xmlns:svgjs="http://svgjs.com/svgjs" version="1.1" width="512" height="512" x="0" y="0" viewBox="0 0 512 512" style="enable-background:new 0 0 512 512" xml:space="preserve" class=""><g><g xmlns="http://www.w3.org/2000/svg"><g><path d="m512 77c0-4.696-3.269-8.761-7.855-9.768l-69.849-15.332c-5.392-1.18-10.728 2.229-11.912 7.623-1.184 5.395 2.229 10.728 7.623 11.912l61.993 13.608v41.857l-226-49.61v-41.856l76.094 16.703c5.386 1.181 10.728-2.228 11.911-7.624 1.184-5.394-2.229-10.727-7.623-11.911l-88.237-19.369c-1.414-.311-2.876-.311-4.289 0l-246 54c-4.587 1.007-7.856 5.071-7.856 9.767v358c0 4.696 3.269 8.761 7.856 9.768l246 54c.706.155 1.425.232 2.144.232s1.438-.077 2.145-.232l246-54c4.587-1.007 7.855-5.071 7.855-9.768zm-166 317.556v-181.518l66 14.487v152.545zm78.145-184.841-86-18.878c-2.958-.652-6.053.076-8.412 1.976-2.359 1.897-3.732 4.764-3.732 7.792v198.343l-60 13.171v-159.599l27.856 6.115c.71.156 1.429.232 2.144.232 2.259 0 4.475-.766 6.268-2.208 2.359-1.897 3.732-4.764 3.732-7.792v-57.334c0-4.696-3.269-8.761-7.856-9.768l-32.145-7.055v-19.61l226 49.61v19.61l-27.856-6.115c-2.955-.65-6.051.076-8.411 1.976-2.359 1.897-3.732 4.764-3.732 7.792v57.334c0 4.696 3.269 8.761 7.856 9.768l32.143 7.055v60.379l-60 13.171v-156.197c0-4.697-3.269-8.761-7.855-9.768zm-178.145 22.329-20 4.39v-36.857l20-4.39zm20-36.857 20 4.39v36.857l-20-4.39zm-20-60.563-226 49.61v-36.857l226-49.609zm-226 110.172 20-4.39v36.857l-20 4.39zm0 57.334 32.144-7.056c4.587-1.007 7.856-5.071 7.856-9.768v-57.334c0-3.028-1.373-5.895-3.732-7.792-2.361-1.898-5.455-2.626-8.412-1.976l-27.856 6.116v-19.61l226-49.609v19.609l-32.144 7.056c-4.587 1.007-7.856 5.071-7.856 9.768v57.334c0 3.028 1.373 5.895 3.732 7.792 1.793 1.442 4.009 2.208 6.268 2.208.714 0 1.434-.076 2.144-.232l27.856-6.116v159.598l-226-49.609zm472-20.476-20-4.39v-36.857l20 4.39zm0-97.42-226-49.609v-36.858l226 49.609zm-246-148.8v41.856l-226 49.61v-41.857zm-226 347.551 226 49.61v43.972l-226-49.61zm246 93.582v-43.972l226-49.61v43.972z" fill="#3d3f4a" data-original="#000000" class=""/><path d="m182.268 192.813c-2.361-1.898-5.456-2.625-8.412-1.976l-86 18.878c-4.587 1.007-7.856 5.071-7.856 9.768v57.044c0 3.028 1.373 5.895 3.732 7.792 1.793 1.442 4.009 2.208 6.268 2.208.714 0 1.434-.076 2.144-.232l86-18.878c4.587-1.007 7.856-5.071 7.856-9.768v-57.044c0-3.029-1.373-5.895-3.732-7.792zm-16.268 56.793-66 14.487v-36.567l66-14.487z" fill="#3d3f4a" data-original="#000000" class=""/><circle cx="388.189" cy="52.011" r="10" fill="#3d3f4a" data-original="#000000" class=""/></g></g></g></svg>
