<svg width="56" height="56" viewBox="0 0 56 56" fill="none" xmlns="http://www.w3.org/2000/svg">
<g clip-path="url(#clip0_121_1269)">
<path d="M17.1937 50.2363C12.7414 48.0712 9.07307 44.6511 6.58537 40.3458C4.67823 37.0453 3.57749 33.4007 3.33337 29.6403H6.06038C6.96643 29.6403 7.70098 28.9058 7.70098 27.9997C7.70098 27.0937 6.96643 26.3591 6.06038 26.3591H3.33785C3.34934 26.1879 3.36225 26.0167 3.37723 25.8454C3.76047 21.4645 5.30122 17.2655 7.833 13.7023C9.55661 11.2764 11.7089 9.18277 14.1633 7.52161L13.7989 8.88177C13.5644 9.75698 14.0837 10.6566 14.9589 10.8911C15.1012 10.9292 15.2439 10.9474 15.3846 10.9474C16.109 10.9473 16.7719 10.464 16.9682 9.73095L18.3464 4.58711C18.5809 3.71191 18.0615 2.81231 17.1863 2.57781L12.0428 1.19949C11.1672 0.964663 10.268 1.4843 10.0334 2.3595C9.79877 3.23471 10.3182 4.13442 11.1934 4.36891L12.4629 4.70906C9.62628 6.6044 7.14197 9.00952 5.15805 11.8018C2.28874 15.8403 0.542596 20.5976 0.108493 25.5595C-0.395282 31.3184 0.861857 36.9991 3.74429 41.9875C6.56076 46.8617 10.7153 50.7346 15.7587 53.1871C15.9899 53.2996 16.2343 53.3527 16.475 53.3527C17.0833 53.3527 17.6678 53.013 17.9516 52.4293C18.3478 51.6143 18.0086 50.6326 17.1937 50.2363Z" fill="white"/>
<path d="M52.2556 14.0121C49.4391 9.13792 45.2845 5.265 40.2411 2.81252C39.4264 2.41637 38.4444 2.75553 38.0483 3.57037C37.652 4.3852 37.9913 5.36705 38.8061 5.7632C43.2585 7.92846 46.9268 11.3485 49.4145 15.6537C51.3216 18.9542 52.4225 22.5988 52.6665 26.3592H49.9395C49.0334 26.3592 48.2989 27.0938 48.2989 27.9998C48.2989 28.9059 49.0334 29.6404 49.9395 29.6404H52.662C52.6505 29.8116 52.6376 29.9829 52.6226 30.1541C52.2362 34.5715 50.6745 38.7999 48.1062 42.3823C46.3431 44.8416 44.1402 46.9536 41.629 48.6164L42.003 47.2201C42.2375 46.3449 41.7182 45.4453 40.843 45.2108C39.9677 44.9761 39.0682 45.4958 38.8337 46.371L37.4555 51.5148C37.221 52.39 37.7403 53.2896 38.6155 53.5241L43.759 54.9024C43.9012 54.9406 44.0441 54.9587 44.1847 54.9587C44.9091 54.9587 45.572 54.4753 45.7683 53.7423C46.0028 52.8671 45.4835 51.9675 44.6083 51.733L43.37 51.4012C46.2425 49.5114 48.7602 47.1016 50.7728 44.2941C53.6837 40.2338 55.4535 35.4431 55.8913 30.44C56.3953 24.6812 55.138 19.0005 52.2556 14.0121Z" fill="white"/>
<path d="M21.5835 24.5404C21.5835 21.9024 19.2802 20.4653 16.9965 20.4653C14.7523 20.4653 12.5475 21.8434 12.5475 24.2452C12.5475 25.4854 13.1381 25.8398 13.9256 25.8398C14.9296 25.8398 15.5398 25.2886 15.5398 24.7177C15.5398 23.635 16.2289 23.2411 17.0162 23.2411C18.1187 23.2411 18.5124 24.0089 18.5124 24.6389C18.5124 27.1391 12.3111 28.9108 12.3111 32.0016V33.9113C12.3111 34.4822 13.0986 34.8563 13.6498 34.8563H20.6582C21.1503 34.8563 21.5835 34.2066 21.5835 33.498C21.5835 32.7892 21.1503 32.1789 20.6582 32.1789H15.5003V32.0017C15.5003 30.2101 21.5835 28.8124 21.5835 24.5404Z" fill="white"/>
<path d="M31.9383 28.9896H31.0917V27.6115C31.0917 26.9618 30.3239 26.6862 29.5561 26.6862C28.7883 26.6862 28.0206 26.9618 28.0206 27.6115V28.9896H26.3275L29.8119 22.0009C29.871 21.8631 29.9104 21.745 29.9104 21.6269C29.9104 20.9181 28.9063 20.4653 28.3748 20.4653C27.8826 20.4653 27.3905 20.6819 27.0951 21.2528L22.5476 30.1708C22.4294 30.3874 22.3901 30.6039 22.3901 30.7614C22.3901 31.4505 22.8429 31.8245 23.4137 31.8245H28.0204V33.9113C28.0204 34.5413 28.7882 34.8563 29.5559 34.8563C30.3237 34.8563 31.0915 34.5413 31.0915 33.9113V31.8245H31.9381C32.4105 31.8245 32.883 31.1158 32.883 30.4071C32.8833 29.6983 32.5683 28.9896 31.9383 28.9896Z" fill="white"/>
<path d="M37.5683 29.5017C37.5683 28.5764 38.2376 28.0251 38.8873 28.0251C39.655 28.0251 40.3047 28.7535 40.3047 29.5017V33.9114C40.3047 34.5414 41.1119 34.8564 41.8206 34.8564C42.5884 34.8564 43.3561 34.5414 43.3561 33.9114V29.5017C43.3561 27.2377 41.8009 25.3676 40.0094 25.3676C38.7888 25.3676 37.9226 26.096 37.5683 26.8637V21.0562C37.5683 20.5049 36.8595 20.1309 36.0328 20.1309C35.1468 20.1309 34.517 20.5049 34.517 21.0562V33.9114C34.517 34.3839 35.147 34.8564 36.0328 34.8564C36.8596 34.8564 37.5683 34.3839 37.5683 33.9114V29.5017Z" fill="white"/>
<path d="M27.9999 7.69956C28.906 7.69956 29.6406 6.965 29.6406 6.05894V1.64062C29.6406 0.734562 28.906 0 27.9999 0C27.0939 0 26.3593 0.734562 26.3593 1.64062V6.05894C26.3593 6.965 27.0939 7.69956 27.9999 7.69956Z" fill="white"/>
<path d="M27.9999 48.3003C27.0939 48.3003 26.3593 49.0349 26.3593 49.9409V54.3592C26.3593 55.2653 27.0939 55.9999 27.9999 55.9999C28.906 55.9999 29.6406 55.2653 29.6406 54.3592V49.9409C29.6406 49.0349 28.9061 48.3003 27.9999 48.3003Z" fill="white"/>
</g>
<defs>
<clipPath id="clip0_121_1269">
<rect width="56" height="56" fill="white"/>
</clipPath>
</defs>
</svg>
