<svg width="32" height="32" viewBox="0 0 32 32" fill="none" xmlns="http://www.w3.org/2000/svg">
<g clip-path="url(#clip0_424_4498)">
<path d="M27.1639 20.9322C26.7064 20.9322 26.3342 20.56 26.3342 20.1024V14.2412C26.3342 9.61365 23.277 5.68685 19.0762 4.37429C19.2025 4.02261 19.2692 3.64925 19.2692 3.26936C19.2692 1.46666 17.8026 0 15.9997 0C14.1969 0 12.7303 1.46666 12.7303 3.26943C12.7303 3.65227 12.7957 4.02506 12.9212 4.37504C8.72153 5.68823 5.66527 9.61447 5.66527 14.2412V20.1025C5.66527 20.56 5.29304 20.9323 4.83557 20.9323C3.00598 20.9323 1.51758 22.4207 1.51758 24.2502C1.51758 26.0798 3.00598 27.5682 4.83557 27.5682H12.5758C12.5011 27.8566 12.4619 28.1564 12.4619 28.4623C12.4619 30.413 14.049 32.0001 15.9997 32.0001C17.9505 32.0001 19.5375 30.413 19.5375 28.4623C19.5375 28.1564 19.4984 27.8567 19.4236 27.5682H27.1639C28.9935 27.5682 30.4818 26.0798 30.4818 24.2502C30.482 22.4207 28.9935 20.9322 27.1639 20.9322ZM14.615 3.26943C14.615 2.50588 15.2362 1.88468 15.9997 1.88468C16.7633 1.88468 17.3845 2.50588 17.3845 3.26943C17.3845 3.51977 17.3168 3.76346 17.1908 3.97581C16.7999 3.93076 16.4026 3.90676 15.9997 3.90676C15.5974 3.90676 15.2005 3.9307 14.8099 3.97568C14.6838 3.76397 14.615 3.52222 14.615 3.26943ZM17.6529 28.4622C17.6529 29.3738 16.9113 30.1153 15.9998 30.1153C15.0883 30.1153 14.3467 29.3738 14.3467 28.4622C14.3467 28.1402 14.4385 27.8324 14.6091 27.5682H17.3905C17.5611 27.8324 17.6529 28.1402 17.6529 28.4622ZM27.1639 25.6835H4.83557C4.04525 25.6835 3.40226 25.0405 3.40226 24.2502C3.40226 23.4599 4.04525 22.8169 4.83557 22.8169C6.33226 22.8169 7.54995 21.5992 7.54995 20.1024V14.2412C7.54995 9.58193 11.3405 5.79138 15.9997 5.79138C20.659 5.79138 24.4495 9.58193 24.4495 14.2412V20.1024C24.4495 21.5992 25.6672 22.8169 27.1639 22.8169C27.9542 22.8169 28.5972 23.4599 28.5972 24.2502C28.5973 25.0405 27.9542 25.6835 27.1639 25.6835Z" fill="#1F1F1F"/>
</g>
<defs>
<clipPath id="clip0_424_4498">
<rect width="32" height="32" fill="white"/>
</clipPath>
</defs>
</svg>
