<svg width="24" height="24" viewBox="0 0 24 24" fill="none" xmlns="http://www.w3.org/2000/svg">
<g clip-path="url(#clip0_232_3460)">
<path d="M22.7251 16.9147L20.4445 14.52C20.3118 14.3806 20.1277 14.3018 19.9353 14.3018H16.1242V13.4626C17.5037 12.799 18.4586 11.3834 18.4586 9.74794V7.62961C19.2053 7.11487 19.6957 6.25378 19.6957 5.28028V3.31561C19.6957 2.9273 19.3808 2.61248 18.9925 2.61248H13.249C11.6001 2.61248 10.2585 3.95405 10.2585 5.60302V9.74789C10.2585 11.3833 11.2134 12.799 12.5929 13.4625V14.3017H5.96733V11.0849C5.96733 10.2747 5.46455 9.58003 4.75552 9.29831V6.86189H5.78133C6.71353 6.86189 7.47192 6.1035 7.47192 5.1713V1.69059C7.47192 0.758391 6.71353 0 5.78133 0H2.32341C1.3912 0 0.632812 0.758391 0.632812 1.69059V5.1713C0.632812 6.1035 1.3912 6.86189 2.32341 6.86189H3.34922V9.29831C2.64019 9.58003 2.13741 10.2747 2.13741 11.0849V15.077C2.13741 16.7677 3.50784 18.1431 5.1923 18.1431H8.54541V23.2969C8.54541 23.6852 8.86022 24 9.24853 24H22.6641C23.0524 24 23.3672 23.6852 23.3672 23.2969V18.5213C23.3672 17.92 23.1392 17.3494 22.7251 16.9147ZM2.03906 5.1713V1.69059C2.03906 1.5338 2.16661 1.40625 2.32341 1.40625H5.78133C5.93813 1.40625 6.06567 1.5338 6.06567 1.69059V5.1713C6.06567 5.32809 5.93813 5.45564 5.78133 5.45564H2.32341C2.16661 5.45564 2.03906 5.32809 2.03906 5.1713ZM11.6648 5.60302C11.6648 4.72945 12.3755 4.01873 13.249 4.01873H18.2895V5.28023C18.2895 6.07716 17.6411 6.72553 16.8442 6.72553H11.6648V5.60302ZM11.6648 9.74794V8.13178H16.8442C16.9142 8.13178 16.9836 8.12925 17.0524 8.12423V9.74789C17.0524 11.2422 15.8439 12.4579 14.3586 12.4579C12.8732 12.4579 11.6648 11.2422 11.6648 9.74794ZM14.3586 13.8642C14.4796 13.8642 14.5995 13.8589 14.718 13.8485V15.0049C14.718 15.2058 14.5568 15.3693 14.3586 15.3693C14.1604 15.3693 13.9992 15.2058 13.9992 15.0049V13.8485C14.1176 13.8588 14.2375 13.8642 14.3586 13.8642ZM4.05239 10.5705C4.33289 10.5705 4.56108 10.8012 4.56108 11.0849V11.7204H3.5437V11.0849C3.5437 10.8013 3.77189 10.5705 4.05239 10.5705ZM9.24858 16.7369H5.19234C4.28325 16.7369 3.5437 15.9923 3.5437 15.0771V13.1267H4.56108V15.0049C4.56108 15.3932 4.87589 15.708 5.2642 15.708H12.7381C12.8566 15.9816 13.0421 16.2195 13.2736 16.401L12.2628 17.8542C12.1566 18.0068 12.1152 18.1954 12.1477 18.3785L12.8948 22.5938H9.9517V17.44C9.9517 17.0517 9.63689 16.7369 9.24858 16.7369ZM14.323 22.5938L13.583 18.4188L14.3586 17.3038L15.1341 18.4188L14.3941 22.5938H14.323ZM21.9609 22.5938H20.1368V18.9674C20.1368 18.5791 19.822 18.2643 19.4337 18.2643C19.0454 18.2643 18.7306 18.5791 18.7306 18.9674V22.5938H15.8222L16.5694 18.3784C16.6019 18.1953 16.5605 18.0068 16.4543 17.8542L15.4435 16.4009C15.675 16.2195 15.8605 15.9816 15.979 15.708H19.634L21.7068 17.8845C21.8707 18.0566 21.9609 18.2827 21.9609 18.5212V22.5938Z" fill="#4F4F4F"/>
</g>
<defs>
<clipPath id="clip0_232_3460">
<rect width="24" height="24" fill="white"/>
</clipPath>
</defs>
</svg>
