<svg width="24" height="24" viewBox="0 0 24 24" fill="none" xmlns="http://www.w3.org/2000/svg">
<g clip-path="url(#clip0_178_2355)">
<path d="M22.6069 22.5938H20.752V0.703125C20.752 0.314812 20.4372 0 20.0488 0H3.95089C3.56257 0 3.24776 0.314812 3.24776 0.703125V22.5938H1.39282C1.00451 22.5938 0.689697 22.9086 0.689697 23.2969C0.689697 23.6852 1.00451 24 1.39282 24H22.607C22.9953 24 23.3101 23.6852 23.3101 23.2969C23.3101 22.9086 22.9953 22.5938 22.6069 22.5938ZM9.60312 22.5938V17.8003H14.3966V22.5938H9.60312ZM15.8029 22.5938V17.0971C15.8029 16.7088 15.488 16.394 15.0997 16.394H8.89999C8.51168 16.394 8.19687 16.7088 8.19687 17.0971V22.5938H4.65401V1.40625H19.3457V22.5938H15.8029Z" fill="#808080"/>
<path d="M10.4882 3.10823H7.04248C6.65417 3.10823 6.33936 3.42304 6.33936 3.81136V7.25704C6.33936 7.64536 6.65417 7.96017 7.04248 7.96017H10.4882C10.8765 7.96017 11.1913 7.64536 11.1913 7.25704V3.81136C11.1913 3.42304 10.8765 3.10823 10.4882 3.10823ZM9.78504 6.55392H7.74561V4.51448H9.78504V6.55392Z" fill="#808080"/>
<path d="M16.9574 3.10823H13.5117C13.1234 3.10823 12.8086 3.42304 12.8086 3.81136V7.25704C12.8086 7.64536 13.1234 7.96017 13.5117 7.96017H16.9574C17.3457 7.96017 17.6605 7.64536 17.6605 7.25704V3.81136C17.6605 3.42304 17.3457 3.10823 16.9574 3.10823ZM16.2543 6.55392H14.2148V4.51448H16.2543V6.55392Z" fill="#808080"/>
<path d="M10.4882 9.65409H7.04248C6.65417 9.65409 6.33936 9.9689 6.33936 10.3572V13.8029C6.33936 14.1912 6.65417 14.506 7.04248 14.506H10.4882C10.8765 14.506 11.1913 14.1912 11.1913 13.8029V10.3572C11.1913 9.9689 10.8765 9.65409 10.4882 9.65409ZM9.78504 13.0998H7.74561V11.0603H9.78504V13.0998Z" fill="#808080"/>
<path d="M16.9574 9.65409H13.5117C13.1234 9.65409 12.8086 9.9689 12.8086 10.3572V13.8029C12.8086 14.1912 13.1234 14.506 13.5117 14.506H16.9574C17.3457 14.506 17.6605 14.1912 17.6605 13.8029V10.3572C17.6605 9.9689 17.3457 9.65409 16.9574 9.65409ZM16.2543 13.0998H14.2148V11.0603H16.2543V13.0998Z" fill="#808080"/>
</g>
<defs>
<clipPath id="clip0_178_2355">
<rect width="24" height="24" fill="white"/>
</clipPath>
</defs>
</svg>
