<svg width="24" height="24" viewBox="0 0 24 24" fill="none" xmlns="http://www.w3.org/2000/svg">
<g clip-path="url(#clip0_178_2350)">
<path d="M12 16.1719C12.3883 16.1719 12.7031 15.8571 12.7031 15.4688C12.7031 15.0804 12.3883 14.7656 12 14.7656C11.6117 14.7656 11.2969 15.0804 11.2969 15.4688C11.2969 15.8571 11.6117 16.1719 12 16.1719Z" fill="#808080"/>
<path d="M14.8125 16.1719C15.2008 16.1719 15.5156 15.8571 15.5156 15.4688C15.5156 15.0804 15.2008 14.7656 14.8125 14.7656C14.4242 14.7656 14.1094 15.0804 14.1094 15.4688C14.1094 15.8571 14.4242 16.1719 14.8125 16.1719Z" fill="#808080"/>
<path d="M12 13.3594C12.3883 13.3594 12.7031 13.0446 12.7031 12.6562C12.7031 12.2679 12.3883 11.9531 12 11.9531C11.6117 11.9531 11.2969 12.2679 11.2969 12.6562C11.2969 13.0446 11.6117 13.3594 12 13.3594Z" fill="#808080"/>
<path d="M14.8125 13.3594C15.2008 13.3594 15.5156 13.0446 15.5156 12.6562C15.5156 12.2679 15.2008 11.9531 14.8125 11.9531C14.4242 11.9531 14.1094 12.2679 14.1094 12.6562C14.1094 13.0446 14.4242 13.3594 14.8125 13.3594Z" fill="#808080"/>
<path d="M12 10.5469C12.3883 10.5469 12.7031 10.2321 12.7031 9.84375C12.7031 9.45542 12.3883 9.14062 12 9.14062C11.6117 9.14062 11.2969 9.45542 11.2969 9.84375C11.2969 10.2321 11.6117 10.5469 12 10.5469Z" fill="#808080"/>
<path d="M14.8125 10.5469C15.2008 10.5469 15.5156 10.2321 15.5156 9.84375C15.5156 9.45542 15.2008 9.14062 14.8125 9.14062C14.4242 9.14062 14.1094 9.45542 14.1094 9.84375C14.1094 10.2321 14.4242 10.5469 14.8125 10.5469Z" fill="#808080"/>
<path d="M14.8125 7.73438C15.2008 7.73438 15.5156 7.41958 15.5156 7.03125C15.5156 6.64292 15.2008 6.32812 14.8125 6.32812C14.4242 6.32812 14.1094 6.64292 14.1094 7.03125C14.1094 7.41958 14.4242 7.73438 14.8125 7.73438Z" fill="#808080"/>
<path d="M12 7.73438C12.3883 7.73438 12.7031 7.41958 12.7031 7.03125C12.7031 6.64292 12.3883 6.32812 12 6.32812C11.6117 6.32812 11.2969 6.64292 11.2969 7.03125C11.2969 7.41958 11.6117 7.73438 12 7.73438Z" fill="#808080"/>
<path d="M9.1875 7.73438C9.57583 7.73438 9.89062 7.41958 9.89062 7.03125C9.89062 6.64292 9.57583 6.32812 9.1875 6.32812C8.79917 6.32812 8.48438 6.64292 8.48438 7.03125C8.48438 7.41958 8.79917 7.73438 9.1875 7.73438Z" fill="#808080"/>
<path d="M4.26562 3.04688C4.65395 3.04688 4.96875 2.73208 4.96875 2.34375C4.96875 1.95542 4.65395 1.64062 4.26562 1.64062C3.8773 1.64062 3.5625 1.95542 3.5625 2.34375C3.5625 2.73208 3.8773 3.04688 4.26562 3.04688Z" fill="#808080"/>
<path d="M23.25 11.3438H18.3281V6.09375H21.6094C22.9017 6.09375 23.9531 5.04234 23.9531 3.75C23.9531 2.45766 22.9017 1.40625 21.6094 1.40625C21.5166 1.40625 21.4243 1.41197 21.3325 1.42336C20.9086 0.566859 20.0338 0 19.0312 0C17.8516 0 16.8546 0.796172 16.5493 1.8795C16.3524 1.8923 16.163 1.93266 15.9844 1.99598V1.07812C15.9844 0.689812 15.6696 0.375 15.2812 0.375H8.71875C8.33044 0.375 8.01562 0.689812 8.01562 1.07812V3.28125H6.375C5.98669 3.28125 5.67188 3.59606 5.67188 3.98438V6.93623C5.3197 6.75666 4.92122 6.65625 4.5 6.65625C3.32039 6.65625 2.32331 7.45242 2.01806 8.53575C0.919078 8.60714 0.046875 9.52397 0.046875 10.6406C0.046875 10.9659 0.120984 11.2741 0.253031 11.5495C0.125672 11.6768 0.046875 11.8526 0.046875 12.0469V23.2969C0.046875 23.6852 0.361687 24 0.75 24H23.25C23.6383 24 23.9531 23.6852 23.9531 23.2969V12.0469C23.9531 11.6586 23.6383 11.3438 23.25 11.3438ZM16.6875 3.28125C16.761 3.28125 16.8388 3.29653 16.9252 3.32794C17.1464 3.40828 17.3932 3.37261 17.5826 3.23288C17.772 3.09319 17.8789 2.86795 17.8675 2.63287C17.8658 2.59884 17.8626 2.57002 17.8597 2.54845C17.8755 1.91592 18.395 1.40625 19.0312 1.40625C19.6087 1.40625 20.0929 1.82311 20.1824 2.39742C20.217 2.61942 20.3557 2.81156 20.5555 2.91436C20.7553 3.01711 20.9922 3.01828 21.193 2.91736C21.3313 2.8478 21.4715 2.8125 21.6094 2.8125C22.1263 2.8125 22.5469 3.23306 22.5469 3.75C22.5469 4.26694 22.1263 4.6875 21.6094 4.6875H16.6875C16.2998 4.6875 15.9844 4.37208 15.9844 3.98438C15.9844 3.59667 16.2998 3.28125 16.6875 3.28125ZM9.42188 1.78125H14.5781V3.28125H9.42188V1.78125ZM2.15625 9.9375C2.2297 9.9375 2.30752 9.95278 2.394 9.98419C2.61516 10.0645 2.86195 10.0289 3.05133 9.88912C3.24075 9.74944 3.34767 9.5242 3.33623 9.28913C3.33459 9.25509 3.33131 9.22627 3.32845 9.2047C3.3443 8.57217 3.86372 8.0625 4.5 8.0625C5.0775 8.0625 5.56163 8.47936 5.65116 9.05367C5.68575 9.27567 5.82441 9.46781 6.02423 9.57061C6.22397 9.67336 6.46088 9.67448 6.66173 9.57361C6.80011 9.50405 6.94022 9.46875 7.07817 9.46875C7.59511 9.46875 8.01567 9.88931 8.01567 10.4062C8.01567 10.9232 7.59511 11.3438 7.07817 11.3438H2.15625C1.76855 11.3438 1.45312 11.0283 1.45312 10.6406C1.45312 10.2529 1.76855 9.9375 2.15625 9.9375ZM5.67188 22.5938H4.26562V21.1875H5.67188V22.5938ZM8.48438 22.5938H7.07812V20.4844C7.07812 20.0961 6.76331 19.7812 6.375 19.7812H3.5625C3.17419 19.7812 2.85938 20.0961 2.85938 20.4844V22.5938H1.45312V12.75H8.48438V22.5938ZM11.2969 22.5938H9.89062V18.9844H11.2969V22.5938ZM14.1094 22.5938H12.7031V18.9844H14.1094V22.5938ZM16.9219 22.5938H15.5156V18.2812C15.5156 17.8929 15.2008 17.5781 14.8125 17.5781H9.89062V12.0469C9.89062 11.6711 9.59564 11.3651 9.22472 11.3456C9.35119 11.0578 9.42188 10.7402 9.42188 10.4062C9.42188 9.11391 8.37047 8.0625 7.07812 8.0625V4.6875H14.6991C14.9893 5.50589 15.7709 6.09375 16.6875 6.09375H16.9219V22.5938ZM22.5469 22.5938H21.1406V20.4844C21.1406 20.0961 20.8258 19.7812 20.4375 19.7812C20.0492 19.7812 19.7344 20.0961 19.7344 20.4844V22.5938H18.3281V12.75H22.5469V22.5938Z" fill="#808080"/>
<path d="M20.4375 15.5625C20.8258 15.5625 21.1406 15.2477 21.1406 14.8594C21.1406 14.471 20.8258 14.1562 20.4375 14.1562C20.0492 14.1562 19.7344 14.471 19.7344 14.8594C19.7344 15.2477 20.0492 15.5625 20.4375 15.5625Z" fill="#808080"/>
<path d="M20.4375 18.375C20.8258 18.375 21.1406 18.0602 21.1406 17.6719C21.1406 17.2835 20.8258 16.9688 20.4375 16.9688C20.0492 16.9688 19.7344 17.2835 19.7344 17.6719C19.7344 18.0602 20.0492 18.375 20.4375 18.375Z" fill="#808080"/>
<path d="M3.5625 18.375C3.95083 18.375 4.26562 18.0602 4.26562 17.6719C4.26562 17.2835 3.95083 16.9688 3.5625 16.9688C3.17417 16.9688 2.85938 17.2835 2.85938 17.6719C2.85938 18.0602 3.17417 18.375 3.5625 18.375Z" fill="#808080"/>
<path d="M6.375 18.375C6.76333 18.375 7.07812 18.0602 7.07812 17.6719C7.07812 17.2835 6.76333 16.9688 6.375 16.9688C5.98667 16.9688 5.67188 17.2835 5.67188 17.6719C5.67188 18.0602 5.98667 18.375 6.375 18.375Z" fill="#808080"/>
<path d="M3.5625 15.5625C3.95083 15.5625 4.26562 15.2477 4.26562 14.8594C4.26562 14.471 3.95083 14.1562 3.5625 14.1562C3.17417 14.1562 2.85938 14.471 2.85938 14.8594C2.85938 15.2477 3.17417 15.5625 3.5625 15.5625Z" fill="#808080"/>
<path d="M6.375 15.5625C6.76333 15.5625 7.07812 15.2477 7.07812 14.8594C7.07812 14.471 6.76333 14.1562 6.375 14.1562C5.98667 14.1562 5.67188 14.471 5.67188 14.8594C5.67188 15.2477 5.98667 15.5625 6.375 15.5625Z" fill="#808080"/>
<path d="M0.75 3.04688H2.15625C2.54456 3.04688 2.85938 2.73206 2.85938 2.34375C2.85938 1.95544 2.54456 1.64062 2.15625 1.64062H0.75C0.361687 1.64062 0.046875 1.95544 0.046875 2.34375C0.046875 2.73206 0.361687 3.04688 0.75 3.04688Z" fill="#808080"/>
<path d="M23.25 7.73438H20.4375C20.0492 7.73438 19.7344 8.04919 19.7344 8.4375C19.7344 8.82581 20.0492 9.14062 20.4375 9.14062H23.25C23.6383 9.14062 23.9531 8.82581 23.9531 8.4375C23.9531 8.04919 23.6383 7.73438 23.25 7.73438Z" fill="#808080"/>
</g>
<defs>
<clipPath id="clip0_178_2350">
<rect width="24" height="24" fill="white"/>
</clipPath>
</defs>
</svg>
