<svg width="32" height="32" viewBox="0 0 32 32" fill="none" xmlns="http://www.w3.org/2000/svg">
<g clip-path="url(#clip0_121_1316)">
<path d="M18.1605 31.9375H13.026C12.1683 31.9375 11.4707 31.2412 11.4707 30.3853V18.8267H8.47508C7.61745 18.8267 6.9198 18.1301 6.9198 17.2744V12.3215C6.9198 11.4656 7.61745 10.7693 8.47508 10.7693H11.4707V8.28906C11.4707 5.82983 12.2444 3.73755 13.708 2.23877C15.1781 0.733154 17.2327 -0.0625 19.6495 -0.0625L23.5653 -0.0561524C24.4215 -0.0546875 25.1179 0.641602 25.1179 1.49609V6.09473C25.1179 6.95068 24.4205 7.64697 23.5631 7.64697L20.9266 7.64795C20.1226 7.64795 19.9178 7.80884 19.8741 7.85816C19.8019 7.93994 19.716 8.17114 19.716 8.80957V10.769H23.365C23.6397 10.769 23.9059 10.8367 24.1346 10.9641C24.628 11.2393 24.9347 11.7595 24.9347 12.3218L24.9328 17.2747C24.9328 18.1301 24.2351 18.8264 23.3775 18.8264H19.716V30.3853C19.716 31.2412 19.0181 31.9375 18.1605 31.9375ZM13.3503 30.0615H17.8361V17.9868C17.8361 17.4153 18.3021 16.9504 18.8745 16.9504H23.0531L23.0548 12.6453H18.8743C18.3019 12.6453 17.8361 12.1804 17.8361 11.6089V8.80957C17.8361 8.07666 17.9107 7.24317 18.4651 6.6167C19.1348 5.85938 20.1903 5.77197 20.9262 5.77197L23.2383 5.771V1.81934L19.648 1.81348C15.764 1.81348 13.3503 4.29492 13.3503 8.28906V11.6089C13.3503 12.1802 12.8846 12.6453 12.3122 12.6453H8.79945V16.9504H12.3122C12.8846 16.9504 13.3503 17.4153 13.3503 17.9868V30.0615ZM23.5617 1.81982H23.5619H23.5617Z" fill="white"/>
</g>
<defs>
<clipPath id="clip0_121_1316">
<rect width="32" height="32" fill="white"/>
</clipPath>
</defs>
</svg>
