<svg width="278" height="241" viewBox="0 0 278 241" fill="none" xmlns="http://www.w3.org/2000/svg">
<g clip-path="url(#clip0_378_4154)">
<path d="M203.135 176.415C200.283 174.628 197.059 173.519 193.712 173.173C192.173 173.011 190.472 173.06 189.252 173.989C189.11 174.073 188.993 174.192 188.913 174.336C188.832 174.479 188.791 174.641 188.793 174.805C188.869 175.032 189.025 175.223 189.23 175.345C193.064 178.274 198.864 178.641 203.135 176.426" fill="#E0E0E0"/>
<path d="M202.892 176.15C200.71 174.547 198.673 172.753 196.806 170.791C194.931 168.817 193.613 166.38 192.988 163.729C192.826 162.93 192.778 162.006 193.291 161.368C198.151 165.15 201.931 170.061 202.892 176.15Z" fill="#E0E0E0"/>
<path d="M203.081 176.383C202.635 173.732 202.673 171.023 203.194 168.386C203.805 165.777 205.225 163.275 207.455 161.79C208.292 163.751 207.93 166.009 207.342 168.057C206.427 171.23 205 174.232 203.119 176.945" fill="#E0E0E0"/>
<path d="M207.86 184.909C204.976 185.26 202.46 186.778 200.3 188.734C198.134 190.707 196.626 193.299 195.98 196.157C198.815 195.984 201.218 193.996 202.957 191.743C204.696 189.49 205.905 187.048 207.817 184.952" fill="#E0E0E0"/>
<path d="M208.87 186.254C207.736 183.366 207.339 180.24 207.716 177.16C208.093 174.08 209.232 171.142 211.03 168.613C212.677 174.47 212.072 181.078 208.87 186.254Z" fill="#E0E0E0"/>
<path d="M215.155 193.758C212.518 193.598 209.891 194.215 207.601 195.533C205.31 196.852 203.457 198.814 202.271 201.177C202.109 201.495 201.969 201.901 202.185 202.187C202.295 202.296 202.431 202.376 202.58 202.42C202.728 202.464 202.886 202.471 203.038 202.441C205.576 202.273 207.828 200.75 209.685 199.005C211.543 197.259 213.163 195.255 215.215 193.748" fill="#E0E0E0"/>
<path d="M214.956 193.348C213.604 188.99 213.521 184.336 214.718 179.932C215.188 178.209 215.982 176.388 217.575 175.583C217.639 175.54 217.712 175.511 217.788 175.497C217.864 175.483 217.942 175.485 218.017 175.502C218.146 175.572 218.245 175.688 218.293 175.826C218.829 177.034 219.061 178.355 218.968 179.673C218.871 180.986 218.669 182.289 218.363 183.569C217.861 185.951 217.591 188.507 216.289 190.56C215.981 191.056 215.703 191.57 215.458 192.1C215.209 192.64 215.209 192.802 214.983 193.218" fill="#E0E0E0"/>
<path d="M231.588 195.828C230.356 191.138 231.663 185.454 234.617 181.607C234.838 181.326 235.125 181.018 235.481 181.067C236.021 181.116 236.167 181.84 236.14 182.385C235.918 187.209 234.341 191.872 231.588 195.839" fill="#E0E0E0"/>
<path d="M233.089 196.854C238.786 198.335 245.314 196.898 250.056 193.402C247.218 191.974 243.974 191.575 240.876 192.273C237.808 192.975 235.006 194.353 233.094 196.854" fill="#E0E0E0"/>
<path d="M234.352 193.731C237.544 188.528 243.657 185.13 249.748 184.822C249.046 187.302 247.01 189.231 244.715 190.392C242.42 191.554 239.855 192.067 237.322 192.554C236.34 192.743 234.99 192.953 234.352 193.726" fill="#E0E0E0"/>
<path d="M231.906 178.576C232.77 175.616 233.64 172.633 233.877 169.553C234.115 166.474 233.672 163.27 232.079 160.633C229.098 166.398 228.796 173.141 231.814 178.89" fill="#E0E0E0"/>
<path d="M241.934 173.503C245.422 167.171 252.529 162.108 259.722 161.401C256.946 168.311 249.381 173.654 241.934 173.503Z" fill="#E0E0E0"/>
<path d="M239.747 174.746C244.942 175.54 249.37 178.857 254.224 180.873C255.242 181.363 256.37 181.579 257.497 181.499C258.022 181.497 258.534 181.332 258.963 181.028C259.392 180.724 259.717 180.296 259.894 179.801C260.071 179.306 260.091 178.768 259.952 178.261C259.813 177.754 259.521 177.302 259.117 176.966C258.43 176.33 257.622 175.84 256.741 175.524C251.449 173.319 245.779 173.265 240.206 174.6" fill="#E0E0E0"/>
<path d="M236.739 178.393C237.916 178.728 238.316 179.338 239.25 180.132C242.426 182.835 246.183 184.767 250.228 185.778C250.644 185.881 251.195 185.924 251.406 185.541C251.616 185.157 251.357 184.811 251.119 184.514C249.355 182.445 247.066 180.891 244.494 180.014C241.956 179.068 239.763 177.933 236.739 178.177" fill="#E0E0E0"/>
<path d="M233.343 156.37C235.476 158.331 237.995 159.824 240.738 160.754C243.481 161.685 246.388 162.032 249.273 161.773C249.54 161.776 249.799 161.682 250.002 161.509C250.401 161.076 249.921 160.401 249.462 160.039C244.78 156.381 239.104 154.868 233.353 156.349" fill="#E0E0E0"/>
<path d="M237.366 154.917C240.187 152.842 243.459 151.463 246.914 150.893C250.369 150.323 253.91 150.578 257.248 151.638C254.743 154.107 251.271 155.42 247.771 155.798C244.278 156.116 240.756 155.818 237.366 154.917Z" fill="#E0E0E0"/>
<path d="M235.767 144.776C235.308 140.097 235.605 136.407 235.281 131.706C235.281 131.333 235.179 130.88 234.828 130.745C234.336 130.555 233.931 131.161 233.748 131.658C233.073 133.834 232.904 136.136 233.253 138.388C233.602 140.64 234.46 142.782 235.762 144.652" fill="#E0E0E0"/>
<path d="M235.432 145.295C238.602 143.333 240.978 140.772 243.176 137.763C244.704 135.672 245.995 133.16 245.649 130.593C243.489 130.55 241.459 131.733 240.06 133.365C238.727 135.06 237.759 137.011 237.214 139.097C236.593 141.156 236.161 143.274 235.432 145.295Z" fill="#E0E0E0"/>
<path d="M243.041 143.177C250.013 140.596 256.466 136.788 262.098 131.933C259.824 131.02 257.238 131.566 254.937 132.474C249.742 134.575 245.493 138.12 242.944 143.117" fill="#E0E0E0"/>
<path d="M237.56 147.85C241.081 148.239 244.65 148.488 248.144 147.904C251.638 147.321 254.818 145.97 258.021 144.619C258.301 144.539 258.541 144.358 258.696 144.111C258.745 143.962 258.748 143.801 258.705 143.65C258.662 143.498 258.574 143.364 258.453 143.263C258.206 143.069 257.918 142.934 257.61 142.869C254.127 141.896 250.363 142.328 246.934 143.506C243.668 144.617 240.526 146.066 237.56 147.829" fill="#E0E0E0"/>
<path d="M217.483 156.538C215.085 151.675 215.236 146.029 217.31 141.037C218.773 143.258 218.93 146.094 218.682 148.742C218.433 151.389 217.602 154.117 217.558 156.776" fill="#E0E0E0"/>
<path d="M207.892 151.675C204.888 151.636 201.908 152.225 199.144 153.404C196.379 154.582 193.891 156.325 191.838 158.521C194.83 158.991 197.908 158.218 200.629 156.9C203.351 155.582 205.77 153.707 208.162 151.854" fill="#E0E0E0"/>
<path d="M201.45 149.514C198.518 149.277 195.694 148.909 192.875 149.774C190.056 150.638 187.475 152.599 186.341 155.317C189.098 155.547 191.867 155.036 194.36 153.837C196.847 152.609 199.22 151.163 201.45 149.514Z" fill="#E0E0E0"/>
<path d="M210.992 149.633C208.357 147.904 205.646 146.143 202.579 145.43C199.512 144.717 195.948 145.241 193.804 147.558C196.293 149.017 199.306 149.179 202.19 149.179C205.074 149.179 208.605 149.147 211.321 150.109" fill="#E0E0E0"/>
<path d="M211.008 149.774C206.499 145.343 204.793 137.385 206.602 131.328C210.163 136.78 211.721 143.3 211.008 149.774Z" fill="#E0E0E0"/>
<path d="M223.407 137.223C224.254 135.245 224.854 133.165 225.615 131.155C226.311 129.112 227.381 127.216 228.769 125.563C230.177 123.901 232.183 122.861 234.352 122.667C233.659 125.719 232.338 128.593 230.472 131.105C228.605 133.617 226.236 135.711 223.515 137.255" fill="#E0E0E0"/>
<path d="M221.166 139.838C219.74 137.898 218.12 135.267 216.219 133.846C214.318 132.425 211.829 131.528 209.502 132.084C210.708 134.199 212.39 136.003 214.415 137.353C216.44 138.704 218.751 139.564 221.166 139.865" fill="#E0E0E0"/>
<path d="M221.614 137.385C220.69 135.04 219.762 132.668 219.389 130.177C219.016 127.687 219.243 125.023 220.518 122.846C222.991 127.53 223.785 132.571 221.738 137.433" fill="#E0E0E0"/>
<path d="M223.428 122.846C224.832 118.204 229.077 114.79 233.661 113.223C234.23 112.99 234.847 112.897 235.459 112.953C235.76 112.985 236.045 113.105 236.279 113.297C236.513 113.489 236.686 113.745 236.777 114.033C236.944 114.822 236.296 115.53 235.697 116.054C232.114 119.119 227.945 121.423 223.444 122.824" fill="#E0E0E0"/>
<path d="M223.482 119.053C223.66 116.06 223.844 113.023 224.816 110.192C225.788 107.361 227.667 104.697 230.394 103.455C230.853 106.475 229.525 109.484 227.916 112.099C226.306 114.714 224.373 117.156 223.407 120.052" fill="#E0E0E0"/>
<path d="M223.407 121.111C222.246 117.729 222.127 113.434 220.102 110.489C218.687 108.431 216.424 107.026 215.204 104.843C214.468 106.936 214.571 109.232 215.49 111.251C216.412 113.246 217.679 115.062 219.232 116.616C220.734 118.237 222.013 119.42 223.407 121.111Z" fill="#E0E0E0"/>
<path d="M223.428 220.703C223.342 220.703 223.261 198.146 223.255 170.321C223.25 142.496 223.315 119.933 223.407 119.933C223.499 119.933 223.574 142.491 223.58 170.321C223.585 198.151 223.52 220.703 223.428 220.703Z" fill="#E0E0E0"/>
<path d="M243.133 153.123C242.861 153.256 242.577 153.363 242.285 153.442L239.952 154.231C237.987 154.901 235.281 155.852 232.349 157.078C229.417 158.305 226.706 159.337 225.145 160.687C224.524 161.206 224.029 161.86 223.698 162.6C223.477 163.14 223.439 163.454 223.407 163.448C223.394 163.371 223.394 163.293 223.407 163.216C223.441 162.992 223.495 162.771 223.569 162.557C223.866 161.77 224.352 161.069 224.983 160.514C225.926 159.719 226.98 159.063 228.11 158.569C229.357 157.986 230.745 157.381 232.214 156.776C235.157 155.565 237.879 154.614 239.871 154.015C240.865 153.701 241.675 153.474 242.236 153.323C242.529 153.231 242.829 153.164 243.133 153.123Z" fill="#E0E0E0"/>
<path d="M249.591 137.255C249.522 137.348 249.442 137.433 249.354 137.509L248.63 138.168L245.93 140.627L236.939 148.65C233.429 151.778 230.4 154.76 228.299 157.013C227.251 158.132 226.42 159.067 225.853 159.715L225.199 160.461C225.128 160.552 225.047 160.636 224.956 160.709C225.01 160.605 225.075 160.507 225.151 160.417C225.286 160.239 225.486 159.969 225.756 159.634C226.296 158.959 227.1 158.013 228.132 156.857C230.845 153.9 233.713 151.088 236.723 148.434C240.244 145.316 243.451 142.518 245.779 140.497C246.918 139.514 247.858 138.709 248.549 138.12C248.857 137.86 249.089 137.655 249.31 137.482C249.393 137.394 249.488 137.317 249.591 137.255Z" fill="#E0E0E0"/>
<path d="M233.154 151.827C233.062 151.789 233.791 150.092 234.525 147.953C235.26 145.813 235.605 144.003 235.702 144.02C235.631 145.4 235.347 146.762 234.86 148.055C234.551 148.975 234.19 149.877 233.78 150.757C233.623 151.141 233.412 151.502 233.154 151.827Z" fill="#E0E0E0"/>
<path d="M223.45 165.485C223.249 165.293 223.068 165.081 222.91 164.853L221.522 163.081C220.361 161.573 218.752 159.493 216.948 157.224C215.145 154.955 213.487 152.902 212.288 151.432L210.868 149.682C210.683 149.476 210.52 149.252 210.382 149.012C210.595 149.186 210.79 149.382 210.965 149.595C211.327 149.99 211.84 150.568 212.461 151.286C213.708 152.723 215.398 154.744 217.202 157.019C219.006 159.293 220.588 161.401 221.706 162.962C222.246 163.735 222.71 164.361 223.012 164.804C223.18 165.016 223.327 165.244 223.45 165.485Z" fill="#E0E0E0"/>
<path d="M219.13 159.936C218.26 158.97 217.639 157.805 217.321 156.543C216.98 155.437 216.841 154.279 216.91 153.123H217.051C216.986 153.383 216.943 153.518 216.916 153.518C216.889 153.518 216.916 153.366 216.916 153.096H217.062C217.129 154.224 217.323 155.34 217.639 156.424C218.217 158.467 219.2 159.877 219.13 159.936Z" fill="#E0E0E0"/>
<path d="M213.552 152.913C213.162 152.617 212.737 152.371 212.288 152.178C211.15 151.842 209.954 151.749 208.778 151.902C207.587 151.996 206.406 152.185 205.246 152.47C204.77 152.618 204.285 152.736 203.794 152.821C204.225 152.561 204.693 152.368 205.182 152.248C206.344 151.891 207.543 151.664 208.756 151.573C209.977 151.412 211.218 151.547 212.374 151.967C212.864 152.137 213.28 152.471 213.552 152.913Z" fill="#E0E0E0"/>
<path d="M212.229 151.211C212.229 151.265 211.494 150.919 210.295 150.508C207.159 149.436 203.801 149.179 200.538 149.763C199.29 149.984 198.534 150.222 198.518 150.168C198.676 150.068 198.849 149.993 199.031 149.946C199.509 149.782 199.996 149.645 200.489 149.536C203.786 148.817 207.222 149.08 210.371 150.292C210.845 150.471 211.307 150.681 211.753 150.919C211.924 150.994 212.084 151.092 212.229 151.211Z" fill="#E0E0E0"/>
<path d="M223.407 144.019C222.834 142.415 222.363 140.777 221.997 139.114C221.301 136.38 220.809 134.143 220.917 134.121C221.025 134.1 221.635 136.283 222.327 139.033C223.018 141.783 223.52 143.998 223.407 144.019Z" fill="#E0E0E0"/>
<path d="M223.52 144.019C223.423 144.052 223.012 142.582 221.954 141.08C221.292 140.191 220.517 139.392 219.648 138.703C219.977 138.784 220.282 138.941 220.539 139.162C221.193 139.639 221.761 140.224 222.219 140.891C222.917 141.803 223.366 142.881 223.52 144.019Z" fill="#E0E0E0"/>
<path d="M223.428 208.676C223.396 208.676 223.326 208.136 223.072 207.179C222.701 205.83 222.196 204.522 221.565 203.273C220.01 200.085 217.175 196.049 213.573 192.003C211.786 189.96 210.058 188.037 208.584 186.194C207.267 184.573 206.075 182.853 205.02 181.051C204.311 179.832 203.71 178.554 203.221 177.231C203.054 176.761 202.935 176.394 202.865 176.15C202.821 176.024 202.79 175.894 202.773 175.761C202.806 175.761 202.968 176.275 203.34 177.199C203.872 178.492 204.5 179.744 205.219 180.943C206.296 182.719 207.5 184.414 208.821 186.016C210.295 187.842 212.029 189.755 213.816 191.797C217.429 195.855 220.258 199.945 221.776 203.181C222.391 204.452 222.867 205.785 223.196 207.158C223.286 207.531 223.352 207.91 223.396 208.292C223.42 208.419 223.431 208.547 223.428 208.676Z" fill="#E0E0E0"/>
<path d="M241.237 188.555C240.938 188.755 240.626 188.936 240.303 189.096C239.458 189.578 238.647 190.119 237.879 190.717C236.747 191.6 235.685 192.57 234.703 193.618C233.586 194.801 232.435 196.168 231.264 197.638C228.92 200.582 226.728 203.186 225.41 205.267C224.746 206.298 224.26 207.168 223.941 207.773C223.794 208.099 223.623 208.414 223.428 208.714C223.443 208.607 223.474 208.503 223.52 208.406C223.59 208.238 223.687 207.99 223.833 207.676C224.244 206.79 224.708 205.93 225.221 205.099C226.501 202.97 228.677 200.328 231.015 197.389C232.192 195.92 233.353 194.547 234.493 193.369C235.489 192.319 236.573 191.356 237.733 190.49C238.53 189.907 239.375 189.394 240.26 188.955C240.568 188.804 240.8 188.707 240.989 188.636C241.067 188.597 241.151 188.57 241.237 188.555Z" fill="#E0E0E0"/>
<path d="M241.583 195.082C240.934 195.228 240.275 195.324 239.612 195.369C238.028 195.532 236.463 195.842 234.936 196.292C233.424 196.783 232.008 197.526 230.745 198.491C229.779 199.237 229.325 199.853 229.276 199.821C229.35 199.654 229.451 199.501 229.573 199.367C229.88 198.982 230.223 198.63 230.599 198.313C231.855 197.267 233.302 196.474 234.86 195.979C236.408 195.515 238.004 195.232 239.617 195.136C240.269 195.057 240.928 195.039 241.583 195.082Z" fill="#E0E0E0"/>
<path d="M229.854 199.102C229.752 199.042 230.643 197.686 231.328 195.86C232.014 194.034 232.128 192.397 232.246 192.419C232.294 192.778 232.283 193.143 232.214 193.499C232.109 194.345 231.91 195.177 231.62 195.979C231.321 196.781 230.938 197.549 230.475 198.27C230.314 198.579 230.105 198.86 229.854 199.102Z" fill="#E0E0E0"/>
<path d="M246.999 171.029C246.903 171.099 246.798 171.155 246.686 171.196L245.757 171.617C245.352 171.796 244.861 172.017 244.305 172.309C243.748 172.601 243.095 172.893 242.42 173.298L241.34 173.908C240.967 174.124 240.595 174.378 240.206 174.627C239.412 175.108 238.618 175.707 237.765 176.307C235.963 177.671 234.265 179.166 232.684 180.781C231.117 182.419 229.674 184.171 228.364 186.022C227.786 186.891 227.224 187.702 226.771 188.512C226.539 188.918 226.296 189.29 226.096 189.674L225.518 190.754C225.135 191.446 224.859 192.105 224.595 192.673C224.33 193.24 224.114 193.753 223.957 194.147C223.801 194.542 223.671 194.844 223.569 195.093C223.527 195.204 223.475 195.311 223.412 195.412C223.429 195.295 223.459 195.181 223.504 195.071C223.59 194.812 223.704 194.493 223.839 194.104C224.009 193.592 224.206 193.089 224.427 192.597C224.681 192.024 224.94 191.354 225.313 190.652L225.853 189.539C226.047 189.15 226.285 188.766 226.517 188.361C226.96 187.54 227.521 186.713 228.094 185.832C230.666 182.058 233.862 178.749 237.544 176.048C238.408 175.448 239.212 174.859 240.017 174.384C240.417 174.141 240.789 173.887 241.167 173.676L242.247 173.082C242.933 172.682 243.592 172.401 244.164 172.125C244.737 171.85 245.244 171.644 245.644 171.488L246.6 171.12C246.728 171.071 246.862 171.04 246.999 171.029Z" fill="#E0E0E0"/>
<path d="M232.911 180.478C233.04 180.021 233.311 179.617 233.683 179.322C234.555 178.58 235.659 178.165 236.804 178.15C237.932 178.147 239.049 178.366 240.093 178.793C240.534 178.932 240.953 179.136 241.335 179.398C240.885 179.307 240.445 179.179 240.017 179.014C238.987 178.656 237.905 178.473 236.815 178.474C235.736 178.498 234.693 178.863 233.834 179.516C233.504 179.815 233.195 180.136 232.911 180.478Z" fill="#E0E0E0"/>
<path d="M230.805 182.65C230.713 182.602 231.507 181.435 231.691 179.765C231.874 178.096 231.394 176.783 231.491 176.756C231.588 176.729 231.707 177.047 231.858 177.593C232.046 178.314 232.1 179.063 232.015 179.803C231.931 180.542 231.707 181.259 231.356 181.915C231.08 182.418 230.837 182.672 230.805 182.65Z" fill="#E0E0E0"/>
<path d="M207.86 211.912C208.346 220.53 210.943 229.299 214.939 238.165H232.306C236.113 229.39 238.532 220.632 238.964 211.912H207.86Z" fill="#E0E0E0"/>
<path d="M236.14 225.862C236.14 225.954 230.421 226.024 223.369 226.024C216.316 226.024 210.598 225.954 210.598 225.862C210.598 225.771 216.316 225.7 223.369 225.7C230.421 225.7 236.14 225.771 236.14 225.862Z" fill="#FAFAFA"/>
<path d="M235.756 228.985C235.756 229.077 230.394 229.147 223.779 229.147C217.164 229.147 211.807 229.077 211.807 228.985C211.807 228.893 217.17 228.823 223.779 228.823C230.389 228.823 235.756 228.893 235.756 228.985Z" fill="#FAFAFA"/>
<path d="M215.215 217.591C215.431 220.255 215.431 222.933 215.215 225.598C215.123 225.598 215.047 223.809 215.047 221.594C215.047 219.379 215.123 217.591 215.215 217.591Z" fill="#FAFAFA"/>
<path d="M224.519 217.591C224.611 217.591 224.681 219.449 224.681 221.74C224.681 224.031 224.611 225.884 224.519 225.884C224.427 225.884 224.357 224.025 224.357 221.74C224.357 219.455 224.427 217.591 224.519 217.591Z" fill="#FAFAFA"/>
<path d="M233.24 217.499C233.456 220.315 233.456 223.143 233.24 225.96C233.148 225.96 233.078 224.063 233.078 221.729C233.078 219.395 233.164 217.499 233.24 217.499Z" fill="#FAFAFA"/>
<path d="M238.408 217.591C238.408 217.682 231.701 217.758 223.428 217.758C215.155 217.758 208.449 217.682 208.449 217.591C208.449 217.499 215.15 217.428 223.428 217.428C231.706 217.428 238.408 217.482 238.408 217.591Z" fill="#FAFAFA"/>
<path d="M247.852 0.346069H206.24V43.7474H247.852V0.346069Z" fill="#E0E0E0"/>
<path d="M245.034 0.346069H203.421V43.7474H245.034V0.346069Z" fill="#FAFAFA"/>
<path d="M245.05 43.7636H203.41V0.335205H245.05V43.7636ZM203.432 43.7636H245.012V0.356817H203.432V43.7636Z" fill="#E0E0E0"/>
<path d="M239.445 6.18115H209.016V37.9123H239.445V6.18115Z" fill="white"/>
<path d="M209.016 38.1284C208.798 38.445 208.546 38.7367 208.265 38.9983C207.779 39.5386 207.093 40.2085 206.332 40.9595C205.57 41.7105 204.863 42.3859 204.345 42.8667C204.082 43.1447 203.786 43.3897 203.464 43.5961C203.677 43.277 203.927 42.9849 204.21 42.7263C204.696 42.213 205.381 41.516 206.148 40.7596C206.915 40.0032 207.622 39.3333 208.141 38.8524C208.401 38.5754 208.695 38.3321 209.016 38.1284Z" fill="#E0E0E0"/>
<path d="M239.439 38.0474C239.759 38.2623 240.053 38.5144 240.314 38.7984C240.827 39.2846 241.524 39.9708 242.274 40.7326C243.025 41.4944 243.7 42.2022 244.18 42.7209C244.458 42.9837 244.703 43.2794 244.909 43.6015C244.59 43.3892 244.299 43.1388 244.04 42.8559C243.527 42.3697 242.83 41.6835 242.074 40.9163C241.318 40.1491 240.649 39.4413 240.168 38.9226C239.891 38.6608 239.647 38.367 239.439 38.0474Z" fill="#E0E0E0"/>
<path d="M239.358 6.26755C239.573 5.94722 239.825 5.65343 240.109 5.39229C240.595 4.852 241.275 4.18204 242.042 3.43104C242.809 2.68004 243.5 2.01548 244.04 1.52922C244.302 1.24878 244.597 1.00196 244.92 0.794434C244.708 1.11354 244.458 1.40564 244.175 1.6643C243.689 2.17757 243.003 2.87454 242.236 3.63095C241.47 4.38735 240.762 5.05731 240.244 5.53817C239.977 5.81427 239.68 6.05899 239.358 6.26755Z" fill="#E0E0E0"/>
<path d="M208.94 6.33786C208.618 6.12502 208.324 5.87273 208.065 5.58685C207.552 5.1006 206.856 4.41983 206.105 3.65262C205.354 2.88541 204.679 2.18304 204.199 1.66436C203.921 1.40151 203.676 1.10577 203.47 0.783691C203.789 0.996041 204.081 1.24641 204.339 1.52929C204.852 2.01555 205.549 2.70171 206.305 3.46892C207.061 4.23613 207.73 4.94391 208.211 5.46259C208.486 5.72581 208.731 6.01944 208.94 6.33786Z" fill="#E0E0E0"/>
<path d="M239.358 37.9122C239.358 37.9122 239.358 37.8582 239.358 37.7609C239.358 37.6637 239.358 37.507 239.358 37.3179C239.358 36.9181 239.358 36.3454 239.358 35.6052C239.358 34.1032 239.358 31.915 239.326 29.1217C239.326 23.5622 239.293 15.6469 239.266 6.16487L239.385 6.28374H209.048L209.183 6.14866C209.183 17.7973 209.183 28.6949 209.183 37.8798L209.07 37.7663L231.042 37.8258L237.209 37.8582H238.829H239.396C239.351 37.8631 239.306 37.8631 239.261 37.8582H238.851H237.231L231.085 37.8906L209.043 37.95H208.929V37.8312C208.929 28.6463 208.929 17.7487 208.929 6.10004V5.96497H209.07H239.407H239.526V6.08383C239.499 15.5929 239.477 23.5405 239.466 29.1163C239.466 31.8826 239.439 34.06 239.434 35.5566C239.434 36.2914 239.434 36.8533 239.434 37.2477C239.434 37.4314 239.434 37.5718 239.434 37.6745C239.417 37.7562 239.392 37.8359 239.358 37.9122Z" fill="#E0E0E0"/>
<path d="M229.303 16.9707H219.151V27.1281H229.303V16.9707Z" fill="#EBEBEB"/>
<path d="M66.5259 68.9194H19.0059V137.839H66.5259V68.9194Z" fill="#E0E0E0"/>
<path d="M64.1444 68.9194H16.6244V137.839H64.1444V68.9194Z" fill="#F5F5F5"/>
<path d="M58.2422 76.3807H22.532V130.366H58.2422V76.3807Z" fill="white"/>
<path d="M58.2422 130.372C58.2422 130.372 58.2422 130.28 58.2422 130.107C58.2422 129.934 58.2422 129.675 58.2422 129.34C58.2422 128.664 58.2422 127.67 58.2422 126.379C58.2422 123.791 58.2422 120.02 58.2098 115.26C58.2098 105.74 58.1774 92.2598 58.1504 76.3591L58.2692 76.478H22.5644L22.694 76.3483C22.694 96.7172 22.694 115.492 22.694 130.339L22.5914 130.237L48.587 130.291H55.769H57.6536C58.0802 130.291 58.3016 130.291 58.3016 130.291H57.6752H55.8068L48.6464 130.318L22.5914 130.372H22.4888V130.269C22.4888 115.422 22.4888 96.647 22.4888 76.2781V76.1484H22.6238H58.3286H58.4474V76.2673C58.4474 92.1788 58.4042 105.686 58.388 115.222C58.388 119.977 58.388 123.737 58.361 126.32C58.361 127.595 58.361 128.583 58.361 129.253C58.361 129.583 58.361 129.831 58.361 130.01C58.361 130.188 58.2422 130.372 58.2422 130.372Z" fill="#E0E0E0"/>
<path d="M64.2794 68.9194C64.039 69.3563 63.7569 69.7689 63.437 70.1513C62.897 70.8861 62.0978 71.891 61.2068 72.977C60.3158 74.063 59.4734 75.0301 58.8578 75.7109C58.5419 76.1019 58.1913 76.4636 57.8102 76.7914C58.0774 76.3695 58.381 75.9718 58.7174 75.6028L61.007 72.8257L63.2912 70.0486C63.5901 69.6466 63.9205 69.269 64.2794 68.9194Z" fill="#E0E0E0"/>
<path d="M58.4258 130.199C60.2006 133.024 62.2913 135.638 64.6574 137.99L58.4258 130.199Z" fill="white"/>
<path d="M64.6574 137.99C64.2633 137.7 63.9012 137.368 63.5774 137.001C61.9192 135.315 60.439 133.463 59.1602 131.474C58.8778 131.074 58.6355 130.647 58.4366 130.199C58.7576 130.567 59.05 130.959 59.3114 131.371C59.8514 132.106 60.575 133.111 61.4336 134.192C62.2922 135.272 63.113 136.207 63.7124 136.893C64.0518 137.237 64.3675 137.603 64.6574 137.99Z" fill="#E0E0E0"/>
<path d="M16.619 137.779L22.8452 130.096L16.619 137.779Z" fill="white"/>
<path d="M22.8452 130.096C21.9072 131.454 20.9015 132.763 19.832 134.019C18.8296 135.336 17.757 136.599 16.619 137.801C17.5562 136.433 18.5619 135.113 19.6322 133.846C20.6373 132.541 21.7097 131.289 22.8452 130.096Z" fill="#E0E0E0"/>
<path d="M16.6244 68.9194C17.6988 70.067 18.7084 71.2738 19.6484 72.534C20.6566 73.7419 21.5976 75.0045 22.4672 76.316C21.3946 75.1667 20.3851 73.9601 19.4432 72.7015C18.4371 71.4918 17.4961 70.2293 16.6244 68.9194Z" fill="#E0E0E0"/>
<path d="M47.1128 87.3433H35.1572V121.311H47.1128V87.3433Z" fill="#E0E0E0"/>
<path d="M256.819 241.025C256.819 241.102 204.067 241.168 139.005 241.168C73.9437 241.168 21.1808 241.107 21.1808 241.025C21.1808 240.942 73.9216 240.882 139.005 240.882C204.089 240.882 256.819 240.948 256.819 241.025Z" fill="#263238"/>
<path d="M37.8368 48.2817L51.1123 44.7246C51.1123 44.7246 48.118 33.5499 59.6485 30.2479C65.6359 28.53 69.8144 31.6464 71.8941 34.3322C74.307 37.4524 74.9342 41.5772 73.8357 45.3666C72.5824 49.6914 68.7342 54.7314 59.3637 55.5478L67.224 85.2229L80.3523 81.7052L75.6421 64.1263C75.6421 64.1263 92.7748 54.4227 87.3223 34.0737C82.1075 14.6119 65.2828 14.6148 56.7711 16.604C52.0369 17.712 50.2815 17.965 44.6964 20.3483C37.5807 23.3911 33.7489 33.6507 37.8368 48.2817Z" fill="#426E8A"/>
<path d="M82.1671 87.8436L68.8434 91.4137L72.1859 103.888L85.5096 100.318L82.1671 87.8436Z" fill="#426E8A"/>
<path opacity="0.1" d="M82.1671 87.8436L68.8434 91.4137L72.1859 103.888L85.5096 100.318L82.1671 87.8436Z" fill="black"/>
<path opacity="0.1" d="M37.8368 48.2817L51.1123 44.7246C51.1123 44.7246 48.118 33.5499 59.6485 30.2479C65.6359 28.53 69.8144 31.6464 71.8941 34.3322C74.307 37.4524 74.9342 41.5772 73.8357 45.3666C72.5824 49.6914 68.7342 54.7314 59.3637 55.5478L67.224 85.2229L80.3523 81.7052L75.6421 64.1263C75.6421 64.1263 92.7748 54.4227 87.3223 34.0737C82.1075 14.6119 65.2828 14.6148 56.7711 16.604C52.0369 17.712 50.2815 17.965 44.6964 20.3483C37.5807 23.3911 33.7489 33.6507 37.8368 48.2817Z" fill="black"/>
<path d="M32.3359 49.7558L45.6136 46.198C45.6136 46.198 42.6193 35.0233 54.1498 31.7213C60.1373 30.0034 64.3157 33.1198 66.3931 35.8062C68.8083 38.9258 69.4356 43.0506 68.337 46.84C67.0837 51.1648 63.0548 55.8703 53.6862 56.6936L61.7254 86.6963L74.8537 83.1786L70.1434 65.5997C70.1434 65.5997 87.2761 55.8961 81.8236 35.5471C76.6088 16.0853 57.987 16.2314 50.5366 18.2277C44.8398 19.7615 25.7942 26.3443 32.3359 49.7558Z" fill="#426E8A"/>
<path opacity="0.3" d="M32.3359 49.7558L45.6136 46.198C45.6136 46.198 42.6193 35.0233 54.1498 31.7213C60.1373 30.0034 64.3157 33.1198 66.3931 35.8062C68.8083 38.9258 69.4356 43.0506 68.337 46.84C67.0837 51.1648 63.0548 55.8703 53.6862 56.6936L61.7254 86.6963L74.8537 83.1786L70.1434 65.5997C70.1434 65.5997 87.2761 55.8961 81.8236 35.5471C76.6088 16.0853 57.987 16.2314 50.5366 18.2277C44.8398 19.7615 25.7942 26.3443 32.3359 49.7558Z" fill="black"/>
<path d="M76.6683 89.3169L63.3446 92.887L66.6871 105.361L80.0108 101.791L76.6683 89.3169Z" fill="#426E8A"/>
<path opacity="0.3" d="M76.6683 89.3169L63.3446 92.887L66.6871 105.361L80.0108 101.791L76.6683 89.3169Z" fill="black"/>
<path d="M55.6646 31.3797C55.6003 31.403 55.5342 31.4207 55.4669 31.4326C55.3358 31.4677 55.1356 31.4745 54.889 31.5381C54.1844 31.6902 53.4951 31.9063 52.8298 32.1837C51.8412 32.5878 50.8977 33.0948 50.0149 33.6962C49.4946 34.0513 49.0001 34.443 48.5352 34.8683C48.0298 35.3171 47.5756 35.8207 47.1809 36.3698C46.7906 36.9218 46.4683 37.519 46.2211 38.1485C45.9834 38.733 45.7844 39.3326 45.6253 39.9433C45.3645 40.9808 45.2222 42.0448 45.2013 43.1148C45.1863 43.8371 45.2363 44.5595 45.3509 45.273C45.3887 45.5247 45.4337 45.7201 45.4614 45.851C45.4794 45.9174 45.491 45.9854 45.4961 46.0541C45.4725 45.9898 45.4547 45.9234 45.443 45.8559C45.4078 45.7245 45.3559 45.531 45.3105 45.2788C45.1754 44.5629 45.1116 43.8353 45.1203 43.1068C45.1276 42.0282 45.2616 40.9543 45.5196 39.9074C45.6777 39.2907 45.8768 38.6853 46.1156 38.0953C46.3639 37.4563 46.6898 36.8505 47.086 36.2915C47.4853 35.7351 47.9453 35.225 48.4573 34.7706C48.9242 34.3392 49.4212 33.9419 49.9447 33.5817C50.8368 32.9791 51.7913 32.4749 52.7916 32.0778C53.4634 31.8061 54.1605 31.6019 54.8728 31.4683C55.0657 31.4297 55.2607 31.4021 55.4568 31.3859C55.5258 31.379 55.5952 31.3769 55.6646 31.3797Z" fill="#263238"/>
<path d="M75.0332 23.6482C75.0332 23.6482 75.0128 23.6364 74.9759 23.6092C74.9391 23.582 74.8816 23.5332 74.8178 23.4787L74.212 22.9741C74.0819 22.8657 73.9394 22.7384 73.7772 22.6114L73.2282 22.2176L72.5985 21.7614C72.3717 21.6048 72.1169 21.4632 71.8572 21.303C71.5975 21.1429 71.3295 20.9702 71.0363 20.8141C70.7432 20.658 70.4327 20.5016 70.1135 20.3401C69.9539 20.2594 69.7966 20.1781 69.6259 20.0929L69.1076 19.8687C68.7539 19.7164 68.4025 19.5636 68.0258 19.4175C66.3893 18.8008 64.7022 18.3288 62.9839 18.0071L61.6255 17.7832L60.2997 17.6444C59.8628 17.5862 59.4319 17.5781 59.0111 17.5525C58.5903 17.527 58.1782 17.4966 57.7679 17.5102L56.5919 17.5166C56.2102 17.5176 55.8408 17.5548 55.4819 17.567C55.123 17.5792 54.778 17.5975 54.448 17.644L53.4927 17.7567C52.8845 17.8134 52.3456 17.9356 51.8689 18.0139C51.6341 18.0571 51.3975 18.0933 51.2042 18.1352L50.6534 18.268L49.888 18.4459L49.6903 18.4989L49.6236 18.5168C49.6448 18.5074 49.6673 18.5014 49.6903 18.4989L49.888 18.4459L50.6466 18.2427L51.196 18.0954C51.396 18.0419 51.6218 18.011 51.8606 17.9643C52.3308 17.8803 52.8777 17.751 53.4846 17.6897L54.4374 17.5678C54.7668 17.519 55.1155 17.5145 55.4724 17.4856C55.8293 17.4566 56.196 17.4275 56.5893 17.4333L57.7693 17.4234C58.1743 17.4087 58.5896 17.4506 59.0119 17.4634C59.4342 17.4762 59.8621 17.4826 60.3021 17.5524L61.6348 17.6893L63.0007 17.9136C64.7275 18.2349 66.4221 18.7117 68.0637 19.3382C68.4427 19.4837 68.7984 19.6527 69.1515 19.8026L69.6624 19.9991C69.8312 20.0774 69.9885 20.1587 70.1506 20.2487L71.0761 20.7417C71.3677 20.9106 71.6363 21.0856 71.8971 21.2405C72.1579 21.3954 72.4082 21.5481 72.6356 21.707L73.2528 22.1715L73.7991 22.5735C73.9596 22.7034 74.1004 22.8336 74.2306 22.9518C74.4822 23.1734 74.6792 23.3479 74.8188 23.4735L74.9719 23.6127C74.9938 23.6219 75.0144 23.6338 75.0332 23.6482Z" fill="#263238"/>
<path d="M81.3063 52.5952C81.2924 52.6524 81.2716 52.7077 81.2445 52.76L81.0279 53.2206C80.942 53.424 80.8302 53.6688 80.6855 53.9472C80.5408 54.2255 80.3928 54.5468 80.199 54.8901C80.0052 55.2335 79.8017 55.6141 79.5597 56.0075C79.3177 56.4008 79.0524 56.8177 78.7679 57.2545C77.5097 59.133 76.0419 60.8613 74.3927 62.406C74.0085 62.756 73.6496 63.0991 73.2902 63.3856C72.9309 63.6721 72.6004 63.9558 72.2905 64.1969C71.9806 64.438 71.6915 64.6464 71.4401 64.8298C71.1886 65.0133 70.9661 65.1668 70.7811 65.2855L70.3615 65.5585C70.3139 65.594 70.2625 65.6244 70.2084 65.6489C70.2503 65.6072 70.2965 65.57 70.3462 65.5379L70.7602 65.2442C70.9411 65.1192 71.1577 64.9623 71.405 64.7725C71.6523 64.5828 71.9432 64.3813 72.2442 64.1253C72.5452 63.8693 72.8854 63.6126 73.2294 63.3056C73.5734 62.9985 73.9418 62.6726 74.3231 62.3209C75.0693 61.6023 75.8622 60.7822 76.6408 59.8721C77.4194 58.962 78.0922 58.0432 78.6813 57.1888C78.9671 56.7566 79.2423 56.3494 79.4779 55.9503C79.7134 55.5513 79.9363 55.1878 80.1278 54.845C80.3193 54.5022 80.4842 54.1888 80.6318 53.9122C80.7794 53.6355 80.8976 53.3963 80.9923 53.1981L81.216 52.7454C81.242 52.693 81.2722 52.6427 81.3063 52.5952Z" fill="#263238"/>
<path d="M74.3411 82.1945C74.3066 82.2038 73.2874 78.5101 72.0641 73.9448C70.8408 69.3795 69.8761 65.6688 69.9105 65.6595C69.945 65.6503 70.962 69.3446 72.1859 73.9122C73.4097 78.4798 74.3732 82.1859 74.3411 82.1945Z" fill="#263238"/>
<path d="M79.8992 100.915C79.8647 100.924 79.1435 98.3335 78.2852 95.1302C77.4269 91.9269 76.7556 89.3206 76.7901 89.3114C76.8245 89.3022 77.5457 91.8926 78.4047 95.0982C79.2636 98.3038 79.9313 100.906 79.8992 100.915Z" fill="#263238"/>
<path d="M164.026 240.92L92.1837 240.876C83.5413 240.876 76.5388 233.554 76.5443 224.531L76.5776 36.4311C76.5776 27.4024 83.5912 20.0858 92.2391 20.0913L164.082 20.1354C172.724 20.1354 179.727 27.4574 179.721 36.4806L179.688 224.591C179.688 233.609 172.674 240.926 164.026 240.92Z" fill="#263238"/>
<path d="M164.004 26.7858H150.077C148.21 26.7858 146.692 28.4374 146.692 30.4743V33.1114C146.692 35.1539 145.179 36.8055 143.312 36.8055H116.166C114.294 36.8055 112.781 35.1539 112.781 33.1114V30.4688C112.781 28.4319 111.269 26.7748 109.402 26.7748H104.499H92.3112C86.2559 26.7748 81.342 31.8947 81.342 38.2203L81.3087 221.822C81.3087 228.142 86.2116 233.268 92.2613 233.268L163.966 233.312C170.021 233.312 174.929 228.192 174.929 221.866L174.968 38.2368C174.968 31.9057 170.059 26.7913 164.004 26.7858Z" fill="white"/>
<path d="M147.317 161.179C147.317 162.592 146.895 163.972 146.106 165.147C145.316 166.321 144.194 167.236 142.881 167.777C141.568 168.317 140.123 168.459 138.729 168.183C137.335 167.908 136.055 167.228 135.05 166.229C134.045 165.23 133.36 163.958 133.083 162.573C132.806 161.187 132.948 159.752 133.492 158.447C134.036 157.142 134.957 156.027 136.138 155.242C137.32 154.457 138.709 154.039 140.131 154.039C142.037 154.039 143.864 154.791 145.212 156.13C146.56 157.469 147.317 159.286 147.317 161.179Z" fill="#426E8A"/>
<path d="M118.749 168.812C122.982 168.812 126.414 165.395 126.414 161.18C126.414 156.964 122.982 153.547 118.749 153.547C114.515 153.547 111.084 156.964 111.084 161.18C111.084 165.395 114.515 168.812 118.749 168.812Z" fill="#426E8A"/>
<path d="M102.325 155.776C106.818 155.776 110.461 152.149 110.461 147.675C110.461 143.201 106.818 139.574 102.325 139.574C97.8314 139.574 94.1887 143.201 94.1887 147.675C94.1887 152.149 97.8314 155.776 102.325 155.776Z" fill="#426E8A"/>
<path d="M98.9953 135.369C103.687 135.369 107.491 131.579 107.491 126.903C107.491 122.228 103.687 118.437 98.9953 118.437C94.3035 118.437 90.5 122.228 90.5 126.903C90.5 131.579 94.3035 135.369 98.9953 135.369Z" fill="#426E8A"/>
<path d="M109.399 117.477C114.25 117.477 118.182 113.559 118.182 108.726C118.182 103.892 114.25 99.974 109.399 99.974C104.548 99.974 100.616 103.892 100.616 108.726C100.616 113.559 104.548 117.477 109.399 117.477Z" fill="#426E8A"/>
<path d="M129.4 111.074C134.687 111.074 138.973 106.804 138.973 101.537C138.973 96.2699 134.687 92 129.4 92C124.113 92 119.827 96.2699 119.827 101.537C119.827 106.804 124.113 111.074 129.4 111.074Z" fill="#426E8A"/>
<path d="M162.95 147.509C162.947 148.875 162.536 150.209 161.77 151.344C161.004 152.478 159.917 153.362 158.646 153.882C157.375 154.403 155.977 154.537 154.629 154.269C153.281 154 152.044 153.341 151.073 152.374C150.102 151.407 149.441 150.175 149.174 148.835C148.907 147.495 149.045 146.106 149.572 144.845C150.099 143.583 150.99 142.504 152.134 141.746C153.277 140.987 154.621 140.582 155.996 140.582C156.91 140.583 157.815 140.763 158.659 141.112C159.504 141.46 160.271 141.971 160.916 142.614C161.562 143.257 162.074 144.021 162.423 144.86C162.772 145.7 162.951 146.6 162.95 147.509Z" fill="#426E8A"/>
<path d="M159.716 133.1C163.279 133.1 166.168 130.222 166.168 126.673C166.168 123.124 163.279 120.246 159.716 120.246C156.153 120.246 153.265 123.124 153.265 126.673C153.265 130.222 156.153 133.1 159.716 133.1Z" fill="#426E8A"/>
<path d="M148.985 114.351C152.24 114.351 154.878 111.722 154.878 108.48C154.878 105.237 152.24 102.608 148.985 102.608C145.731 102.608 143.093 105.237 143.093 108.48C143.093 111.722 145.731 114.351 148.985 114.351Z" fill="#426E8A"/>
<g opacity="0.5">
<path d="M147.317 161.179C147.317 162.592 146.895 163.972 146.106 165.147C145.316 166.321 144.194 167.236 142.881 167.777C141.568 168.317 140.123 168.459 138.729 168.183C137.335 167.908 136.055 167.228 135.05 166.229C134.045 165.23 133.36 163.958 133.083 162.573C132.806 161.187 132.948 159.752 133.492 158.447C134.036 157.142 134.957 156.027 136.138 155.242C137.32 154.457 138.709 154.039 140.131 154.039C142.037 154.039 143.864 154.791 145.212 156.13C146.56 157.469 147.317 159.286 147.317 161.179Z" fill="white"/>
</g>
<g opacity="0.4">
<path d="M118.749 168.812C122.982 168.812 126.414 165.395 126.414 161.18C126.414 156.964 122.982 153.547 118.749 153.547C114.515 153.547 111.084 156.964 111.084 161.18C111.084 165.395 114.515 168.812 118.749 168.812Z" fill="white"/>
</g>
<g opacity="0.3">
<path d="M102.325 155.776C106.818 155.776 110.461 152.149 110.461 147.675C110.461 143.201 106.818 139.574 102.325 139.574C97.8314 139.574 94.1887 143.201 94.1887 147.675C94.1887 152.149 97.8314 155.776 102.325 155.776Z" fill="white"/>
</g>
<g opacity="0.2">
<path d="M98.9953 135.369C103.687 135.369 107.491 131.579 107.491 126.903C107.491 122.228 103.687 118.437 98.9953 118.437C94.3035 118.437 90.5 122.228 90.5 126.903C90.5 131.579 94.3035 135.369 98.9953 135.369Z" fill="white"/>
</g>
<g opacity="0.1">
<path d="M109.399 117.477C114.25 117.477 118.182 113.559 118.182 108.726C118.182 103.892 114.25 99.974 109.399 99.974C104.548 99.974 100.616 103.892 100.616 108.726C100.616 113.559 104.548 117.477 109.399 117.477Z" fill="white"/>
</g>
<g opacity="0.2">
<path d="M129.4 111.074C134.687 111.074 138.973 106.804 138.973 101.537C138.973 96.2699 134.687 92 129.4 92C124.113 92 119.827 96.2699 119.827 101.537C119.827 106.804 124.113 111.074 129.4 111.074Z" fill="white"/>
</g>
<g opacity="0.6">
<path d="M162.95 147.509C162.947 148.875 162.536 150.209 161.77 151.344C161.004 152.478 159.917 153.362 158.646 153.882C157.375 154.403 155.977 154.537 154.629 154.269C153.281 154 152.044 153.341 151.073 152.374C150.102 151.407 149.441 150.175 149.174 148.835C148.907 147.495 149.045 146.106 149.572 144.845C150.099 143.583 150.99 142.504 152.134 141.746C153.277 140.987 154.621 140.582 155.996 140.582C156.91 140.583 157.815 140.763 158.659 141.112C159.504 141.46 160.271 141.971 160.916 142.614C161.562 143.257 162.074 144.021 162.423 144.86C162.772 145.7 162.951 146.6 162.95 147.509Z" fill="white"/>
</g>
<g opacity="0.7">
<path d="M159.716 133.1C163.279 133.1 166.168 130.222 166.168 126.673C166.168 123.124 163.279 120.246 159.716 120.246C156.153 120.246 153.265 123.124 153.265 126.673C153.265 130.222 156.153 133.1 159.716 133.1Z" fill="white"/>
</g>
<g opacity="0.8">
<path d="M148.985 114.351C152.24 114.351 154.878 111.722 154.878 108.48C154.878 105.237 152.24 102.608 148.985 102.608C145.731 102.608 143.093 105.237 143.093 108.48C143.093 111.722 145.731 114.351 148.985 114.351Z" fill="white"/>
</g>
<path d="M139.812 133.159V128.312C139.812 122.626 135.186 118 129.5 118C123.814 118 119.188 122.626 119.188 128.312V133.159C117.978 134.425 117.312 136.075 117.312 137.812C117.312 144.533 122.78 150 129.5 150C136.22 150 141.688 144.533 141.688 137.812C141.688 136.075 141.022 134.425 139.812 133.159ZM121.062 128.312C121.062 123.66 124.848 119.875 129.5 119.875C134.152 119.875 137.938 123.66 137.938 128.312V131.777C137.347 131.487 136.716 131.29 136.062 131.194V128.312C136.062 124.694 133.119 121.75 129.5 121.75C125.881 121.75 122.938 124.694 122.938 128.312V131.194C122.284 131.29 121.653 131.487 121.062 131.777V128.312ZM134.188 128.312V131.125H124.812V128.312C124.812 125.728 126.915 123.625 129.5 123.625C132.085 123.625 134.188 125.728 134.188 128.312ZM129.5 148.125C123.814 148.125 119.188 143.499 119.188 137.812C119.188 135.204 121.334 133 123.875 133H135.125C137.666 133 139.812 135.204 139.812 137.812C139.812 143.499 135.186 148.125 129.5 148.125Z" fill="#426E8A"/>
<path d="M129.5 135C127.949 135 126.688 136.262 126.688 137.812C126.688 139.035 127.471 140.077 128.562 140.464V145.312C128.562 145.83 128.982 146.25 129.5 146.25C130.018 146.25 130.438 145.83 130.438 145.312V140.464C131.529 140.077 132.312 139.035 132.312 137.812C132.312 136.262 131.051 135 129.5 135ZM129.5 138.75C128.983 138.75 128.562 138.329 128.562 137.812C128.562 137.296 128.983 136.875 129.5 136.875C130.017 136.875 130.438 137.296 130.438 137.812C130.438 138.329 130.017 138.75 129.5 138.75Z" fill="#426E8A"/>
<path d="M169.164 47.3148C169.164 47.3581 167.15 47.4121 164.671 47.4337C162.193 47.4553 160.184 47.4337 160.184 47.3851C160.184 47.3364 162.209 47.2716 164.671 47.2716C167.134 47.2716 169.159 47.2716 169.164 47.3148Z" fill="#263238"/>
<path d="M169.18 49.611C169.18 49.6596 167.172 49.7136 164.693 49.7352C162.214 49.7568 160.2 49.7352 160.2 49.6866C160.2 49.638 162.209 49.5839 164.693 49.5623C167.177 49.5407 169.18 49.5623 169.18 49.611Z" fill="#263238"/>
<path d="M169.229 51.9073C169.229 51.9559 167.215 52.0099 164.736 52.0316C162.258 52.0532 160.249 52.0316 160.249 51.9829C160.249 51.9343 162.258 51.8857 164.736 51.8641C167.215 51.8425 169.197 51.8641 169.229 51.9073Z" fill="#263238"/>
<path d="M87.5 54.5331H87.6836H88.2236L90.146 54.4898L90.0974 54.5385C90.0974 54.117 90.0974 53.6524 90.0974 53.1499C90.084 52.8835 90.084 52.6167 90.0974 52.3503C90.1257 52.1978 90.2025 52.0587 90.3164 51.9535C90.4303 51.8483 90.5751 51.7828 90.7292 51.7668C91.037 51.7668 91.3124 51.7668 91.6472 51.7668C91.8213 51.7929 91.9801 51.8811 92.0942 52.0151C92.2083 52.1492 92.2701 52.3201 92.2682 52.4962C92.2682 53.1445 92.2682 53.8253 92.2682 54.5277L92.1872 54.4466H94.6064L94.5254 54.5277C94.5254 53.5551 94.5254 52.5448 94.5254 51.5128C94.5254 51.2589 94.5254 50.9726 94.5254 50.7456C94.5211 50.6344 94.4876 50.5263 94.4282 50.4323C94.3527 50.3374 94.2697 50.2489 94.1798 50.1675C93.8234 49.8163 93.4724 49.4651 93.0998 49.1248L92.0792 48.1198C91.9172 47.9523 91.7498 47.7903 91.5878 47.6282C91.4258 47.4661 91.2854 47.2932 91.0802 47.2554C90.9878 47.233 90.8915 47.231 90.7983 47.2497C90.705 47.2684 90.6169 47.3072 90.5402 47.3634C90.3944 47.4877 90.2378 47.6606 90.092 47.8065L89.2226 48.6817C88.6826 49.222 88.1102 49.7623 87.6944 50.2594C87.5743 50.5458 87.5332 50.8593 87.5756 51.1671C87.5756 51.4696 87.5756 51.7506 87.5756 52.0207C87.5756 52.561 87.5756 53.004 87.5756 53.393C87.5756 53.7821 87.5756 54.0414 87.5756 54.2737C87.5756 54.506 87.5756 54.5871 87.5756 54.5871C87.5756 54.5871 87.5756 54.4898 87.5756 54.2953C87.5756 54.1008 87.5756 53.755 87.5756 53.4309C87.5756 53.1067 87.5756 52.5772 87.5486 52.0477C87.5486 51.7722 87.5486 51.5074 87.5486 51.1779C87.5486 51.0212 87.5486 50.8645 87.5486 50.7024C87.548 50.5259 87.5946 50.3524 87.6836 50.1999C88.1318 49.6597 88.6664 49.168 89.2172 48.5791L90.0758 47.6984C90.2324 47.5471 90.362 47.3904 90.5402 47.2338C90.6386 47.1602 90.7524 47.1098 90.873 47.0864C90.9937 47.063 91.118 47.0672 91.2368 47.0987C91.4621 47.1796 91.6603 47.3218 91.8092 47.5093L92.306 47.9956L93.332 49.0005L94.412 50.0433C94.5113 50.1314 94.6018 50.2292 94.682 50.335C94.7577 50.4551 94.8005 50.593 94.8062 50.7348C94.8062 50.9942 94.8062 51.2751 94.8062 51.5074C94.8062 52.5394 94.8062 53.5497 94.8062 54.5222V54.6033H94.7198H92.3006H92.225V54.5222C92.225 53.8199 92.225 53.1445 92.225 52.4962C92.2271 52.3534 92.1782 52.2146 92.0872 52.1046C91.9961 51.9947 91.8688 51.9209 91.7282 51.8964C91.4474 51.8964 91.118 51.8964 90.848 51.8964C90.7187 51.9066 90.5962 51.9584 90.4988 52.0441C90.4014 52.1298 90.3345 52.2449 90.308 52.3719C90.308 52.6204 90.308 52.9122 90.308 53.1445C90.308 53.647 90.308 54.1116 90.308 54.5385V54.5871H90.2594H88.31H87.689C87.6242 54.5761 87.5608 54.558 87.5 54.5331Z" fill="#263238"/>
<path d="M48.6763 165.971C53.8117 158.105 53.6173 146.608 47.4775 139.497C45.5713 137.288 42.9091 135.37 40.0039 135.618C37.0987 135.867 34.6363 138.422 33.7399 141.269C32.8435 144.117 33.1513 147.213 33.6805 150.136C34.4257 154.253 35.6731 158.461 38.5405 161.519C41.4079 164.578 45.0205 167.976 48.7033 165.971" fill="#426E8A"/>
<path d="M46.3813 203.543C47.306 201.257 47.4876 198.737 46.9002 196.341C46.3128 193.946 44.9863 191.796 43.1089 190.198C41.9263 189.231 40.4089 188.485 38.9077 188.88C37.4065 189.274 36.3967 190.808 36.2077 192.359C36.0887 193.932 36.3537 195.51 36.9799 196.957C37.7359 199.005 38.7619 201.063 40.5061 202.36C42.2503 203.657 44.6965 204.91 46.4029 203.543" fill="#426E8A"/>
<path d="M58.7797 200.869C57.3649 193.894 61.0369 186.2 67.3441 182.915C69.3043 181.899 71.7127 181.294 73.6891 182.283C75.6655 183.272 76.6807 185.762 76.5187 188.021C76.3567 190.279 75.2767 192.343 74.0779 194.272C72.4039 196.973 70.3465 199.572 67.4845 200.923C64.6225 202.273 60.7939 203.305 58.7797 200.869Z" fill="#426E8A"/>
<path d="M57.8887 182.013C55.4263 174.065 59.6005 164.432 66.5287 159.861C68.6887 158.445 71.4211 157.462 73.8349 158.38C76.2487 159.299 77.7229 162.076 77.7985 164.718C77.8741 167.36 76.8589 169.905 75.6925 172.282C74.0725 175.605 71.9719 178.884 68.8021 180.792C65.6323 182.699 60.4969 184.574 57.8671 182.002" fill="#426E8A"/>
<path d="M52.9477 220.832C52.9883 220.708 53.0137 220.579 53.0233 220.449C53.0665 220.162 53.1259 219.795 53.1907 219.341C53.2231 219.098 53.2609 218.828 53.3041 218.542C53.3473 218.255 53.4175 217.931 53.4823 217.596C53.6119 216.915 53.7469 216.143 53.9683 215.305C54.0709 214.878 54.1789 214.435 54.2869 213.976C54.3949 213.517 54.5623 213.052 54.7027 212.561C54.9673 211.577 55.3615 210.556 55.7287 209.47C57.4504 204.793 59.813 200.378 62.7487 196.352C63.4507 195.444 64.0825 194.553 64.7575 193.791C65.0869 193.397 65.4055 193.024 65.7079 192.656L66.6799 191.657C67.2577 191.008 67.8247 190.468 68.2999 189.987L68.9857 189.312L69.5905 188.772L70.4221 188.021C70.5226 187.938 70.6148 187.846 70.6975 187.745C70.5826 187.808 70.4756 187.884 70.3789 187.972L69.5041 188.674L68.8777 189.188L68.1703 189.847C67.6627 190.317 67.0903 190.846 66.4855 191.468L65.5351 192.456C65.2273 192.818 64.9033 193.197 64.5685 193.58C63.8773 194.342 63.2347 195.234 62.5165 196.141C61.0422 198.165 59.7002 200.282 58.4989 202.479C57.3293 204.694 56.3083 206.984 55.4425 209.335C55.0807 210.416 54.6973 211.458 54.4435 212.458C54.3031 212.95 54.1735 213.425 54.0439 213.884C53.9143 214.344 53.8387 214.797 53.7415 215.224C53.5363 216.072 53.4175 216.845 53.3041 217.537C53.2501 217.877 53.1961 218.196 53.1475 218.488C53.0989 218.779 53.0935 219.028 53.0665 219.298C53.0233 219.752 52.9909 220.125 52.9639 220.416C52.9354 220.553 52.9299 220.694 52.9477 220.832Z" fill="#263238"/>
<path d="M53.126 222.275C53.1329 222.221 53.1329 222.167 53.126 222.113C53.126 221.989 53.126 221.837 53.0936 221.654C53.0558 221.221 52.9964 220.632 52.9316 219.887C52.8938 219.503 52.8506 219.076 52.802 218.617C52.7534 218.158 52.7588 217.639 52.7264 217.094C52.6886 216.013 52.5806 214.76 52.6238 213.387C52.6238 212.696 52.6238 211.977 52.6238 211.226C52.6238 210.475 52.6994 209.697 52.7372 208.892C52.7912 207.271 53.0126 205.564 53.207 203.754C54.2119 195.921 56.4691 188.301 59.8922 181.186C60.7184 179.565 61.4636 178.009 62.3006 176.626C62.711 175.929 63.0728 175.237 63.4778 174.605L64.6442 172.79C65.3624 171.612 66.1238 170.629 66.7502 169.737C67.0742 169.294 67.3604 168.878 67.6466 168.505L68.4458 167.506L69.5258 166.112L69.8066 165.745C69.866 165.664 69.8984 165.62 69.893 165.615C69.8876 165.609 69.8498 165.647 69.7796 165.723L69.4772 166.069L68.327 167.425L67.5278 168.424C67.2362 168.792 66.9392 169.202 66.6098 169.64C65.9672 170.526 65.1896 171.504 64.4498 172.671L63.2618 174.481C62.8514 175.113 62.4788 175.805 62.063 176.502C61.2152 177.885 60.443 179.446 59.6222 181.067C56.1493 188.194 53.8812 195.847 52.91 203.716C52.721 205.531 52.5104 207.255 52.4672 208.876C52.4402 209.686 52.3754 210.47 52.37 211.221C52.3646 211.972 52.37 212.696 52.37 213.382C52.37 214.76 52.4672 216.008 52.5266 217.099C52.5644 217.639 52.586 218.18 52.6292 218.623C52.6724 219.066 52.7372 219.509 52.7858 219.898C52.8776 220.638 52.9532 221.227 53.0072 221.659C53.0342 221.843 53.0612 221.989 53.0774 222.113C53.0863 222.169 53.1027 222.223 53.126 222.275Z" fill="#263238"/>
<path d="M39.7448 145.116C39.7628 145.167 39.7864 145.216 39.8149 145.262C39.8743 145.37 39.9446 145.511 40.0364 145.673L40.9111 147.245C41.1001 147.585 41.3269 147.958 41.5483 148.38L42.2342 149.763L43.0279 151.351C43.2925 151.919 43.568 152.529 43.8326 153.167C44.0972 153.804 44.4158 154.474 44.702 155.176C44.9882 155.879 45.2419 156.63 45.5551 157.392L46.0033 158.559C46.1383 158.964 46.2788 159.369 46.4192 159.785C46.6946 160.612 46.9591 161.465 47.2777 162.335C48.3577 165.863 49.4 169.786 50.2694 173.957C51.1388 178.128 51.7058 182.148 52.1432 185.811C52.5806 189.474 52.7965 192.797 52.8722 195.59C52.9424 196.984 52.9585 198.243 52.9585 199.372C52.9585 200.501 52.9585 201.436 52.9585 202.214C52.9585 202.992 52.9585 203.576 52.9585 204.013V204.483C52.9585 204.586 52.9585 204.64 52.9585 204.64C52.9648 204.588 52.9648 204.535 52.9585 204.483C52.9585 204.359 52.9586 204.208 52.991 204.019C52.991 203.576 53.0395 202.976 53.0773 202.219C53.1151 201.463 53.1367 200.48 53.1367 199.372C53.1367 198.264 53.1367 196.995 53.0989 195.59C53.0503 192.791 52.8019 189.469 52.4401 185.789C52.0783 182.11 51.4357 178.085 50.5879 173.903C49.7401 169.721 48.6709 165.799 47.5639 162.26L46.6999 159.688C46.5595 159.272 46.4192 158.861 46.2788 158.461L45.8198 157.294L44.9449 155.079C44.6533 154.371 44.3401 153.712 44.0539 153.069C43.7677 152.426 43.5139 151.821 43.2223 151.259C42.9307 150.697 42.6824 150.179 42.407 149.676C42.1316 149.174 41.9102 148.725 41.6942 148.299C41.4782 147.872 41.2297 147.515 41.0299 147.18L40.0957 145.64C39.9985 145.478 39.9121 145.349 39.8473 145.246C39.7825 145.143 39.7502 145.111 39.7448 145.116Z" fill="#263238"/>
<path d="M41.4943 193.375C41.6472 193.71 41.8278 194.032 42.0343 194.337C42.4123 194.936 42.9253 195.828 43.5301 196.941C44.1349 198.054 44.8045 199.405 45.4795 200.934C46.1545 202.463 46.7917 204.175 47.3695 206.039C47.9473 207.903 48.3577 209.675 48.6871 211.318C49.0165 212.96 49.2271 214.457 49.3297 215.721C49.4323 216.985 49.5349 218.001 49.5619 218.709C49.5622 219.071 49.593 219.433 49.6537 219.79C49.6915 219.431 49.7041 219.07 49.6915 218.709C49.6915 217.996 49.6915 216.964 49.5673 215.7C49.4488 214.212 49.256 212.732 48.9895 211.264C48.6522 209.466 48.2177 207.688 47.6881 205.937C47.1417 204.193 46.4981 202.481 45.7603 200.809C45.0691 199.275 44.3779 197.924 43.7407 196.822C43.1035 195.72 42.5581 194.844 42.1207 194.266C41.9316 193.956 41.7223 193.658 41.4943 193.375Z" fill="#263238"/>
<path d="M63.0403 217.304H40.4629L43.1953 240.375H60.2269L63.0403 217.304Z" fill="#455A64"/>
<path d="M62.2142 237.884L60.2972 240.375H43.1954L41.2244 237.965L62.2142 237.884Z" fill="#263238"/>
<path d="M41.3431 224.074C41.3431 224.166 46.0303 224.241 51.8083 224.241C57.5863 224.241 62.2681 224.166 62.2681 224.074C62.2681 223.982 57.5863 223.906 51.8083 223.906C46.0303 223.906 41.3431 223.998 41.3431 224.074Z" fill="#FAFAFA"/>
<path d="M41.3431 225.625C41.3431 225.716 46.0303 225.792 51.8083 225.792C57.5863 225.792 62.2681 225.716 62.2681 225.625C62.2681 225.533 57.5863 225.457 51.8083 225.457C46.0303 225.457 41.3431 225.533 41.3431 225.625Z" fill="#FAFAFA"/>
<path d="M41.6239 227.11C41.6239 227.208 46.1437 227.283 51.7219 227.283C57.3001 227.283 61.8199 227.208 61.8199 227.11C61.8199 227.013 57.3001 226.943 51.7219 226.943C46.1437 226.943 41.6239 227.019 41.6239 227.11Z" fill="#FAFAFA"/>
<path d="M59.5898 167.582C59.5814 167.655 59.5814 167.729 59.5898 167.803C59.5898 167.971 59.6167 168.181 59.6383 168.43C59.6977 169.008 59.7733 169.786 59.8705 170.726C60.0757 172.666 60.3781 175.345 60.7237 178.29C60.7237 178.404 60.7237 178.517 60.7615 178.62V178.722H60.8642C63.764 178.766 66.3721 178.793 68.2567 178.803H70.4869H71.0917C71.2321 178.803 71.3023 178.803 71.3023 178.803C71.2354 178.786 71.1664 178.777 71.0971 178.776L70.4923 178.749L68.2621 178.679C66.3775 178.625 63.7694 178.571 60.8642 178.528L60.9776 178.625C60.9776 178.522 60.9776 178.409 60.9398 178.295C60.5942 175.34 60.2701 172.666 60.0217 170.731C59.8975 169.791 59.7949 169.019 59.7139 168.441C59.6815 168.192 59.6491 167.987 59.6221 167.819C59.6266 167.739 59.6156 167.658 59.5898 167.582Z" fill="#263238"/>
<path d="M64.7252 160.682C64.7129 160.757 64.7129 160.834 64.7252 160.909C64.7252 161.082 64.7252 161.298 64.7252 161.557C64.7252 162.152 64.7252 162.957 64.7252 163.94C64.7576 165.95 64.8116 168.727 64.8872 171.79C64.8872 171.915 64.8872 172.039 64.8872 172.152V172.271H65.006C67.5317 172.075 70.0663 172.018 72.5984 172.098C73.565 172.098 74.348 172.169 74.888 172.196H75.509H75.725C75.725 172.196 75.6548 172.196 75.5144 172.152L74.8934 172.082C74.3534 172.028 73.5758 171.963 72.6038 171.909C70.0661 171.784 67.5231 171.818 64.9898 172.012L65.114 172.125C65.114 172.012 65.114 171.888 65.114 171.763C65.0384 168.694 64.9574 165.923 64.8872 163.913C64.8494 162.935 64.817 162.13 64.7954 161.536C64.7954 161.276 64.7954 161.06 64.7576 160.887C64.7531 160.818 64.7422 160.749 64.7252 160.682Z" fill="#263238"/>
<path d="M70.7299 158.332C70.6674 158.55 70.6205 158.772 70.5895 158.996C70.5031 159.461 70.3951 160.077 70.2547 160.812C69.9631 162.346 69.5041 164.459 68.8615 166.755L68.7913 166.998L69.0235 166.89L69.2935 166.755C71.1957 165.853 73.2305 165.264 75.3199 165.01C76.1245 164.912 76.7779 164.875 77.2261 164.858C77.4607 164.869 77.6959 164.856 77.9281 164.821C77.8691 164.811 77.8088 164.811 77.7499 164.821C77.6311 164.821 77.4529 164.794 77.2099 164.794C76.568 164.782 75.926 164.809 75.2875 164.875C73.1712 165.087 71.1081 165.666 69.1909 166.587L68.9155 166.722L69.0775 166.852C69.6265 164.88 70.0717 162.88 70.4113 160.86C70.5409 160.088 70.6273 159.461 70.6759 159.029C70.7185 158.799 70.7366 158.565 70.7299 158.332Z" fill="#263238"/>
<path d="M38.8483 200.393C38.8483 200.426 39.5071 200.361 40.5601 200.318C41.9295 200.265 43.301 200.31 44.6641 200.453C44.9881 200.485 45.3067 200.528 45.6091 200.572H45.7171V200.469C45.9655 199.102 46.1653 197.897 46.3057 197.033C46.3978 196.573 46.4573 196.107 46.4839 195.639C46.3411 196.085 46.2328 196.542 46.1599 197.006C45.9817 197.865 45.7495 199.064 45.4957 200.426L45.6253 200.334C45.3175 200.291 44.9989 200.247 44.6695 200.215C43.2955 200.068 41.9112 200.045 40.5331 200.145C39.9931 200.188 39.5773 200.242 39.2857 200.285C39.1361 200.304 38.9893 200.34 38.8483 200.393Z" fill="#263238"/>
<path d="M36.7207 196.152C36.7207 196.19 37.3525 196.044 38.3731 195.914C39.7031 195.752 41.0471 195.739 42.3799 195.876L43.0873 195.963H43.2061V195.849C43.3465 194.445 43.4599 193.197 43.5355 192.305C43.5965 191.827 43.62 191.345 43.6057 190.863C43.4996 191.332 43.4257 191.809 43.3843 192.289C43.2709 193.18 43.1305 194.423 42.9793 195.822L43.1089 195.725L42.3799 195.65C41.031 195.509 39.6694 195.545 38.3299 195.758C37.9243 195.821 37.5223 195.906 37.1257 196.011C36.9857 196.042 36.8498 196.09 36.7207 196.152Z" fill="#263238"/>
<path d="M35.1871 155.998C35.2587 156.045 35.3347 156.084 35.4139 156.117L36.0727 156.408L38.5135 157.446L46.6135 160.801L47.0509 160.979L47.1535 161.022L47.1967 160.92C48.5305 157.905 49.7293 155.193 50.6149 153.199L51.6193 150.865L51.8839 150.227C51.9161 150.152 51.9414 150.075 51.9595 149.995C51.913 150.061 51.8732 150.132 51.8407 150.206C51.7597 150.373 51.6625 150.579 51.5383 150.827L50.4583 153.134L46.9753 160.828L47.1265 160.768L46.6891 160.59L38.5999 157.294L36.1321 156.322L35.4571 156.068C35.3709 156.032 35.28 156.008 35.1871 155.998Z" fill="#263238"/>
<path d="M33.2 146.235C33.2613 146.29 33.3283 146.339 33.3998 146.381L33.9938 146.764L36.197 148.136L43.5464 152.626L43.6651 152.696L43.7138 152.567L43.8488 152.21L46.9322 143.89C47.3048 142.847 47.6126 141.988 47.8394 141.361L48.077 140.67C48.1104 140.59 48.1323 140.507 48.1418 140.421C48.1 140.496 48.0639 140.573 48.0338 140.653L47.78 141.329C47.5424 141.95 47.2076 142.798 46.8026 143.836C45.9926 145.997 44.8856 148.904 43.6598 152.135C43.6166 152.253 43.568 152.378 43.5302 152.486L43.6922 152.426L36.2888 148.001L34.0478 146.688L33.4322 146.343C33.359 146.298 33.2811 146.262 33.2 146.235Z" fill="#263238"/>
<path d="M33.8588 141.026C34.0107 141.138 34.1735 141.234 34.3448 141.313C34.6634 141.491 35.1224 141.75 35.6786 142.096C37.1547 143.01 38.5256 144.085 39.7664 145.3L40.0526 145.576L39.9554 145.187C39.8582 144.787 39.7664 144.36 39.6962 143.922C39.3865 141.915 39.495 139.866 40.0148 137.903C40.1773 137.309 40.3701 136.723 40.5926 136.148C40.6915 135.944 40.7728 135.733 40.8356 135.515C40.7114 135.706 40.603 135.907 40.5116 136.115C40.2568 136.68 40.0385 137.262 39.8582 137.855C39.286 139.836 39.1533 141.917 39.4694 143.955C39.5396 144.403 39.6368 144.835 39.7394 145.246L39.9284 145.138C38.6708 143.91 37.2692 142.84 35.7542 141.95C35.1818 141.621 34.712 141.378 34.3826 141.226C34.2142 141.144 34.0389 141.077 33.8588 141.026Z" fill="#263238"/>
<path d="M59.6221 191.657C59.6365 191.854 59.6709 192.05 59.7247 192.24C59.8003 192.613 59.9137 193.153 60.0379 193.823C60.3634 195.592 60.5673 197.381 60.6481 199.178V199.28H60.7399H61.2475C63.4885 199.415 65.5135 199.529 66.9823 199.594L68.7211 199.664C68.933 199.684 69.1463 199.684 69.3583 199.664C69.1507 199.617 68.9392 199.59 68.7265 199.583L66.9931 199.437C65.5243 199.329 63.4993 199.194 61.2637 199.059L60.7561 199.032L60.8641 199.14C60.7845 197.351 60.5624 195.571 60.1999 193.818C60.0541 193.143 59.9191 192.608 59.8111 192.24C59.7673 192.04 59.704 191.845 59.6221 191.657Z" fill="#263238"/>
<path d="M64.0555 185.314C64.0487 185.511 64.0614 185.708 64.0933 185.903C64.1419 186.319 64.2013 186.859 64.2769 187.523C64.4389 188.88 64.6819 190.765 64.9681 192.883V192.975H65.0599L65.7835 193.024C68.0785 193.18 70.1467 193.418 71.6425 193.613L73.4137 193.85C73.6274 193.89 73.8442 193.912 74.0617 193.915C73.855 193.843 73.6415 193.792 73.4245 193.764C73.0141 193.677 72.4093 193.569 71.6641 193.45C70.1737 193.218 68.1001 192.953 65.7997 192.797L65.0707 192.748L65.1787 192.845C64.8871 190.733 64.6387 188.847 64.4119 187.496C64.3093 186.854 64.2283 186.319 64.1635 185.903C64.1494 185.703 64.1132 185.505 64.0555 185.314Z" fill="#263238"/>
<path d="M69.2773 182.569C69.2449 182.569 69.3853 183.19 69.5419 184.19C69.7584 185.512 69.8811 186.848 69.9091 188.188V188.312H70.0387L70.4167 188.264C71.8304 188.093 73.2532 188.008 74.6773 188.01H75.9787C76.1365 188.028 76.296 188.028 76.4539 188.01C76.3012 187.964 76.1433 187.939 75.9841 187.934C75.6763 187.902 75.2335 187.864 74.6827 187.848C73.2491 187.796 71.8136 187.857 70.3897 188.031L70.0063 188.08L70.1359 188.193C70.106 186.843 69.9597 185.499 69.6985 184.174C69.5959 183.671 69.4987 183.266 69.4231 182.991C69.3953 182.844 69.3462 182.702 69.2773 182.569Z" fill="#263238"/>
<path d="M39.5341 188.955C39.8232 189.739 40.1605 190.504 40.5439 191.246C40.8574 192.02 41.2181 192.775 41.6239 193.505C41.4343 192.676 41.1442 191.874 40.7599 191.116C40.4378 190.35 40.0263 189.625 39.5341 188.955Z" fill="#263238"/>
<path d="M36.6991 191.943C37.5635 192.075 38.4198 192.256 39.2641 192.483C40.0862 192.778 40.8903 193.121 41.6725 193.51C40.9985 192.919 40.1961 192.494 39.3289 192.267C38.4888 191.959 37.5889 191.848 36.6991 191.943Z" fill="#263238"/>
</g>
<defs>
<clipPath id="clip0_378_4154">
<rect width="277" height="241" fill="white" transform="translate(0.5)"/>
</clipPath>
</defs>
</svg>
