<svg width="24" height="24" viewBox="0 0 24 24" fill="none" xmlns="http://www.w3.org/2000/svg">
<g clip-path="url(#clip0_178_2345)">
<path d="M21.4872 4.2188C21.8561 3.77273 22.0781 3.20086 22.0781 2.57812C22.0781 1.15655 20.9216 0 19.5 0C18.0784 0 16.9219 1.15655 16.9219 2.57812C16.9219 3.20086 17.1439 3.77273 17.5128 4.2188C16.7925 4.5795 16.1828 5.12963 15.75 5.80373C15.3172 5.12963 14.7075 4.5795 13.9872 4.2188C14.3561 3.77273 14.5781 3.20086 14.5781 2.57812C14.5781 1.15655 13.4216 0 12 0C10.5784 0 9.42188 1.15655 9.42188 2.57812C9.42188 3.20086 9.64388 3.77273 10.0128 4.2188C9.2925 4.5795 8.6828 5.12963 8.25 5.80373C7.81716 5.12963 7.2075 4.5795 6.48722 4.2188C6.85612 3.77273 7.07812 3.20086 7.07812 2.57812C7.07812 1.15655 5.92158 0 4.5 0C3.07842 0 1.92188 1.15655 1.92188 2.57812C1.92188 3.20086 2.14387 3.77273 2.51278 4.2188C1.05216 4.95028 0.046875 6.46139 0.046875 8.20312V11.4844C0.046875 11.8727 0.361687 12.1875 0.75 12.1875H0.984375V22.5938H0.75C0.361687 22.5938 0.046875 22.9086 0.046875 23.2969C0.046875 23.6852 0.361687 24 0.75 24H23.25C23.6383 24 23.9531 23.6852 23.9531 23.2969C23.9531 22.9086 23.6383 22.5938 23.25 22.5938H23.0156V12.1875H23.25C23.6383 12.1875 23.9531 11.8727 23.9531 11.4844V8.20312C23.9531 6.46139 22.9478 4.95028 21.4872 4.2188ZM22.5469 10.7812H1.45312V9.375H22.5469V10.7812ZM18.3281 2.57812C18.3281 1.93195 18.8538 1.40625 19.5 1.40625C20.1462 1.40625 20.6719 1.93195 20.6719 2.57812C20.6719 3.2243 20.1462 3.75 19.5 3.75C18.8538 3.75 18.3281 3.2243 18.3281 2.57812ZM19.5 5.15625C21.1011 5.15625 22.4168 6.39792 22.537 7.96875H16.463C16.5832 6.39792 17.8989 5.15625 19.5 5.15625ZM10.8281 2.57812C10.8281 1.93195 11.3538 1.40625 12 1.40625C12.6462 1.40625 13.1719 1.93195 13.1719 2.57812C13.1719 3.2243 12.6462 3.75 12 3.75C11.3538 3.75 10.8281 3.2243 10.8281 2.57812ZM12 5.15625C13.6011 5.15625 14.9168 6.39792 15.037 7.96875H8.96302C9.0832 6.39792 10.3989 5.15625 12 5.15625ZM3.32812 2.57812C3.32812 1.93195 3.85383 1.40625 4.5 1.40625C5.14617 1.40625 5.67188 1.93195 5.67188 2.57812C5.67188 3.2243 5.14617 3.75 4.5 3.75C3.85383 3.75 3.32812 3.2243 3.32812 2.57812ZM4.5 5.15625C6.10111 5.15625 7.4168 6.39792 7.53698 7.96875H1.46302C1.5832 6.39792 2.89889 5.15625 4.5 5.15625ZM21.6094 22.5938H2.39062V12.1875H21.6094V22.5938Z" fill="#808080"/>
<path d="M10.4375 21.1875H13.5625C13.9508 21.1875 14.2656 20.8727 14.2656 20.4844V14.2969C14.2656 13.9086 13.9508 13.5938 13.5625 13.5938H10.4375C10.0492 13.5938 9.73438 13.9086 9.73438 14.2969V20.4844C9.73438 20.8727 10.0492 21.1875 10.4375 21.1875ZM11.1406 15H12.8593V19.7812H11.1406V15Z" fill="#808080"/>
<path d="M4.5 21.1875H7.62502C8.01333 21.1875 8.32814 20.8727 8.32814 20.4844V14.2969C8.32814 13.9086 8.01333 13.5938 7.62502 13.5938H4.5C4.11169 13.5938 3.79688 13.9086 3.79688 14.2969V20.4844C3.79688 20.8727 4.11169 21.1875 4.5 21.1875ZM5.20313 15H6.92189V19.7812H5.20313V15Z" fill="#808080"/>
<path d="M16.375 21.1875H19.5C19.8883 21.1875 20.2031 20.8727 20.2031 20.4844V14.2969C20.2031 13.9086 19.8883 13.5938 19.5 13.5938H16.375C15.9867 13.5938 15.6719 13.9086 15.6719 14.2969V20.4844C15.6719 20.8727 15.9867 21.1875 16.375 21.1875ZM17.0781 15H18.7969V19.7812H17.0781V15Z" fill="#808080"/>
</g>
<defs>
<clipPath id="clip0_178_2345">
<rect width="24" height="24" fill="white"/>
</clipPath>
</defs>
</svg>
