<svg width="24" height="24" viewBox="0 0 24 24" fill="none" xmlns="http://www.w3.org/2000/svg">
<path d="M19.7578 0H8.50784C7.34473 0 6.39846 0.946266 6.39846 2.10938V7.3125C6.39846 7.70081 6.71328 8.01562 7.10159 8.01562C7.4899 8.01562 7.80471 7.70081 7.80471 7.3125V2.10938C7.80471 1.72167 8.12014 1.40625 8.50784 1.40625H19.7578C20.1455 1.40625 20.461 1.72167 20.461 2.10938V21.8906C20.461 22.2783 20.1455 22.5938 19.7578 22.5938H8.50784C8.12014 22.5938 7.80471 22.2783 7.80471 21.8906V16.6875C7.80471 16.2992 7.4899 15.9844 7.10159 15.9844C6.71328 15.9844 6.39846 16.2992 6.39846 16.6875V21.8906C6.39846 23.0537 7.34473 24 8.50784 24H19.7578C20.9209 24 21.8672 23.0537 21.8672 21.8906V2.10938C21.8672 0.946266 20.9209 0 19.7578 0Z" fill="#1F1F1F"/>
<path d="M0.429602 11.4254L3.30871 9.39562C3.6261 9.17184 4.06471 9.24783 4.28849 9.56517C4.51223 9.88256 4.43634 10.3212 4.11895 10.545L3.0524 11.2969H13.8894C14.2777 11.2969 14.5926 11.6117 14.5926 12C14.5926 12.3883 14.2777 12.7031 13.8894 12.7031H3.0524L4.11895 13.4551C4.43634 13.6788 4.51227 14.1175 4.28849 14.4349C4.06462 14.7525 3.62592 14.8282 3.30871 14.6045L0.429602 12.5747C0.0334142 12.2954 0.0343516 11.704 0.429602 11.4254Z" fill="#1F1F1F"/>
</svg>
