<svg width="24" height="24" viewBox="0 0 24 24" fill="none" xmlns="http://www.w3.org/2000/svg">
<g clip-path="url(#clip0_232_3340)">
<path d="M23.2969 13.1776H18.2549H17.1314V9.18061C17.1314 7.66795 16.192 6.27333 14.4862 5.25361C12.8936 4.30162 10.791 3.77737 8.5657 3.77737C6.34031 3.77737 4.23773 4.30167 2.64525 5.25361C0.939422 6.27333 0 7.66795 0 9.18061V14.8194C0 16.332 0.939422 17.7267 2.64525 18.7464C4.23778 19.6984 6.34036 20.2226 8.5657 20.2226H23.2969C23.6852 20.2226 24 19.9078 24 19.5195V19.4637V13.8807C24 13.4924 23.6852 13.1776 23.2969 13.1776ZM22.5938 14.5838V18.7606H18.958V14.5838H22.5938ZM14.3662 13.1776C14.4064 13.1544 14.4465 13.1313 14.4862 13.1076C14.9595 12.8247 15.3735 12.5128 15.7252 12.1776V13.1776H14.3662ZM8.5657 5.18358C12.4465 5.18358 15.7252 7.014 15.7252 9.18061C15.7252 11.3472 12.4465 13.1776 8.5657 13.1776C4.68488 13.1776 1.40625 11.3472 1.40625 9.18061C1.40625 7.014 4.68488 5.18358 8.5657 5.18358ZM7.80867 18.7928V17.6199C7.80867 17.2316 7.49386 16.9168 7.10555 16.9168C6.71723 16.9168 6.40242 17.2316 6.40242 17.6199V18.6218C5.92969 18.5349 5.47673 18.4209 5.05003 18.2829V16.424C5.05003 16.0357 4.73522 15.7208 4.34691 15.7208C3.95859 15.7208 3.64378 16.0357 3.64378 16.424V17.6921C2.27353 16.9589 1.40625 15.9337 1.40625 14.8194V12.1776C1.75786 12.5128 2.17191 12.8247 2.64525 13.1076C4.23778 14.0596 6.34036 14.5838 8.5657 14.5838H17.5518V18.8164H16.0845V16.4239C16.0845 16.0356 15.7697 15.7207 15.3814 15.7207C14.9931 15.7207 14.6782 16.0356 14.6782 16.4239V18.8164H13.3259V17.6199C13.3259 17.2316 13.011 16.9168 12.6227 16.9168C12.2344 16.9168 11.9196 17.2316 11.9196 17.6199V18.8164H10.5673V16.4239C10.5673 16.0356 10.2525 15.7207 9.86414 15.7207C9.47583 15.7207 9.16102 16.0356 9.16102 16.4239V18.8164H8.5657C8.31047 18.8164 8.05795 18.8083 7.80867 18.7928Z" fill="#4F4F4F"/>
<path d="M8.5658 11.2381C10.7044 11.2381 12.2566 10.3728 12.2566 9.18061C12.2566 7.98839 10.7044 7.12303 8.5658 7.12303C6.42722 7.12303 4.875 7.98834 4.875 9.18061C4.875 10.3729 6.42722 11.2381 8.5658 11.2381ZM8.5658 8.52928C9.94111 8.52928 10.7364 8.98434 10.8443 9.18061C10.7363 9.37688 9.94106 9.83189 8.5658 9.83189C7.19053 9.83189 6.3952 9.37683 6.2872 9.18061C6.39516 8.98434 7.19048 8.52928 8.5658 8.52928Z" fill="#4F4F4F"/>
<path d="M20.7759 17.3988C21.1771 17.3988 21.5024 17.0735 21.5024 16.6722C21.5024 16.271 21.1771 15.9457 20.7759 15.9457C20.3746 15.9457 20.0493 16.271 20.0493 16.6722C20.0493 17.0735 20.3746 17.3988 20.7759 17.3988Z" fill="#4F4F4F"/>
</g>
<defs>
<clipPath id="clip0_232_3340">
<rect width="24" height="24" fill="white"/>
</clipPath>
</defs>
</svg>
