<svg width="270" height="241" viewBox="0 0 270 241" fill="none" xmlns="http://www.w3.org/2000/svg">
<path d="M202.635 176.415C199.783 174.628 196.559 173.519 193.212 173.173C191.673 173.011 189.972 173.06 188.752 173.989C188.61 174.073 188.493 174.192 188.413 174.336C188.332 174.479 188.291 174.641 188.293 174.805C188.369 175.032 188.525 175.223 188.73 175.345C192.564 178.274 198.364 178.641 202.635 176.426" fill="#E0E0E0"/>
<path d="M202.392 176.15C200.21 174.547 198.173 172.753 196.306 170.791C194.431 168.817 193.113 166.38 192.488 163.729C192.326 162.93 192.278 162.006 192.791 161.368C197.651 165.15 201.431 170.061 202.392 176.15Z" fill="#E0E0E0"/>
<path d="M202.581 176.383C202.135 173.732 202.173 171.023 202.694 168.386C203.305 165.777 204.725 163.275 206.955 161.79C207.792 163.751 207.43 166.009 206.842 168.057C205.927 171.23 204.5 174.232 202.619 176.945" fill="#E0E0E0"/>
<path d="M207.36 184.909C204.476 185.26 201.96 186.778 199.8 188.734C197.634 190.707 196.126 193.299 195.48 196.157C198.315 195.984 200.718 193.996 202.457 191.743C204.196 189.49 205.405 187.048 207.317 184.952" fill="#E0E0E0"/>
<path d="M208.37 186.254C207.236 183.366 206.839 180.24 207.216 177.16C207.593 174.08 208.732 171.142 210.53 168.613C212.177 174.47 211.572 181.078 208.37 186.254Z" fill="#E0E0E0"/>
<path d="M214.655 193.758C212.018 193.598 209.391 194.215 207.101 195.533C204.81 196.852 202.957 198.814 201.771 201.177C201.609 201.495 201.469 201.901 201.685 202.187C201.795 202.296 201.931 202.376 202.08 202.42C202.228 202.464 202.386 202.471 202.538 202.441C205.076 202.273 207.328 200.75 209.185 199.005C211.043 197.259 212.663 195.255 214.715 193.748" fill="#E0E0E0"/>
<path d="M214.456 193.348C213.104 188.99 213.021 184.336 214.218 179.932C214.688 178.209 215.482 176.388 217.075 175.583C217.139 175.54 217.212 175.511 217.288 175.497C217.364 175.483 217.442 175.485 217.517 175.502C217.646 175.572 217.745 175.688 217.793 175.826C218.329 177.034 218.561 178.355 218.468 179.673C218.371 180.986 218.169 182.289 217.863 183.569C217.361 185.951 217.091 188.507 215.789 190.56C215.481 191.056 215.203 191.57 214.958 192.1C214.709 192.64 214.709 192.802 214.483 193.218" fill="#E0E0E0"/>
<path d="M231.088 195.828C229.856 191.138 231.163 185.454 234.117 181.607C234.338 181.326 234.625 181.018 234.981 181.067C235.521 181.116 235.667 181.84 235.64 182.385C235.418 187.209 233.841 191.872 231.088 195.839" fill="#E0E0E0"/>
<path d="M232.589 196.854C238.286 198.335 244.814 196.898 249.556 193.402C246.718 191.974 243.474 191.575 240.376 192.273C237.308 192.975 234.506 194.353 232.594 196.854" fill="#E0E0E0"/>
<path d="M233.852 193.731C237.044 188.528 243.157 185.13 249.248 184.822C248.546 187.302 246.51 189.231 244.215 190.392C241.92 191.554 239.355 192.067 236.822 192.554C235.84 192.743 234.49 192.953 233.852 193.726" fill="#E0E0E0"/>
<path d="M231.406 178.576C232.27 175.616 233.14 172.633 233.377 169.553C233.615 166.474 233.172 163.27 231.579 160.633C228.598 166.398 228.296 173.141 231.314 178.89" fill="#E0E0E0"/>
<path d="M241.434 173.503C244.922 167.171 252.029 162.108 259.222 161.401C256.446 168.311 248.881 173.654 241.434 173.503Z" fill="#E0E0E0"/>
<path d="M239.247 174.746C244.442 175.54 248.87 178.857 253.724 180.873C254.742 181.363 255.87 181.579 256.997 181.499C257.522 181.497 258.034 181.332 258.463 181.028C258.892 180.724 259.217 180.296 259.394 179.801C259.571 179.306 259.591 178.768 259.452 178.261C259.313 177.754 259.021 177.302 258.617 176.966C257.93 176.33 257.122 175.84 256.241 175.524C250.949 173.319 245.279 173.265 239.706 174.6" fill="#E0E0E0"/>
<path d="M236.239 178.393C237.416 178.728 237.816 179.338 238.75 180.132C241.926 182.835 245.683 184.767 249.728 185.778C250.144 185.881 250.695 185.924 250.906 185.541C251.116 185.157 250.857 184.811 250.619 184.514C248.855 182.445 246.566 180.891 243.994 180.014C241.456 179.068 239.263 177.933 236.239 178.177" fill="#E0E0E0"/>
<path d="M232.843 156.37C234.976 158.331 237.494 159.824 240.238 160.754C242.981 161.685 245.888 162.032 248.773 161.773C249.04 161.776 249.298 161.682 249.502 161.509C249.901 161.076 249.421 160.401 248.962 160.039C244.28 156.381 238.604 154.868 232.853 156.349" fill="#E0E0E0"/>
<path d="M236.866 154.917C239.687 152.842 242.959 151.463 246.414 150.893C249.869 150.323 253.41 150.578 256.748 151.638C254.243 154.107 250.771 155.42 247.271 155.798C243.778 156.116 240.256 155.818 236.866 154.917Z" fill="#E0E0E0"/>
<path d="M235.267 144.776C234.808 140.097 235.105 136.407 234.781 131.706C234.781 131.333 234.679 130.88 234.328 130.745C233.836 130.555 233.431 131.161 233.248 131.658C232.573 133.834 232.404 136.136 232.753 138.388C233.102 140.64 233.96 142.782 235.262 144.652" fill="#E0E0E0"/>
<path d="M234.932 145.295C238.102 143.333 240.478 140.772 242.676 137.763C244.204 135.672 245.495 133.16 245.149 130.593C242.989 130.55 240.959 131.733 239.56 133.365C238.227 135.06 237.259 137.011 236.714 139.097C236.093 141.156 235.661 143.274 234.932 145.295Z" fill="#E0E0E0"/>
<path d="M242.541 143.177C249.512 140.596 255.966 136.788 261.598 131.933C259.324 131.02 256.738 131.566 254.437 132.474C249.242 134.575 244.993 138.12 242.444 143.117" fill="#E0E0E0"/>
<path d="M237.06 147.85C240.581 148.239 244.15 148.488 247.644 147.904C251.138 147.321 254.318 145.97 257.521 144.619C257.801 144.539 258.041 144.358 258.196 144.111C258.245 143.962 258.248 143.801 258.205 143.65C258.161 143.498 258.074 143.364 257.953 143.263C257.706 143.069 257.417 142.934 257.11 142.869C253.627 141.896 249.863 142.328 246.434 143.506C243.168 144.617 240.026 146.066 237.06 147.829" fill="#E0E0E0"/>
<path d="M216.983 156.538C214.585 151.675 214.736 146.029 216.81 141.037C218.273 143.258 218.43 146.094 218.182 148.742C217.933 151.389 217.102 154.117 217.058 156.776" fill="#E0E0E0"/>
<path d="M207.392 151.675C204.388 151.636 201.408 152.225 198.644 153.404C195.879 154.582 193.391 156.325 191.338 158.521C194.33 158.991 197.408 158.218 200.129 156.9C202.851 155.582 205.27 153.707 207.662 151.854" fill="#E0E0E0"/>
<path d="M200.95 149.514C198.018 149.277 195.194 148.909 192.375 149.774C189.556 150.638 186.975 152.599 185.841 155.317C188.598 155.547 191.367 155.036 193.86 153.837C196.347 152.609 198.72 151.163 200.95 149.514Z" fill="#E0E0E0"/>
<path d="M210.492 149.633C207.857 147.904 205.146 146.143 202.079 145.43C199.012 144.717 195.448 145.241 193.304 147.558C195.793 149.017 198.806 149.179 201.69 149.179C204.574 149.179 208.105 149.147 210.821 150.109" fill="#E0E0E0"/>
<path d="M210.508 149.774C205.999 145.343 204.293 137.385 206.102 131.328C209.663 136.78 211.221 143.3 210.508 149.774Z" fill="#E0E0E0"/>
<path d="M222.907 137.223C223.754 135.245 224.354 133.165 225.115 131.155C225.811 129.112 226.881 127.216 228.269 125.563C229.677 123.901 231.683 122.861 233.852 122.667C233.159 125.719 231.838 128.593 229.971 131.105C228.105 133.617 225.736 135.711 223.015 137.255" fill="#E0E0E0"/>
<path d="M220.666 139.838C219.24 137.898 217.62 135.267 215.719 133.846C213.818 132.425 211.329 131.528 209.002 132.084C210.208 134.199 211.89 136.003 213.915 137.353C215.94 138.704 218.251 139.564 220.666 139.865" fill="#E0E0E0"/>
<path d="M221.114 137.385C220.19 135.04 219.262 132.668 218.889 130.177C218.516 127.687 218.743 125.023 220.018 122.846C222.491 127.53 223.285 132.571 221.238 137.433" fill="#E0E0E0"/>
<path d="M222.928 122.846C224.332 118.204 228.577 114.79 233.161 113.223C233.73 112.99 234.347 112.897 234.959 112.953C235.26 112.985 235.545 113.105 235.779 113.297C236.013 113.489 236.186 113.745 236.277 114.033C236.444 114.822 235.796 115.53 235.197 116.054C231.614 119.119 227.445 121.423 222.944 122.824" fill="#E0E0E0"/>
<path d="M222.982 119.053C223.16 116.06 223.344 113.023 224.316 110.192C225.288 107.361 227.167 104.697 229.894 103.455C230.353 106.475 229.025 109.484 227.416 112.099C225.806 114.714 223.873 117.156 222.907 120.052" fill="#E0E0E0"/>
<path d="M222.907 121.111C221.746 117.729 221.627 113.434 219.602 110.489C218.187 108.431 215.924 107.026 214.704 104.843C213.968 106.936 214.071 109.232 214.99 111.251C215.912 113.246 217.179 115.062 218.732 116.616C220.234 118.237 221.513 119.42 222.907 121.111Z" fill="#E0E0E0"/>
<path d="M222.928 220.703C222.842 220.703 222.761 198.146 222.755 170.321C222.75 142.496 222.815 119.933 222.907 119.933C222.999 119.933 223.074 142.491 223.08 170.321C223.085 198.151 223.02 220.703 222.928 220.703Z" fill="#E0E0E0"/>
<path d="M242.633 153.123C242.361 153.256 242.077 153.363 241.785 153.442L239.452 154.231C237.487 154.901 234.781 155.852 231.849 157.078C228.917 158.305 226.206 159.337 224.645 160.687C224.024 161.206 223.528 161.86 223.198 162.6C222.977 163.14 222.939 163.454 222.907 163.448C222.894 163.371 222.894 163.293 222.907 163.216C222.941 162.992 222.995 162.771 223.069 162.557C223.366 161.77 223.852 161.069 224.483 160.514C225.426 159.719 226.479 159.063 227.61 158.569C228.857 157.986 230.245 157.381 231.714 156.776C234.657 155.565 237.379 154.614 239.371 154.015C240.365 153.701 241.175 153.474 241.736 153.323C242.029 153.231 242.329 153.164 242.633 153.123Z" fill="#E0E0E0"/>
<path d="M249.091 137.255C249.022 137.348 248.942 137.433 248.854 137.509L248.13 138.168L245.43 140.627L236.439 148.65C232.929 151.778 229.9 154.76 227.799 157.013C226.751 158.132 225.92 159.067 225.353 159.715L224.699 160.461C224.628 160.552 224.547 160.636 224.456 160.709C224.51 160.605 224.575 160.507 224.651 160.417C224.786 160.239 224.986 159.969 225.256 159.634C225.796 158.959 226.6 158.013 227.632 156.857C230.345 153.9 233.213 151.088 236.223 148.434C239.744 145.316 242.951 142.518 245.279 140.497C246.418 139.514 247.358 138.709 248.049 138.12C248.357 137.86 248.589 137.655 248.81 137.482C248.893 137.394 248.988 137.317 249.091 137.255Z" fill="#E0E0E0"/>
<path d="M232.654 151.827C232.562 151.789 233.291 150.092 234.025 147.953C234.76 145.813 235.105 144.003 235.202 144.02C235.131 145.4 234.847 146.762 234.36 148.055C234.051 148.975 233.69 149.877 233.28 150.757C233.123 151.141 232.912 151.502 232.654 151.827Z" fill="#E0E0E0"/>
<path d="M222.95 165.485C222.749 165.293 222.568 165.081 222.41 164.853L221.022 163.081C219.861 161.573 218.252 159.493 216.448 157.224C214.645 154.955 212.987 152.902 211.788 151.432L210.368 149.682C210.183 149.476 210.02 149.252 209.882 149.012C210.095 149.186 210.29 149.382 210.465 149.595C210.827 149.99 211.34 150.568 211.961 151.286C213.208 152.723 214.898 154.744 216.702 157.019C218.506 159.293 220.088 161.401 221.206 162.962C221.746 163.735 222.21 164.361 222.512 164.804C222.68 165.016 222.827 165.244 222.95 165.485Z" fill="#E0E0E0"/>
<path d="M218.63 159.936C217.76 158.97 217.139 157.805 216.821 156.543C216.48 155.437 216.341 154.279 216.41 153.123H216.551C216.486 153.383 216.443 153.518 216.416 153.518C216.389 153.518 216.416 153.366 216.416 153.096H216.562C216.629 154.224 216.823 155.34 217.139 156.424C217.717 158.467 218.7 159.877 218.63 159.936Z" fill="#E0E0E0"/>
<path d="M213.052 152.913C212.662 152.617 212.237 152.371 211.788 152.178C210.65 151.842 209.454 151.749 208.278 151.902C207.087 151.996 205.906 152.185 204.746 152.47C204.27 152.618 203.785 152.736 203.294 152.821C203.725 152.561 204.193 152.368 204.682 152.248C205.844 151.891 207.043 151.664 208.256 151.573C209.477 151.412 210.717 151.547 211.874 151.967C212.364 152.137 212.78 152.471 213.052 152.913Z" fill="#E0E0E0"/>
<path d="M211.729 151.211C211.729 151.265 210.994 150.919 209.795 150.508C206.659 149.436 203.301 149.179 200.038 149.763C198.79 149.984 198.034 150.222 198.018 150.168C198.176 150.068 198.349 149.993 198.531 149.946C199.009 149.782 199.496 149.645 199.989 149.536C203.286 148.817 206.721 149.08 209.871 150.292C210.345 150.471 210.807 150.681 211.253 150.919C211.424 150.994 211.584 151.092 211.729 151.211Z" fill="#E0E0E0"/>
<path d="M222.907 144.019C222.334 142.415 221.863 140.777 221.497 139.114C220.801 136.38 220.309 134.143 220.417 134.121C220.525 134.1 221.135 136.283 221.827 139.033C222.518 141.783 223.02 143.998 222.907 144.019Z" fill="#E0E0E0"/>
<path d="M223.02 144.019C222.923 144.052 222.512 142.582 221.454 141.08C220.792 140.191 220.017 139.392 219.148 138.703C219.477 138.784 219.782 138.941 220.039 139.162C220.693 139.639 221.261 140.224 221.719 140.891C222.417 141.803 222.866 142.881 223.02 144.019Z" fill="#E0E0E0"/>
<path d="M222.928 208.676C222.896 208.676 222.826 208.136 222.572 207.179C222.201 205.83 221.696 204.522 221.065 203.273C219.51 200.085 216.675 196.049 213.073 192.003C211.286 189.96 209.558 188.037 208.084 186.194C206.767 184.573 205.575 182.853 204.52 181.051C203.811 179.832 203.21 178.554 202.721 177.231C202.554 176.761 202.435 176.394 202.365 176.15C202.321 176.024 202.29 175.894 202.273 175.761C202.306 175.761 202.468 176.275 202.84 177.199C203.372 178.492 204 179.744 204.719 180.943C205.796 182.719 207 184.414 208.321 186.016C209.795 187.842 211.529 189.755 213.316 191.797C216.929 195.855 219.758 199.945 221.276 203.181C221.891 204.452 222.367 205.785 222.696 207.158C222.786 207.531 222.852 207.91 222.896 208.292C222.92 208.419 222.931 208.547 222.928 208.676Z" fill="#E0E0E0"/>
<path d="M240.737 188.555C240.438 188.755 240.126 188.936 239.803 189.096C238.958 189.578 238.147 190.119 237.379 190.717C236.247 191.6 235.185 192.57 234.203 193.618C233.086 194.801 231.935 196.168 230.764 197.638C228.42 200.582 226.228 203.186 224.91 205.267C224.246 206.298 223.76 207.168 223.441 207.773C223.294 208.099 223.123 208.414 222.928 208.714C222.943 208.607 222.974 208.503 223.02 208.406C223.09 208.238 223.187 207.99 223.333 207.676C223.744 206.79 224.208 205.93 224.721 205.099C226.001 202.97 228.177 200.328 230.515 197.389C231.692 195.92 232.853 194.547 233.993 193.369C234.989 192.319 236.073 191.356 237.233 190.49C238.03 189.907 238.875 189.394 239.76 188.955C240.068 188.804 240.3 188.707 240.489 188.636C240.567 188.597 240.651 188.57 240.737 188.555Z" fill="#E0E0E0"/>
<path d="M241.083 195.082C240.434 195.228 239.775 195.324 239.112 195.369C237.528 195.532 235.963 195.842 234.436 196.292C232.925 196.783 231.508 197.526 230.245 198.491C229.279 199.237 228.825 199.853 228.776 199.821C228.85 199.654 228.951 199.501 229.073 199.367C229.38 198.982 229.723 198.63 230.099 198.313C231.355 197.267 232.802 196.474 234.36 195.979C235.908 195.515 237.504 195.232 239.117 195.136C239.769 195.057 240.428 195.039 241.083 195.082Z" fill="#E0E0E0"/>
<path d="M229.354 199.102C229.252 199.042 230.143 197.686 230.828 195.86C231.514 194.034 231.628 192.397 231.746 192.419C231.794 192.778 231.783 193.143 231.714 193.499C231.609 194.345 231.41 195.177 231.12 195.979C230.821 196.781 230.438 197.549 229.975 198.27C229.814 198.579 229.605 198.86 229.354 199.102Z" fill="#E0E0E0"/>
<path d="M246.499 171.029C246.403 171.099 246.298 171.155 246.186 171.196L245.257 171.617C244.852 171.796 244.361 172.017 243.805 172.309C243.248 172.601 242.595 172.893 241.92 173.298L240.84 173.908C240.467 174.124 240.095 174.378 239.706 174.627C238.912 175.108 238.118 175.707 237.265 176.307C235.463 177.671 233.765 179.166 232.184 180.781C230.617 182.419 229.174 184.171 227.864 186.022C227.286 186.891 226.724 187.702 226.271 188.512C226.039 188.918 225.796 189.29 225.596 189.674L225.018 190.754C224.635 191.446 224.359 192.105 224.095 192.673C223.83 193.24 223.614 193.753 223.457 194.147C223.301 194.542 223.171 194.844 223.069 195.093C223.027 195.204 222.975 195.311 222.912 195.412C222.929 195.295 222.959 195.181 223.004 195.071C223.09 194.812 223.204 194.493 223.339 194.104C223.509 193.592 223.706 193.089 223.927 192.597C224.181 192.024 224.44 191.354 224.813 190.652L225.353 189.539C225.547 189.15 225.785 188.766 226.017 188.361C226.46 187.54 227.021 186.713 227.594 185.832C230.166 182.058 233.362 178.749 237.044 176.048C237.908 175.448 238.712 174.859 239.517 174.384C239.917 174.141 240.289 173.887 240.667 173.676L241.747 173.082C242.433 172.682 243.092 172.401 243.664 172.125C244.237 171.85 244.744 171.644 245.144 171.488L246.1 171.12C246.228 171.071 246.362 171.04 246.499 171.029Z" fill="#E0E0E0"/>
<path d="M232.411 180.478C232.54 180.021 232.811 179.617 233.183 179.322C234.055 178.58 235.159 178.165 236.304 178.15C237.432 178.147 238.549 178.366 239.593 178.793C240.034 178.932 240.453 179.136 240.835 179.398C240.385 179.307 239.945 179.179 239.517 179.014C238.487 178.656 237.405 178.473 236.315 178.474C235.236 178.498 234.193 178.863 233.334 179.516C233.004 179.815 232.695 180.136 232.411 180.478Z" fill="#E0E0E0"/>
<path d="M230.305 182.65C230.213 182.602 231.007 181.435 231.191 179.765C231.374 178.096 230.894 176.783 230.991 176.756C231.088 176.729 231.207 177.047 231.358 177.593C231.546 178.314 231.6 179.063 231.515 179.803C231.431 180.542 231.207 181.259 230.856 181.915C230.58 182.418 230.337 182.672 230.305 182.65Z" fill="#E0E0E0"/>
<path d="M207.36 211.912C207.846 220.53 210.443 229.299 214.439 238.165H231.806C235.613 229.39 238.032 220.632 238.464 211.912H207.36Z" fill="#E0E0E0"/>
<path d="M235.64 225.862C235.64 225.954 229.921 226.024 222.869 226.024C215.816 226.024 210.098 225.954 210.098 225.862C210.098 225.771 215.816 225.7 222.869 225.7C229.921 225.7 235.64 225.771 235.64 225.862Z" fill="#FAFAFA"/>
<path d="M235.256 228.985C235.256 229.077 229.894 229.147 223.279 229.147C216.664 229.147 211.307 229.077 211.307 228.985C211.307 228.893 216.67 228.823 223.279 228.823C229.889 228.823 235.256 228.893 235.256 228.985Z" fill="#FAFAFA"/>
<path d="M214.715 217.591C214.931 220.255 214.931 222.933 214.715 225.598C214.623 225.598 214.547 223.809 214.547 221.594C214.547 219.379 214.623 217.591 214.715 217.591Z" fill="#FAFAFA"/>
<path d="M224.019 217.591C224.111 217.591 224.181 219.449 224.181 221.74C224.181 224.031 224.111 225.884 224.019 225.884C223.927 225.884 223.857 224.025 223.857 221.74C223.857 219.455 223.927 217.591 224.019 217.591Z" fill="#FAFAFA"/>
<path d="M232.74 217.499C232.956 220.315 232.956 223.143 232.74 225.96C232.648 225.96 232.578 224.063 232.578 221.729C232.578 219.395 232.664 217.499 232.74 217.499Z" fill="#FAFAFA"/>
<path d="M237.908 217.591C237.908 217.682 231.201 217.758 222.928 217.758C214.655 217.758 207.949 217.682 207.949 217.591C207.949 217.499 214.65 217.428 222.928 217.428C231.206 217.428 237.908 217.482 237.908 217.591Z" fill="#FAFAFA"/>
<path d="M247.352 0.346069H205.74V43.7474H247.352V0.346069Z" fill="#E0E0E0"/>
<path d="M244.534 0.346069H202.921V43.7474H244.534V0.346069Z" fill="#FAFAFA"/>
<path d="M244.55 43.7636H202.91V0.335205H244.55V43.7636ZM202.932 43.7636H244.512V0.356817H202.932V43.7636Z" fill="#E0E0E0"/>
<path d="M238.945 6.18115H208.516V37.9123H238.945V6.18115Z" fill="white"/>
<path d="M208.516 38.1284C208.298 38.445 208.046 38.7367 207.765 38.9983C207.279 39.5386 206.593 40.2085 205.832 40.9595C205.07 41.7105 204.363 42.3859 203.845 42.8667C203.582 43.1447 203.286 43.3897 202.964 43.5961C203.177 43.277 203.427 42.9849 203.71 42.7263C204.196 42.213 204.881 41.516 205.648 40.7596C206.415 40.0032 207.122 39.3333 207.641 38.8524C207.901 38.5754 208.195 38.3321 208.516 38.1284Z" fill="#E0E0E0"/>
<path d="M238.939 38.0474C239.259 38.2623 239.553 38.5144 239.814 38.7984C240.327 39.2846 241.024 39.9708 241.774 40.7326C242.525 41.4944 243.2 42.2022 243.68 42.7209C243.958 42.9837 244.203 43.2794 244.409 43.6015C244.09 43.3892 243.799 43.1388 243.54 42.8559C243.027 42.3697 242.33 41.6835 241.574 40.9163C240.818 40.1491 240.149 39.4413 239.668 38.9226C239.391 38.6608 239.147 38.367 238.939 38.0474Z" fill="#E0E0E0"/>
<path d="M238.858 6.26755C239.073 5.94722 239.325 5.65343 239.609 5.39229C240.095 4.852 240.775 4.18204 241.542 3.43104C242.309 2.68004 243 2.01548 243.54 1.52922C243.802 1.24878 244.098 1.00196 244.42 0.794434C244.208 1.11354 243.958 1.40564 243.675 1.6643C243.189 2.17757 242.503 2.87454 241.736 3.63095C240.97 4.38735 240.262 5.05731 239.744 5.53817C239.477 5.81427 239.18 6.05899 238.858 6.26755Z" fill="#E0E0E0"/>
<path d="M208.44 6.33786C208.118 6.12502 207.824 5.87273 207.565 5.58685C207.052 5.1006 206.356 4.41983 205.605 3.65262C204.854 2.88541 204.179 2.18304 203.699 1.66436C203.421 1.40151 203.176 1.10577 202.97 0.783691C203.289 0.996041 203.581 1.24641 203.839 1.52929C204.352 2.01555 205.049 2.70171 205.805 3.46892C206.561 4.23613 207.23 4.94391 207.711 5.46259C207.986 5.72581 208.231 6.01944 208.44 6.33786Z" fill="#E0E0E0"/>
<path d="M238.858 37.9122C238.858 37.9122 238.858 37.8582 238.858 37.7609C238.858 37.6637 238.858 37.507 238.858 37.3179C238.858 36.9181 238.858 36.3454 238.858 35.6052C238.858 34.1032 238.858 31.915 238.826 29.1217C238.826 23.5622 238.793 15.6469 238.766 6.16487L238.885 6.28374H208.548L208.683 6.14866C208.683 17.7973 208.683 28.6949 208.683 37.8798L208.57 37.7663L230.542 37.8258L236.709 37.8582H238.329H238.896C238.851 37.8631 238.806 37.8631 238.761 37.8582H238.351H236.731L230.585 37.8906L208.543 37.95H208.429V37.8312C208.429 28.6463 208.429 17.7487 208.429 6.10004V5.96497H208.57H238.907H239.026V6.08383C238.999 15.5929 238.977 23.5405 238.966 29.1163C238.966 31.8826 238.939 34.06 238.934 35.5566C238.934 36.2914 238.934 36.8533 238.934 37.2477C238.934 37.4314 238.934 37.5718 238.934 37.6745C238.917 37.7562 238.892 37.8359 238.858 37.9122Z" fill="#E0E0E0"/>
<path d="M228.803 16.9707H218.651V27.1281H228.803V16.9707Z" fill="#EBEBEB"/>
<path d="M66.0258 68.9194H18.5058V137.839H66.0258V68.9194Z" fill="#E0E0E0"/>
<path d="M63.6444 68.9194H16.1244V137.839H63.6444V68.9194Z" fill="#F5F5F5"/>
<path d="M57.7422 76.3807H22.032V130.366H57.7422V76.3807Z" fill="white"/>
<path d="M57.7422 130.372C57.7422 130.372 57.7422 130.28 57.7422 130.107C57.7422 129.934 57.7422 129.675 57.7422 129.34C57.7422 128.664 57.7422 127.67 57.7422 126.379C57.7422 123.791 57.7422 120.02 57.7098 115.26C57.7098 105.74 57.6774 92.2598 57.6504 76.3591L57.7692 76.478H22.0644L22.194 76.3483C22.194 96.7172 22.194 115.492 22.194 130.339L22.0914 130.237L48.087 130.291H55.269H57.1536C57.5802 130.291 57.8016 130.291 57.8016 130.291H57.1752H55.3068L48.1464 130.318L22.0914 130.372H21.9888V130.269C21.9888 115.422 21.9888 96.647 21.9888 76.2781V76.1484H22.1238H57.8286H57.9474V76.2673C57.9474 92.1788 57.9042 105.686 57.888 115.222C57.888 119.977 57.888 123.737 57.861 126.32C57.861 127.595 57.861 128.583 57.861 129.253C57.861 129.583 57.861 129.831 57.861 130.01C57.861 130.188 57.7422 130.372 57.7422 130.372Z" fill="#E0E0E0"/>
<path d="M63.7794 68.9194C63.539 69.3563 63.2569 69.7689 62.937 70.1513C62.397 70.8861 61.5978 71.891 60.7068 72.977C59.8158 74.063 58.9734 75.0301 58.3578 75.7109C58.0419 76.1019 57.6913 76.4636 57.3102 76.7914C57.5774 76.3695 57.881 75.9718 58.2174 75.6028L60.507 72.8257L62.7912 70.0486C63.0901 69.6466 63.4205 69.269 63.7794 68.9194Z" fill="#E0E0E0"/>
<path d="M57.9258 130.199C59.7006 133.024 61.7913 135.638 64.1574 137.99L57.9258 130.199Z" fill="white"/>
<path d="M64.1574 137.99C63.7632 137.7 63.4012 137.368 63.0774 137.001C61.4192 135.315 59.939 133.463 58.6602 131.474C58.3778 131.074 58.1354 130.647 57.9366 130.199C58.2575 130.567 58.55 130.959 58.8114 131.371C59.3514 132.106 60.075 133.111 60.9336 134.192C61.7922 135.272 62.613 136.207 63.2124 136.893C63.5517 137.237 63.8674 137.603 64.1574 137.99Z" fill="#E0E0E0"/>
<path d="M16.119 137.779L22.3452 130.096L16.119 137.779Z" fill="white"/>
<path d="M22.3452 130.096C21.4071 131.454 20.4015 132.763 19.332 134.019C18.3295 135.336 17.257 136.599 16.119 137.801C17.0561 136.433 18.0618 135.113 19.1322 133.846C20.1373 132.541 21.2097 131.289 22.3452 130.096Z" fill="#E0E0E0"/>
<path d="M16.1244 68.9194C17.1988 70.067 18.2084 71.2738 19.1484 72.534C20.1566 73.7419 21.0976 75.0045 21.9672 76.316C20.8946 75.1667 19.8851 73.9601 18.9432 72.7015C17.9371 71.4918 16.9961 70.2293 16.1244 68.9194Z" fill="#E0E0E0"/>
<path d="M46.6128 87.3433H34.6572V121.311H46.6128V87.3433Z" fill="#E0E0E0"/>
<path d="M72.422 15.26L14.1528 39.6594C9.85305 41.4599 7.82697 46.4051 9.62744 50.7049L27.0483 92.3083C28.8488 96.6081 33.794 98.6342 38.0938 96.8337L96.3629 72.4343C100.663 70.6338 102.689 65.6886 100.888 61.3888L83.4675 19.7854C81.667 15.4856 76.7218 13.4595 72.422 15.26Z" fill="url(#paint0_linear_370_4367)"/>
<path d="M8.22042 43.9311L48.8773 62.1505C51.2341 63.5577 53.993 64.1383 56.717 63.8003C58.3395 63.3932 59.8279 62.5703 61.0355 61.4128C62.2432 60.2553 63.1283 58.803 63.6038 57.1993C66.5227 49.829 69.1219 42.3781 71.8936 34.998C74.6653 27.6178 77.1797 20.9889 79.7492 13.9794C79.7852 13.7857 79.7534 13.5854 79.659 13.4124C79.5647 13.2394 79.4138 13.1042 79.2314 13.0294C79.0491 12.9547 78.8465 12.9451 78.6579 13.0022C78.4693 13.0593 78.3062 13.1797 78.1959 13.3431L63.3432 53.1621C62.7802 55.2732 61.9484 57.3033 60.8683 59.2026C57.9236 63.4381 53.4478 62.3098 49.5745 60.5717C42.2241 57.3586 34.9089 54.0592 27.5938 50.7598L8.91766 42.3524C7.96844 41.9635 7.30661 43.4558 8.2813 43.9056L8.22042 43.9311Z" fill="white"/>
<path d="M31.0676 99.347L42.8852 64.2303L44.5454 59.3174C44.9088 58.3073 43.3556 57.671 43.053 58.6555C39.102 70.3899 35.1255 82.0634 31.2353 93.7722L29.5143 98.7107C29.2117 99.6952 30.7042 100.357 31.0676 99.347Z" fill="white"/>
<path d="M101.898 67.0428L70.6043 51.5511L66.0859 49.2967C65.0858 48.7862 64.3829 50.0098 65.4241 50.7891L96.7176 66.2809C98.261 67.0644 99.7789 67.787 101.261 68.596C102.744 69.405 102.873 67.4925 101.898 67.0428Z" fill="white"/>
<path d="M168.065 240.228L88.3556 240.18C83.7516 240.177 79.3372 238.345 76.0827 235.087C72.8282 231.829 71 227.411 71 222.804L71.0378 22.8597C71.0385 20.5774 71.4886 18.3176 72.3623 16.2094C73.2361 14.1012 74.5163 12.1859 76.13 10.5729C77.7437 8.95982 79.6592 7.68064 81.7671 6.80841C83.875 5.93617 86.134 5.48796 88.415 5.48938L168.124 5.53261C172.728 5.53547 177.143 7.36738 180.397 10.6256C183.652 13.8839 185.48 18.3018 185.48 22.9083L185.442 222.858C185.441 225.14 184.991 227.4 184.118 229.508C183.244 231.617 181.964 233.532 180.35 235.145C178.736 236.758 176.821 238.037 174.713 238.909C172.605 239.782 170.346 240.23 168.065 240.228Z" fill="#263238"/>
<path d="M168.033 12.6049H152.589C152.085 12.6155 151.588 12.7253 151.126 12.9282C150.665 13.1311 150.248 13.4231 149.899 13.7875C149.55 14.1518 149.277 14.5813 149.095 15.0515C148.912 15.5216 148.824 16.0232 148.836 16.5274V19.3045C148.857 20.3225 148.474 21.3074 147.771 22.0429C147.067 22.7784 146.1 23.2043 145.083 23.227H114.961C114.455 23.2186 113.955 23.1102 113.491 22.908C113.027 22.7058 112.607 22.4138 112.256 22.0489C111.904 21.6839 111.629 21.2531 111.444 20.7812C111.26 20.3093 111.171 19.8056 111.181 19.2991V16.5004C111.193 15.9959 111.105 15.4941 110.922 15.0236C110.74 14.5532 110.467 14.1233 110.118 13.7585C109.77 13.3937 109.353 13.1012 108.891 12.8977C108.43 12.6943 107.933 12.5837 107.428 12.5725H88.4906C85.2695 12.5711 82.1793 13.8477 79.8976 16.1225C77.6159 18.3973 76.329 21.4846 76.319 24.7074L76.2812 219.87C76.2812 223.096 77.5617 226.19 79.8411 228.472C82.1205 230.754 85.2123 232.036 88.4366 232.038L167.989 232.086C169.587 232.088 171.169 231.774 172.646 231.163C174.122 230.552 175.464 229.656 176.593 228.526C177.723 227.396 178.62 226.054 179.231 224.577C179.842 223.1 180.156 221.517 180.156 219.919L180.193 24.7614C180.191 21.5363 178.908 18.4443 176.628 16.1648C174.347 13.8853 171.256 12.6049 168.033 12.6049Z" fill="white"/>
<path d="M120.853 217.185C120.856 217.487 120.769 217.784 120.604 218.037C120.439 218.29 120.202 218.489 119.924 218.608C119.646 218.726 119.339 218.76 119.042 218.704C118.745 218.648 118.472 218.505 118.256 218.294C118.04 218.082 117.891 217.811 117.829 217.515C117.767 217.219 117.794 216.912 117.907 216.631C118.019 216.351 118.213 216.11 118.462 215.939C118.712 215.768 119.006 215.676 119.308 215.672C119.713 215.669 120.103 215.827 120.392 216.11C120.682 216.394 120.847 216.78 120.853 217.185Z" fill="#263238"/>
<path d="M129.406 217.115C129.41 217.418 129.323 217.714 129.158 217.968C128.992 218.221 128.755 218.419 128.477 218.538C128.198 218.656 127.891 218.69 127.594 218.633C127.297 218.577 127.023 218.434 126.807 218.222C126.592 218.01 126.444 217.738 126.382 217.442C126.321 217.146 126.348 216.838 126.462 216.557C126.575 216.277 126.769 216.036 127.02 215.866C127.27 215.696 127.565 215.604 127.867 215.602C128.272 215.599 128.661 215.757 128.949 216.04C129.238 216.324 129.402 216.71 129.406 217.115Z" fill="#263238"/>
<path d="M137.965 217.05C137.969 217.353 137.882 217.649 137.717 217.903C137.551 218.156 137.314 218.354 137.036 218.473C136.758 218.592 136.45 218.625 136.153 218.568C135.856 218.512 135.582 218.369 135.366 218.157C135.151 217.945 135.003 217.673 134.941 217.377C134.88 217.081 134.907 216.773 135.021 216.492C135.134 216.212 135.328 215.971 135.579 215.801C135.829 215.631 136.124 215.539 136.426 215.537C136.831 215.534 137.22 215.692 137.508 215.975C137.797 216.259 137.961 216.645 137.965 217.05Z" fill="#263238"/>
<path d="M168.508 32.3147C168.508 32.3579 166.494 32.412 164.015 32.4336C161.536 32.4552 159.528 32.4336 159.528 32.3849C159.528 32.3363 161.553 32.2715 164.015 32.2715C166.477 32.2715 168.502 32.2715 168.508 32.3147Z" fill="#263238"/>
<path d="M168.524 34.611C168.524 34.6596 166.515 34.7136 164.037 34.7352C161.558 34.7568 159.544 34.7352 159.544 34.6866C159.544 34.638 161.553 34.5839 164.037 34.5623C166.521 34.5407 168.524 34.5623 168.524 34.611Z" fill="#263238"/>
<path d="M168.573 36.9072C168.573 36.9558 166.558 37.0098 164.08 37.0314C161.601 37.053 159.592 37.0314 159.592 36.9828C159.592 36.9342 161.601 36.8856 164.08 36.8639C166.558 36.8423 168.54 36.8639 168.573 36.9072Z" fill="#263238"/>
<path d="M86.8436 39.5329H87.0272H87.5672L89.4896 39.4897L89.441 39.5383C89.441 39.1169 89.441 38.6523 89.441 38.1498C89.4276 37.8834 89.4276 37.6165 89.441 37.3502C89.4693 37.1977 89.5461 37.0585 89.66 36.9534C89.7739 36.8482 89.9187 36.7827 90.0728 36.7667C90.3806 36.7667 90.656 36.7667 90.9908 36.7667C91.1649 36.7927 91.3236 36.881 91.4378 37.015C91.5519 37.1491 91.6137 37.3199 91.6118 37.496C91.6118 38.1444 91.6118 38.8252 91.6118 39.5275L91.5308 39.4465H93.95L93.869 39.5275C93.869 38.555 93.869 37.5447 93.869 36.5127C93.869 36.2588 93.869 35.9724 93.869 35.7455C93.8647 35.6343 93.8312 35.5262 93.7718 35.4321C93.6963 35.3373 93.6133 35.2488 93.5234 35.1674C93.167 34.8162 92.816 34.465 92.4434 34.1246L91.4228 33.1197C91.2608 32.9522 91.0934 32.7901 90.9314 32.628C90.7694 32.466 90.629 32.2931 90.4238 32.2552C90.3314 32.2328 90.2351 32.2309 90.1419 32.2496C90.0486 32.2682 89.9605 32.3071 89.8838 32.3633C89.738 32.4876 89.5814 32.6605 89.4356 32.8063L88.5662 33.6816C88.0262 34.2219 87.4538 34.7622 87.038 35.2593C86.9179 35.5457 86.8768 35.8592 86.9192 36.1669C86.9192 36.4695 86.9192 36.7504 86.9192 37.0206C86.9192 37.5609 86.9192 38.0039 86.9192 38.3929C86.9192 38.7819 86.9192 39.0413 86.9192 39.2736C86.9192 39.5059 86.9192 39.587 86.9192 39.587C86.9192 39.587 86.9192 39.4897 86.9192 39.2952C86.9192 39.1007 86.9192 38.7549 86.9192 38.4307C86.9192 38.1066 86.9192 37.5771 86.8922 37.0476C86.8922 36.7721 86.8922 36.5073 86.8922 36.1777C86.8922 36.0211 86.8922 35.8644 86.8922 35.7023C86.8916 35.5257 86.9382 35.3522 87.0272 35.1998C87.4754 34.6595 88.01 34.1679 88.5608 33.579L89.4194 32.6983C89.576 32.547 89.7056 32.3903 89.8838 32.2336C89.9822 32.1601 90.096 32.1097 90.2166 32.0863C90.3373 32.0629 90.4616 32.0671 90.5804 32.0986C90.8057 32.1794 91.0039 32.3217 91.1528 32.5092L91.6496 32.9954L92.6756 34.0004L93.7556 35.0431C93.8549 35.1313 93.9454 35.229 94.0256 35.3349C94.1013 35.455 94.1441 35.5929 94.1498 35.7347C94.1498 35.994 94.1498 36.275 94.1498 36.5073C94.1498 37.5393 94.1498 38.5496 94.1498 39.5221V39.6032H94.0634H91.6442H91.5686V39.5221C91.5686 38.8198 91.5686 38.1444 91.5686 37.496C91.5707 37.3533 91.5218 37.2144 91.4308 37.1045C91.3397 36.9946 91.2124 36.9207 91.0718 36.8963C90.791 36.8963 90.4616 36.8963 90.1916 36.8963C90.0623 36.9065 89.9398 36.9583 89.8424 37.044C89.745 37.1297 89.6781 37.2447 89.6516 37.3718C89.6516 37.6203 89.6516 37.9121 89.6516 38.1444C89.6516 38.6469 89.6516 39.1115 89.6516 39.5383V39.587H89.603H87.6536H87.0326C86.9678 39.576 86.9044 39.5579 86.8436 39.5329Z" fill="#263238"/>
<path d="M171.354 180.435C171.354 180.516 151.374 180.575 126.696 180.575C102.018 180.575 82.0376 180.516 82.0376 180.435C82.0376 180.354 102.018 180.294 126.696 180.294C151.374 180.294 171.354 180.359 171.354 180.435Z" fill="#E0E0E0"/>
<path d="M151.152 186.616C151.152 186.691 140.044 186.756 126.345 186.756C112.645 186.756 101.537 186.691 101.537 186.616C101.537 186.54 112.639 186.475 126.345 186.475C140.05 186.475 151.152 186.535 151.152 186.616Z" fill="#E0E0E0"/>
<path d="M100.991 139.121L102.681 140.034L101.92 141.31L100.213 140.299L100.246 142.179H98.7878V140.283L97.076 141.31L96.347 140.04L98.021 139.121L96.3254 138.187L97.0706 136.917L98.7824 137.938V136.047H100.24L100.208 137.938L101.914 136.917L102.676 138.187L100.991 139.121Z" fill="#426E8A"/>
<path d="M120.388 139.121L122.078 140.034L121.317 141.31L119.621 140.299V142.201H118.158V140.305L116.451 141.331L115.744 140.04L117.461 139.121L115.771 138.187L116.516 136.917L118.222 137.938V136.047H119.621L119.589 137.938L121.295 136.917L122.056 138.187L120.388 139.121Z" fill="#426E8A"/>
<path d="M139.266 139.121L140.956 140.034L140.195 141.31L138.489 140.299L138.521 142.201H137.063V140.305L135.351 141.331L134.622 140.04L136.318 139.127L134.622 138.192L135.367 136.922L137.079 137.943V136.052H138.521L138.489 137.943L140.195 136.922L140.956 138.192L139.266 139.121Z" fill="#426E8A"/>
<path d="M157.556 139.121L159.246 140.034L158.501 141.31L156.795 140.299L156.827 142.179H155.369V140.283L153.663 141.31L152.912 140.04L154.608 139.127L152.912 138.192L153.657 136.922L155.364 137.943V136.052H156.822L156.789 137.943L158.496 136.922L159.257 138.192L157.556 139.121Z" fill="#426E8A"/>
<path d="M103.999 150.889H95.8178C94.8057 150.887 93.8354 150.485 93.1198 149.768C92.4041 149.052 92.0014 148.082 92 147.069V132.535C92.0014 131.523 92.4043 130.553 93.1201 129.838C93.8359 129.123 94.8062 128.721 95.8178 128.721H103.999C105.01 128.721 105.981 129.123 106.696 129.838C107.412 130.553 107.815 131.523 107.817 132.535V147.064C107.817 148.077 107.415 149.049 106.699 149.767C105.983 150.484 105.012 150.887 103.999 150.889ZM95.8178 128.991C94.8778 128.991 93.9762 129.364 93.311 130.029C92.6458 130.693 92.2714 131.595 92.27 132.535V147.064C92.2714 148.005 92.6457 148.907 93.3107 149.572C93.9757 150.237 94.8773 150.612 95.8178 150.613H103.999C104.94 150.613 105.842 150.239 106.507 149.574C107.173 148.908 107.547 148.005 107.547 147.064V132.53C107.545 131.589 107.171 130.688 106.506 130.023C105.84 129.359 104.939 128.986 103.999 128.986L95.8178 128.991Z" fill="#263238"/>
<path d="M123.001 150.889H114.82C114.317 150.891 113.818 150.794 113.352 150.602C112.887 150.411 112.463 150.13 112.106 149.774C111.75 149.419 111.467 148.996 111.274 148.531C111.08 148.066 110.981 147.567 110.981 147.064V132.53C110.982 131.518 111.385 130.548 112.101 129.832C112.817 129.117 113.787 128.715 114.799 128.715H122.98C123.991 128.715 124.962 129.117 125.677 129.832C126.393 130.548 126.796 131.518 126.798 132.53V147.064C126.798 148.074 126.398 149.042 125.687 149.759C124.976 150.476 124.011 150.882 123.001 150.889ZM114.82 128.991C113.88 128.991 112.979 129.364 112.314 130.029C111.648 130.693 111.274 131.595 111.273 132.535V147.064C111.274 148.005 111.648 148.907 112.313 149.572C112.978 150.237 113.88 150.612 114.82 150.613H123.001C123.942 150.613 124.845 150.239 125.51 149.574C126.175 148.908 126.549 148.005 126.549 147.064V132.53C126.548 131.589 126.173 130.688 125.508 130.023C124.843 129.359 123.941 128.986 123.001 128.986L114.82 128.991Z" fill="#263238"/>
<path d="M141.486 150.889H133.299C132.287 150.887 131.317 150.485 130.601 149.768C129.886 149.052 129.483 148.082 129.481 147.069V132.535C129.483 131.523 129.886 130.553 130.602 129.838C131.317 129.123 132.288 128.721 133.299 128.721H141.486C142.496 128.722 143.465 129.125 144.18 129.84C144.894 130.555 145.297 131.524 145.298 132.535V147.064C145.299 147.565 145.201 148.062 145.009 148.526C144.818 148.99 144.538 149.411 144.184 149.766C143.83 150.121 143.409 150.403 142.946 150.596C142.483 150.789 141.987 150.888 141.486 150.889ZM133.299 128.991C132.359 128.991 131.458 129.364 130.792 130.029C130.127 130.693 129.753 131.595 129.751 132.535V147.064C129.753 148.005 130.127 148.907 130.792 149.572C131.457 150.237 132.359 150.612 133.299 150.613H141.486C142.426 150.612 143.327 150.237 143.991 149.572C144.655 148.906 145.028 148.004 145.028 147.064V132.53C145.028 131.59 144.655 130.688 143.99 130.024C143.326 129.359 142.425 128.986 141.486 128.986L133.299 128.991Z" fill="#263238"/>
<path d="M160.175 150.889H151.989C150.976 150.887 150.006 150.485 149.291 149.768C148.575 149.052 148.172 148.082 148.171 147.069V132.535C148.172 131.523 148.575 130.553 149.291 129.838C150.007 129.123 150.977 128.721 151.989 128.721H160.175C161.186 128.722 162.155 129.125 162.869 129.84C163.584 130.555 163.986 131.524 163.987 132.535V147.064C163.988 147.565 163.89 148.062 163.699 148.526C163.508 148.99 163.227 149.411 162.873 149.766C162.519 150.121 162.099 150.403 161.636 150.596C161.173 150.789 160.676 150.888 160.175 150.889ZM151.989 128.991C151.049 128.991 150.147 129.364 149.482 130.029C148.817 130.693 148.442 131.595 148.441 132.535V147.064C148.442 148.005 148.816 148.907 149.481 149.572C150.147 150.237 151.048 150.612 151.989 150.613H160.175C161.115 150.612 162.016 150.237 162.68 149.572C163.344 148.906 163.717 148.004 163.717 147.064V132.53C163.717 131.59 163.344 130.688 162.68 130.024C162.016 129.359 161.114 128.986 160.175 128.986L151.989 128.991Z" fill="#263238"/>
<path d="M125.373 68.5308H125.103V67.018C125.103 66.1783 125.436 65.373 126.03 64.7793C126.623 64.1855 127.428 63.8519 128.267 63.8519C129.106 63.8519 129.911 64.1855 130.505 64.7793C131.098 65.373 131.431 66.1783 131.431 67.018V68.2499H131.161V67.018C131.161 66.25 130.857 65.5134 130.314 64.9703C129.771 64.4272 129.035 64.1221 128.267 64.1221C127.499 64.1221 126.763 64.4272 126.22 64.9703C125.678 65.5134 125.373 66.25 125.373 67.018V68.5308Z" fill="white"/>
<path d="M132.263 79.1206H124.217C123.864 79.1192 123.525 78.9781 123.275 78.7282C123.026 78.4782 122.885 78.1396 122.883 77.7861V69.7304C122.885 69.3769 123.026 69.0383 123.275 68.7883C123.525 68.5383 123.864 68.3973 124.217 68.3959H132.263C132.616 68.3973 132.955 68.5383 133.205 68.7883C133.454 69.0383 133.595 69.3769 133.597 69.7304V77.7861C133.595 78.1396 133.454 78.4782 133.205 78.7282C132.955 78.9781 132.616 79.1192 132.263 79.1206ZM124.217 68.666C123.931 68.666 123.656 68.7799 123.453 68.9825C123.251 69.1852 123.137 69.46 123.137 69.7466V77.8023C123.137 78.0889 123.251 78.3637 123.453 78.5664C123.656 78.769 123.931 78.8829 124.217 78.8829H132.263C132.549 78.8829 132.824 78.769 133.027 78.5664C133.229 78.3637 133.343 78.0889 133.343 77.8023V69.7304C133.343 69.4438 133.229 69.169 133.027 68.9663C132.824 68.7637 132.549 68.6498 132.263 68.6498L124.217 68.666Z" fill="white"/>
<path d="M128.278 74.0203C128.028 74.0203 127.784 73.9461 127.576 73.8072C127.368 73.6683 127.206 73.4708 127.11 73.2398C127.015 73.0088 126.99 72.7546 127.039 72.5093C127.087 72.2641 127.208 72.0388 127.384 71.862C127.561 71.6852 127.786 71.5648 128.031 71.516C128.276 71.4672 128.531 71.4922 128.761 71.5879C128.992 71.6836 129.19 71.8457 129.329 72.0536C129.467 72.2615 129.541 72.5059 129.541 72.756C129.541 73.0913 129.408 73.4129 129.171 73.65C128.934 73.887 128.613 74.0203 128.278 74.0203ZM128.278 71.7672C128.081 71.7672 127.889 71.8257 127.725 71.9352C127.562 72.0446 127.434 72.2002 127.359 72.3822C127.284 72.5642 127.265 72.7643 127.304 72.9573C127.343 73.1503 127.438 73.3274 127.577 73.4662C127.717 73.6051 127.894 73.6993 128.087 73.7371C128.28 73.7748 128.48 73.7543 128.662 73.6783C128.843 73.6022 128.998 73.4739 129.107 73.3097C129.215 73.1456 129.273 72.9528 129.271 72.756C129.274 72.6241 129.25 72.493 129.201 72.3706C129.152 72.2481 129.079 72.1366 128.986 72.0425C128.894 71.9485 128.784 71.8738 128.662 71.8228C128.54 71.7719 128.41 71.7456 128.278 71.7456V71.7672Z" fill="white"/>
<path d="M128.375 73.8313H128.105V76.1113H128.375V73.8313Z" fill="white"/>
<path d="M248.94 240.374C248.94 240.456 196.468 240.515 131.76 240.515C67.0518 240.515 14.58 240.456 14.58 240.374C14.58 240.293 67.041 240.234 131.76 240.234C196.479 240.234 248.94 240.283 248.94 240.374Z" fill="#263238"/>
<path d="M45.1764 165.971C50.3118 158.105 50.1174 146.608 43.9776 139.497C42.0714 137.288 39.4092 135.37 36.504 135.618C33.5988 135.867 31.1364 138.422 30.24 141.269C29.3436 144.117 29.6514 147.213 30.1806 150.136C30.9258 154.253 32.1732 158.461 35.0406 161.519C37.908 164.578 41.5206 167.976 45.2034 165.971" fill="#426E8A"/>
<path d="M42.8814 203.543C43.8061 201.257 43.9877 198.737 43.4003 196.341C42.8129 193.946 41.4864 191.796 39.609 190.198C38.4264 189.231 36.909 188.485 35.4078 188.88C33.9066 189.274 32.8968 190.808 32.7078 192.359C32.5888 193.932 32.8538 195.51 33.48 196.957C34.236 199.005 35.262 201.063 37.0062 202.36C38.7504 203.657 41.1966 204.91 42.903 203.543" fill="#426E8A"/>
<path d="M55.2798 200.869C53.865 193.894 57.537 186.2 63.8442 182.915C65.8044 181.899 68.2128 181.294 70.1892 182.283C72.1656 183.272 73.1808 185.762 73.0188 188.021C72.8568 190.279 71.7768 192.343 70.578 194.272C68.904 196.973 66.8466 199.572 63.9846 200.923C61.1226 202.273 57.294 203.305 55.2798 200.869Z" fill="#426E8A"/>
<path d="M54.3888 182.013C51.9264 174.065 56.1006 164.432 63.0288 159.861C65.1888 158.445 67.9212 157.462 70.335 158.38C72.7488 159.299 74.223 162.076 74.2986 164.718C74.3742 167.36 73.359 169.905 72.1926 172.282C70.5726 175.605 68.472 178.884 65.3022 180.792C62.1324 182.699 56.997 184.574 54.3672 182.002" fill="#426E8A"/>
<path d="M49.4478 220.832C49.4883 220.708 49.5137 220.579 49.5234 220.449C49.5666 220.162 49.626 219.795 49.6908 219.341C49.7232 219.098 49.761 218.828 49.8042 218.542C49.8474 218.255 49.9176 217.931 49.9824 217.596C50.112 216.915 50.247 216.143 50.4684 215.305C50.571 214.878 50.679 214.435 50.787 213.976C50.895 213.517 51.0624 213.052 51.2028 212.561C51.4674 211.577 51.8616 210.556 52.2288 209.47C53.9504 204.793 56.313 200.378 59.2488 196.352C59.9508 195.444 60.5826 194.553 61.2576 193.791C61.587 193.397 61.9056 193.024 62.208 192.656L63.18 191.657C63.7578 191.008 64.3248 190.468 64.8 189.987L65.4858 189.312L66.0906 188.772L66.9222 188.021C67.0226 187.938 67.1149 187.846 67.1976 187.745C67.0826 187.808 66.9756 187.884 66.879 187.972L66.0042 188.674L65.3778 189.188L64.6704 189.847C64.1628 190.317 63.5904 190.846 62.9856 191.468L62.0352 192.456C61.7274 192.818 61.4034 193.197 61.0686 193.58C60.3774 194.342 59.7348 195.234 59.0166 196.141C57.5422 198.165 56.2002 200.282 54.999 202.479C53.8293 204.694 52.8083 206.984 51.9426 209.335C51.5808 210.416 51.1974 211.458 50.9436 212.458C50.8032 212.95 50.6736 213.425 50.544 213.884C50.4144 214.344 50.3388 214.797 50.2416 215.224C50.0364 216.072 49.9176 216.845 49.8042 217.537C49.7502 217.877 49.6962 218.196 49.6476 218.488C49.599 218.779 49.5936 219.028 49.5666 219.298C49.5234 219.752 49.491 220.125 49.464 220.416C49.4354 220.553 49.4299 220.694 49.4478 220.832Z" fill="#263238"/>
<path d="M49.626 222.275C49.6329 222.221 49.6329 222.167 49.626 222.113C49.626 221.989 49.626 221.837 49.5936 221.654C49.5558 221.221 49.4964 220.632 49.4316 219.887C49.3938 219.503 49.3506 219.076 49.302 218.617C49.2534 218.158 49.2588 217.639 49.2264 217.094C49.1886 216.013 49.0806 214.76 49.1238 213.387C49.1238 212.696 49.1238 211.977 49.1238 211.226C49.1238 210.475 49.1994 209.697 49.2372 208.892C49.2912 207.271 49.5126 205.564 49.707 203.754C50.712 195.921 52.9692 188.301 56.3922 181.186C57.2184 179.565 57.9636 178.009 58.8006 176.626C59.211 175.929 59.5728 175.237 59.9778 174.605L61.1442 172.79C61.8624 171.612 62.6238 170.629 63.2502 169.737C63.5742 169.294 63.8604 168.878 64.1466 168.505L64.9458 167.506L66.0258 166.112L66.3066 165.745C66.366 165.664 66.3984 165.62 66.393 165.615C66.3876 165.609 66.3498 165.647 66.2796 165.723L65.9772 166.069L64.827 167.425L64.0278 168.424C63.7362 168.792 63.4392 169.202 63.1098 169.64C62.4672 170.526 61.6896 171.504 60.9498 172.671L59.7618 174.481C59.3514 175.113 58.9788 175.805 58.563 176.502C57.7152 177.885 56.943 179.446 56.1222 181.067C52.6493 188.194 50.3812 195.847 49.41 203.716C49.221 205.531 49.0104 207.255 48.9672 208.876C48.9402 209.686 48.8754 210.47 48.87 211.221C48.8646 211.972 48.87 212.696 48.87 213.382C48.87 214.76 48.9672 216.008 49.0266 217.099C49.0644 217.639 49.086 218.18 49.1292 218.623C49.1724 219.066 49.2372 219.509 49.2858 219.898C49.3776 220.638 49.4532 221.227 49.5072 221.659C49.5342 221.843 49.5612 221.989 49.5774 222.113C49.5864 222.169 49.6027 222.223 49.626 222.275Z" fill="#263238"/>
<path d="M36.2448 145.116C36.2629 145.167 36.2864 145.216 36.315 145.262C36.3744 145.37 36.4446 145.511 36.5364 145.673L37.4112 147.245C37.6002 147.585 37.827 147.958 38.0484 148.38L38.7342 149.763L39.528 151.351C39.7926 151.919 40.068 152.529 40.3326 153.167C40.5972 153.804 40.9158 154.474 41.202 155.176C41.4882 155.879 41.742 156.63 42.0552 157.392L42.5034 158.559C42.6384 158.964 42.7788 159.369 42.9192 159.785C43.1946 160.612 43.4592 161.465 43.7778 162.335C44.8578 165.863 45.9 169.786 46.7694 173.957C47.6388 178.128 48.2058 182.148 48.6432 185.811C49.0806 189.474 49.2966 192.797 49.3722 195.59C49.4424 196.984 49.4586 198.243 49.4586 199.372C49.4586 200.501 49.4586 201.436 49.4586 202.214C49.4586 202.992 49.4586 203.576 49.4586 204.013V204.483C49.4586 204.586 49.4586 204.64 49.4586 204.64C49.4648 204.588 49.4648 204.535 49.4586 204.483C49.4586 204.359 49.4586 204.208 49.491 204.019C49.491 203.576 49.5396 202.976 49.5774 202.219C49.6152 201.463 49.6368 200.48 49.6368 199.372C49.6368 198.264 49.6368 196.995 49.599 195.59C49.5504 192.791 49.302 189.469 48.9402 185.789C48.5784 182.11 47.9358 178.085 47.088 173.903C46.2402 169.721 45.171 165.799 44.064 162.26L43.2 159.688C43.0596 159.272 42.9192 158.861 42.7788 158.461L42.3198 157.294L41.445 155.079C41.1534 154.371 40.8402 153.712 40.554 153.069C40.2678 152.426 40.014 151.821 39.7224 151.259C39.4308 150.697 39.1824 150.179 38.907 149.676C38.6316 149.174 38.4102 148.725 38.1942 148.299C37.9782 147.872 37.7298 147.515 37.53 147.18L36.5958 145.64C36.4986 145.478 36.4122 145.349 36.3474 145.246C36.2826 145.143 36.2502 145.111 36.2448 145.116Z" fill="#263238"/>
<path d="M37.9944 193.375C38.1473 193.71 38.3279 194.032 38.5344 194.337C38.9124 194.936 39.4254 195.828 40.0302 196.941C40.635 198.054 41.3046 199.405 41.9796 200.934C42.6546 202.463 43.2918 204.175 43.8696 206.039C44.4474 207.903 44.8578 209.675 45.1872 211.318C45.5166 212.96 45.7272 214.457 45.8298 215.721C45.9324 216.985 46.035 218.001 46.062 218.709C46.0624 219.071 46.0931 219.433 46.1538 219.79C46.1916 219.431 46.2043 219.07 46.1916 218.709C46.1916 217.996 46.1916 216.964 46.0674 215.7C45.9489 214.212 45.7561 212.732 45.4896 211.264C45.1523 209.466 44.7179 207.688 44.1882 205.937C43.6419 204.193 42.9983 202.481 42.2604 200.809C41.5692 199.275 40.878 197.924 40.2408 196.822C39.6036 195.72 39.0582 194.844 38.6208 194.266C38.4317 193.956 38.2225 193.658 37.9944 193.375Z" fill="#263238"/>
<path d="M59.5404 217.304H36.963L39.6954 240.375H56.727L59.5404 217.304Z" fill="#455A64"/>
<path d="M58.7142 237.884L56.7972 240.375H39.6954L37.7244 237.965L58.7142 237.884Z" fill="#263238"/>
<path d="M37.8432 224.074C37.8432 224.166 42.5304 224.241 48.3084 224.241C54.0864 224.241 58.7682 224.166 58.7682 224.074C58.7682 223.982 54.0864 223.906 48.3084 223.906C42.5304 223.906 37.8432 223.998 37.8432 224.074Z" fill="#FAFAFA"/>
<path d="M37.8432 225.625C37.8432 225.716 42.5304 225.792 48.3084 225.792C54.0864 225.792 58.7682 225.716 58.7682 225.625C58.7682 225.533 54.0864 225.457 48.3084 225.457C42.5304 225.457 37.8432 225.533 37.8432 225.625Z" fill="#FAFAFA"/>
<path d="M38.124 227.11C38.124 227.208 42.6438 227.283 48.222 227.283C53.8002 227.283 58.32 227.208 58.32 227.11C58.32 227.013 53.8002 226.943 48.222 226.943C42.6438 226.943 38.124 227.019 38.124 227.11Z" fill="#FAFAFA"/>
<path d="M56.0898 167.582C56.0814 167.655 56.0814 167.729 56.0898 167.803C56.0898 167.971 56.1168 168.181 56.1384 168.43C56.1978 169.008 56.2734 169.786 56.3706 170.726C56.5758 172.666 56.8782 175.345 57.2238 178.29C57.2238 178.404 57.2238 178.517 57.2616 178.62V178.722H57.3642C60.264 178.766 62.8722 178.793 64.7568 178.803H66.987H67.5918C67.7322 178.803 67.8024 178.803 67.8024 178.803C67.7354 178.786 67.6664 178.777 67.5972 178.776L66.9924 178.749L64.7622 178.679C62.8776 178.625 60.2694 178.571 57.3642 178.528L57.4776 178.625C57.4776 178.522 57.4776 178.409 57.4398 178.295C57.0942 175.34 56.7702 172.666 56.5218 170.731C56.3976 169.791 56.295 169.019 56.214 168.441C56.1816 168.192 56.1492 167.987 56.1222 167.819C56.1266 167.739 56.1156 167.658 56.0898 167.582Z" fill="#263238"/>
<path d="M61.2252 160.682C61.2129 160.757 61.2129 160.834 61.2252 160.909C61.2252 161.082 61.2252 161.298 61.2252 161.557C61.2252 162.152 61.2252 162.957 61.2252 163.94C61.2576 165.95 61.3116 168.727 61.3872 171.79C61.3872 171.915 61.3872 172.039 61.3872 172.152V172.271H61.506C64.0317 172.075 66.5663 172.018 69.0984 172.098C70.065 172.098 70.848 172.169 71.388 172.196H72.009H72.225C72.225 172.196 72.1548 172.196 72.0144 172.152L71.3934 172.082C70.8534 172.028 70.0758 171.963 69.1038 171.909C66.5661 171.784 64.0231 171.818 61.4898 172.012L61.614 172.125C61.614 172.012 61.614 171.888 61.614 171.763C61.5384 168.694 61.4574 165.923 61.3872 163.913C61.3494 162.935 61.317 162.13 61.2954 161.536C61.2954 161.276 61.2954 161.06 61.2576 160.887C61.2531 160.818 61.2422 160.749 61.2252 160.682Z" fill="#263238"/>
<path d="M67.23 158.332C67.1675 158.55 67.1206 158.772 67.0896 158.996C67.0032 159.461 66.8952 160.077 66.7548 160.812C66.4632 162.346 66.0042 164.459 65.3616 166.755L65.2914 166.998L65.5236 166.89L65.7936 166.755C67.6958 165.853 69.7306 165.264 71.82 165.01C72.6246 164.912 73.278 164.875 73.7262 164.858C73.9609 164.869 74.196 164.856 74.4282 164.821C74.3692 164.811 74.309 164.811 74.25 164.821C74.1312 164.821 73.953 164.794 73.71 164.794C73.0681 164.782 72.4261 164.809 71.7876 164.875C69.6713 165.087 67.6082 165.666 65.691 166.587L65.4156 166.722L65.5776 166.852C66.1266 164.88 66.5719 162.88 66.9114 160.86C67.041 160.088 67.1274 159.461 67.176 159.029C67.2186 158.799 67.2367 158.565 67.23 158.332Z" fill="#263238"/>
<path d="M35.3484 200.393C35.3484 200.426 36.0072 200.361 37.0602 200.318C38.4296 200.265 39.8011 200.31 41.1642 200.453C41.4882 200.485 41.8068 200.528 42.1092 200.572H42.2172V200.469C42.4656 199.102 42.6654 197.897 42.8058 197.033C42.8979 196.573 42.9574 196.107 42.984 195.639C42.8412 196.085 42.7329 196.542 42.66 197.006C42.4818 197.865 42.2496 199.064 41.9958 200.426L42.1254 200.334C41.8176 200.291 41.499 200.247 41.1696 200.215C39.7956 200.068 38.4113 200.045 37.0332 200.145C36.4932 200.188 36.0774 200.242 35.7858 200.285C35.6362 200.304 35.4894 200.34 35.3484 200.393Z" fill="#263238"/>
<path d="M33.2208 196.152C33.2208 196.19 33.8526 196.044 34.8732 195.914C36.2031 195.752 37.5472 195.739 38.88 195.876L39.5874 195.963H39.7062V195.849C39.8466 194.445 39.96 193.197 40.0356 192.305C40.0966 191.827 40.1201 191.345 40.1058 190.863C39.9997 191.332 39.9257 191.809 39.8844 192.289C39.771 193.18 39.6306 194.423 39.4794 195.822L39.609 195.725L38.88 195.65C37.531 195.509 36.1695 195.545 34.83 195.758C34.4244 195.821 34.0224 195.906 33.6258 196.011C33.4858 196.042 33.3498 196.09 33.2208 196.152Z" fill="#263238"/>
<path d="M31.6872 155.998C31.7587 156.045 31.8347 156.084 31.914 156.117L32.5728 156.408L35.0136 157.446L43.1136 160.801L43.551 160.979L43.6536 161.022L43.6968 160.92C45.0306 157.905 46.2294 155.193 47.115 153.199L48.1194 150.865L48.384 150.227C48.4161 150.152 48.4414 150.075 48.4596 149.995C48.413 150.061 48.3732 150.132 48.3408 150.206C48.2598 150.373 48.1626 150.579 48.0384 150.827L46.9584 153.134L43.4754 160.828L43.6266 160.768L43.1892 160.59L35.1 157.294L32.6322 156.322L31.9572 156.068C31.871 156.032 31.78 156.008 31.6872 155.998Z" fill="#263238"/>
<path d="M29.7 146.235C29.7613 146.29 29.8283 146.339 29.8998 146.381L30.4938 146.764L32.697 148.136L40.0464 152.626L40.1652 152.696L40.2138 152.567L40.3488 152.21L43.4322 143.89C43.8048 142.847 44.1126 141.988 44.3394 141.361L44.577 140.67C44.6105 140.59 44.6323 140.507 44.6418 140.421C44.6 140.496 44.5639 140.573 44.5338 140.653L44.28 141.329C44.0424 141.95 43.7076 142.798 43.3026 143.836C42.4926 145.997 41.3856 148.904 40.1598 152.135C40.1166 152.253 40.068 152.378 40.0302 152.486L40.1922 152.426L32.7888 148.001L30.5478 146.688L29.9322 146.343C29.859 146.298 29.7812 146.262 29.7 146.235Z" fill="#263238"/>
<path d="M30.3588 141.026C30.5107 141.138 30.6735 141.234 30.8448 141.313C31.1634 141.491 31.6224 141.75 32.1786 142.096C33.6547 143.01 35.0256 144.085 36.2664 145.3L36.5526 145.576L36.4554 145.187C36.3582 144.787 36.2664 144.36 36.1962 143.922C35.8865 141.915 35.995 139.866 36.5148 137.903C36.6773 137.309 36.8701 136.723 37.0926 136.148C37.1915 135.944 37.2728 135.733 37.3356 135.515C37.2114 135.706 37.103 135.907 37.0116 136.115C36.7568 136.68 36.5385 137.262 36.3582 137.855C35.786 139.836 35.6533 141.917 35.9694 143.955C36.0396 144.403 36.1368 144.835 36.2394 145.246L36.4284 145.138C35.1708 143.91 33.7692 142.84 32.2542 141.95C31.6818 141.621 31.212 141.378 30.8826 141.226C30.7142 141.144 30.5389 141.077 30.3588 141.026Z" fill="#263238"/>
<path d="M56.1222 191.657C56.1366 191.854 56.171 192.05 56.2248 192.24C56.3004 192.613 56.4138 193.153 56.538 193.823C56.8635 195.592 57.0674 197.381 57.1482 199.178V199.28H57.24H57.7476C59.9886 199.415 62.0136 199.529 63.4824 199.594L65.2212 199.664C65.4331 199.684 65.6464 199.684 65.8584 199.664C65.6508 199.617 65.4392 199.59 65.2266 199.583L63.4932 199.437C62.0244 199.329 59.9994 199.194 57.7638 199.059L57.2562 199.032L57.3642 199.14C57.2846 197.351 57.0625 195.571 56.7 193.818C56.5542 193.143 56.4192 192.608 56.3112 192.24C56.2674 192.04 56.2041 191.845 56.1222 191.657Z" fill="#263238"/>
<path d="M60.5556 185.314C60.5488 185.511 60.5615 185.708 60.5934 185.903C60.642 186.319 60.7014 186.859 60.777 187.523C60.939 188.88 61.182 190.765 61.4682 192.883V192.975H61.56L62.2836 193.024C64.5786 193.18 66.6468 193.418 68.1426 193.613L69.9138 193.85C70.1275 193.89 70.3443 193.912 70.5618 193.915C70.3551 193.843 70.1416 193.792 69.9246 193.764C69.5142 193.677 68.9094 193.569 68.1642 193.45C66.6738 193.218 64.6002 192.953 62.2998 192.797L61.5708 192.748L61.6788 192.845C61.3872 190.733 61.1388 188.847 60.912 187.496C60.8094 186.854 60.7284 186.319 60.6636 185.903C60.6495 185.703 60.6133 185.505 60.5556 185.314Z" fill="#263238"/>
<path d="M65.7774 182.569C65.745 182.569 65.8854 183.19 66.042 184.19C66.2585 185.512 66.3812 186.848 66.4092 188.188V188.312H66.5388L66.9168 188.264C68.3305 188.093 69.7533 188.008 71.1774 188.01H72.4788C72.6366 188.028 72.7961 188.028 72.954 188.01C72.8013 187.964 72.6434 187.939 72.4842 187.934C72.1764 187.902 71.7336 187.864 71.1828 187.848C69.7492 187.796 68.3137 187.857 66.8898 188.031L66.5064 188.08L66.636 188.193C66.6061 186.843 66.4598 185.499 66.1986 184.174C66.096 183.671 65.9988 183.266 65.9232 182.991C65.8954 182.844 65.8463 182.702 65.7774 182.569Z" fill="#263238"/>
<path d="M36.0342 188.955C36.3233 189.739 36.6606 190.504 37.044 191.246C37.3576 192.02 37.7182 192.775 38.124 193.505C37.9345 192.676 37.6443 191.874 37.26 191.116C36.9379 190.35 36.5264 189.625 36.0342 188.955Z" fill="#263238"/>
<path d="M33.1992 191.943C34.0635 192.075 34.9198 192.256 35.7642 192.483C36.5862 192.778 37.3904 193.121 38.1726 193.51C37.4986 192.919 36.6961 192.494 35.829 192.267C34.9888 191.959 34.089 191.848 33.1992 191.943Z" fill="#263238"/>
<path d="M162.063 66.6967H93.7581C92.8163 66.6967 91.9131 67.0708 91.2472 67.7367C90.5813 68.4026 90.2072 69.3058 90.2072 70.2475V101.367C90.2072 102.309 90.5813 103.212 91.2472 103.878C91.9131 104.544 92.8163 104.918 93.7581 104.918H122.414L128.5 112.73L133.578 104.918H162.07C163.011 104.918 163.915 104.544 164.581 103.878C165.247 103.212 165.621 102.309 165.621 101.367V70.2546C165.622 69.7871 165.53 69.3241 165.352 68.892C165.173 68.4599 164.911 68.0673 164.581 67.7367C164.25 67.4061 163.857 67.1441 163.425 66.9656C162.993 66.7871 162.53 66.6957 162.063 66.6967Z" fill="white"/>
<path d="M162.063 66.6966H162.403C162.737 66.7214 163.065 66.7956 163.376 66.9168C163.889 67.1108 164.348 67.4222 164.719 67.8258C165.239 68.3851 165.565 69.0974 165.649 69.8569C165.713 73.2444 165.699 78.173 165.72 84.4155C165.72 87.5331 165.72 90.9846 165.72 94.7201C165.72 96.5879 165.72 98.5337 165.72 100.544C165.742 101.061 165.718 101.579 165.649 102.092C165.545 102.619 165.325 103.117 165.003 103.548C164.678 103.994 164.258 104.361 163.772 104.623C163.287 104.885 162.749 105.034 162.198 105.06H133.535L133.677 104.982L128.606 112.794L128.471 113L128.322 112.808L122.229 104.996L122.371 105.067H94.8162C94.3191 105.067 93.8503 105.067 93.3248 105.067C92.5541 104.979 91.8299 104.654 91.2523 104.136C90.6747 103.618 90.2722 102.933 90.1006 102.177C90.0144 101.687 89.9835 101.189 90.0083 100.693V99.2723C90.0083 95.4137 90.0083 91.6261 90.0083 87.9095V76.8947C90.0083 75.0956 90.0083 73.3202 90.0083 71.5684V70.2546C90.0087 69.5702 90.1979 68.8992 90.555 68.3153C90.912 67.7314 91.4232 67.2573 92.0323 66.9452C92.4309 66.7377 92.8642 66.6053 93.3106 66.5546C93.758 66.512 94.1699 66.5546 94.596 66.5546H102.067H111.512H128.478L153.043 66.6114L159.719 66.6469H161.459H162.048H161.459H159.719L153.043 66.6824L128.478 66.7392H111.512H94.6102C94.1912 66.7392 93.758 66.7392 93.3603 66.7392C92.9553 66.7824 92.5623 66.9029 92.2027 67.0943C91.6515 67.3792 91.1891 67.81 90.866 68.3398C90.5429 68.8695 90.3715 69.4778 90.3705 70.0984V76.7385C90.3705 80.3249 90.3705 83.9965 90.3705 87.7249V100.558C90.3469 101.033 90.3755 101.509 90.4557 101.978C90.5599 102.429 90.7555 102.854 91.0303 103.227C91.3051 103.599 91.6534 103.911 92.0536 104.144C92.4535 104.38 92.8989 104.527 93.3603 104.577C93.8148 104.62 94.3262 104.577 94.7807 104.577H122.477L122.527 104.648L128.613 112.46H128.329L133.407 104.648L133.457 104.57H133.549H162.198C162.958 104.537 163.685 104.25 164.264 103.756C164.843 103.262 165.241 102.589 165.393 101.843C165.46 101.347 165.484 100.845 165.464 100.345C165.464 98.3349 165.464 96.389 165.464 94.5213C165.464 90.7857 165.464 87.3343 165.464 84.2166C165.464 77.9813 165.514 73.0314 165.464 69.6652C165.394 69.0301 165.154 68.4257 164.769 67.9157C164.384 67.4058 163.869 67.0091 163.277 66.7676C162.878 66.686 162.469 66.6621 162.063 66.6966Z" fill="#263238"/>
<path d="M109.78 73.5001H102.976C102.474 73.5001 102.067 73.9071 102.067 74.4091V79.2667C102.067 79.7688 102.474 80.1758 102.976 80.1758H109.78C110.282 80.1758 110.689 79.7688 110.689 79.2667V74.4091C110.689 73.9071 110.282 73.5001 109.78 73.5001Z" fill="#426E8A"/>
<path d="M102.209 73.6777L105.49 77.1789C105.666 77.4167 105.916 77.5891 106.2 77.6689C106.378 77.6959 106.56 77.6761 106.729 77.6113C106.897 77.5466 107.045 77.4391 107.159 77.2996C107.756 76.6888 108.324 76.0568 108.906 75.4389C109.488 74.8211 110.014 74.2671 110.561 73.6777C110.572 73.6599 110.578 73.6387 110.575 73.6176C110.573 73.5965 110.564 73.5768 110.549 73.5618C110.534 73.5468 110.514 73.5374 110.493 73.5352C110.472 73.533 110.451 73.5382 110.433 73.5499L107.301 76.8877C107.157 77.074 106.99 77.2411 106.804 77.3848C106.335 77.6831 105.937 77.3848 105.625 77.051C105.028 76.4261 104.439 75.794 103.85 75.1619L102.344 73.5499C102.266 73.4717 102.138 73.5925 102.216 73.6777H102.209Z" fill="white"/>
<path d="M102.174 80.1331L104.808 77.1362L105.178 76.7172C105.256 76.632 105.128 76.5042 105.057 76.5894C104.176 77.5907 103.296 78.585 102.422 79.5863L102.046 80.0053C101.975 80.0905 102.095 80.2184 102.174 80.1331Z" fill="white"/>
<path d="M110.554 79.8704L108.089 77.0297L107.734 76.6178C107.656 76.5254 107.535 76.6178 107.606 76.7385L110.071 79.5792C110.192 79.7212 110.312 79.8562 110.426 79.9982C110.539 80.1402 110.632 79.9556 110.554 79.8704Z" fill="white"/>
<path d="M117.052 79.1105V76.9018L115.965 78.7199H115.582L114.502 76.9445V79.1105H113.7V75.4247H114.41L115.773 77.7398L117.13 75.446H117.84V79.1318L117.052 79.1105Z" fill="#263238"/>
<path d="M121.455 77.9245H119.324C119.368 78.101 119.474 78.2557 119.623 78.3601C119.771 78.4646 119.953 78.5116 120.134 78.4926C120.264 78.4988 120.395 78.478 120.517 78.4316C120.639 78.3852 120.751 78.3141 120.844 78.2227L121.284 78.6986C121.134 78.855 120.951 78.9768 120.749 79.0553C120.546 79.1338 120.329 79.1672 120.113 79.1531C119.909 79.1739 119.702 79.1518 119.507 79.0882C119.313 79.0246 119.133 78.9209 118.981 78.7838C118.828 78.6466 118.706 78.4791 118.622 78.292C118.538 78.1049 118.494 77.9023 118.493 77.6972C118.487 77.4991 118.522 77.3019 118.597 77.1182C118.671 76.9345 118.783 76.7684 118.926 76.6306C119.068 76.4928 119.238 76.3863 119.424 76.3181C119.61 76.2498 119.808 76.2213 120.006 76.2343C120.202 76.23 120.397 76.2664 120.579 76.3413C120.76 76.4162 120.924 76.5279 121.061 76.6694C121.197 76.8109 121.302 76.9791 121.37 77.1633C121.438 77.3475 121.467 77.5438 121.455 77.7398C121.455 77.7398 121.455 77.8605 121.455 77.9245ZM119.324 77.4486H120.745C120.745 77.2603 120.67 77.0797 120.537 76.9465C120.403 76.8133 120.223 76.7385 120.034 76.7385C119.846 76.7385 119.665 76.8133 119.532 76.9465C119.399 77.0797 119.324 77.2603 119.324 77.4486Z" fill="#263238"/>
<path d="M121.71 78.8477L121.987 78.2583C122.283 78.4376 122.622 78.5333 122.967 78.5353C123.351 78.5353 123.493 78.4287 123.493 78.2725C123.493 77.8109 121.781 78.2725 121.781 77.1504C121.781 76.6178 122.264 76.2343 123.088 76.2343C123.467 76.2283 123.843 76.3135 124.182 76.4829L123.905 77.0652C123.656 76.9257 123.374 76.8547 123.088 76.8593C122.719 76.8593 122.563 76.9729 122.563 77.122C122.563 77.6049 124.274 77.122 124.274 78.2512C124.274 78.7767 123.784 79.1531 122.939 79.1531C122.509 79.1638 122.085 79.0583 121.71 78.8477Z" fill="#263238"/>
<path d="M124.509 78.8477L124.778 78.2583C125.077 78.4368 125.418 78.5325 125.766 78.5352C126.142 78.5352 126.284 78.4287 126.284 78.2725C126.284 77.8109 124.573 78.2725 124.573 77.1504C124.573 76.6178 125.055 76.2343 125.886 76.2343C126.263 76.2274 126.636 76.3127 126.973 76.4828L126.703 77.0652C126.453 76.9266 126.172 76.8556 125.886 76.8592C125.517 76.8592 125.361 76.9729 125.361 77.122C125.361 77.6049 127.072 77.122 127.072 78.2512C127.072 78.7767 126.582 79.1531 125.73 79.1531C125.303 79.1628 124.881 79.0574 124.509 78.8477Z" fill="#263238"/>
<path d="M130.083 77.4913V79.1105H129.309V78.7554C129.216 78.8937 129.087 79.0038 128.935 79.0739C128.784 79.144 128.616 79.1714 128.45 79.1531C127.782 79.1531 127.392 78.7838 127.392 78.2938C127.392 77.8038 127.74 77.4487 128.606 77.4487H129.267C129.267 77.0936 129.054 76.8877 128.613 76.8877C128.32 76.8856 128.034 76.9777 127.797 77.1504L127.506 76.5752C127.87 76.3423 128.295 76.2235 128.727 76.2343C129.579 76.2343 130.083 76.6391 130.083 77.4913ZM129.26 78.2015V77.9103H128.699C128.315 77.9103 128.187 78.0524 128.187 78.2441C128.187 78.4359 128.365 78.585 128.656 78.585C128.784 78.5964 128.912 78.5667 129.022 78.5003C129.132 78.4339 129.217 78.3342 129.267 78.2157L129.26 78.2015Z" fill="#263238"/>
<path d="M133.776 76.2769V78.6347C133.796 78.8463 133.768 79.0597 133.694 79.259C133.621 79.4584 133.503 79.6387 133.35 79.7866C133.198 79.9345 133.014 80.0462 132.812 80.1136C132.611 80.1809 132.396 80.2022 132.186 80.1757C131.683 80.2006 131.185 80.0637 130.765 79.7852L131.092 79.1957C131.384 79.4042 131.734 79.516 132.093 79.5153C132.676 79.5153 132.924 79.2525 132.924 78.7412V78.6205C132.81 78.7412 132.671 78.8355 132.516 78.8968C132.361 78.9581 132.195 78.985 132.029 78.9756C131.666 78.9756 131.317 78.8312 131.06 78.5741C130.803 78.3171 130.659 77.9684 130.659 77.6049C130.659 77.2414 130.803 76.8928 131.06 76.6357C131.317 76.3787 131.666 76.2343 132.029 76.2343C132.206 76.2245 132.383 76.256 132.546 76.3262C132.708 76.3965 132.853 76.5036 132.967 76.6391V76.2769H133.776ZM132.967 77.6049C132.974 77.4546 132.935 77.3058 132.856 77.1778C132.777 77.0499 132.661 76.9489 132.523 76.8881C132.386 76.8273 132.233 76.8096 132.085 76.8372C131.937 76.8649 131.801 76.9366 131.695 77.0429C131.588 77.1493 131.517 77.2854 131.489 77.4333C131.461 77.5812 131.479 77.7339 131.54 77.8715C131.601 78.0092 131.702 78.1252 131.83 78.2043C131.957 78.2835 132.106 78.3221 132.257 78.3151C132.445 78.3151 132.626 78.2403 132.759 78.1071C132.892 77.9739 132.967 77.7933 132.967 77.6049Z" fill="#263238"/>
<path d="M137.299 77.9245H135.168C135.212 78.101 135.318 78.2558 135.467 78.3602C135.616 78.4646 135.797 78.5117 135.978 78.4926C136.109 78.4993 136.239 78.4787 136.361 78.4323C136.484 78.3858 136.595 78.3145 136.688 78.2228L137.128 78.6986C136.978 78.8551 136.795 78.9768 136.593 79.0553C136.39 79.1338 136.173 79.1672 135.957 79.1531C135.753 79.1729 135.548 79.15 135.354 79.0859C135.16 79.0218 134.981 78.9179 134.829 78.7809C134.678 78.6439 134.556 78.4768 134.473 78.2902C134.389 78.1036 134.346 77.9017 134.345 77.6972C134.338 77.4998 134.373 77.3032 134.447 77.12C134.521 76.9368 134.633 76.7711 134.774 76.6334C134.916 76.4957 135.085 76.3891 135.27 76.3204C135.455 76.2517 135.653 76.2223 135.85 76.2343C136.046 76.2263 136.241 76.2589 136.423 76.3298C136.605 76.4008 136.771 76.5087 136.91 76.6467C137.048 76.7847 137.157 76.9499 137.229 77.1319C137.301 77.3139 137.334 77.5088 137.327 77.7043C137.313 77.7399 137.306 77.8606 137.299 77.9245ZM135.168 77.4487H136.589C136.589 77.2603 136.514 77.0797 136.381 76.9465C136.248 76.8133 136.067 76.7385 135.879 76.7385C135.69 76.7385 135.51 76.8133 135.376 76.9465C135.243 77.0797 135.168 77.2603 135.168 77.4487Z" fill="#263238"/>
<path d="M137.583 78.8477L137.86 78.2583C138.158 78.4379 138.499 78.5335 138.847 78.5353C139.223 78.5353 139.365 78.4287 139.365 78.2725C139.365 77.8109 137.654 78.2725 137.654 77.1504C137.654 76.6178 138.137 76.2343 138.968 76.2343C139.345 76.2283 139.717 76.3136 140.054 76.4829L139.784 77.0652C139.535 76.9273 139.253 76.8563 138.968 76.8593C138.598 76.8593 138.435 76.9729 138.435 77.122C138.435 77.6049 140.147 77.122 140.147 78.2512C140.147 78.7767 139.664 79.1531 138.811 79.1531C138.382 79.1628 137.958 79.0573 137.583 78.8477Z" fill="#263238"/>
<path d="M141.972 77.2711C141.949 76.8682 142.048 76.4677 142.255 76.1214C142.462 75.7751 142.769 75.499 143.135 75.3288C143.501 75.1586 143.909 75.102 144.308 75.1666C144.706 75.2311 145.076 75.4136 145.37 75.6906C145.663 75.9677 145.867 76.3264 145.954 76.7204C146.042 77.1144 146.009 77.5256 145.86 77.9008C145.712 78.276 145.454 78.5979 145.12 78.825C144.786 79.0521 144.392 79.1738 143.989 79.1744C143.73 79.1889 143.47 79.1504 143.227 79.0614C142.983 78.9723 142.76 78.8345 142.571 78.6564C142.382 78.4783 142.232 78.2637 142.129 78.0255C142.026 77.7873 141.972 77.5306 141.972 77.2711ZM145.139 77.2711C145.135 77.0429 145.063 76.8209 144.933 76.6332C144.803 76.4455 144.621 76.3005 144.408 76.2164C144.196 76.1322 143.964 76.1127 143.74 76.1604C143.517 76.208 143.313 76.3206 143.153 76.484C142.994 76.6474 142.886 76.8543 142.844 77.0787C142.802 77.3031 142.827 77.535 142.916 77.7452C143.006 77.9553 143.155 78.1344 143.346 78.2598C143.537 78.3852 143.76 78.4514 143.989 78.45C144.143 78.4531 144.296 78.4245 144.439 78.366C144.582 78.3074 144.711 78.2202 144.819 78.1097C144.927 77.9993 145.011 77.8678 145.066 77.7236C145.121 77.5794 145.146 77.4254 145.139 77.2711Z" fill="#263238"/>
<path d="M147.355 76.1206H146.176V75.4104H149.386V76.1206H148.207V79.1104H147.355V76.1206Z" fill="#263238"/>
<path d="M153.043 76.7598C153.043 77.5836 152.426 78.0949 151.438 78.0949H150.728V79.1105H149.862V75.4247H151.453C152.426 75.4247 153.043 75.936 153.043 76.7598ZM152.177 76.7598C152.177 76.355 151.914 76.1207 151.396 76.1207H150.686V77.399H151.396C151.914 77.399 152.177 77.1646 152.177 76.7598Z" fill="#263238"/>
<path d="M106.57 89.8909C106.57 86.4111 108.502 84.4368 111.087 84.4368C113.672 84.4368 115.61 86.4111 115.61 89.8909C115.61 93.3708 113.693 95.3451 111.087 95.3451C108.48 95.3451 106.57 93.3637 106.57 89.8909ZM113.153 89.8909C113.153 87.4976 112.308 86.5034 111.087 86.5034C109.865 86.5034 109.041 87.4976 109.041 89.8909C109.041 92.2842 109.886 93.2784 111.087 93.2784C112.287 93.2784 113.16 92.2842 113.16 89.8909H113.153Z" fill="#263238"/>
<path d="M125.631 92.1067C125.631 94.0952 123.856 95.3451 121.178 95.3451C118.501 95.3451 116.747 94.0952 116.747 92.1067C116.741 91.5815 116.889 91.066 117.173 90.6242C117.457 90.1824 117.864 89.8336 118.345 89.6211C117.971 89.4054 117.661 89.0947 117.447 88.7204C117.232 88.3462 117.12 87.9219 117.123 87.4905C117.123 85.637 118.778 84.4723 121.178 84.4723C123.579 84.4723 125.255 85.637 125.255 87.4905C125.256 87.9233 125.142 88.3486 124.925 88.7229C124.708 89.0973 124.395 89.4072 124.019 89.6211C124.504 89.8292 124.915 90.1765 125.202 90.619C125.489 91.0615 125.639 91.5793 125.631 92.1067ZM123.167 92.0285C123.167 91.0982 122.393 90.523 121.178 90.523C119.964 90.523 119.218 91.0982 119.218 92.0285C119.218 92.9589 119.971 93.5554 121.178 93.5554C122.385 93.5554 123.167 92.966 123.167 92.0285ZM119.552 87.5545C119.552 88.357 120.184 88.8541 121.178 88.8541C122.172 88.8541 122.833 88.357 122.833 87.5545C122.833 86.752 122.194 86.2619 121.178 86.2619C120.163 86.2619 119.552 86.7307 119.552 87.5545Z" fill="#263238"/>
<path d="M135.581 92.1067C135.581 94.0952 133.798 95.3451 131.121 95.3451C128.443 95.3451 126.689 94.0952 126.689 92.1067C126.683 91.5815 126.831 91.066 127.115 90.6242C127.399 90.1824 127.807 89.8336 128.287 89.6211C127.914 89.4054 127.604 89.0947 127.389 88.7204C127.175 88.3462 127.063 87.9219 127.066 87.4905C127.066 85.637 128.727 84.4723 131.121 84.4723C133.514 84.4723 135.204 85.637 135.204 87.4905C135.204 87.923 135.09 88.3477 134.873 88.7218C134.656 89.0959 134.344 89.4061 133.969 89.6211C134.453 89.8299 134.864 90.1775 135.151 90.6198C135.438 91.0621 135.587 91.5795 135.581 92.1067ZM133.109 92.0285C133.109 91.0982 132.342 90.523 131.121 90.523C129.899 90.523 129.161 91.0982 129.161 92.0285C129.161 92.9589 129.913 93.5554 131.121 93.5554C132.328 93.5554 133.109 92.966 133.109 92.0285ZM129.494 87.5545C129.494 88.357 130.127 88.8541 131.121 88.8541C132.115 88.8541 132.775 88.357 132.775 87.5545C132.775 86.752 132.136 86.2619 131.121 86.2619C130.105 86.2619 129.494 86.7307 129.494 87.5545Z" fill="#263238"/>
<path d="M140.765 84.6215V95.1676H138.322V86.5815H136.191V84.6215H140.765Z" fill="#263238"/>
<path d="M150.48 93.1791V95.1676H142.512V93.5839L146.574 89.7418C147.511 88.8541 147.675 88.3215 147.675 87.796C147.675 86.9722 147.107 86.4892 145.992 86.4892C145.569 86.4721 145.148 86.5589 144.767 86.7421C144.386 86.9254 144.055 87.1995 143.804 87.5403L142.029 86.3969C142.512 85.7505 143.147 85.2333 143.878 84.8913C144.609 84.5494 145.413 84.3933 146.219 84.4368C148.563 84.4368 150.132 85.6441 150.132 87.5545C150.132 88.5843 149.848 89.5146 148.371 90.8852L145.942 93.1791H150.48Z" fill="#263238"/>
<defs>
<linearGradient id="paint0_linear_370_4367" x1="43.2874" y1="27.4597" x2="65.5" y2="86" gradientUnits="userSpaceOnUse">
<stop offset="0.435454" stop-color="#295068"/>
<stop offset="1" stop-color="#426E8A"/>
</linearGradient>
</defs>
</svg>
