<svg width="270" height="241" viewBox="0 0 270 241" fill="none" xmlns="http://www.w3.org/2000/svg">
<path d="M202.635 176.415C199.783 174.628 196.559 173.519 193.212 173.173C191.673 173.011 189.972 173.06 188.752 173.989C188.61 174.073 188.493 174.192 188.413 174.336C188.332 174.479 188.291 174.641 188.293 174.805C188.369 175.032 188.525 175.223 188.73 175.345C192.564 178.274 198.364 178.641 202.635 176.426" fill="#E0E0E0"/>
<path d="M202.392 176.15C200.21 174.547 198.173 172.753 196.306 170.791C194.431 168.817 193.113 166.38 192.488 163.729C192.326 162.93 192.278 162.006 192.791 161.368C197.651 165.15 201.431 170.061 202.392 176.15Z" fill="#E0E0E0"/>
<path d="M202.581 176.383C202.135 173.732 202.173 171.023 202.694 168.386C203.305 165.777 204.725 163.275 206.955 161.79C207.792 163.751 207.43 166.009 206.842 168.057C205.927 171.23 204.5 174.232 202.619 176.945" fill="#E0E0E0"/>
<path d="M207.36 184.909C204.476 185.26 201.96 186.778 199.8 188.734C197.634 190.707 196.126 193.299 195.48 196.157C198.315 195.984 200.718 193.996 202.457 191.743C204.196 189.49 205.405 187.048 207.317 184.952" fill="#E0E0E0"/>
<path d="M208.37 186.254C207.236 183.366 206.839 180.24 207.216 177.16C207.593 174.08 208.732 171.142 210.53 168.613C212.177 174.47 211.572 181.078 208.37 186.254Z" fill="#E0E0E0"/>
<path d="M214.655 193.758C212.018 193.598 209.391 194.215 207.101 195.533C204.81 196.852 202.957 198.814 201.771 201.177C201.609 201.495 201.469 201.901 201.685 202.187C201.795 202.296 201.931 202.376 202.08 202.42C202.228 202.464 202.386 202.471 202.538 202.441C205.076 202.273 207.328 200.75 209.185 199.005C211.043 197.259 212.663 195.255 214.715 193.748" fill="#E0E0E0"/>
<path d="M214.456 193.348C213.104 188.99 213.021 184.336 214.218 179.932C214.688 178.209 215.482 176.388 217.075 175.583C217.139 175.54 217.212 175.511 217.288 175.497C217.364 175.483 217.442 175.485 217.517 175.502C217.646 175.572 217.745 175.688 217.793 175.826C218.329 177.034 218.561 178.355 218.468 179.673C218.371 180.986 218.169 182.289 217.863 183.569C217.361 185.951 217.091 188.507 215.789 190.56C215.481 191.056 215.203 191.57 214.958 192.1C214.709 192.64 214.709 192.802 214.483 193.218" fill="#E0E0E0"/>
<path d="M231.088 195.828C229.856 191.138 231.163 185.454 234.117 181.607C234.338 181.326 234.625 181.018 234.981 181.067C235.521 181.116 235.667 181.84 235.64 182.385C235.418 187.209 233.841 191.872 231.088 195.839" fill="#E0E0E0"/>
<path d="M232.589 196.854C238.286 198.335 244.814 196.898 249.556 193.402C246.718 191.974 243.474 191.575 240.376 192.273C237.308 192.975 234.506 194.353 232.594 196.854" fill="#E0E0E0"/>
<path d="M233.852 193.731C237.044 188.528 243.157 185.13 249.248 184.822C248.546 187.302 246.51 189.231 244.215 190.392C241.92 191.554 239.355 192.067 236.822 192.554C235.84 192.743 234.49 192.953 233.852 193.726" fill="#E0E0E0"/>
<path d="M231.406 178.576C232.27 175.616 233.14 172.633 233.377 169.553C233.615 166.474 233.172 163.27 231.579 160.633C228.598 166.398 228.296 173.141 231.314 178.89" fill="#E0E0E0"/>
<path d="M241.434 173.503C244.922 167.171 252.029 162.108 259.222 161.401C256.446 168.311 248.881 173.654 241.434 173.503Z" fill="#E0E0E0"/>
<path d="M239.247 174.746C244.442 175.54 248.87 178.857 253.724 180.873C254.742 181.363 255.87 181.579 256.997 181.499C257.522 181.497 258.034 181.332 258.463 181.028C258.892 180.724 259.217 180.296 259.394 179.801C259.571 179.306 259.591 178.768 259.452 178.261C259.313 177.754 259.021 177.302 258.617 176.966C257.93 176.33 257.122 175.84 256.241 175.524C250.949 173.319 245.279 173.265 239.706 174.6" fill="#E0E0E0"/>
<path d="M236.239 178.393C237.416 178.728 237.816 179.338 238.75 180.132C241.926 182.835 245.683 184.767 249.728 185.778C250.144 185.881 250.695 185.924 250.906 185.541C251.116 185.157 250.857 184.811 250.619 184.514C248.855 182.445 246.566 180.891 243.994 180.014C241.456 179.068 239.263 177.933 236.239 178.177" fill="#E0E0E0"/>
<path d="M232.843 156.37C234.976 158.331 237.494 159.824 240.238 160.754C242.981 161.685 245.888 162.032 248.773 161.773C249.04 161.776 249.298 161.682 249.502 161.509C249.901 161.076 249.421 160.401 248.962 160.039C244.28 156.381 238.604 154.868 232.853 156.349" fill="#E0E0E0"/>
<path d="M236.866 154.917C239.687 152.842 242.959 151.463 246.414 150.893C249.869 150.323 253.41 150.578 256.748 151.638C254.243 154.107 250.771 155.42 247.271 155.798C243.778 156.116 240.256 155.818 236.866 154.917Z" fill="#E0E0E0"/>
<path d="M235.267 144.776C234.808 140.097 235.105 136.407 234.781 131.706C234.781 131.333 234.679 130.88 234.328 130.745C233.836 130.555 233.431 131.161 233.248 131.658C232.573 133.834 232.404 136.136 232.753 138.388C233.102 140.64 233.96 142.782 235.262 144.652" fill="#E0E0E0"/>
<path d="M234.932 145.295C238.102 143.333 240.478 140.772 242.676 137.763C244.204 135.672 245.495 133.16 245.149 130.593C242.989 130.55 240.959 131.733 239.56 133.365C238.227 135.06 237.259 137.011 236.714 139.097C236.093 141.156 235.661 143.274 234.932 145.295Z" fill="#E0E0E0"/>
<path d="M242.541 143.177C249.512 140.596 255.966 136.788 261.598 131.933C259.324 131.02 256.738 131.566 254.437 132.474C249.242 134.575 244.993 138.12 242.444 143.117" fill="#E0E0E0"/>
<path d="M237.06 147.85C240.581 148.239 244.15 148.488 247.644 147.904C251.138 147.321 254.318 145.97 257.521 144.619C257.801 144.539 258.041 144.358 258.196 144.111C258.245 143.962 258.248 143.801 258.205 143.65C258.161 143.498 258.074 143.364 257.953 143.263C257.706 143.069 257.417 142.934 257.11 142.869C253.627 141.896 249.863 142.328 246.434 143.506C243.168 144.617 240.026 146.066 237.06 147.829" fill="#E0E0E0"/>
<path d="M216.983 156.538C214.585 151.675 214.736 146.029 216.81 141.037C218.273 143.258 218.43 146.094 218.182 148.742C217.933 151.389 217.102 154.117 217.058 156.776" fill="#E0E0E0"/>
<path d="M207.392 151.675C204.388 151.636 201.408 152.225 198.644 153.404C195.879 154.582 193.391 156.325 191.338 158.521C194.33 158.991 197.408 158.218 200.129 156.9C202.851 155.582 205.27 153.707 207.662 151.854" fill="#E0E0E0"/>
<path d="M200.95 149.514C198.018 149.277 195.194 148.909 192.375 149.774C189.556 150.638 186.975 152.599 185.841 155.317C188.598 155.547 191.367 155.036 193.86 153.837C196.347 152.609 198.72 151.163 200.95 149.514Z" fill="#E0E0E0"/>
<path d="M210.492 149.633C207.857 147.904 205.146 146.143 202.079 145.43C199.012 144.717 195.448 145.241 193.304 147.558C195.793 149.017 198.806 149.179 201.69 149.179C204.574 149.179 208.105 149.147 210.821 150.109" fill="#E0E0E0"/>
<path d="M210.508 149.774C205.999 145.343 204.293 137.385 206.102 131.328C209.663 136.78 211.221 143.3 210.508 149.774Z" fill="#E0E0E0"/>
<path d="M222.907 137.223C223.754 135.245 224.354 133.165 225.115 131.155C225.811 129.112 226.881 127.216 228.269 125.563C229.677 123.901 231.683 122.861 233.852 122.667C233.159 125.719 231.838 128.593 229.971 131.105C228.105 133.617 225.736 135.711 223.015 137.255" fill="#E0E0E0"/>
<path d="M220.666 139.838C219.24 137.898 217.62 135.267 215.719 133.846C213.818 132.425 211.329 131.528 209.002 132.084C210.208 134.199 211.89 136.003 213.915 137.353C215.94 138.704 218.251 139.564 220.666 139.865" fill="#E0E0E0"/>
<path d="M221.114 137.385C220.19 135.04 219.262 132.668 218.889 130.177C218.516 127.687 218.743 125.023 220.018 122.846C222.491 127.53 223.285 132.571 221.238 137.433" fill="#E0E0E0"/>
<path d="M222.928 122.846C224.332 118.204 228.577 114.79 233.161 113.223C233.73 112.99 234.347 112.897 234.959 112.953C235.26 112.985 235.545 113.105 235.779 113.297C236.013 113.489 236.186 113.745 236.277 114.033C236.444 114.822 235.796 115.53 235.197 116.054C231.614 119.119 227.445 121.423 222.944 122.824" fill="#E0E0E0"/>
<path d="M222.982 119.053C223.16 116.06 223.344 113.023 224.316 110.192C225.288 107.361 227.167 104.697 229.894 103.455C230.353 106.475 229.025 109.484 227.416 112.099C225.806 114.714 223.873 117.156 222.907 120.052" fill="#E0E0E0"/>
<path d="M222.907 121.111C221.746 117.729 221.627 113.434 219.602 110.489C218.187 108.431 215.924 107.026 214.704 104.843C213.968 106.936 214.071 109.232 214.99 111.251C215.912 113.246 217.179 115.062 218.732 116.616C220.234 118.237 221.513 119.42 222.907 121.111Z" fill="#E0E0E0"/>
<path d="M222.928 220.703C222.842 220.703 222.761 198.146 222.755 170.321C222.75 142.496 222.815 119.933 222.907 119.933C222.999 119.933 223.074 142.491 223.08 170.321C223.085 198.151 223.02 220.703 222.928 220.703Z" fill="#E0E0E0"/>
<path d="M242.633 153.123C242.361 153.256 242.077 153.363 241.785 153.442L239.452 154.231C237.487 154.901 234.781 155.852 231.849 157.078C228.917 158.305 226.206 159.337 224.645 160.687C224.024 161.206 223.528 161.86 223.198 162.6C222.977 163.14 222.939 163.454 222.907 163.448C222.894 163.371 222.894 163.293 222.907 163.216C222.941 162.992 222.995 162.771 223.069 162.557C223.366 161.77 223.852 161.069 224.483 160.514C225.426 159.719 226.479 159.063 227.61 158.569C228.857 157.986 230.245 157.381 231.714 156.776C234.657 155.565 237.379 154.614 239.371 154.015C240.365 153.701 241.175 153.474 241.736 153.323C242.029 153.231 242.329 153.164 242.633 153.123Z" fill="#E0E0E0"/>
<path d="M249.091 137.255C249.022 137.348 248.942 137.433 248.854 137.509L248.13 138.168L245.43 140.627L236.439 148.65C232.929 151.778 229.9 154.76 227.799 157.013C226.751 158.132 225.92 159.067 225.353 159.715L224.699 160.461C224.628 160.552 224.547 160.636 224.456 160.709C224.51 160.605 224.575 160.507 224.651 160.417C224.786 160.239 224.986 159.969 225.256 159.634C225.796 158.959 226.6 158.013 227.632 156.857C230.345 153.9 233.213 151.088 236.223 148.434C239.744 145.316 242.951 142.518 245.279 140.497C246.418 139.514 247.358 138.709 248.049 138.12C248.357 137.86 248.589 137.655 248.81 137.482C248.893 137.394 248.988 137.317 249.091 137.255Z" fill="#E0E0E0"/>
<path d="M232.654 151.827C232.562 151.789 233.291 150.092 234.025 147.953C234.76 145.813 235.105 144.003 235.202 144.02C235.131 145.4 234.847 146.762 234.36 148.055C234.051 148.975 233.69 149.877 233.28 150.757C233.123 151.141 232.912 151.502 232.654 151.827Z" fill="#E0E0E0"/>
<path d="M222.95 165.485C222.749 165.293 222.568 165.081 222.41 164.853L221.022 163.081C219.861 161.573 218.252 159.493 216.448 157.224C214.645 154.955 212.987 152.902 211.788 151.432L210.368 149.682C210.183 149.476 210.02 149.252 209.882 149.012C210.095 149.186 210.29 149.382 210.465 149.595C210.827 149.99 211.34 150.568 211.961 151.286C213.208 152.723 214.898 154.744 216.702 157.019C218.506 159.293 220.088 161.401 221.206 162.962C221.746 163.735 222.21 164.361 222.512 164.804C222.68 165.016 222.827 165.244 222.95 165.485Z" fill="#E0E0E0"/>
<path d="M218.63 159.936C217.76 158.97 217.139 157.805 216.821 156.543C216.48 155.437 216.341 154.279 216.41 153.123H216.551C216.486 153.383 216.443 153.518 216.416 153.518C216.389 153.518 216.416 153.366 216.416 153.096H216.562C216.629 154.224 216.823 155.34 217.139 156.424C217.717 158.467 218.7 159.877 218.63 159.936Z" fill="#E0E0E0"/>
<path d="M213.052 152.913C212.662 152.617 212.237 152.371 211.788 152.178C210.65 151.842 209.454 151.749 208.278 151.902C207.087 151.996 205.906 152.185 204.746 152.47C204.27 152.618 203.785 152.736 203.294 152.821C203.725 152.561 204.193 152.368 204.682 152.248C205.844 151.891 207.043 151.664 208.256 151.573C209.477 151.412 210.717 151.547 211.874 151.967C212.364 152.137 212.78 152.471 213.052 152.913Z" fill="#E0E0E0"/>
<path d="M211.729 151.211C211.729 151.265 210.994 150.919 209.795 150.508C206.659 149.436 203.301 149.179 200.038 149.763C198.79 149.984 198.034 150.222 198.018 150.168C198.176 150.068 198.349 149.993 198.531 149.946C199.009 149.782 199.496 149.645 199.989 149.536C203.286 148.817 206.721 149.08 209.871 150.292C210.345 150.471 210.807 150.681 211.253 150.919C211.424 150.994 211.584 151.092 211.729 151.211Z" fill="#E0E0E0"/>
<path d="M222.907 144.019C222.334 142.415 221.863 140.777 221.497 139.114C220.801 136.38 220.309 134.143 220.417 134.121C220.525 134.1 221.135 136.283 221.827 139.033C222.518 141.783 223.02 143.998 222.907 144.019Z" fill="#E0E0E0"/>
<path d="M223.02 144.019C222.923 144.052 222.512 142.582 221.454 141.08C220.792 140.191 220.017 139.392 219.148 138.703C219.477 138.784 219.782 138.941 220.039 139.162C220.693 139.639 221.261 140.224 221.719 140.891C222.417 141.803 222.866 142.881 223.02 144.019Z" fill="#E0E0E0"/>
<path d="M222.928 208.676C222.896 208.676 222.826 208.136 222.572 207.179C222.201 205.83 221.696 204.522 221.065 203.273C219.51 200.085 216.675 196.049 213.073 192.003C211.286 189.96 209.558 188.037 208.084 186.194C206.767 184.573 205.575 182.853 204.52 181.051C203.811 179.832 203.21 178.554 202.721 177.231C202.554 176.761 202.435 176.394 202.365 176.15C202.321 176.024 202.29 175.894 202.273 175.761C202.306 175.761 202.468 176.275 202.84 177.199C203.372 178.492 204 179.744 204.719 180.943C205.796 182.719 207 184.414 208.321 186.016C209.795 187.842 211.529 189.755 213.316 191.797C216.929 195.855 219.758 199.945 221.276 203.181C221.891 204.452 222.367 205.785 222.696 207.158C222.786 207.531 222.852 207.91 222.896 208.292C222.92 208.419 222.931 208.547 222.928 208.676Z" fill="#E0E0E0"/>
<path d="M240.737 188.555C240.438 188.755 240.126 188.936 239.803 189.096C238.958 189.578 238.147 190.119 237.379 190.717C236.247 191.6 235.185 192.57 234.203 193.618C233.086 194.801 231.935 196.168 230.764 197.638C228.42 200.582 226.228 203.186 224.91 205.267C224.246 206.298 223.76 207.168 223.441 207.773C223.294 208.099 223.123 208.414 222.928 208.714C222.943 208.607 222.974 208.503 223.02 208.406C223.09 208.238 223.187 207.99 223.333 207.676C223.744 206.79 224.208 205.93 224.721 205.099C226.001 202.97 228.177 200.328 230.515 197.389C231.692 195.92 232.853 194.547 233.993 193.369C234.989 192.319 236.073 191.356 237.233 190.49C238.03 189.907 238.875 189.394 239.76 188.955C240.068 188.804 240.3 188.707 240.489 188.636C240.567 188.597 240.651 188.57 240.737 188.555Z" fill="#E0E0E0"/>
<path d="M241.083 195.082C240.434 195.228 239.775 195.324 239.112 195.369C237.528 195.532 235.963 195.842 234.436 196.292C232.924 196.783 231.508 197.526 230.245 198.491C229.279 199.237 228.825 199.853 228.776 199.821C228.85 199.654 228.951 199.501 229.073 199.367C229.38 198.982 229.723 198.63 230.099 198.313C231.355 197.267 232.802 196.474 234.36 195.979C235.908 195.515 237.504 195.232 239.117 195.136C239.769 195.057 240.428 195.039 241.083 195.082Z" fill="#E0E0E0"/>
<path d="M229.354 199.102C229.252 199.042 230.143 197.686 230.828 195.86C231.514 194.034 231.628 192.397 231.746 192.419C231.794 192.778 231.783 193.143 231.714 193.499C231.609 194.345 231.41 195.177 231.12 195.979C230.821 196.781 230.438 197.549 229.975 198.27C229.814 198.579 229.605 198.86 229.354 199.102Z" fill="#E0E0E0"/>
<path d="M246.499 171.029C246.403 171.099 246.298 171.155 246.186 171.196L245.257 171.617C244.852 171.796 244.361 172.017 243.805 172.309C243.248 172.601 242.595 172.893 241.92 173.298L240.84 173.908C240.467 174.124 240.095 174.378 239.706 174.627C238.912 175.108 238.118 175.707 237.265 176.307C235.463 177.671 233.765 179.166 232.184 180.781C230.617 182.419 229.174 184.171 227.864 186.022C227.286 186.891 226.724 187.702 226.271 188.512C226.039 188.918 225.796 189.29 225.596 189.674L225.018 190.754C224.635 191.446 224.359 192.105 224.095 192.673C223.83 193.24 223.614 193.753 223.457 194.147C223.301 194.542 223.171 194.844 223.069 195.093C223.027 195.204 222.975 195.311 222.912 195.412C222.929 195.295 222.959 195.181 223.004 195.071C223.09 194.812 223.204 194.493 223.339 194.104C223.509 193.592 223.706 193.089 223.927 192.597C224.181 192.024 224.44 191.354 224.813 190.652L225.353 189.539C225.547 189.15 225.785 188.766 226.017 188.361C226.46 187.54 227.021 186.713 227.594 185.832C230.166 182.058 233.362 178.749 237.044 176.048C237.908 175.448 238.712 174.859 239.517 174.384C239.917 174.141 240.289 173.887 240.667 173.676L241.747 173.082C242.433 172.682 243.092 172.401 243.664 172.125C244.237 171.85 244.744 171.644 245.144 171.488L246.1 171.12C246.228 171.071 246.362 171.04 246.499 171.029Z" fill="#E0E0E0"/>
<path d="M232.411 180.478C232.54 180.021 232.811 179.617 233.183 179.322C234.055 178.58 235.159 178.165 236.304 178.15C237.432 178.147 238.549 178.366 239.593 178.793C240.034 178.932 240.453 179.136 240.835 179.398C240.385 179.307 239.945 179.179 239.517 179.014C238.487 178.656 237.405 178.473 236.315 178.474C235.236 178.498 234.193 178.863 233.334 179.516C233.004 179.815 232.695 180.136 232.411 180.478Z" fill="#E0E0E0"/>
<path d="M230.305 182.65C230.213 182.602 231.007 181.435 231.191 179.765C231.374 178.096 230.894 176.783 230.991 176.756C231.088 176.729 231.207 177.047 231.358 177.593C231.546 178.314 231.6 179.063 231.515 179.803C231.431 180.542 231.207 181.259 230.856 181.915C230.58 182.418 230.337 182.672 230.305 182.65Z" fill="#E0E0E0"/>
<path d="M207.36 211.912C207.846 220.53 210.443 229.299 214.439 238.165H231.806C235.613 229.39 238.032 220.632 238.464 211.912H207.36Z" fill="#E0E0E0"/>
<path d="M235.64 225.862C235.64 225.954 229.921 226.024 222.869 226.024C215.816 226.024 210.098 225.954 210.098 225.862C210.098 225.771 215.816 225.7 222.869 225.7C229.921 225.7 235.64 225.771 235.64 225.862Z" fill="#FAFAFA"/>
<path d="M235.256 228.985C235.256 229.077 229.894 229.147 223.279 229.147C216.664 229.147 211.307 229.077 211.307 228.985C211.307 228.893 216.67 228.823 223.279 228.823C229.889 228.823 235.256 228.893 235.256 228.985Z" fill="#FAFAFA"/>
<path d="M214.715 217.591C214.931 220.255 214.931 222.933 214.715 225.598C214.623 225.598 214.547 223.809 214.547 221.594C214.547 219.379 214.623 217.591 214.715 217.591Z" fill="#FAFAFA"/>
<path d="M224.019 217.591C224.111 217.591 224.181 219.449 224.181 221.74C224.181 224.031 224.111 225.884 224.019 225.884C223.927 225.884 223.857 224.025 223.857 221.74C223.857 219.455 223.927 217.591 224.019 217.591Z" fill="#FAFAFA"/>
<path d="M232.74 217.499C232.956 220.315 232.956 223.143 232.74 225.96C232.648 225.96 232.578 224.063 232.578 221.729C232.578 219.395 232.664 217.499 232.74 217.499Z" fill="#FAFAFA"/>
<path d="M237.908 217.591C237.908 217.682 231.201 217.758 222.928 217.758C214.655 217.758 207.949 217.682 207.949 217.591C207.949 217.499 214.65 217.428 222.928 217.428C231.206 217.428 237.908 217.482 237.908 217.591Z" fill="#FAFAFA"/>
<path d="M247.352 0.346069H205.74V43.7474H247.352V0.346069Z" fill="#E0E0E0"/>
<path d="M244.534 0.346069H202.921V43.7474H244.534V0.346069Z" fill="#FAFAFA"/>
<path d="M244.55 43.7636H202.91V0.335205H244.55V43.7636ZM202.932 43.7636H244.512V0.356817H202.932V43.7636Z" fill="#E0E0E0"/>
<path d="M238.945 6.18115H208.516V37.9123H238.945V6.18115Z" fill="white"/>
<path d="M208.516 38.1284C208.298 38.445 208.046 38.7367 207.765 38.9983C207.279 39.5386 206.593 40.2085 205.832 40.9595C205.07 41.7105 204.363 42.3859 203.845 42.8667C203.582 43.1447 203.286 43.3897 202.964 43.5961C203.177 43.277 203.427 42.9849 203.71 42.7263C204.196 42.213 204.881 41.516 205.648 40.7596C206.415 40.0032 207.122 39.3333 207.641 38.8524C207.901 38.5754 208.195 38.3321 208.516 38.1284Z" fill="#E0E0E0"/>
<path d="M238.939 38.0474C239.259 38.2623 239.553 38.5144 239.814 38.7984C240.327 39.2846 241.024 39.9708 241.774 40.7326C242.525 41.4944 243.2 42.2022 243.68 42.7209C243.958 42.9837 244.203 43.2794 244.409 43.6015C244.09 43.3892 243.799 43.1388 243.54 42.8559C243.027 42.3697 242.33 41.6835 241.574 40.9163C240.818 40.1491 240.149 39.4413 239.668 38.9226C239.391 38.6608 239.147 38.367 238.939 38.0474Z" fill="#E0E0E0"/>
<path d="M238.858 6.26755C239.073 5.94722 239.325 5.65343 239.609 5.39229C240.095 4.852 240.775 4.18204 241.542 3.43104C242.309 2.68004 243 2.01548 243.54 1.52922C243.802 1.24878 244.098 1.00196 244.42 0.794434C244.208 1.11354 243.958 1.40564 243.675 1.6643C243.189 2.17757 242.503 2.87454 241.736 3.63095C240.97 4.38735 240.262 5.05731 239.744 5.53817C239.477 5.81427 239.18 6.05899 238.858 6.26755Z" fill="#E0E0E0"/>
<path d="M208.44 6.33786C208.118 6.12502 207.824 5.87273 207.565 5.58685C207.052 5.1006 206.356 4.41983 205.605 3.65262C204.854 2.88541 204.179 2.18304 203.699 1.66436C203.421 1.40151 203.176 1.10577 202.97 0.783691C203.289 0.996041 203.581 1.24641 203.839 1.52929C204.352 2.01555 205.049 2.70171 205.805 3.46892C206.561 4.23613 207.23 4.94391 207.711 5.46259C207.986 5.72581 208.231 6.01944 208.44 6.33786Z" fill="#E0E0E0"/>
<path d="M238.858 37.9122C238.858 37.9122 238.858 37.8582 238.858 37.7609C238.858 37.6637 238.858 37.507 238.858 37.3179C238.858 36.9181 238.858 36.3454 238.858 35.6052C238.858 34.1032 238.858 31.915 238.826 29.1217C238.826 23.5622 238.793 15.6469 238.766 6.16487L238.885 6.28374H208.548L208.683 6.14866C208.683 17.7973 208.683 28.6949 208.683 37.8798L208.57 37.7663L230.542 37.8258L236.709 37.8582H238.329H238.896C238.851 37.8631 238.806 37.8631 238.761 37.8582H238.351H236.731L230.585 37.8906L208.543 37.95H208.429V37.8312C208.429 28.6463 208.429 17.7487 208.429 6.10004V5.96497H208.57H238.907H239.026V6.08383C238.999 15.5929 238.977 23.5405 238.966 29.1163C238.966 31.8826 238.939 34.06 238.934 35.5566C238.934 36.2914 238.934 36.8533 238.934 37.2477C238.934 37.4314 238.934 37.5718 238.934 37.6745C238.917 37.7562 238.892 37.8359 238.858 37.9122Z" fill="#E0E0E0"/>
<path d="M228.803 16.9707H218.651V27.1281H228.803V16.9707Z" fill="#EBEBEB"/>
<path d="M66.0258 68.9194H18.5058V137.839H66.0258V68.9194Z" fill="#E0E0E0"/>
<path d="M63.6444 68.9194H16.1244V137.839H63.6444V68.9194Z" fill="#F5F5F5"/>
<path d="M57.7422 76.3807H22.032V130.366H57.7422V76.3807Z" fill="white"/>
<path d="M57.7422 130.372C57.7422 130.372 57.7422 130.28 57.7422 130.107C57.7422 129.934 57.7422 129.675 57.7422 129.34C57.7422 128.664 57.7422 127.67 57.7422 126.379C57.7422 123.791 57.7422 120.02 57.7098 115.26C57.7098 105.74 57.6774 92.2598 57.6504 76.3591L57.7692 76.478H22.0644L22.194 76.3483C22.194 96.7172 22.194 115.492 22.194 130.339L22.0914 130.237L48.087 130.291H55.269H57.1536C57.5802 130.291 57.8016 130.291 57.8016 130.291H57.1752H55.3068L48.1464 130.318L22.0914 130.372H21.9888V130.269C21.9888 115.422 21.9888 96.647 21.9888 76.2781V76.1484H22.1238H57.8286H57.9474V76.2673C57.9474 92.1788 57.9042 105.686 57.888 115.222C57.888 119.977 57.888 123.737 57.861 126.32C57.861 127.595 57.861 128.583 57.861 129.253C57.861 129.583 57.861 129.831 57.861 130.01C57.861 130.188 57.7422 130.372 57.7422 130.372Z" fill="#E0E0E0"/>
<path d="M63.7794 68.9194C63.539 69.3563 63.2569 69.7689 62.937 70.1513C62.397 70.8861 61.5978 71.891 60.7068 72.977C59.8158 74.063 58.9734 75.0301 58.3578 75.7109C58.0419 76.1019 57.6913 76.4636 57.3102 76.7914C57.5774 76.3695 57.881 75.9718 58.2174 75.6028L60.507 72.8257L62.7912 70.0486C63.0901 69.6466 63.4205 69.269 63.7794 68.9194Z" fill="#E0E0E0"/>
<path d="M57.9258 130.199C59.7006 133.024 61.7913 135.638 64.1574 137.99L57.9258 130.199Z" fill="white"/>
<path d="M64.1574 137.99C63.7632 137.7 63.4012 137.368 63.0774 137.001C61.4192 135.315 59.939 133.463 58.6602 131.474C58.3778 131.074 58.1354 130.647 57.9366 130.199C58.2575 130.567 58.55 130.959 58.8114 131.371C59.3514 132.106 60.075 133.111 60.9336 134.192C61.7922 135.272 62.613 136.207 63.2124 136.893C63.5517 137.237 63.8674 137.603 64.1574 137.99Z" fill="#E0E0E0"/>
<path d="M16.119 137.779L22.3452 130.096L16.119 137.779Z" fill="white"/>
<path d="M22.3452 130.096C21.4071 131.454 20.4015 132.763 19.332 134.019C18.3295 135.336 17.257 136.599 16.119 137.801C17.0561 136.433 18.0618 135.113 19.1322 133.846C20.1373 132.541 21.2097 131.289 22.3452 130.096Z" fill="#E0E0E0"/>
<path d="M16.1244 68.9194C17.1988 70.067 18.2084 71.2738 19.1484 72.534C20.1566 73.7419 21.0976 75.0045 21.9672 76.316C20.8946 75.1667 19.8851 73.9601 18.9432 72.7015C17.9371 71.4918 16.9961 70.2293 16.1244 68.9194Z" fill="#E0E0E0"/>
<path d="M46.6128 87.3433H34.6572V121.311H46.6128V87.3433Z" fill="#E0E0E0"/>
<path d="M40.959 21.282C36.1791 23.2467 32.373 27.028 30.3757 31.7965C28.3784 36.5651 28.3529 41.9315 30.3048 46.7188L42.4062 76.2726L47.8062 74.052L35.7102 44.4928C34.3411 41.1469 34.3564 37.3939 35.7529 34.0593C37.1494 30.7248 39.8127 28.0818 43.1568 26.7119C46.5009 25.3421 50.252 25.3574 53.5848 26.7547C56.9175 28.1519 59.5591 30.8166 60.9282 34.1625L66.3552 31.9365C64.3927 27.1598 60.6177 23.3561 55.8574 21.359C51.0971 19.3619 45.7397 19.3343 40.959 21.282Z" fill="#426E8A"/>
<g opacity="0.3">
<path d="M40.959 21.282C36.1791 23.2467 32.373 27.028 30.3757 31.7965C28.3784 36.5651 28.3529 41.9315 30.3048 46.7188L42.4062 76.2726L47.8062 74.052L35.7102 44.4928C34.3411 41.1469 34.3564 37.3939 35.7529 34.0593C37.1494 30.7248 39.8127 28.0818 43.1568 26.7119C46.5009 25.3421 50.252 25.3574 53.5848 26.7547C56.9175 28.1519 59.5591 30.8166 60.9282 34.1625L66.3552 31.9365C64.3927 27.1598 60.6177 23.3561 55.8574 21.359C51.0971 19.3619 45.7397 19.3343 40.959 21.282Z" fill="black"/>
</g>
<path d="M76.472 46.9619L33.6609 64.5031C32.0574 65.1601 31.2899 66.9933 31.9465 68.5977L42.3425 93.997C42.9991 95.6014 44.8313 96.3693 46.4348 95.7123L89.2459 78.1711C90.8494 77.5141 91.6169 75.6809 90.9603 74.0765L80.5643 48.6772C79.9077 47.0728 78.0755 46.3048 76.472 46.9619Z" fill="#426E8A"/>
<g opacity="0.5">
<path d="M63.8442 65.6073C63.5373 64.8491 63.025 64.1918 62.3649 63.7092C61.7047 63.2267 60.9231 62.9382 60.1079 62.8762C59.2927 62.8142 58.4764 62.9811 57.751 63.3582C57.0255 63.7353 56.4197 64.3076 56.0018 65.0106C55.5839 65.7136 55.3705 66.5194 55.3856 67.3372C55.4007 68.155 55.6437 68.9524 56.0873 69.6395C56.5309 70.3266 57.1574 70.8761 57.8963 71.2261C58.6352 71.5761 59.4571 71.7128 60.2694 71.6207L62.7534 77.6989L64.9728 76.7912L62.4834 70.713C63.2354 70.1266 63.7753 69.3105 64.0209 68.3888C64.2666 67.4671 64.2045 66.4904 63.8442 65.6073Z" fill="black"/>
</g>
<path d="M44.9064 92.881C44.793 92.9297 42.5736 87.7591 39.9492 81.3405C37.3248 74.9219 35.2782 69.681 35.3916 69.6324C35.505 69.5838 37.7244 74.7544 40.3488 81.1784C42.9732 87.6024 45.0144 92.8378 44.9064 92.881Z" fill="#FAFAFA"/>
<path d="M58.7304 73.7926C58.5329 73.8063 58.3347 73.7806 58.1472 73.717C57.6231 73.5774 57.1227 73.3608 56.6622 73.0741C55.8807 72.6131 55.2109 71.9848 54.7008 71.2341C54.1908 70.4835 53.8532 69.6292 53.7123 68.7325C53.5713 67.8359 53.6306 66.9191 53.8857 66.0481C54.1409 65.177 54.5856 64.3733 55.188 63.6946C55.5331 63.2722 55.9432 62.9074 56.403 62.6141C56.727 62.4142 56.943 62.3385 56.943 62.3601C56.4014 62.8234 55.8959 63.3273 55.431 63.8675C54.8959 64.5301 54.5055 65.2976 54.2852 66.1205C54.0648 66.9434 54.0193 67.8033 54.1516 68.6448C54.2839 69.4864 54.591 70.2908 55.0532 71.0063C55.5154 71.7217 56.1224 72.3322 56.835 72.7985C57.441 73.177 58.0746 73.5093 58.7304 73.7926Z" fill="#FAFAFA"/>
<path d="M24.2676 79.1199L24.5322 78.3527L25.0344 78.9902C25.4383 79.4924 25.9782 79.8675 26.5896 80.0708L27.3564 80.3355L26.7192 80.838C26.2202 81.2448 25.8458 81.7841 25.6392 82.394L25.38 83.1774L24.84 82.5453C24.4326 82.0445 23.8914 81.6698 23.2794 81.4647L22.518 81.2L23.1498 80.6975C23.6661 80.29 24.0542 79.7423 24.2676 79.1199Z" fill="#426E8A"/>
<path d="M49.896 48.9772L50.0472 48.5342L50.3388 48.9016C50.5719 49.2036 50.8868 49.4324 51.246 49.5607L51.6888 49.712L51.3216 50.0092C51.0252 50.2419 50.8021 50.5551 50.679 50.9114L50.5278 51.3545L50.22 50.9655C49.9886 50.6688 49.6749 50.4471 49.3182 50.3279L48.87 50.1713L49.2426 49.8795C49.5419 49.6472 49.7686 49.3341 49.896 48.9772Z" fill="#426E8A"/>
<path d="M19.0782 52.7322L19.521 51.4409L20.3688 52.5215C21.0442 53.3762 21.9517 54.0178 22.9824 54.3693L24.2676 54.8123L23.1876 55.6606C22.3334 56.3375 21.6907 57.2449 21.3354 58.2756L20.8926 59.5615L20.0502 58.4809C19.3752 57.6246 18.4677 56.9812 17.4366 56.6277L16.1514 56.1846L17.2314 55.3418C18.0826 54.6654 18.7233 53.7601 19.0782 52.7322Z" fill="#426E8A"/>
<path d="M167.972 240.228L88.2629 240.18C83.659 240.177 79.2445 238.345 75.99 235.087C72.7355 231.829 70.9073 227.411 70.9073 222.804L70.9452 22.8597C70.9459 20.5774 71.3959 18.3176 72.2697 16.2094C73.1434 14.1012 74.4237 12.1859 76.0374 10.5729C77.6511 8.95982 79.5666 7.68064 81.6744 6.80841C83.7823 5.93617 86.0413 5.48796 88.3223 5.48938L168.032 5.53261C172.636 5.53547 177.05 7.36738 180.305 10.6256C183.559 13.8839 185.387 18.3018 185.387 22.9083L185.35 222.858C185.349 225.14 184.899 227.4 184.025 229.508C183.151 231.617 181.871 233.532 180.257 235.145C178.644 236.758 176.728 238.037 174.62 238.909C172.512 239.782 170.253 240.23 167.972 240.228Z" fill="#263238"/>
<path d="M167.94 12.6049H152.496C151.992 12.6155 151.495 12.7253 151.033 12.9282C150.572 13.1311 150.155 13.4231 149.806 13.7875C149.458 14.1518 149.184 14.5813 149.002 15.0515C148.82 15.5216 148.731 16.0232 148.743 16.5274V19.3045C148.765 20.3225 148.382 21.3074 147.678 22.0429C146.974 22.7784 146.007 23.2043 144.99 23.227H114.869C114.362 23.2186 113.863 23.1102 113.398 22.908C112.934 22.7058 112.514 22.4138 112.163 22.0489C111.812 21.6839 111.536 21.2531 111.352 20.7812C111.167 20.3093 111.078 19.8056 111.089 19.2991V16.5004C111.1 15.9959 111.012 15.4941 110.83 15.0236C110.647 14.5532 110.374 14.1233 110.026 13.7585C109.677 13.3937 109.26 13.1012 108.799 12.8977C108.337 12.6943 107.84 12.5837 107.336 12.5725H88.3979C85.1769 12.5711 82.0867 13.8477 79.805 16.1225C77.5233 18.3973 76.2363 21.4846 76.2263 24.7074L76.1885 219.87C76.1885 223.096 77.469 226.19 79.7484 228.472C82.0279 230.754 85.1196 232.036 88.3439 232.038L167.897 232.086C169.494 232.088 171.077 231.774 172.553 231.163C174.029 230.552 175.371 229.656 176.501 228.526C177.631 227.396 178.527 226.054 179.138 224.577C179.749 223.1 180.064 221.517 180.063 219.919L180.101 24.7614C180.098 21.5363 178.815 18.4443 176.535 16.1648C174.255 13.8853 171.163 12.6049 167.94 12.6049Z" fill="white"/>
<path d="M120.76 217.185C120.763 217.488 120.677 217.784 120.512 218.037C120.346 218.291 120.11 218.489 119.832 218.608C119.554 218.726 119.247 218.76 118.95 218.704C118.653 218.648 118.379 218.505 118.163 218.294C117.947 218.082 117.799 217.811 117.736 217.516C117.674 217.22 117.701 216.912 117.814 216.631C117.927 216.351 118.12 216.11 118.37 215.939C118.619 215.768 118.914 215.676 119.216 215.672C119.621 215.67 120.01 215.827 120.3 216.11C120.589 216.394 120.754 216.78 120.76 217.185Z" fill="#263238"/>
<path d="M129.314 217.115C129.317 217.418 129.23 217.714 129.065 217.968C128.899 218.221 128.662 218.419 128.384 218.538C128.106 218.656 127.799 218.69 127.501 218.633C127.204 218.577 126.93 218.434 126.715 218.222C126.499 218.01 126.351 217.738 126.289 217.442C126.228 217.146 126.256 216.838 126.369 216.557C126.483 216.277 126.677 216.036 126.927 215.866C127.177 215.696 127.472 215.604 127.775 215.602C128.179 215.599 128.568 215.757 128.857 216.04C129.145 216.324 129.309 216.71 129.314 217.115Z" fill="#263238"/>
<path d="M137.873 217.05C137.876 217.353 137.789 217.649 137.624 217.903C137.458 218.156 137.221 218.355 136.943 218.473C136.665 218.592 136.358 218.625 136.06 218.569C135.763 218.512 135.489 218.369 135.274 218.157C135.058 217.945 134.91 217.673 134.848 217.377C134.787 217.081 134.815 216.773 134.928 216.492C135.042 216.212 135.236 215.971 135.486 215.801C135.736 215.631 136.031 215.539 136.334 215.537C136.738 215.534 137.127 215.692 137.416 215.976C137.704 216.259 137.868 216.645 137.873 217.05Z" fill="#263238"/>
<path d="M168.415 32.3147C168.415 32.3579 166.401 32.412 163.922 32.4336C161.444 32.4552 159.435 32.4336 159.435 32.3849C159.435 32.3363 161.46 32.2715 163.922 32.2715C166.385 32.2715 168.41 32.2715 168.415 32.3147Z" fill="#263238"/>
<path d="M168.431 34.611C168.431 34.6596 166.423 34.7136 163.944 34.7352C161.465 34.7568 159.451 34.7352 159.451 34.6866C159.451 34.638 161.46 34.5839 163.944 34.5623C166.428 34.5407 168.431 34.5623 168.431 34.611Z" fill="#263238"/>
<path d="M168.48 36.9072C168.48 36.9558 166.466 37.0098 163.987 37.0314C161.509 37.053 159.5 37.0314 159.5 36.9828C159.5 36.9342 161.509 36.8856 163.987 36.8639C166.466 36.8423 168.448 36.8639 168.48 36.9072Z" fill="#263238"/>
<path d="M86.7509 39.5329H86.9346H87.4746L89.397 39.4897L89.3484 39.5383C89.3484 39.1169 89.3484 38.6523 89.3484 38.1498C89.335 37.8834 89.335 37.6165 89.3484 37.3502C89.3766 37.1977 89.4535 37.0585 89.5673 36.9534C89.6812 36.8482 89.826 36.7827 89.9802 36.7667C90.288 36.7667 90.5634 36.7667 90.8982 36.7667C91.0722 36.7927 91.231 36.881 91.3451 37.015C91.4593 37.1491 91.5211 37.3199 91.5191 37.496C91.5191 38.1444 91.5191 38.8252 91.5191 39.5275L91.4382 39.4465H93.8573L93.7764 39.5275C93.7764 38.555 93.7764 37.5447 93.7764 36.5127C93.7764 36.2588 93.7764 35.9724 93.7764 35.7455C93.7721 35.6343 93.7385 35.5262 93.6791 35.4321C93.6037 35.3373 93.5206 35.2488 93.4308 35.1674C93.0744 34.8162 92.7234 34.465 92.3508 34.1246L91.3302 33.1197C91.1682 32.9522 91.0008 32.7901 90.8388 32.628C90.6768 32.466 90.5363 32.2931 90.3311 32.2552C90.2387 32.2328 90.1425 32.2309 90.0492 32.2496C89.9559 32.2682 89.8679 32.3071 89.7911 32.3633C89.6453 32.4876 89.4887 32.6605 89.3429 32.8063L88.4735 33.6816C87.9335 34.2219 87.3611 34.7622 86.9453 35.2593C86.8252 35.5457 86.7842 35.8592 86.8265 36.1669C86.8265 36.4695 86.8265 36.7504 86.8265 37.0206C86.8265 37.5609 86.8265 38.0039 86.8265 38.3929C86.8265 38.7819 86.8265 39.0413 86.8265 39.2736C86.8265 39.5059 86.8265 39.587 86.8265 39.587C86.8265 39.587 86.8265 39.4897 86.8265 39.2952C86.8265 39.1007 86.8265 38.7549 86.8265 38.4307C86.8265 38.1066 86.8266 37.5771 86.7996 37.0476C86.7996 36.7721 86.7996 36.5073 86.7996 36.1777C86.7996 36.0211 86.7996 35.8644 86.7996 35.7023C86.7989 35.5257 86.8455 35.3522 86.9346 35.1998C87.3828 34.6595 87.9174 34.1679 88.4682 33.579L89.3267 32.6983C89.4833 32.547 89.6129 32.3903 89.7911 32.2336C89.8896 32.1601 90.0034 32.1097 90.124 32.0863C90.2446 32.0629 90.369 32.0671 90.4878 32.0986C90.713 32.1794 90.9113 32.3217 91.0602 32.5092L91.557 32.9954L92.5829 34.0004L93.6629 35.0431C93.7623 35.1313 93.8527 35.229 93.9329 35.3349C94.0086 35.455 94.0515 35.5929 94.0571 35.7347C94.0571 35.994 94.0571 36.275 94.0571 36.5073C94.0571 37.5393 94.0571 38.5496 94.0571 39.5221V39.6032H93.9708H91.5515H91.4759V39.5221C91.4759 38.8198 91.4759 38.1444 91.4759 37.496C91.478 37.3533 91.4292 37.2144 91.3381 37.1045C91.247 36.9946 91.1198 36.9207 90.9791 36.8963C90.6983 36.8963 90.369 36.8963 90.099 36.8963C89.9696 36.9065 89.8471 36.9583 89.7497 37.044C89.6524 37.1297 89.5854 37.2447 89.559 37.3718C89.559 37.6203 89.559 37.9121 89.559 38.1444C89.559 38.6469 89.559 39.1115 89.559 39.5383V39.587H89.5103H87.5609H86.9399C86.8751 39.576 86.8117 39.5579 86.7509 39.5329Z" fill="#263238"/>
<path d="M171.261 180.435C171.261 180.516 151.281 180.575 126.603 180.575C101.925 180.575 81.9449 180.516 81.9449 180.435C81.9449 180.354 101.925 180.294 126.603 180.294C151.281 180.294 171.261 180.359 171.261 180.435Z" fill="#E0E0E0"/>
<path d="M151.06 186.616C151.06 186.691 139.952 186.756 126.252 186.756C112.552 186.756 101.444 186.691 101.444 186.616C101.444 186.54 112.547 186.475 126.252 186.475C139.957 186.475 151.06 186.535 151.06 186.616Z" fill="#E0E0E0"/>
<path d="M92.07 122.121L93.7602 123.035L92.9988 124.31L91.2924 123.299L91.3248 125.18H89.8668V123.283L88.155 124.31L87.426 123.04L89.1 122.121L87.4044 121.187L88.1496 119.917L89.8614 120.938V119.047H91.3194L91.287 120.938L92.9934 119.917L93.7548 121.187L92.07 122.121Z" fill="#426E8A"/>
<path d="M111.467 122.121L113.157 123.035L112.396 124.31L110.7 123.299V125.201H109.237V123.305L107.53 124.331L106.823 123.04L108.54 122.121L106.85 121.187L107.595 119.917L109.301 120.938V119.047H110.7L110.668 120.938L112.374 119.917L113.135 121.187L111.467 122.121Z" fill="#426E8A"/>
<path d="M130.345 122.121L132.035 123.035L131.274 124.31L129.568 123.299L129.6 125.201H128.142V123.305L126.43 124.331L125.701 123.04L127.397 122.127L125.701 121.192L126.446 119.922L128.158 120.944V119.053H129.6L129.568 120.944L131.274 119.922L132.035 121.192L130.345 122.121Z" fill="#426E8A"/>
<path d="M148.635 122.121L150.325 123.035L149.58 124.31L147.874 123.299L147.906 125.179H146.448V123.283L144.742 124.31L143.991 123.04L145.687 122.127L143.991 121.192L144.736 119.922L146.443 120.944V119.053H147.901L147.868 120.944L149.575 119.922L150.336 121.192L148.635 122.121Z" fill="#426E8A"/>
<path d="M166.779 122.121L168.48 123.04L167.719 124.315L166.012 123.305L166.039 125.185H164.581V123.288L162.875 124.315L162.14 123.04L163.831 122.127L162.14 121.192L162.886 119.922L164.592 120.944V119.053H166.05L166.023 120.944L167.729 119.922L168.491 121.192L166.779 122.121Z" fill="#426E8A"/>
<path d="M95.0778 133.889H86.8967C85.8846 133.888 84.9144 133.485 84.1987 132.769C83.4831 132.053 83.0804 131.082 83.0789 130.069V115.535C83.0804 114.523 83.4832 113.553 84.1991 112.838C84.9149 112.123 85.8851 111.721 86.8967 111.721H95.0778C96.0894 111.721 97.0596 112.123 97.7754 112.838C98.4913 113.553 98.8941 114.523 98.8955 115.535V130.064C98.8955 131.077 98.4935 132.049 97.7777 132.767C97.0618 133.484 96.0908 133.888 95.0778 133.889ZM86.8967 111.991C85.9567 111.991 85.0552 112.364 84.39 113.029C83.7248 113.693 83.3504 114.595 83.3489 115.535V130.064C83.3504 131.005 83.7246 131.907 84.3897 132.572C85.0547 133.238 85.9562 133.612 86.8967 133.613H95.0778C96.0187 133.613 96.9211 133.239 97.5864 132.574C98.2518 131.908 98.6255 131.005 98.6255 130.064V115.53C98.6241 114.589 98.2497 113.688 97.5845 113.023C96.9193 112.359 96.0178 111.986 95.0778 111.986L86.8967 111.991Z" fill="#263238"/>
<path d="M114.08 133.889H105.899C105.396 133.891 104.897 133.794 104.431 133.602C103.966 133.411 103.542 133.13 103.185 132.774C102.829 132.419 102.546 131.996 102.353 131.531C102.159 131.066 102.06 130.567 102.06 130.064V115.53C102.061 114.518 102.464 113.548 103.18 112.832C103.896 112.117 104.866 111.715 105.878 111.715H114.059C115.07 111.715 116.041 112.117 116.756 112.832C117.472 113.548 117.875 114.518 117.877 115.53V130.064C117.877 131.074 117.477 132.042 116.766 132.759C116.055 133.476 115.09 133.882 114.08 133.889ZM105.899 111.991C104.959 111.991 104.058 112.364 103.393 113.029C102.727 113.693 102.353 114.595 102.352 115.535V130.064C102.353 131.005 102.727 131.907 103.392 132.572C104.057 133.237 104.959 133.612 105.899 133.613H114.08C115.021 133.613 115.924 133.239 116.589 132.574C117.254 131.908 117.628 131.005 117.628 130.064V115.53C117.627 114.589 117.252 113.688 116.587 113.023C115.922 112.359 115.02 111.986 114.08 111.986L105.899 111.991Z" fill="#263238"/>
<path d="M132.565 133.889H124.378C123.366 133.888 122.396 133.485 121.68 132.769C120.964 132.053 120.562 131.082 120.56 130.069V115.535C120.562 114.523 120.965 113.553 121.68 112.838C122.396 112.123 123.367 111.721 124.378 111.721H132.565C133.575 111.722 134.544 112.125 135.259 112.84C135.973 113.555 136.376 114.524 136.377 115.535V130.064C136.378 130.565 136.28 131.062 136.088 131.526C135.897 131.99 135.617 132.411 135.263 132.766C134.909 133.122 134.488 133.404 134.025 133.596C133.562 133.789 133.066 133.888 132.565 133.889ZM124.378 111.991C123.438 111.991 122.537 112.364 121.871 113.029C121.206 113.693 120.832 114.595 120.83 115.535V130.064C120.832 131.005 121.206 131.907 121.871 132.572C122.536 133.238 123.438 133.612 124.378 133.613H132.565C133.505 133.612 134.406 133.237 135.07 132.572C135.734 131.906 136.107 131.004 136.107 130.064V115.53C136.107 114.59 135.734 113.688 135.069 113.024C134.405 112.359 133.504 111.986 132.565 111.986L124.378 111.991Z" fill="#263238"/>
<path d="M151.254 133.889H143.068C142.055 133.888 141.085 133.485 140.37 132.769C139.654 132.053 139.251 131.082 139.25 130.069V115.535C139.251 114.523 139.654 113.553 140.37 112.838C141.086 112.123 142.056 111.721 143.068 111.721H151.254C152.265 111.722 153.234 112.125 153.948 112.84C154.663 113.555 155.065 114.524 155.066 115.535V130.064C155.067 130.565 154.969 131.062 154.778 131.526C154.587 131.99 154.306 132.411 153.952 132.766C153.598 133.122 153.177 133.404 152.715 133.596C152.252 133.789 151.755 133.888 151.254 133.889ZM143.068 111.991C142.128 111.991 141.226 112.364 140.561 113.029C139.896 113.693 139.521 114.595 139.52 115.535V130.064C139.521 131.005 139.895 131.907 140.56 132.572C141.226 133.238 142.127 133.612 143.068 133.613H151.254C152.194 133.612 153.095 133.237 153.759 132.572C154.423 131.906 154.796 131.004 154.796 130.064V115.53C154.796 114.59 154.423 113.688 153.759 113.024C153.094 112.359 152.193 111.986 151.254 111.986L143.068 111.991Z" fill="#263238"/>
<path d="M169.398 133.889H161.217C160.205 133.888 159.235 133.485 158.519 132.769C157.803 132.053 157.401 131.082 157.399 130.069V115.535C157.401 114.523 157.803 113.553 158.519 112.838C159.235 112.123 160.205 111.721 161.217 111.721H169.398C170.41 111.721 171.38 112.123 172.096 112.838C172.811 113.553 173.214 114.523 173.216 115.535V130.064C173.216 131.077 172.814 132.049 172.098 132.767C171.382 133.484 170.411 133.888 169.398 133.889ZM161.217 111.991C160.277 111.991 159.375 112.364 158.71 113.029C158.045 113.693 157.671 114.595 157.669 115.535V130.064C157.669 131.005 158.043 131.908 158.708 132.574C159.374 133.239 160.276 133.613 161.217 133.613H169.398C170.338 133.612 171.24 133.238 171.905 132.572C172.57 131.907 172.944 131.005 172.946 130.064V115.53C172.944 114.589 172.57 113.688 171.905 113.023C171.24 112.359 170.338 111.986 169.398 111.986L161.217 111.991Z" fill="#263238"/>
<path d="M128.147 87.7219C137.109 87.7219 144.374 80.453 144.374 71.4863C144.374 62.5196 137.109 55.2506 128.147 55.2506C119.185 55.2506 111.92 62.5196 111.92 71.4863C111.92 80.453 119.185 87.7219 128.147 87.7219Z" fill="#426E8A"/>
<path d="M125.28 68.5308H125.01V67.018C125.01 66.1783 125.343 65.373 125.937 64.7793C126.53 64.1855 127.335 63.8519 128.174 63.8519C129.014 63.8519 129.819 64.1855 130.412 64.7793C131.005 65.373 131.339 66.1783 131.339 67.018V68.2499H131.069V67.018C131.069 66.25 130.764 65.5134 130.221 64.9703C129.678 64.4272 128.942 64.1221 128.174 64.1221C127.407 64.1221 126.671 64.4272 126.128 64.9703C125.585 65.5134 125.28 66.25 125.28 67.018V68.5308Z" fill="white"/>
<path d="M132.17 79.1206H124.124C123.771 79.1192 123.433 78.9781 123.183 78.7282C122.933 78.4782 122.792 78.1396 122.791 77.7861V69.7304C122.792 69.3769 122.933 69.0383 123.183 68.7883C123.433 68.5383 123.771 68.3973 124.124 68.3959H132.17C132.524 68.3973 132.862 68.5383 133.112 68.7883C133.362 69.0383 133.503 69.3769 133.504 69.7304V77.7861C133.503 78.1396 133.362 78.4782 133.112 78.7282C132.862 78.9781 132.524 79.1192 132.17 79.1206ZM124.124 68.666C123.838 68.666 123.563 68.7799 123.361 68.9825C123.158 69.1852 123.044 69.46 123.044 69.7466V77.8023C123.044 78.0889 123.158 78.3637 123.361 78.5664C123.563 78.769 123.838 78.8829 124.124 78.8829H132.17C132.457 78.8829 132.731 78.769 132.934 78.5664C133.137 78.3637 133.25 78.0889 133.25 77.8023V69.7304C133.25 69.4438 133.137 69.169 132.934 68.9663C132.731 68.7637 132.457 68.6498 132.17 68.6498L124.124 68.666Z" fill="white"/>
<path d="M128.185 74.0201C127.935 74.0201 127.691 73.946 127.483 73.8071C127.275 73.6681 127.113 73.4707 127.018 73.2397C126.922 73.0086 126.897 72.7544 126.946 72.5092C126.995 72.264 127.115 72.0387 127.292 71.8619C127.468 71.6851 127.694 71.5647 127.939 71.5159C128.184 71.4671 128.438 71.4921 128.669 71.5878C128.9 71.6835 129.097 71.8455 129.236 72.0535C129.375 72.2614 129.449 72.5058 129.449 72.7558C129.449 73.0912 129.316 73.4127 129.079 73.6498C128.842 73.8869 128.52 74.0201 128.185 74.0201ZM128.185 71.7671C127.988 71.7671 127.796 71.8256 127.633 71.935C127.469 72.0445 127.342 72.2001 127.267 72.3821C127.192 72.564 127.172 72.7642 127.211 72.9572C127.25 73.1502 127.345 73.3273 127.485 73.4661C127.624 73.6049 127.802 73.6992 127.995 73.7369C128.188 73.7747 128.388 73.7542 128.569 73.6782C128.751 73.6021 128.905 73.4738 129.014 73.3096C129.123 73.1454 129.18 72.9527 129.179 72.7558C129.181 72.6239 129.157 72.4929 129.108 72.3704C129.059 72.2479 128.986 72.1364 128.894 72.0424C128.801 71.9484 128.691 71.8737 128.569 71.8227C128.448 71.7717 128.317 71.7455 128.185 71.7455V71.7671Z" fill="white"/>
<path d="M128.283 73.8312H128.012V76.1112H128.283V73.8312Z" fill="white"/>
<path d="M248.94 240.374C248.94 240.456 196.468 240.515 131.76 240.515C67.0518 240.515 14.58 240.456 14.58 240.374C14.58 240.293 67.041 240.234 131.76 240.234C196.479 240.234 248.94 240.283 248.94 240.374Z" fill="#263238"/>
<path d="M45.1764 165.971C50.3118 158.105 50.1174 146.608 43.9776 139.497C42.0714 137.288 39.4092 135.37 36.504 135.618C33.5988 135.867 31.1364 138.422 30.24 141.269C29.3436 144.117 29.6514 147.213 30.1806 150.136C30.9258 154.253 32.1732 158.461 35.0406 161.519C37.908 164.578 41.5206 167.976 45.2034 165.971" fill="#426E8A"/>
<path d="M42.8814 203.543C43.8061 201.257 43.9877 198.737 43.4003 196.341C42.8129 193.946 41.4864 191.796 39.609 190.198C38.4264 189.231 36.909 188.485 35.4078 188.88C33.9066 189.274 32.8968 190.808 32.7078 192.359C32.5888 193.932 32.8538 195.51 33.48 196.957C34.236 199.005 35.262 201.063 37.0062 202.36C38.7504 203.657 41.1966 204.91 42.903 203.543" fill="#426E8A"/>
<path d="M55.2798 200.869C53.865 193.894 57.537 186.2 63.8442 182.915C65.8044 181.899 68.2128 181.294 70.1892 182.283C72.1656 183.272 73.1808 185.762 73.0188 188.021C72.8568 190.279 71.7768 192.343 70.578 194.272C68.904 196.973 66.8466 199.572 63.9846 200.923C61.1226 202.273 57.294 203.305 55.2798 200.869Z" fill="#426E8A"/>
<path d="M54.3888 182.013C51.9264 174.065 56.1006 164.432 63.0288 159.861C65.1888 158.445 67.9212 157.462 70.335 158.38C72.7488 159.299 74.223 162.076 74.2986 164.718C74.3742 167.36 73.359 169.905 72.1926 172.282C70.5726 175.605 68.472 178.884 65.3022 180.792C62.1324 182.699 56.997 184.574 54.3672 182.002" fill="#426E8A"/>
<path d="M49.4478 220.832C49.4883 220.708 49.5137 220.579 49.5234 220.449C49.5666 220.162 49.626 219.795 49.6908 219.341C49.7232 219.098 49.761 218.828 49.8042 218.542C49.8474 218.255 49.9176 217.931 49.9824 217.596C50.112 216.915 50.247 216.143 50.4684 215.305C50.571 214.878 50.679 214.435 50.787 213.976C50.895 213.517 51.0624 213.052 51.2028 212.561C51.4674 211.577 51.8616 210.556 52.2288 209.47C53.9504 204.793 56.313 200.378 59.2488 196.352C59.9508 195.444 60.5826 194.553 61.2576 193.791C61.587 193.397 61.9056 193.024 62.208 192.656L63.18 191.657C63.7578 191.008 64.3248 190.468 64.8 189.987L65.4858 189.312L66.0906 188.772L66.9222 188.021C67.0226 187.938 67.1149 187.846 67.1976 187.745C67.0826 187.808 66.9756 187.884 66.879 187.972L66.0042 188.674L65.3778 189.188L64.6704 189.847C64.1628 190.317 63.5904 190.846 62.9856 191.468L62.0352 192.456C61.7274 192.818 61.4034 193.197 61.0686 193.58C60.3774 194.342 59.7348 195.234 59.0166 196.141C57.5422 198.165 56.2002 200.282 54.999 202.479C53.8293 204.694 52.8083 206.984 51.9426 209.335C51.5808 210.416 51.1974 211.458 50.9436 212.458C50.8032 212.95 50.6736 213.425 50.544 213.884C50.4144 214.344 50.3388 214.797 50.2416 215.224C50.0364 216.072 49.9176 216.845 49.8042 217.537C49.7502 217.877 49.6962 218.196 49.6476 218.488C49.599 218.779 49.5936 219.028 49.5666 219.298C49.5234 219.752 49.491 220.125 49.464 220.416C49.4354 220.553 49.4299 220.694 49.4478 220.832Z" fill="#263238"/>
<path d="M49.626 222.275C49.6329 222.221 49.6329 222.167 49.626 222.113C49.626 221.989 49.626 221.837 49.5936 221.654C49.5558 221.221 49.4964 220.632 49.4316 219.887C49.3938 219.503 49.3506 219.076 49.302 218.617C49.2534 218.158 49.2588 217.639 49.2264 217.094C49.1886 216.013 49.0806 214.76 49.1238 213.387C49.1238 212.696 49.1238 211.977 49.1238 211.226C49.1238 210.475 49.1994 209.697 49.2372 208.892C49.2912 207.271 49.5126 205.564 49.707 203.754C50.712 195.921 52.9692 188.301 56.3922 181.186C57.2184 179.565 57.9636 178.009 58.8006 176.626C59.211 175.929 59.5728 175.237 59.9778 174.605L61.1442 172.79C61.8624 171.612 62.6238 170.629 63.2502 169.737C63.5742 169.294 63.8604 168.878 64.1466 168.505L64.9458 167.506L66.0258 166.112L66.3066 165.745C66.366 165.664 66.3984 165.62 66.393 165.615C66.3876 165.609 66.3498 165.647 66.2796 165.723L65.9772 166.069L64.827 167.425L64.0278 168.424C63.7362 168.792 63.4392 169.202 63.1098 169.64C62.4672 170.526 61.6896 171.504 60.9498 172.671L59.7618 174.481C59.3514 175.113 58.9788 175.805 58.563 176.502C57.7152 177.885 56.943 179.446 56.1222 181.067C52.6493 188.194 50.3812 195.847 49.41 203.716C49.221 205.531 49.0104 207.255 48.9672 208.876C48.9402 209.686 48.8754 210.47 48.87 211.221C48.8646 211.972 48.87 212.696 48.87 213.382C48.87 214.76 48.9672 216.008 49.0266 217.099C49.0644 217.639 49.086 218.18 49.1292 218.623C49.1724 219.066 49.2372 219.509 49.2858 219.898C49.3776 220.638 49.4532 221.227 49.5072 221.659C49.5342 221.843 49.5612 221.989 49.5774 222.113C49.5864 222.169 49.6027 222.223 49.626 222.275Z" fill="#263238"/>
<path d="M36.2448 145.116C36.2629 145.167 36.2864 145.216 36.315 145.262C36.3744 145.37 36.4446 145.511 36.5364 145.673L37.4112 147.245C37.6002 147.585 37.827 147.958 38.0484 148.38L38.7342 149.763L39.528 151.351C39.7926 151.919 40.068 152.529 40.3326 153.167C40.5972 153.804 40.9158 154.474 41.202 155.176C41.4882 155.879 41.742 156.63 42.0552 157.392L42.5034 158.559C42.6384 158.964 42.7788 159.369 42.9192 159.785C43.1946 160.612 43.4592 161.465 43.7778 162.335C44.8578 165.863 45.9 169.786 46.7694 173.957C47.6388 178.128 48.2058 182.148 48.6432 185.811C49.0806 189.474 49.2966 192.797 49.3722 195.59C49.4424 196.984 49.4586 198.243 49.4586 199.372C49.4586 200.501 49.4586 201.436 49.4586 202.214C49.4586 202.992 49.4586 203.576 49.4586 204.013V204.483C49.4586 204.586 49.4586 204.64 49.4586 204.64C49.4648 204.588 49.4648 204.535 49.4586 204.483C49.4586 204.359 49.4586 204.208 49.491 204.019C49.491 203.576 49.5396 202.976 49.5774 202.219C49.6152 201.463 49.6368 200.48 49.6368 199.372C49.6368 198.264 49.6368 196.995 49.599 195.59C49.5504 192.791 49.302 189.469 48.9402 185.789C48.5784 182.11 47.9358 178.085 47.088 173.903C46.2402 169.721 45.171 165.799 44.064 162.26L43.2 159.688C43.0596 159.272 42.9192 158.861 42.7788 158.461L42.3198 157.294L41.445 155.079C41.1534 154.371 40.8402 153.712 40.554 153.069C40.2678 152.426 40.014 151.821 39.7224 151.259C39.4308 150.697 39.1824 150.179 38.907 149.676C38.6316 149.174 38.4102 148.725 38.1942 148.299C37.9782 147.872 37.7298 147.515 37.53 147.18L36.5958 145.64C36.4986 145.478 36.4122 145.349 36.3474 145.246C36.2826 145.143 36.2502 145.111 36.2448 145.116Z" fill="#263238"/>
<path d="M37.9944 193.375C38.1473 193.71 38.3279 194.032 38.5344 194.337C38.9124 194.936 39.4254 195.828 40.0302 196.941C40.635 198.054 41.3046 199.405 41.9796 200.934C42.6546 202.463 43.2918 204.175 43.8696 206.039C44.4474 207.903 44.8578 209.675 45.1872 211.318C45.5166 212.96 45.7272 214.457 45.8298 215.721C45.9324 216.985 46.035 218.001 46.062 218.709C46.0624 219.071 46.0931 219.433 46.1538 219.79C46.1916 219.431 46.2043 219.07 46.1916 218.709C46.1916 217.996 46.1916 216.964 46.0674 215.7C45.9489 214.212 45.7561 212.732 45.4896 211.264C45.1523 209.466 44.7179 207.688 44.1882 205.937C43.6419 204.193 42.9983 202.481 42.2604 200.809C41.5692 199.275 40.878 197.924 40.2408 196.822C39.6036 195.72 39.0582 194.844 38.6208 194.266C38.4317 193.956 38.2225 193.658 37.9944 193.375Z" fill="#263238"/>
<path d="M59.5404 217.304H36.963L39.6954 240.375H56.727L59.5404 217.304Z" fill="#455A64"/>
<path d="M58.7142 237.884L56.7972 240.375H39.6954L37.7244 237.965L58.7142 237.884Z" fill="#263238"/>
<path d="M37.8432 224.074C37.8432 224.166 42.5304 224.241 48.3084 224.241C54.0864 224.241 58.7682 224.166 58.7682 224.074C58.7682 223.982 54.0864 223.906 48.3084 223.906C42.5304 223.906 37.8432 223.998 37.8432 224.074Z" fill="#FAFAFA"/>
<path d="M37.8432 225.625C37.8432 225.716 42.5304 225.792 48.3084 225.792C54.0864 225.792 58.7682 225.716 58.7682 225.625C58.7682 225.533 54.0864 225.457 48.3084 225.457C42.5304 225.457 37.8432 225.533 37.8432 225.625Z" fill="#FAFAFA"/>
<path d="M38.124 227.11C38.124 227.208 42.6438 227.283 48.222 227.283C53.8002 227.283 58.32 227.208 58.32 227.11C58.32 227.013 53.8002 226.943 48.222 226.943C42.6438 226.943 38.124 227.019 38.124 227.11Z" fill="#FAFAFA"/>
<path d="M56.0898 167.582C56.0814 167.655 56.0814 167.729 56.0898 167.803C56.0898 167.971 56.1168 168.181 56.1384 168.43C56.1978 169.008 56.2734 169.786 56.3706 170.726C56.5758 172.666 56.8782 175.345 57.2238 178.29C57.2238 178.404 57.2238 178.517 57.2616 178.62V178.722H57.3642C60.264 178.766 62.8722 178.793 64.7568 178.803H66.987H67.5918C67.7322 178.803 67.8024 178.803 67.8024 178.803C67.7354 178.786 67.6664 178.777 67.5972 178.776L66.9924 178.749L64.7622 178.679C62.8776 178.625 60.2694 178.571 57.3642 178.528L57.4776 178.625C57.4776 178.522 57.4776 178.409 57.4398 178.295C57.0942 175.34 56.7702 172.666 56.5218 170.731C56.3976 169.791 56.295 169.019 56.214 168.441C56.1816 168.192 56.1492 167.987 56.1222 167.819C56.1266 167.739 56.1156 167.658 56.0898 167.582Z" fill="#263238"/>
<path d="M61.2252 160.682C61.2129 160.757 61.2129 160.834 61.2252 160.909C61.2252 161.082 61.2252 161.298 61.2252 161.557C61.2252 162.152 61.2252 162.957 61.2252 163.94C61.2576 165.95 61.3116 168.727 61.3872 171.79C61.3872 171.915 61.3872 172.039 61.3872 172.152V172.271H61.506C64.0317 172.075 66.5663 172.018 69.0984 172.098C70.065 172.098 70.848 172.169 71.388 172.196H72.009H72.225C72.225 172.196 72.1548 172.196 72.0144 172.152L71.3934 172.082C70.8534 172.028 70.0758 171.963 69.1038 171.909C66.5661 171.784 64.0231 171.818 61.4898 172.012L61.614 172.125C61.614 172.012 61.614 171.888 61.614 171.763C61.5384 168.694 61.4574 165.923 61.3872 163.913C61.3494 162.935 61.317 162.13 61.2954 161.536C61.2954 161.276 61.2954 161.06 61.2576 160.887C61.2531 160.818 61.2422 160.749 61.2252 160.682Z" fill="#263238"/>
<path d="M67.23 158.332C67.1675 158.55 67.1206 158.772 67.0896 158.996C67.0032 159.461 66.8952 160.077 66.7548 160.812C66.4632 162.346 66.0042 164.459 65.3616 166.755L65.2914 166.998L65.5236 166.89L65.7936 166.755C67.6958 165.853 69.7306 165.264 71.82 165.01C72.6246 164.912 73.278 164.875 73.7262 164.858C73.9609 164.869 74.196 164.856 74.4282 164.821C74.3692 164.811 74.309 164.811 74.25 164.821C74.1312 164.821 73.953 164.794 73.71 164.794C73.0681 164.782 72.4261 164.809 71.7876 164.875C69.6713 165.087 67.6082 165.666 65.691 166.587L65.4156 166.722L65.5776 166.852C66.1266 164.88 66.5719 162.88 66.9114 160.86C67.041 160.088 67.1274 159.461 67.176 159.029C67.2186 158.799 67.2367 158.565 67.23 158.332Z" fill="#263238"/>
<path d="M35.3484 200.393C35.3484 200.426 36.0072 200.361 37.0602 200.318C38.4296 200.265 39.8011 200.31 41.1642 200.453C41.4882 200.485 41.8068 200.528 42.1092 200.572H42.2172V200.469C42.4656 199.102 42.6654 197.897 42.8058 197.033C42.8979 196.573 42.9574 196.107 42.984 195.639C42.8412 196.085 42.7329 196.542 42.66 197.006C42.4818 197.865 42.2496 199.064 41.9958 200.426L42.1254 200.334C41.8176 200.291 41.499 200.247 41.1696 200.215C39.7956 200.068 38.4113 200.045 37.0332 200.145C36.4932 200.188 36.0774 200.242 35.7858 200.285C35.6362 200.304 35.4894 200.34 35.3484 200.393Z" fill="#263238"/>
<path d="M33.2208 196.152C33.2208 196.19 33.8526 196.044 34.8732 195.914C36.2031 195.752 37.5472 195.739 38.88 195.876L39.5874 195.963H39.7062V195.849C39.8466 194.445 39.96 193.197 40.0356 192.305C40.0966 191.827 40.1201 191.345 40.1058 190.863C39.9997 191.332 39.9257 191.809 39.8844 192.289C39.771 193.18 39.6306 194.423 39.4794 195.822L39.609 195.725L38.88 195.65C37.531 195.509 36.1695 195.545 34.83 195.758C34.4244 195.821 34.0224 195.906 33.6258 196.011C33.4858 196.042 33.3498 196.09 33.2208 196.152Z" fill="#263238"/>
<path d="M31.6872 155.998C31.7587 156.045 31.8347 156.084 31.914 156.117L32.5728 156.408L35.0136 157.446L43.1136 160.801L43.551 160.979L43.6536 161.022L43.6968 160.92C45.0306 157.905 46.2294 155.193 47.115 153.199L48.1194 150.865L48.384 150.227C48.4161 150.152 48.4414 150.075 48.4596 149.995C48.413 150.061 48.3732 150.132 48.3408 150.206C48.2598 150.373 48.1626 150.579 48.0384 150.827L46.9584 153.134L43.4754 160.828L43.6266 160.768L43.1892 160.59L35.1 157.294L32.6322 156.322L31.9572 156.068C31.871 156.032 31.78 156.008 31.6872 155.998Z" fill="#263238"/>
<path d="M29.7 146.235C29.7613 146.29 29.8283 146.339 29.8998 146.381L30.4938 146.764L32.697 148.136L40.0464 152.626L40.1652 152.696L40.2138 152.567L40.3488 152.21L43.4322 143.89C43.8048 142.847 44.1126 141.988 44.3394 141.361L44.577 140.67C44.6105 140.59 44.6323 140.507 44.6418 140.421C44.6 140.496 44.5639 140.573 44.5338 140.653L44.28 141.329C44.0424 141.95 43.7076 142.798 43.3026 143.836C42.4926 145.997 41.3856 148.904 40.1598 152.135C40.1166 152.253 40.068 152.378 40.0302 152.486L40.1922 152.426L32.7888 148.001L30.5478 146.688L29.9322 146.343C29.859 146.298 29.7812 146.262 29.7 146.235Z" fill="#263238"/>
<path d="M30.3588 141.026C30.5107 141.138 30.6735 141.234 30.8448 141.313C31.1634 141.491 31.6224 141.75 32.1786 142.096C33.6547 143.01 35.0256 144.085 36.2664 145.3L36.5526 145.576L36.4554 145.187C36.3582 144.787 36.2664 144.36 36.1962 143.922C35.8865 141.915 35.995 139.866 36.5148 137.903C36.6773 137.309 36.8701 136.723 37.0926 136.148C37.1915 135.944 37.2728 135.733 37.3356 135.515C37.2114 135.706 37.103 135.907 37.0116 136.115C36.7568 136.68 36.5385 137.262 36.3582 137.855C35.786 139.836 35.6533 141.917 35.9694 143.955C36.0396 144.403 36.1368 144.835 36.2394 145.246L36.4284 145.138C35.1708 143.91 33.7692 142.84 32.2542 141.95C31.6818 141.621 31.212 141.378 30.8826 141.226C30.7142 141.144 30.5389 141.077 30.3588 141.026Z" fill="#263238"/>
<path d="M56.1222 191.657C56.1366 191.854 56.171 192.05 56.2248 192.24C56.3004 192.613 56.4138 193.153 56.538 193.823C56.8635 195.592 57.0674 197.381 57.1482 199.178V199.28H57.24H57.7476C59.9886 199.415 62.0136 199.529 63.4824 199.594L65.2212 199.664C65.4331 199.684 65.6464 199.684 65.8584 199.664C65.6508 199.617 65.4392 199.59 65.2266 199.583L63.4932 199.437C62.0244 199.329 59.9994 199.194 57.7638 199.059L57.2562 199.032L57.3642 199.14C57.2846 197.351 57.0625 195.571 56.7 193.818C56.5542 193.143 56.4192 192.608 56.3112 192.24C56.2674 192.04 56.2041 191.845 56.1222 191.657Z" fill="#263238"/>
<path d="M60.5556 185.314C60.5488 185.511 60.5615 185.708 60.5934 185.903C60.642 186.319 60.7014 186.859 60.777 187.523C60.939 188.88 61.182 190.765 61.4682 192.883V192.975H61.56L62.2836 193.024C64.5786 193.18 66.6468 193.418 68.1426 193.613L69.9138 193.85C70.1275 193.89 70.3443 193.912 70.5618 193.915C70.3551 193.843 70.1416 193.792 69.9246 193.764C69.5142 193.677 68.9094 193.569 68.1642 193.45C66.6738 193.218 64.6002 192.953 62.2998 192.797L61.5708 192.748L61.6788 192.845C61.3872 190.733 61.1388 188.847 60.912 187.496C60.8094 186.854 60.7284 186.319 60.6636 185.903C60.6495 185.703 60.6133 185.505 60.5556 185.314Z" fill="#263238"/>
<path d="M65.7774 182.569C65.745 182.569 65.8854 183.19 66.042 184.19C66.2585 185.512 66.3812 186.848 66.4092 188.188V188.312H66.5388L66.9168 188.264C68.3305 188.093 69.7533 188.008 71.1774 188.01H72.4788C72.6366 188.028 72.7961 188.028 72.954 188.01C72.8013 187.964 72.6434 187.939 72.4842 187.934C72.1764 187.902 71.7336 187.864 71.1828 187.848C69.7492 187.796 68.3137 187.857 66.8898 188.031L66.5064 188.08L66.636 188.193C66.6061 186.843 66.4598 185.499 66.1986 184.174C66.096 183.671 65.9988 183.266 65.9232 182.991C65.8954 182.844 65.8463 182.702 65.7774 182.569Z" fill="#263238"/>
<path d="M36.0342 188.955C36.3233 189.739 36.6606 190.504 37.044 191.246C37.3576 192.02 37.7182 192.775 38.124 193.505C37.9345 192.676 37.6443 191.874 37.26 191.116C36.9379 190.35 36.5264 189.625 36.0342 188.955Z" fill="#263238"/>
<path d="M33.1992 191.943C34.0635 192.075 34.9198 192.256 35.7642 192.483C36.5862 192.778 37.3904 193.121 38.1726 193.51C37.4986 192.919 36.6961 192.494 35.829 192.267C34.9888 191.959 34.089 191.848 33.1992 191.943Z" fill="#263238"/>
</svg>
