<svg width="24" height="24" viewBox="0 0 24 24" fill="none" xmlns="http://www.w3.org/2000/svg">
<path d="M22.8281 3.82782H1.17188C0.525469 3.82782 0 4.35329 0 4.99969V19.0003C0 19.6467 0.525469 20.1722 1.17188 20.1722H22.8281C23.4745 20.1722 24 19.6467 24 19.0003V4.99969C24 4.35329 23.4745 3.82782 22.8281 3.82782ZM22.5938 18.7659H1.40625V5.23407H22.5938V18.7659Z" fill="#4F4F4F"/>
<path d="M3.51562 15.4852C4.16203 15.4852 4.6875 16.0106 4.6875 16.657C4.6875 17.0452 5.0025 17.3602 5.39062 17.3602H18.6094C18.9975 17.3602 19.3125 17.0452 19.3125 16.657C19.3125 16.0106 19.838 15.4852 20.4844 15.4852C20.8725 15.4852 21.1875 15.1702 21.1875 14.782V9.21797C21.1875 8.82985 20.8725 8.51485 20.4844 8.51485C19.838 8.51485 19.3125 7.98938 19.3125 7.34297C19.3125 6.95485 18.9975 6.63985 18.6094 6.63985H5.39062C5.0025 6.63985 4.6875 6.95485 4.6875 7.34297C4.6875 7.98938 4.16203 8.51485 3.51562 8.51485C3.1275 8.51485 2.8125 8.82985 2.8125 9.21797V14.782C2.8125 15.1702 3.1275 15.4852 3.51562 15.4852ZM4.21875 9.82407C5.07609 9.58032 5.75297 8.90391 5.99625 8.0461H18.0037C18.247 8.90391 18.9239 9.58032 19.7812 9.82407V14.1759C18.9239 14.4197 18.247 15.0961 18.0037 15.9539H5.99625C5.75297 15.0961 5.07609 14.4197 4.21875 14.1759V9.82407Z" fill="#4F4F4F"/>
<path d="M12 14.4141C13.3312 14.4141 14.4141 13.3312 14.4141 12C14.4141 10.6688 13.3312 9.58594 12 9.58594C10.6688 9.58594 9.58594 10.6688 9.58594 12C9.58594 13.3312 10.6688 14.4141 12 14.4141ZM12 10.9922C12.5559 10.9922 13.0078 11.4445 13.0078 12C13.0078 12.5555 12.5559 13.0078 12 13.0078C11.4441 13.0078 10.9922 12.5555 10.9922 12C10.9922 11.4445 11.4441 10.9922 12 10.9922Z" fill="#4F4F4F"/>
<path d="M6.66406 12.7031H7.35153C7.73984 12.7031 8.05466 12.3883 8.05466 12C8.05466 11.6117 7.73984 11.2969 7.35153 11.2969H6.66406C6.27575 11.2969 5.96094 11.6117 5.96094 12C5.96094 12.3883 6.27575 12.7031 6.66406 12.7031Z" fill="#4F4F4F"/>
<path d="M16.6484 12.7031H17.3359C17.7242 12.7031 18.039 12.3883 18.039 12C18.039 11.6117 17.7242 11.2969 17.3359 11.2969H16.6484C16.2601 11.2969 15.9453 11.6117 15.9453 12C15.9453 12.3883 16.2601 12.7031 16.6484 12.7031Z" fill="#4F4F4F"/>
</svg>
