<svg width="214" height="214" viewBox="0 0 214 214" fill="none" xmlns="http://www.w3.org/2000/svg">
<path d="M77.0689 3.04317V0.103516H71.4569C70.644 0.103516 69.9508 0.390255 69.3774 0.963734C68.804 1.53721 68.5172 2.23033 68.5172 3.04317V8.65524H77.0689V3.04317Z" fill="#113151"/>
<path d="M85.6207 3.04317C85.6207 2.23033 85.3339 1.53713 84.7605 0.963734C84.1871 0.39034 83.4939 0.103516 82.681 0.103516H77.069V8.65524H85.6207V3.04317Z" fill="#113151"/>
<path d="M102.724 3.04317C102.724 2.23033 102.437 1.53713 101.864 0.963734C101.29 0.39034 100.597 0.103516 99.7844 0.103516H97.112C96.2992 0.103516 95.606 0.390255 95.0326 0.963734C94.4592 1.53721 94.1724 2.23033 94.1724 3.04317V5.71558C94.1724 5.76014 94.1779 5.82701 94.189 5.91604H94.1724V8.65524H102.724V5.91604H102.707C102.719 5.82701 102.724 5.76022 102.724 5.71558V3.04317Z" fill="#113151"/>
<path d="M128.379 5.71558C128.379 6.5286 128.092 7.22163 127.519 7.79502C126.946 8.36833 126.253 8.65524 125.44 8.65524H122.767C121.954 8.65524 121.261 8.36833 120.688 7.79502C120.114 7.22163 119.828 6.5286 119.828 5.71558V3.04317C119.828 2.23042 120.114 1.53721 120.688 0.963819C121.261 0.390341 121.954 0.103516 122.767 0.103516H125.44C126.253 0.103516 126.946 0.390255 127.519 0.963734C128.092 1.5373 128.379 2.23042 128.379 3.04317V5.71558Z" fill="#113151"/>
<path d="M145.483 3.04317C145.483 2.23033 145.196 1.53713 144.622 0.963734C144.049 0.39034 143.356 0.103516 142.543 0.103516H139.871C139.058 0.103516 138.365 0.390255 137.791 0.963734C137.218 1.53721 136.931 2.23033 136.931 3.04317V5.71558C136.931 5.76014 136.936 5.82701 136.948 5.91604H136.931V8.65524H145.483V5.91604H145.466C145.477 5.82701 145.483 5.76022 145.483 5.71558V3.04317Z" fill="#113151"/>
<path d="M77.0689 8.65527H68.5172V17.207H77.0689V8.65527Z" fill="#113151"/>
<path d="M85.6207 8.65527H77.069V17.207H85.6207V8.65527Z" fill="#113151"/>
<path d="M102.724 8.65527H94.1724V17.207H102.724V8.65527Z" fill="#113151"/>
<path d="M111.276 11.5949C111.276 10.7821 110.989 10.0889 110.416 9.51549C109.842 8.9421 109.149 8.65527 108.336 8.65527H102.724V17.207H111.276V11.5949Z" fill="#113151"/>
<path d="M145.483 8.65527H136.931V17.207H145.483V8.65527Z" fill="#113151"/>
<path d="M77.0689 17.207H68.5172V22.8191C68.5172 23.6319 68.804 24.3251 69.3774 24.8985C69.9509 25.4719 70.644 25.7588 71.4569 25.7588H77.0689V17.207Z" fill="#113151"/>
<path d="M85.6207 17.207H77.069V25.7588H82.681C83.4939 25.7588 84.1871 25.4719 84.7605 24.8985C85.3339 24.3251 85.6207 23.6319 85.6207 22.8191V17.207Z" fill="#113151"/>
<path d="M102.724 17.207H94.1724V25.7588H102.724V17.207Z" fill="#113151"/>
<path d="M111.276 17.207H102.724V25.7588H111.276V17.207Z" fill="#113151"/>
<path d="M119.827 17.207H111.276V25.7588H119.827V17.207Z" fill="#113151"/>
<path d="M128.379 17.207H119.828V25.7588H128.379V17.207Z" fill="#113151"/>
<path d="M136.931 17.207H128.379V25.7588H136.931V17.207Z" fill="#113151"/>
<path d="M145.483 17.207H136.931V25.7588H145.483V17.207Z" fill="#113151"/>
<path d="M94.1723 28.6984V25.7588H88.5603C87.7474 25.7588 87.0542 26.0455 86.4808 26.619C85.9074 27.1925 85.6206 27.8856 85.6206 28.6984V31.3709C85.6206 32.1837 85.9073 32.8769 86.4808 33.4503C87.0543 34.0237 87.7474 34.3105 88.5603 34.3105H94.1723V28.6984Z" fill="#113151"/>
<path d="M102.724 25.7588H94.1724V34.3105H102.724V25.7588Z" fill="#113151"/>
<path d="M119.811 28.498H119.827V25.7588H111.276V28.498H111.292C111.281 28.5871 111.276 28.6539 111.276 28.6984V31.3709C111.276 32.1837 111.562 32.8769 112.136 33.4503C112.709 34.0237 113.403 34.3105 114.215 34.3105H116.888C117.701 34.3105 118.394 34.0237 118.967 33.4503C119.541 32.8769 119.827 32.1837 119.827 31.3709V28.6984C119.827 28.6539 119.822 28.5871 119.811 28.498Z" fill="#113151"/>
<path d="M145.483 25.7588H136.931V34.3105H145.483V25.7588Z" fill="#113151"/>
<path d="M77.0689 39.9226C77.0689 40.7356 76.782 41.4287 76.2087 42.0021C75.6353 42.5754 74.9423 42.8623 74.1293 42.8623H71.4569C70.6441 42.8623 69.9509 42.5754 69.3775 42.0021C68.804 41.4287 68.5172 40.7356 68.5172 39.9226V37.2502C68.5172 36.4374 68.804 35.7442 69.3774 35.1709C69.951 34.5974 70.6441 34.3105 71.4569 34.3105H74.1293C74.9424 34.3105 75.6355 34.5973 76.2087 35.1708C76.7821 35.7443 77.0689 36.4374 77.0689 37.2502V39.9226Z" fill="#113151"/>
<path d="M102.724 34.3105H94.1724V42.8623H102.724V34.3105Z" fill="#113151"/>
<path d="M128.379 39.9226C128.379 40.7356 128.092 41.4287 127.519 42.0021C126.946 42.5754 126.253 42.8623 125.44 42.8623H122.767C121.954 42.8623 121.261 42.5754 120.688 42.0021C120.114 41.4287 119.828 40.7356 119.828 39.9226V37.2502C119.828 36.4374 120.114 35.7442 120.688 35.1709C121.261 34.5974 121.954 34.3105 122.767 34.3105H125.44C126.253 34.3105 126.946 34.5973 127.519 35.1708C128.092 35.7443 128.379 36.4374 128.379 37.2502V39.9226Z" fill="#113151"/>
<path d="M145.466 37.0497H145.483V34.3105H136.931V37.0497H136.948C136.936 37.1389 136.931 37.2056 136.931 37.2502V39.9226C136.931 40.7355 137.218 41.4287 137.791 42.0021C138.365 42.5754 139.058 42.8623 139.871 42.8623H142.543C143.356 42.8623 144.049 42.5754 144.622 42.0021C145.196 41.4287 145.483 40.7355 145.483 39.9226V37.2502C145.483 37.2056 145.477 37.1389 145.466 37.0497Z" fill="#113151"/>
<path d="M85.6207 48.4744C85.6207 49.2874 85.3338 49.9804 84.7605 50.5538C84.1871 51.1271 83.4941 51.414 82.681 51.414H80.0086C79.1959 51.414 78.5027 51.1271 77.9293 50.5538C77.3558 49.9804 77.069 49.2874 77.069 48.4744V45.802C77.069 44.9892 77.3557 44.296 77.9292 43.7226C78.5028 43.1491 79.1959 42.8623 80.0086 42.8623H82.681C83.4941 42.8623 84.1873 43.149 84.7605 43.7225C85.3339 44.2961 85.6207 44.9892 85.6207 45.802V48.4744Z" fill="#113151"/>
<path d="M102.724 42.8623H94.1724V48.4744C94.1724 49.2872 94.4591 49.9804 95.0326 50.5538C95.6061 51.1272 96.2992 51.414 97.112 51.414H102.724V42.8623Z" fill="#113151"/>
<path d="M111.276 45.802C111.276 44.9891 110.989 44.2959 110.416 43.7225C109.842 43.1491 109.149 42.8623 108.336 42.8623H102.724V51.414H111.276V45.802Z" fill="#113151"/>
<path d="M77.0689 57.0261C77.0689 57.8391 76.782 58.5322 76.2087 59.1056C75.6353 59.6789 74.9423 59.9658 74.1293 59.9658H71.4569C70.6441 59.9658 69.9509 59.6789 69.3775 59.1056C68.804 58.5322 68.5172 57.8391 68.5172 57.0261V54.3537C68.5172 53.541 68.804 52.8478 69.3774 52.2744C69.951 51.7009 70.6441 51.4141 71.4569 51.4141H74.1293C74.9424 51.4141 75.6355 51.7008 76.2087 52.2743C76.7821 52.8478 77.0689 53.541 77.0689 54.3537V57.0261Z" fill="#113151"/>
<path d="M94.1723 54.3537C94.1723 53.5409 93.8855 52.8477 93.3121 52.2743C92.7387 51.7009 92.0455 51.4141 91.2327 51.4141H88.5603C87.7474 51.4141 87.0542 51.7008 86.4808 52.2743C85.9074 52.8478 85.6206 53.5409 85.6206 54.3537V57.0261C85.6206 57.0707 85.6262 57.1376 85.6373 57.2266H85.6206V59.9658H94.1723V57.2266H94.1557C94.1669 57.1376 94.1723 57.0708 94.1723 57.0261V54.3537Z" fill="#113151"/>
<path d="M111.259 54.1533H111.276V51.4141H102.724V54.1533H102.741C102.73 54.2424 102.724 54.3092 102.724 54.3537V57.0261C102.724 57.839 103.011 58.5322 103.584 59.1056C104.158 59.679 104.851 59.9658 105.664 59.9658H108.336C109.149 59.9658 109.842 59.679 110.416 59.1056C110.989 58.5322 111.276 57.839 111.276 57.0261V54.3537C111.276 54.3092 111.27 54.2424 111.259 54.1533Z" fill="#113151"/>
<path d="M128.379 57.0261C128.379 57.8391 128.092 58.5322 127.519 59.1056C126.946 59.6789 126.253 59.9658 125.44 59.9658H122.767C121.954 59.9658 121.261 59.6789 120.688 59.1056C120.114 58.5322 119.828 57.8391 119.828 57.0261V54.3537C119.828 53.541 120.114 52.8478 120.688 52.2744C121.261 51.7009 121.954 51.4141 122.767 51.4141H125.44C126.253 51.4141 126.946 51.7008 127.519 52.2743C128.092 52.8478 128.379 53.541 128.379 54.3537V57.0261Z" fill="#113151"/>
<path d="M145.483 57.0261C145.483 57.8391 145.196 58.5322 144.622 59.1056C144.049 59.6789 143.356 59.9658 142.543 59.9658H139.871C139.058 59.9658 138.365 59.6789 137.791 59.1056C137.218 58.5322 136.931 57.8391 136.931 57.0261V54.3537C136.931 53.541 137.218 52.8478 137.791 52.2744C138.365 51.7009 139.058 51.4141 139.871 51.4141H142.543C143.356 51.4141 144.049 51.7008 144.622 52.2743C145.196 52.8478 145.483 53.541 145.483 54.3537V57.0261Z" fill="#113151"/>
<path d="M85.6207 62.9055V59.9658H80.0086C79.1958 59.9658 78.5026 60.2526 77.9292 60.826C77.3558 61.3995 77.069 62.0926 77.069 62.9055V68.5175H85.6207V62.9055Z" fill="#113151"/>
<path d="M94.1723 59.9658H85.6206V68.5175H94.1723V59.9658Z" fill="#113151"/>
<path d="M102.724 62.9055C102.724 62.0926 102.437 61.3994 101.864 60.826C101.29 60.2526 100.597 59.9658 99.7844 59.9658H94.1724V68.5175H102.724V62.9055Z" fill="#113151"/>
<path d="M119.827 65.5779C119.827 66.3909 119.541 67.0839 118.967 67.6573C118.394 68.2306 117.701 68.5175 116.888 68.5175H114.215C113.403 68.5175 112.709 68.2306 112.136 67.6573C111.563 67.0839 111.276 66.3909 111.276 65.5779V62.9055C111.276 62.0927 111.562 61.3995 112.136 60.8261C112.71 60.2526 113.403 59.9658 114.215 59.9658H116.888C117.701 59.9658 118.394 60.2526 118.967 60.826C119.541 61.3996 119.827 62.0927 119.827 62.9055V65.5779Z" fill="#113151"/>
<path d="M136.931 62.9055C136.931 62.0926 136.644 61.3994 136.071 60.826C135.497 60.2526 134.804 59.9658 133.991 59.9658H131.319C130.506 59.9658 129.813 60.2526 129.239 60.826C128.666 61.3995 128.379 62.0926 128.379 62.9055V65.5779C128.379 65.6224 128.385 65.6893 128.396 65.7783H128.379V68.5175H136.931V65.7783H136.914C136.926 65.6893 136.931 65.6225 136.931 65.5779V62.9055Z" fill="#113151"/>
<path d="M8.65512 74.1292C8.65512 74.9422 8.36821 75.6352 7.7949 76.2086C7.22151 76.7819 6.52847 77.0688 5.71546 77.0688H3.04305C2.23029 77.0688 1.53709 76.7819 0.963697 76.2086C0.390218 75.6352 0.103394 74.9422 0.103394 74.1292V71.4567C0.103394 70.644 0.390133 69.9508 0.963611 69.3774C1.53718 68.8039 2.23029 68.5171 3.04305 68.5171H5.71546C6.52856 68.5171 7.22168 68.8038 7.7949 69.3773C8.36829 69.9509 8.65512 70.644 8.65512 71.4567V74.1292Z" fill="#113151"/>
<path d="M34.3103 71.4567V68.5171H28.6982C27.8854 68.5171 27.1922 68.8038 26.6188 69.3773C26.0454 69.9508 25.7585 70.6439 25.7585 71.4567V74.1292C25.7585 74.942 26.0453 75.6352 26.6188 76.2086C27.1922 76.782 27.8854 77.0688 28.6982 77.0688H34.3103V71.4567Z" fill="#113151"/>
<path d="M42.862 68.5171H34.3103V77.0688H42.862V68.5171Z" fill="#113151"/>
<path d="M51.4138 68.5171H42.8621V77.0688H51.4138V68.5171Z" fill="#113151"/>
<path d="M59.9654 68.5171H51.4137V77.0688H59.9654V68.5171Z" fill="#113151"/>
<path d="M68.5172 68.5171H59.9655V77.0688H68.5172V68.5171Z" fill="#113151"/>
<path d="M77.0689 68.5171H68.5172V77.0688H77.0689V68.5171Z" fill="#113151"/>
<path d="M85.6207 68.5171H77.069V77.0688H82.681C83.4939 77.0688 84.1871 76.782 84.7605 76.2086C85.3339 75.6352 85.6207 74.942 85.6207 74.1292V68.5171Z" fill="#113151"/>
<path d="M102.724 68.5171H94.1724V77.0688H102.724V68.5171Z" fill="#113151"/>
<path d="M128.379 71.4567V68.5171H122.767C121.954 68.5171 121.261 68.8038 120.688 69.3773C120.114 69.9508 119.828 70.6439 119.828 71.4567V74.1292C119.828 74.942 120.114 75.6352 120.688 76.2086C121.261 76.782 121.954 77.0688 122.767 77.0688H128.379V71.4567Z" fill="#113151"/>
<path d="M136.931 68.5171H128.379V77.0688H136.931V68.5171Z" fill="#113151"/>
<path d="M154.034 74.1292C154.034 74.9422 153.747 75.6352 153.174 76.2086C152.601 76.7819 151.908 77.0688 151.095 77.0688H148.422C147.61 77.0688 146.916 76.7819 146.343 76.2086C145.769 75.6352 145.483 74.9422 145.483 74.1292V71.4567C145.483 70.644 145.769 69.9508 146.343 69.3774C146.916 68.8039 147.61 68.5171 148.422 68.5171H151.095C151.908 68.5171 152.601 68.8038 153.174 69.3773C153.748 69.9509 154.034 70.644 154.034 71.4567V74.1292Z" fill="#113151"/>
<path d="M179.69 71.4567C179.69 70.6439 179.403 69.9507 178.829 69.3773C178.256 68.8039 177.563 68.5171 176.75 68.5171H174.077C173.265 68.5171 172.571 68.8038 171.998 69.3773C171.425 69.9508 171.138 70.6439 171.138 71.4567V74.1292C171.138 74.1737 171.143 74.2406 171.154 74.3296H171.138V77.0688H179.69V74.3296H179.673C179.684 74.2406 179.69 74.1738 179.69 74.1292V71.4567Z" fill="#113151"/>
<path d="M196.793 71.4567V68.5171H191.181C190.368 68.5171 189.675 68.8038 189.102 69.3773C188.528 69.9508 188.241 70.6439 188.241 71.4567V77.0688H196.793V71.4567Z" fill="#113151"/>
<path d="M205.345 68.5171H196.793V77.0688H205.345V68.5171Z" fill="#113151"/>
<path d="M210.957 68.5171H205.345V77.0688H210.957C211.77 77.0688 212.463 76.782 213.036 76.2086C213.61 75.6352 213.896 74.942 213.896 74.1292V71.4567C213.896 70.6439 213.61 69.9507 213.036 69.3773C212.463 68.8039 211.77 68.5171 210.957 68.5171Z" fill="#113151"/>
<path d="M17.2069 80.0085V77.0688H11.5948C10.782 77.0688 10.0888 77.3556 9.51537 77.9291C8.94198 78.5025 8.65515 79.1957 8.65515 80.0085V82.6809C8.65515 83.4938 8.94189 84.187 9.51537 84.7604C10.0888 85.3337 10.782 85.6206 11.5948 85.6206H17.2069V80.0085Z" fill="#113151"/>
<path d="M25.7585 80.0085C25.7585 79.1957 25.4717 78.5025 24.8983 77.9291C24.3249 77.3557 23.6317 77.0688 22.8189 77.0688H17.2068V85.6206H25.7585V80.0085Z" fill="#113151"/>
<path d="M102.724 77.0688H94.1724V82.6809C94.1724 83.4938 94.4591 84.187 95.0326 84.7604C95.6061 85.3337 96.2992 85.6206 97.112 85.6206H102.724V77.0688Z" fill="#113151"/>
<path d="M111.276 80.0085C111.276 79.1957 110.989 78.5025 110.416 77.9291C109.842 77.3557 109.149 77.0688 108.336 77.0688H102.724V85.6206H111.276V80.0085Z" fill="#113151"/>
<path d="M136.931 77.0688H128.379V85.6206H136.931V77.0688Z" fill="#113151"/>
<path d="M171.138 80.0085V77.0688H165.526C164.713 77.0688 164.02 77.3556 163.446 77.9291C162.873 78.5025 162.586 79.1957 162.586 80.0085V85.6206H171.138V80.0085Z" fill="#113151"/>
<path d="M179.69 77.0688H171.138V85.6206H179.69V77.0688Z" fill="#113151"/>
<path d="M188.241 77.0688H179.69V85.6206H188.241V77.0688Z" fill="#113151"/>
<path d="M196.793 77.0688H188.241V85.6206H196.793V77.0688Z" fill="#113151"/>
<path d="M205.345 77.0688H196.793V85.6206H202.405C203.218 85.6206 203.911 85.3337 204.485 84.7604C205.058 84.187 205.345 83.4938 205.345 82.6809V77.0688Z" fill="#113151"/>
<path d="M25.7418 88.3598H25.7585V85.6206H17.2068V88.3598H17.2235C17.2123 88.4489 17.2068 88.5157 17.2068 88.5603V91.2327C17.2068 92.0455 17.4935 92.7387 18.067 93.3121C18.6405 93.8855 19.3336 94.1723 20.1464 94.1723H22.8189C23.6317 94.1723 24.3249 93.8855 24.8983 93.3121C25.4717 92.7387 25.7585 92.0455 25.7585 91.2327V88.5603C25.7585 88.5157 25.7531 88.4489 25.7418 88.3598Z" fill="#113151"/>
<path d="M59.9654 91.2327C59.9654 92.0457 59.6785 92.7387 59.1052 93.3121C58.5318 93.8854 57.8388 94.1723 57.0258 94.1723H54.3534C53.5406 94.1723 52.8474 93.8854 52.274 93.3121C51.7005 92.7387 51.4137 92.0457 51.4137 91.2327V88.5603C51.4137 87.7475 51.7004 87.0543 52.2739 86.4809C52.8475 85.9074 53.5406 85.6206 54.3534 85.6206H57.0258C57.8389 85.6206 58.532 85.9073 59.1052 86.4808C59.6786 87.0544 59.9654 87.7475 59.9654 88.5603V91.2327Z" fill="#113151"/>
<path d="M111.276 85.6206H102.724V94.1723H111.276V85.6206Z" fill="#113151"/>
<path d="M119.827 85.6206H111.276V94.1723H119.827V85.6206Z" fill="#113151"/>
<path d="M128.379 85.6206H119.828V94.1723H128.379V85.6206Z" fill="#113151"/>
<path d="M136.931 85.6206H128.379V94.1723H136.931V85.6206Z" fill="#113151"/>
<path d="M171.121 88.3598H171.138V85.6206H162.586V88.3598H162.603C162.592 88.4489 162.586 88.5157 162.586 88.5603V91.2327C162.586 92.0455 162.873 92.7387 163.446 93.3121C164.02 93.8855 164.713 94.1723 165.526 94.1723H168.198C169.011 94.1723 169.704 93.8855 170.278 93.3121C170.851 92.7387 171.138 92.0455 171.138 91.2327V88.5603C171.138 88.5157 171.133 88.4489 171.121 88.3598Z" fill="#113151"/>
<path d="M188.241 85.6206H179.69V94.1723H188.241V85.6206Z" fill="#113151"/>
<path d="M213.896 88.5603C213.896 87.7474 213.61 87.0542 213.036 86.4808C212.463 85.9074 211.77 85.6206 210.957 85.6206H208.284C207.472 85.6206 206.778 85.9073 206.205 86.4808C205.632 87.0543 205.345 87.7474 205.345 88.5603V91.2327C205.345 91.2772 205.35 91.3441 205.361 91.4331H205.345V94.1723H213.896V91.4331H213.88C213.891 91.3441 213.896 91.2773 213.896 91.2327V88.5603Z" fill="#113151"/>
<path d="M34.3103 99.7844C34.3103 100.597 34.0234 101.29 33.4501 101.864C32.8767 102.437 32.1836 102.724 31.3706 102.724H28.6982C27.8854 102.724 27.1922 102.437 26.6188 101.864C26.0454 101.29 25.7585 100.597 25.7585 99.7844V97.112C25.7585 96.2993 26.0453 95.6061 26.6188 95.0327C27.1923 94.4592 27.8854 94.1724 28.6982 94.1724H31.3706C32.1837 94.1724 32.8768 94.4591 33.4501 95.0326C34.0234 95.6061 34.3103 96.2993 34.3103 97.112V99.7844Z" fill="#113151"/>
<path d="M68.5172 99.7844C68.5172 100.597 68.2303 101.29 67.657 101.864C67.0836 102.437 66.3905 102.724 65.5775 102.724H62.9051C62.0924 102.724 61.3992 102.437 60.8258 101.864C60.2523 101.29 59.9655 100.597 59.9655 99.7844V97.112C59.9655 96.2993 60.2522 95.6061 60.8257 95.0327C61.3992 94.4592 62.0924 94.1724 62.9051 94.1724H65.5775C66.3906 94.1724 67.0837 94.4591 67.657 95.0326C68.2304 95.6061 68.5172 96.2993 68.5172 97.112V99.7844Z" fill="#113151"/>
<path d="M111.259 96.9116H111.276V94.1724H102.724V96.9116H102.741C102.73 97.0007 102.724 97.0675 102.724 97.112V99.7844C102.724 100.597 103.011 101.29 103.584 101.864C104.158 102.437 104.851 102.724 105.664 102.724H108.336C109.149 102.724 109.842 102.437 110.416 101.864C110.989 101.29 111.276 100.597 111.276 99.7844V97.112C111.276 97.0675 111.27 97.0007 111.259 96.9116Z" fill="#113151"/>
<path d="M136.914 96.9116H136.931V94.1724H128.379V96.9116H128.396C128.385 97.0007 128.379 97.0675 128.379 97.112V99.7844C128.379 100.597 128.666 101.29 129.239 101.864C129.813 102.437 130.506 102.724 131.319 102.724H133.991C134.804 102.724 135.497 102.437 136.071 101.864C136.644 101.29 136.931 100.597 136.931 99.7844V97.112C136.931 97.0675 136.926 97.0007 136.914 96.9116Z" fill="#113151"/>
<path d="M188.241 94.1724H179.69V99.7844C179.69 100.597 179.976 101.29 180.55 101.864C181.123 102.437 181.816 102.724 182.629 102.724H188.241V94.1724Z" fill="#113151"/>
<path d="M196.793 94.1724H188.241V102.724H196.793V94.1724Z" fill="#113151"/>
<path d="M205.345 94.1724H196.793V102.724H205.345V94.1724Z" fill="#113151"/>
<path d="M213.896 94.1724H205.345V102.724H213.896V94.1724Z" fill="#113151"/>
<path d="M17.2069 105.664V102.724H11.5948C10.782 102.724 10.0888 103.011 9.51537 103.584C8.94198 104.158 8.65515 104.851 8.65515 105.664V111.276H17.2069V105.664Z" fill="#113151"/>
<path d="M22.8189 102.724H17.2068V111.276H22.8189C23.6317 111.276 24.3249 110.989 24.8983 110.416C25.4717 109.842 25.7585 109.149 25.7585 108.336V105.664C25.7585 104.851 25.4717 104.158 24.8983 103.584C24.3249 103.011 23.6317 102.724 22.8189 102.724Z" fill="#113151"/>
<path d="M51.4138 105.664V102.724H45.8017C44.9889 102.724 44.2957 103.011 43.7223 103.584C43.1489 104.158 42.8621 104.851 42.8621 105.664V111.276H51.4138V105.664Z" fill="#113151"/>
<path d="M57.0258 102.724H51.4137V111.276H57.0258C57.8386 111.276 58.5318 110.989 59.1052 110.416C59.6786 109.842 59.9654 109.149 59.9654 108.336V105.664C59.9654 104.851 59.6786 104.158 59.1052 103.584C58.5318 103.011 57.8386 102.724 57.0258 102.724Z" fill="#113151"/>
<path d="M119.827 105.664V102.724H114.215C113.403 102.724 112.709 103.011 112.136 103.584C111.563 104.158 111.276 104.851 111.276 105.664V108.336C111.276 109.149 111.562 109.842 112.136 110.416C112.709 110.989 113.403 111.276 114.215 111.276H119.827V105.664Z" fill="#113151"/>
<path d="M128.379 105.664C128.379 104.851 128.092 104.158 127.519 103.584C126.946 103.011 126.252 102.724 125.44 102.724H119.828V111.276H128.379V105.664Z" fill="#113151"/>
<path d="M145.483 108.336C145.483 109.149 145.196 109.842 144.622 110.416C144.049 110.989 143.356 111.276 142.543 111.276H139.871C139.058 111.276 138.365 110.989 137.791 110.416C137.218 109.842 136.931 109.149 136.931 108.336V105.664C136.931 104.851 137.218 104.158 137.791 103.584C138.365 103.011 139.058 102.724 139.871 102.724H142.543C143.356 102.724 144.049 103.011 144.622 103.584C145.196 104.158 145.483 104.851 145.483 105.664V108.336Z" fill="#113151"/>
<path d="M162.586 105.664V102.724H156.974C156.161 102.724 155.468 103.011 154.895 103.584C154.321 104.158 154.034 104.851 154.034 105.664V108.336C154.034 109.149 154.321 109.842 154.895 110.416C155.468 110.989 156.161 111.276 156.974 111.276H162.586V105.664Z" fill="#113151"/>
<path d="M168.198 102.724H162.586V111.276H168.198C169.011 111.276 169.704 110.989 170.278 110.416C170.851 109.842 171.138 109.149 171.138 108.336V105.664C171.138 104.851 170.851 104.158 170.278 103.584C169.704 103.011 169.011 102.724 168.198 102.724Z" fill="#113151"/>
<path d="M213.88 105.463H213.896V102.724H205.345V105.463H205.361C205.35 105.552 205.345 105.619 205.345 105.664V108.336C205.345 109.149 205.631 109.842 206.205 110.416C206.778 110.989 207.472 111.276 208.284 111.276H210.957C211.77 111.276 212.463 110.989 213.036 110.416C213.61 109.842 213.896 109.149 213.896 108.336V105.664C213.896 105.619 213.891 105.552 213.88 105.463Z" fill="#113151"/>
<path d="M8.65512 114.216V111.276H3.04305C2.23021 111.276 1.537 111.563 0.963611 112.136C0.390218 112.71 0.103394 113.403 0.103394 114.216V119.828H8.65512V114.216Z" fill="#113151"/>
<path d="M17.2069 111.276H8.65515V119.828H17.2069V111.276Z" fill="#113151"/>
<path d="M34.3103 114.216C34.3103 113.403 34.0234 112.709 33.4501 112.136C32.8767 111.563 32.1835 111.276 31.3706 111.276H28.6982C27.8854 111.276 27.1922 111.563 26.6188 112.136C26.0454 112.71 25.7585 113.403 25.7585 114.216V116.888C25.7585 116.933 25.7641 116.999 25.7752 117.088H25.7585V119.828H34.3103V117.088H34.2936C34.3049 116.999 34.3103 116.933 34.3103 116.888V114.216Z" fill="#113151"/>
<path d="M51.3971 114.015H51.4138V111.276H42.8621V114.015H42.8787C42.8676 114.104 42.8621 114.171 42.8621 114.216V116.888C42.8621 117.701 43.1488 118.394 43.7223 118.967C44.2958 119.541 44.9889 119.828 45.8017 119.828H48.4741C49.287 119.828 49.9802 119.541 50.5536 118.967C51.127 118.394 51.4138 117.701 51.4138 116.888V114.216C51.4138 114.171 51.4084 114.104 51.3971 114.015Z" fill="#113151"/>
<path d="M68.5172 114.216V111.276H62.9051C62.0923 111.276 61.3991 111.563 60.8257 112.136C60.2523 112.71 59.9655 113.403 59.9655 114.216V119.828H68.5172V114.216Z" fill="#113151"/>
<path d="M77.0689 111.276H68.5172V119.828H77.0689V111.276Z" fill="#113151"/>
<path d="M85.6207 111.276H77.069V119.828H85.6207V111.276Z" fill="#113151"/>
<path d="M91.2327 111.276H85.6206V119.828H91.2327C92.0455 119.828 92.7387 119.541 93.3121 118.967C93.8855 118.394 94.1723 117.701 94.1723 116.888V114.216C94.1723 113.403 93.8855 112.709 93.3121 112.136C92.7387 111.563 92.0455 111.276 91.2327 111.276Z" fill="#113151"/>
<path d="M111.276 116.888C111.276 117.701 110.989 118.394 110.416 118.967C109.842 119.541 109.149 119.828 108.336 119.828H105.664C104.851 119.828 104.158 119.541 103.584 118.967C103.011 118.394 102.724 117.701 102.724 116.888V114.216C102.724 113.403 103.011 112.71 103.584 112.136C104.158 111.563 104.851 111.276 105.664 111.276H108.336C109.149 111.276 109.842 111.563 110.416 112.136C110.989 112.71 111.276 113.403 111.276 114.216V116.888Z" fill="#113151"/>
<path d="M128.379 111.276H119.828V119.828H128.379V111.276Z" fill="#113151"/>
<path d="M136.931 114.216C136.931 113.403 136.644 112.709 136.071 112.136C135.497 111.563 134.804 111.276 133.991 111.276H128.379V119.828H136.931V114.216Z" fill="#113151"/>
<path d="M179.69 114.216C179.69 113.403 179.403 112.709 178.829 112.136C178.256 111.563 177.563 111.276 176.75 111.276H174.077C173.265 111.276 172.571 111.563 171.998 112.136C171.425 112.71 171.138 113.403 171.138 114.216V116.888C171.138 116.933 171.143 116.999 171.154 117.088H171.138V119.828H179.69V117.088H179.673C179.684 116.999 179.69 116.933 179.69 116.888V114.216Z" fill="#113151"/>
<path d="M205.345 114.216C205.345 113.403 205.058 112.709 204.485 112.136C203.911 111.563 203.218 111.276 202.405 111.276H199.733C198.92 111.276 198.227 111.563 197.653 112.136C197.08 112.71 196.793 113.403 196.793 114.216V116.888C196.793 116.933 196.799 116.999 196.81 117.088H196.793V119.828H205.345V117.088H205.328C205.339 116.999 205.345 116.933 205.345 116.888V114.216Z" fill="#113151"/>
<path d="M8.65512 119.828H0.103394V128.379H8.65512V119.828Z" fill="#113151"/>
<path d="M17.2069 119.828H8.65515V128.379H14.2672C15.0801 128.379 15.7733 128.093 16.3467 127.519C16.9201 126.946 17.2069 126.253 17.2069 125.44V119.828Z" fill="#113151"/>
<path d="M34.2936 122.567H34.3103V119.828H25.7585V122.567H25.7752C25.7641 122.656 25.7585 122.723 25.7585 122.767V125.44C25.7585 126.253 26.0453 126.946 26.6188 127.519C27.1922 128.093 27.8854 128.379 28.6982 128.379H31.3706C32.1835 128.379 32.8767 128.093 33.4501 127.519C34.0234 126.946 34.3103 126.253 34.3103 125.44V122.767C34.3103 122.723 34.3049 122.656 34.2936 122.567Z" fill="#113151"/>
<path d="M59.9654 122.767V119.828H54.3534C53.5405 119.828 52.8473 120.114 52.2739 120.688C51.7005 121.261 51.4137 121.954 51.4137 122.767V125.44C51.4137 126.253 51.7004 126.946 52.2739 127.519C52.8474 128.093 53.5405 128.379 54.3534 128.379H59.9654V122.767Z" fill="#113151"/>
<path d="M68.5172 119.828H59.9655V128.379H65.5775C66.3904 128.379 67.0836 128.093 67.657 127.519C68.2304 126.946 68.5172 126.253 68.5172 125.44V119.828Z" fill="#113151"/>
<path d="M85.6207 119.828H77.069V128.379H85.6207V119.828Z" fill="#113151"/>
<path d="M128.379 119.828H119.828V128.379H128.379V119.828Z" fill="#113151"/>
<path d="M136.931 119.828H128.379V128.379H136.931V119.828Z" fill="#113151"/>
<path d="M145.483 119.828H136.931V128.379H145.483V119.828Z" fill="#113151"/>
<path d="M154.034 119.828H145.483V128.379H154.034V119.828Z" fill="#113151"/>
<path d="M162.586 122.767C162.586 121.954 162.299 121.261 161.726 120.688C161.153 120.114 160.459 119.828 159.646 119.828H154.034V128.379H162.586V122.767Z" fill="#113151"/>
<path d="M179.69 119.828H171.138V125.44C171.138 126.253 171.425 126.946 171.998 127.519C172.572 128.093 173.265 128.379 174.077 128.379H179.69V119.828Z" fill="#113151"/>
<path d="M188.241 119.828H179.69V128.379H188.241V119.828Z" fill="#113151"/>
<path d="M196.793 119.828H188.241V128.379H196.793V119.828Z" fill="#113151"/>
<path d="M205.345 119.828H196.793V128.379H205.345V119.828Z" fill="#113151"/>
<path d="M213.896 122.767C213.896 121.954 213.61 121.261 213.036 120.688C212.463 120.114 211.77 119.828 210.957 119.828H205.345V128.379H213.896V122.767Z" fill="#113151"/>
<path d="M8.65512 128.379H0.103394V136.931H8.65512V128.379Z" fill="#113151"/>
<path d="M25.7585 131.319C25.7585 130.506 25.4717 129.813 24.8983 129.24C24.3249 128.666 23.6317 128.379 22.8189 128.379H20.1464C19.3336 128.379 18.6404 128.666 18.067 129.24C17.4936 129.813 17.2068 130.506 17.2068 131.319V133.991C17.2068 134.036 17.2123 134.103 17.2235 134.192H17.2068V136.931H25.7585V134.192H25.7418C25.7531 134.103 25.7585 134.036 25.7585 133.991V131.319Z" fill="#113151"/>
<path d="M42.862 131.319C42.862 130.506 42.5752 129.813 42.0018 129.24C41.4284 128.666 40.7352 128.379 39.9224 128.379H37.25C36.4371 128.379 35.7439 128.666 35.1705 129.24C34.5971 129.813 34.3103 130.506 34.3103 131.319V133.991C34.3103 134.036 34.3159 134.103 34.327 134.192H34.3103V136.931H42.862V134.192H42.8454C42.8566 134.103 42.862 134.036 42.862 133.991V131.319Z" fill="#113151"/>
<path d="M85.6207 128.379H77.069V136.931H85.6207V128.379Z" fill="#113151"/>
<path d="M111.276 131.319V128.379H105.664C104.851 128.379 104.158 128.666 103.584 129.24C103.011 129.813 102.724 130.506 102.724 131.319V136.931H111.276V131.319Z" fill="#113151"/>
<path d="M119.827 128.379H111.276V136.931H119.827V128.379Z" fill="#113151"/>
<path d="M128.379 128.379H119.828V136.931H125.44C126.252 136.931 126.946 136.644 127.519 136.071C128.092 135.498 128.379 134.804 128.379 133.991V128.379Z" fill="#113151"/>
<path d="M145.483 128.379H136.931V136.931H145.483V128.379Z" fill="#113151"/>
<path d="M162.586 128.379H154.034V136.931H162.586V128.379Z" fill="#113151"/>
<path d="M171.138 131.319C171.138 130.506 170.851 129.813 170.278 129.24C169.704 128.666 169.011 128.379 168.198 128.379H162.586V136.931H171.138V131.319Z" fill="#113151"/>
<path d="M188.241 128.379H179.69V133.991C179.69 134.804 179.976 135.498 180.55 136.071C181.123 136.644 181.816 136.931 182.629 136.931H188.241V128.379Z" fill="#113151"/>
<path d="M196.793 128.379H188.241V136.931H196.793V128.379Z" fill="#113151"/>
<path d="M213.88 131.119H213.896V128.379H205.345V131.119H205.361C205.35 131.208 205.345 131.274 205.345 131.319V133.991C205.345 134.804 205.631 135.498 206.205 136.071C206.778 136.644 207.472 136.931 208.284 136.931H210.957C211.77 136.931 212.463 136.644 213.036 136.071C213.61 135.498 213.896 134.804 213.896 133.991V131.319C213.896 131.274 213.891 131.208 213.88 131.119Z" fill="#113151"/>
<path d="M8.63844 139.67H8.65512V136.931H0.103394V139.67H0.120069C0.108952 139.759 0.103394 139.826 0.103394 139.871V142.543C0.103394 143.356 0.390133 144.049 0.963611 144.623C1.53709 145.196 2.23021 145.483 3.04305 145.483H5.71546C6.5283 145.483 7.22151 145.196 7.7949 144.623C8.36829 144.049 8.65512 143.356 8.65512 142.543V139.871C8.65512 139.826 8.64973 139.759 8.63844 139.67Z" fill="#113151"/>
<path d="M25.7585 136.931H17.2068V142.543C17.2068 143.356 17.4935 144.049 18.067 144.623C18.6405 145.196 19.3336 145.483 20.1464 145.483H25.7585V136.931Z" fill="#113151"/>
<path d="M34.3103 136.931H25.7585V145.483H34.3103V136.931Z" fill="#113151"/>
<path d="M42.862 136.931H34.3103V145.483H42.862V136.931Z" fill="#113151"/>
<path d="M51.4138 136.931H42.8621V145.483H51.4138V136.931Z" fill="#113151"/>
<path d="M57.0258 136.931H51.4137V145.483H57.0258C57.8386 145.483 58.5318 145.196 59.1052 144.623C59.6786 144.049 59.9654 143.356 59.9654 142.543V139.871C59.9654 139.058 59.6786 138.365 59.1052 137.791C58.5318 137.218 57.8386 136.931 57.0258 136.931Z" fill="#113151"/>
<path d="M85.6207 136.931H77.069V145.483H85.6207V136.931Z" fill="#113151"/>
<path d="M94.1723 136.931H85.6206V145.483H94.1723V136.931Z" fill="#113151"/>
<path d="M102.724 136.931H94.1724V145.483H102.724V136.931Z" fill="#113151"/>
<path d="M111.276 136.931H102.724V145.483H108.336C109.149 145.483 109.842 145.196 110.416 144.623C110.989 144.049 111.276 143.356 111.276 142.543V136.931Z" fill="#113151"/>
<path d="M136.931 139.871V136.931H131.319C130.506 136.931 129.813 137.218 129.239 137.791C128.666 138.365 128.379 139.058 128.379 139.871V145.483H136.931V139.871Z" fill="#113151"/>
<path d="M145.483 136.931H136.931V145.483H145.483V136.931Z" fill="#113151"/>
<path d="M154.034 136.931H145.483V145.483H154.034V136.931Z" fill="#113151"/>
<path d="M162.586 136.931H154.034V145.483H162.586V136.931Z" fill="#113151"/>
<path d="M171.138 136.931H162.586V145.483H171.138V136.931Z" fill="#113151"/>
<path d="M179.69 139.871C179.69 139.058 179.403 138.365 178.829 137.791C178.256 137.218 177.563 136.931 176.75 136.931H171.138V145.483H179.69V139.871Z" fill="#113151"/>
<path d="M196.793 136.931H188.241V145.483H196.793V136.931Z" fill="#113151"/>
<path d="M205.345 139.871C205.345 139.058 205.058 138.365 204.485 137.791C203.911 137.218 203.218 136.931 202.405 136.931H196.793V145.483H205.345V139.871Z" fill="#113151"/>
<path d="M77.0689 148.423V145.483H71.4569C70.644 145.483 69.9508 145.77 69.3774 146.343C68.804 146.917 68.5172 147.61 68.5172 148.423V154.035H77.0689V148.423Z" fill="#113151"/>
<path d="M85.6207 145.483H77.069V154.035H85.6207V145.483Z" fill="#113151"/>
<path d="M94.1723 145.483H85.6206V154.035H94.1723V145.483Z" fill="#113151"/>
<path d="M102.724 145.483H94.1724V154.035H99.7844C100.597 154.035 101.29 153.748 101.864 153.174C102.437 152.601 102.724 151.908 102.724 151.095V145.483Z" fill="#113151"/>
<path d="M136.931 145.483H128.379V151.095C128.379 151.908 128.666 152.601 129.239 153.174C129.813 153.748 130.506 154.035 131.319 154.035H136.931V145.483Z" fill="#113151"/>
<path d="M145.483 145.483H136.931V154.035H145.483V145.483Z" fill="#113151"/>
<path d="M179.69 145.483H171.138V154.035H179.69V145.483Z" fill="#113151"/>
<path d="M196.793 145.483H188.241V151.095C188.241 151.908 188.528 152.601 189.102 153.174C189.675 153.748 190.368 154.035 191.181 154.035H196.793V145.483Z" fill="#113151"/>
<path d="M205.345 145.483H196.793V154.035H202.405C203.218 154.035 203.911 153.748 204.485 153.174C205.058 152.601 205.345 151.908 205.345 151.095V145.483Z" fill="#113151"/>
<path d="M77.0689 154.035H68.5172V162.586H77.0689V154.035Z" fill="#113151"/>
<path d="M85.6207 154.035H77.069V162.586H85.6207V154.035Z" fill="#113151"/>
<path d="M94.1723 154.035H85.6206V162.586H94.1723V154.035Z" fill="#113151"/>
<path d="M111.276 156.974V154.035H105.664C104.851 154.035 104.158 154.321 103.584 154.895C103.011 155.468 102.724 156.161 102.724 156.974V159.647C102.724 160.46 103.011 161.153 103.584 161.726C104.158 162.3 104.851 162.586 105.664 162.586H111.276V156.974Z" fill="#113151"/>
<path d="M119.827 154.035H111.276V162.586H119.827V154.035Z" fill="#113151"/>
<path d="M125.44 154.035H119.828V162.586H125.44C126.252 162.586 126.946 162.3 127.519 161.726C128.092 161.153 128.379 160.46 128.379 159.647V156.974C128.379 156.161 128.092 155.468 127.519 154.895C126.946 154.321 126.252 154.035 125.44 154.035Z" fill="#113151"/>
<path d="M145.483 154.035H136.931V162.586H145.483V154.035Z" fill="#113151"/>
<path d="M162.586 159.647C162.586 160.46 162.299 161.153 161.726 161.726C161.153 162.299 160.46 162.586 159.646 162.586H156.974C156.161 162.586 155.468 162.299 154.895 161.726C154.321 161.153 154.034 160.46 154.034 159.647V156.974C154.034 156.162 154.321 155.468 154.895 154.895C155.468 154.321 156.161 154.035 156.974 154.035H159.646C160.46 154.035 161.153 154.321 161.726 154.895C162.299 155.468 162.586 156.162 162.586 156.974V159.647Z" fill="#113151"/>
<path d="M179.69 154.035H171.138V162.586H179.69V154.035Z" fill="#113151"/>
<path d="M213.896 156.974C213.896 156.161 213.61 155.468 213.036 154.895C212.463 154.321 211.77 154.035 210.957 154.035H208.284C207.472 154.035 206.778 154.321 206.205 154.895C205.632 155.468 205.345 156.161 205.345 156.974V159.647C205.345 159.691 205.35 159.758 205.361 159.847H205.345V162.586H213.896V159.847H213.88C213.891 159.758 213.896 159.691 213.896 159.647V156.974Z" fill="#113151"/>
<path d="M77.0689 162.586H68.5172V171.138H77.0689V162.586Z" fill="#113151"/>
<path d="M94.1723 162.586H85.6206V168.198C85.6206 169.011 85.9073 169.705 86.4808 170.278C87.0543 170.851 87.7474 171.138 88.5603 171.138H94.1723V162.586Z" fill="#113151"/>
<path d="M102.724 165.526C102.724 164.713 102.437 164.02 101.864 163.447C101.29 162.873 100.597 162.586 99.7844 162.586H94.1724V171.138H102.724V165.526Z" fill="#113151"/>
<path d="M119.827 162.586H111.276V171.138H119.827V162.586Z" fill="#113151"/>
<path d="M136.931 165.526V162.586H131.319C130.506 162.586 129.813 162.873 129.239 163.447C128.666 164.02 128.379 164.713 128.379 165.526V171.138H136.931V165.526Z" fill="#113151"/>
<path d="M145.483 162.586H136.931V171.138H145.483V162.586Z" fill="#113151"/>
<path d="M179.69 162.586H171.138V171.138H179.69V162.586Z" fill="#113151"/>
<path d="M213.896 162.586H205.345V171.138H213.896V162.586Z" fill="#113151"/>
<path d="M77.0689 171.138H68.5172V179.69H77.0689V171.138Z" fill="#113151"/>
<path d="M85.6207 174.078C85.6207 173.265 85.3339 172.572 84.7605 171.998C84.1871 171.425 83.4939 171.138 82.681 171.138H77.069V179.69H85.6207V174.078Z" fill="#113151"/>
<path d="M102.707 173.877H102.724V171.138H94.1724V173.877H94.189C94.1779 173.966 94.1724 174.033 94.1724 174.078V176.75C94.1724 177.563 94.4591 178.256 95.0326 178.83C95.6061 179.403 96.2992 179.69 97.112 179.69H99.7844C100.597 179.69 101.29 179.403 101.864 178.83C102.437 178.256 102.724 177.563 102.724 176.75V174.078C102.724 174.033 102.719 173.966 102.707 173.877Z" fill="#113151"/>
<path d="M119.827 171.138H111.276V179.69H119.827V171.138Z" fill="#113151"/>
<path d="M136.931 171.138H128.379V179.69H136.931V171.138Z" fill="#113151"/>
<path d="M145.483 171.138H136.931V179.69H145.483V171.138Z" fill="#113151"/>
<path d="M154.034 171.138H145.483V179.69H154.034V171.138Z" fill="#113151"/>
<path d="M162.586 171.138H154.034V179.69H162.586V171.138Z" fill="#113151"/>
<path d="M171.138 171.138H162.586V179.69H171.138V171.138Z" fill="#113151"/>
<path d="M179.69 171.138H171.138V179.69H176.75C177.563 179.69 178.256 179.403 178.829 178.83C179.403 178.256 179.69 177.563 179.69 176.75V171.138Z" fill="#113151"/>
<path d="M205.345 174.078V171.138H199.733C198.92 171.138 198.227 171.425 197.653 171.998C197.08 172.572 196.793 173.265 196.793 174.078V179.69H205.345V174.078Z" fill="#113151"/>
<path d="M213.896 171.138H205.345V179.69H213.896V171.138Z" fill="#113151"/>
<path d="M77.0689 179.69H68.5172V185.302C68.5172 186.115 68.804 186.808 69.3774 187.381C69.9509 187.955 70.644 188.242 71.4569 188.242H77.0689V179.69Z" fill="#113151"/>
<path d="M85.6207 179.69H77.069V188.242H85.6207V179.69Z" fill="#113151"/>
<path d="M94.1723 182.63C94.1723 181.817 93.8855 181.124 93.3121 180.55C92.7387 179.977 92.0455 179.69 91.2327 179.69H85.6206V188.242H94.1723V182.63Z" fill="#113151"/>
<path d="M111.276 182.63V179.69H105.664C104.851 179.69 104.158 179.977 103.584 180.55C103.011 181.124 102.724 181.817 102.724 182.63V185.302C102.724 186.115 103.011 186.808 103.584 187.381C104.158 187.955 104.851 188.242 105.664 188.242H111.276V182.63Z" fill="#113151"/>
<path d="M119.827 179.69H111.276V188.242H119.827V179.69Z" fill="#113151"/>
<path d="M136.914 182.429H136.931V179.69H128.379V182.429H128.396C128.385 182.518 128.379 182.585 128.379 182.63V185.302C128.379 186.115 128.666 186.808 129.239 187.381C129.813 187.955 130.506 188.242 131.319 188.242H133.991C134.804 188.242 135.497 187.955 136.071 187.381C136.644 186.808 136.931 186.115 136.931 185.302V182.63C136.931 182.585 136.926 182.518 136.914 182.429Z" fill="#113151"/>
<path d="M154.034 179.69H145.483V188.242H154.034V179.69Z" fill="#113151"/>
<path d="M162.586 179.69H154.034V188.242H159.646C160.459 188.242 161.153 187.955 161.726 187.381C162.299 186.808 162.586 186.115 162.586 185.302V179.69Z" fill="#113151"/>
<path d="M205.345 179.69H196.793V188.242H205.345V179.69Z" fill="#113151"/>
<path d="M213.896 179.69H205.345V188.242H213.896V179.69Z" fill="#113151"/>
<path d="M94.1723 188.241H85.6206V193.853C85.6206 194.666 85.9073 195.359 86.4808 195.933C87.0543 196.506 87.7474 196.793 88.5603 196.793H94.1723V188.241Z" fill="#113151"/>
<path d="M102.724 191.181C102.724 190.368 102.437 189.675 101.864 189.101C101.29 188.528 100.597 188.241 99.7844 188.241H94.1724V196.793H102.724V191.181Z" fill="#113151"/>
<path d="M119.828 188.241H111.276V196.793H119.828V188.241Z" fill="#113151"/>
<path d="M145.483 191.181V188.241H139.871C139.058 188.241 138.365 188.528 137.791 189.101C137.218 189.675 136.931 190.368 136.931 191.181V193.853C136.931 194.666 137.218 195.359 137.791 195.933C138.365 196.506 139.058 196.793 139.871 196.793H145.483V191.181Z" fill="#113151"/>
<path d="M154.034 188.241H145.483V196.793H151.095C151.908 196.793 152.601 196.506 153.174 195.933C153.748 195.359 154.034 194.666 154.034 193.853V188.241Z" fill="#113151"/>
<path d="M179.69 191.181V188.241H174.078C173.265 188.241 172.572 188.528 171.998 189.101C171.425 189.675 171.138 190.368 171.138 191.181V196.793H179.69V191.181Z" fill="#113151"/>
<path d="M188.241 188.241H179.69V196.793H188.241V188.241Z" fill="#113151"/>
<path d="M196.793 188.241H188.241V196.793H196.793V188.241Z" fill="#113151"/>
<path d="M205.345 188.241H196.793V196.793H205.345V188.241Z" fill="#113151"/>
<path d="M213.896 188.241H205.345V196.793H213.896V188.241Z" fill="#113151"/>
<path d="M85.6207 199.733C85.6207 198.92 85.3339 198.227 84.7605 197.653C84.1871 197.08 83.4939 196.793 82.681 196.793H80.0086C79.1958 196.793 78.5026 197.08 77.9292 197.653C77.3558 198.227 77.069 198.92 77.069 199.733V202.405C77.069 202.45 77.0745 202.516 77.0856 202.605H77.069V205.345H85.6207V202.605H85.604C85.6153 202.516 85.6207 202.45 85.6207 202.405V199.733Z" fill="#113151"/>
<path d="M102.724 196.793H94.1724V205.345H102.724V196.793Z" fill="#113151"/>
<path d="M111.276 196.793H102.724V205.345H111.276V196.793Z" fill="#113151"/>
<path d="M119.827 196.793H111.276V205.345H119.827V196.793Z" fill="#113151"/>
<path d="M171.138 199.733V196.793H165.526C164.713 196.793 164.02 197.08 163.446 197.653C162.873 198.227 162.586 198.92 162.586 199.733V202.405C162.586 203.218 162.873 203.911 163.446 204.484C164.02 205.058 164.713 205.345 165.526 205.345H171.138V199.733Z" fill="#113151"/>
<path d="M179.69 196.793H171.138V205.345H176.75C177.563 205.345 178.256 205.058 178.829 204.484C179.403 203.911 179.69 203.218 179.69 202.405V196.793Z" fill="#113151"/>
<path d="M196.793 196.793H188.241V202.405C188.241 203.218 188.528 203.911 189.102 204.484C189.675 205.058 190.368 205.345 191.181 205.345H196.793V196.793Z" fill="#113151"/>
<path d="M205.345 196.793H196.793V205.345H205.345V196.793Z" fill="#113151"/>
<path d="M213.896 196.793H205.345V205.345H213.896V196.793Z" fill="#113151"/>
<path d="M77.0689 208.284V205.345H71.4569C70.644 205.345 69.9508 205.631 69.3774 206.205C68.804 206.778 68.5172 207.472 68.5172 208.284V210.957C68.5172 211.77 68.804 212.463 69.3774 213.036C69.9509 213.61 70.644 213.896 71.4569 213.896H77.0689V208.284Z" fill="#113151"/>
<path d="M85.6207 205.345H77.069V213.896H85.6207V205.345Z" fill="#113151"/>
<path d="M94.1723 205.345H85.6206V213.896H94.1723V205.345Z" fill="#113151"/>
<path d="M102.724 205.345H94.1724V213.896H102.724V205.345Z" fill="#113151"/>
<path d="M111.276 205.345H102.724V213.896H111.276V205.345Z" fill="#113151"/>
<path d="M119.827 205.345H111.276V213.896H116.888C117.701 213.896 118.394 213.61 118.967 213.036C119.541 212.463 119.827 211.77 119.827 210.957V205.345Z" fill="#113151"/>
<path d="M145.483 208.284V205.345H139.871C139.058 205.345 138.365 205.631 137.791 206.205C137.218 206.778 136.931 207.472 136.931 208.284V210.957C136.931 211.77 137.218 212.463 137.791 213.036C138.365 213.61 139.058 213.896 139.871 213.896H145.483V208.284Z" fill="#113151"/>
<path d="M154.034 205.345H145.483V213.896H154.034V205.345Z" fill="#113151"/>
<path d="M159.646 205.345H154.034V213.896H159.646C160.459 213.896 161.153 213.61 161.726 213.036C162.299 212.463 162.586 211.77 162.586 210.957V208.284C162.586 207.472 162.299 206.778 161.726 206.205C161.153 205.632 160.459 205.345 159.646 205.345Z" fill="#113151"/>
<path d="M188.241 210.957C188.241 211.77 187.954 212.463 187.381 213.036C186.808 213.61 186.115 213.896 185.302 213.896H182.629C181.816 213.896 181.123 213.61 180.55 213.036C179.976 212.463 179.69 211.77 179.69 210.957V208.284C179.69 207.472 179.976 206.778 180.55 206.205C181.123 205.632 181.816 205.345 182.629 205.345H185.302C186.115 205.345 186.808 205.631 187.381 206.205C187.954 206.779 188.241 207.472 188.241 208.284V210.957Z" fill="#113151"/>
<path d="M213.88 208.084H213.896V205.345H205.345V208.084H205.361C205.35 208.173 205.345 208.24 205.345 208.284V210.957C205.345 211.77 205.631 212.463 206.205 213.036C206.778 213.61 207.472 213.896 208.284 213.896H210.957C211.77 213.896 212.463 213.61 213.036 213.036C213.61 212.463 213.896 211.77 213.896 210.957V208.284C213.896 208.24 213.891 208.173 213.88 208.084Z" fill="#113151"/>
<path d="M39.528 0.108398H20.5409C11.2874 0.108398 3.44789 6.22211 0.941463 14.5783C0.68226 15.4427 0.479926 16.331 0.33925 17.2391C0.184207 18.2412 0.103394 19.2673 0.103394 20.3118V39.7497C0.103394 50.8954 9.27426 59.9591 20.5409 59.9591L30.0344 59.9609L39.528 59.9585C50.794 59.9585 59.9655 50.8948 59.9655 39.7491V20.3118C59.9655 9.17151 50.7946 0.108398 39.528 0.108398ZM50.9862 39.7497C50.9862 45.9418 45.8464 50.9798 39.5256 50.9798L30.0344 50.9816L20.5433 50.9792C14.2225 50.9792 9.08271 45.9412 9.08271 39.7497V20.3118C9.08271 18.3777 9.58435 16.5567 10.4673 14.9656C11.3174 13.4349 12.52 12.1185 13.968 11.1218C15.8298 9.84017 18.0967 9.08771 20.5403 9.08771H39.528C45.8464 9.08771 50.9862 14.1227 50.9862 20.3118V39.7497Z" fill="#113151"/>
<path d="M193.459 0.108398H174.472C165.218 0.108398 157.379 6.22211 154.872 14.5783C154.613 15.4427 154.411 16.331 154.27 17.2391C154.115 18.2412 154.034 19.2673 154.034 20.3118V39.7497C154.034 50.8954 163.205 59.9591 174.472 59.9591L183.965 59.9609L193.459 59.9585C204.725 59.9585 213.896 50.8948 213.896 39.7491V20.3118C213.896 9.17151 204.726 0.108398 193.459 0.108398ZM204.917 39.7497C204.917 45.9418 199.777 50.9798 193.457 50.9798L183.965 50.9816L174.474 50.9792C168.153 50.9792 163.014 45.9412 163.014 39.7497V20.3118C163.014 18.3777 163.515 16.5567 164.398 14.9656C165.248 13.4349 166.451 12.1185 167.899 11.1218C169.761 9.84017 172.028 9.08771 174.471 9.08771H193.459C199.777 9.08771 204.917 14.1227 204.917 20.3118V39.7497Z" fill="#113151"/>
<path d="M39.528 154.04H20.5409C11.2874 154.04 3.44789 160.153 0.941463 168.509C0.68226 169.374 0.479926 170.262 0.33925 171.17C0.184207 172.172 0.103394 173.198 0.103394 174.243V193.681C0.103394 204.827 9.27426 213.89 20.5409 213.89L30.0344 213.892L39.528 213.89C50.794 213.89 59.9655 204.826 59.9655 193.68V174.243C59.9655 163.103 50.7946 154.04 39.528 154.04ZM50.9862 193.681C50.9862 199.873 45.8464 204.911 39.5256 204.911L30.0344 204.913L20.5433 204.91C14.2225 204.91 9.08271 199.872 9.08271 193.681V174.243C9.08271 172.309 9.58435 170.488 10.4673 168.897C11.3174 167.366 12.52 166.05 13.968 165.053C15.8298 163.771 18.0967 163.019 20.5403 163.019H39.528C45.8464 163.019 50.9862 168.054 50.9862 174.243V193.681Z" fill="#113151"/>
<path d="M24.2238 42.8622C20.3524 42.8622 17.2032 39.7754 17.2032 35.9846V24.0811C17.2032 22.8968 17.5111 21.7824 18.0501 20.8072C18.5707 19.8688 19.3075 19.0622 20.1949 18.4536C21.3348 17.6691 22.7242 17.207 24.2199 17.207H35.8487C39.7164 17.207 42.8656 20.2903 42.8656 24.0808V35.9843C42.8656 39.7749 39.7167 42.8619 35.8487 42.8619H30.0344H24.2238V42.8622Z" fill="#113151"/>
<path d="M178.155 42.8622C174.283 42.8622 171.134 39.7754 171.134 35.9846V24.0811C171.134 22.8968 171.442 21.7824 171.981 20.8072C172.502 19.8688 173.239 19.0622 174.126 18.4536C175.266 17.6691 176.655 17.207 178.151 17.207H189.78C193.647 17.207 196.797 20.2903 196.797 24.0808V35.9843C196.797 39.7749 193.648 42.8619 189.78 42.8619H183.965H178.155V42.8622Z" fill="#113151"/>
<path d="M24.2238 196.793C20.3524 196.793 17.2032 193.707 17.2032 189.916V178.012C17.2032 176.828 17.5111 175.714 18.0501 174.738C18.5707 173.8 19.3075 172.993 20.1949 172.385C21.3348 171.6 22.7242 171.138 24.2199 171.138H35.8487C39.7164 171.138 42.8656 174.221 42.8656 178.012V189.915C42.8656 193.706 39.7167 196.793 35.8487 196.793H30.0344H24.2238V196.793Z" fill="#113151"/>
</svg>
