<svg width="130" height="130" viewBox="0 0 130 130" fill="none" xmlns="http://www.w3.org/2000/svg">
<path d="M74.3971 5.86066H55.6029C24.8942 5.86066 0 30.7549 0 61.4636L22.765 67.5586L74.3971 5.86066Z" fill="url(#paint0_radial_302_3634)"/>
<path d="M18.7941 61.4636H0C0 92.1723 24.8942 117.067 55.6029 117.067H74.3971L18.7941 61.4636Z" fill="url(#paint1_radial_302_3634)"/>
<path d="M74.3969 117.067C105.106 117.067 130 92.1722 130 61.4636C130 30.7549 105.106 5.86066 74.3969 5.86066C43.6882 5.86066 18.7939 30.7549 18.7939 61.4636C18.7939 92.1722 43.6882 117.067 74.3969 117.067Z" fill="url(#paint2_radial_302_3634)"/>
<path d="M65.5788 124.139C97.4623 124.139 123.309 120.973 123.309 117.067H7.84863C7.84863 120.973 33.6953 124.139 65.5788 124.139Z" fill="url(#paint3_radial_302_3634)"/>
<path d="M74.3972 79.395C85.1265 79.395 95.0852 83.1632 103.32 89.603C104.146 90.2487 105.218 89.1757 104.576 88.3469C97.1911 78.8163 86.408 72.8089 74.3972 72.8089C62.3864 72.8089 51.6033 78.8166 44.2184 88.3469C43.5763 89.1754 44.6485 90.2487 45.4742 89.603C53.7092 83.1632 63.6676 79.395 74.3972 79.395Z" fill="url(#paint4_radial_302_3634)"/>
<path d="M56.6235 64.4973C53.4304 64.4973 50.8418 61.9087 50.8418 58.7156V43.9862C50.8418 40.7931 53.4304 38.2045 56.6235 38.2045C59.8166 38.2045 62.4052 40.7931 62.4052 43.9862V58.7156C62.4049 61.9087 59.8166 64.4973 56.6235 64.4973Z" fill="url(#paint5_radial_302_3634)"/>
<path d="M92.1704 64.4973C88.9772 64.4973 86.3887 61.9087 86.3887 58.7156V43.9862C86.3887 40.7931 88.9772 38.2045 92.1704 38.2045C95.3635 38.2045 97.9521 40.7931 97.9521 43.9862V58.7156C97.9521 61.9087 95.3635 64.4973 92.1704 64.4973Z" fill="url(#paint6_radial_302_3634)"/>
<defs>
<radialGradient id="paint0_radial_302_3634" cx="0" cy="0" r="1" gradientUnits="userSpaceOnUse" gradientTransform="translate(18.4366 16.1334) rotate(-45) scale(57.3802 44.8816)">
<stop offset="0.0132" stop-color="#FFF3A9"/>
<stop offset="0.6064" stop-color="#F9EFAF"/>
<stop offset="0.7207" stop-color="#F9EEAB"/>
<stop offset="0.8394" stop-color="#F8EC9E"/>
<stop offset="0.9597" stop-color="#F7E98A"/>
<stop offset="1" stop-color="#F6E781"/>
</radialGradient>
<radialGradient id="paint1_radial_302_3634" cx="0" cy="0" r="1" gradientUnits="userSpaceOnUse" gradientTransform="translate(-4.64827 64.9731) scale(102.976 67.964)">
<stop stop-color="#F6E266"/>
<stop offset="0.1349" stop-color="#F5DC60"/>
<stop offset="0.3156" stop-color="#F0CB51"/>
<stop offset="0.5216" stop-color="#E9AF37"/>
<stop offset="0.5854" stop-color="#E7A52E"/>
<stop offset="1" stop-color="#E7A52E"/>
</radialGradient>
<radialGradient id="paint2_radial_302_3634" cx="0" cy="0" r="1" gradientUnits="userSpaceOnUse" gradientTransform="translate(84.9299 68.0098) scale(94.7939)">
<stop stop-color="#F6E266"/>
<stop offset="0.377" stop-color="#F4DD45"/>
<stop offset="0.4963" stop-color="#F2D340"/>
<stop offset="0.6976" stop-color="#ECB934"/>
<stop offset="0.8996" stop-color="#E49824"/>
</radialGradient>
<radialGradient id="paint3_radial_302_3634" cx="0" cy="0" r="1" gradientUnits="userSpaceOnUse" gradientTransform="translate(64.8258 117.28) scale(55.3968 6.66427)">
<stop stop-color="#ECB780"/>
<stop offset="0.3347" stop-color="#FADDB9"/>
<stop offset="0.4962" stop-color="#FFECD0"/>
<stop offset="0.888" stop-color="white"/>
</radialGradient>
<radialGradient id="paint4_radial_302_3634" cx="0" cy="0" r="1" gradientUnits="userSpaceOnUse" gradientTransform="translate(83.8816 88.7478) rotate(180) scale(40.757 17.8516)">
<stop stop-color="#D8AA8B"/>
<stop offset="0.2127" stop-color="#CC9772"/>
<stop offset="0.5905" stop-color="#B16E3D"/>
<stop offset="0.6258" stop-color="#AD6B3B"/>
<stop offset="1" stop-color="#804F2B"/>
</radialGradient>
<radialGradient id="paint5_radial_302_3634" cx="0" cy="0" r="1" gradientUnits="userSpaceOnUse" gradientTransform="translate(64.0591 58.8977) scale(15.4014 28.3233)">
<stop stop-color="#C6865C"/>
<stop offset="0.4963" stop-color="#C17D4F"/>
<stop offset="0.7528" stop-color="#A86B3F"/>
<stop offset="1" stop-color="#8B572E"/>
</radialGradient>
<radialGradient id="paint6_radial_302_3634" cx="0" cy="0" r="1" gradientUnits="userSpaceOnUse" gradientTransform="translate(99.7898 59.5097) scale(15.4014 28.3233)">
<stop stop-color="#C6865C"/>
<stop offset="0.5808" stop-color="#C17D4F"/>
<stop offset="0.7775" stop-color="#AA6D41"/>
<stop offset="1" stop-color="#8B572E"/>
</radialGradient>
</defs>
</svg>
