<svg width="24" height="24" viewBox="0 0 24 24" fill="none" xmlns="http://www.w3.org/2000/svg">
<g clip-path="url(#clip0_178_2337)">
<path d="M3.0181 3.01809C4.96435 1.07184 7.55199 0 10.3043 0C13.0567 0 15.6443 1.07184 17.5905 3.01809C19.5368 4.9643 20.6086 7.55194 20.6086 10.3043C20.6086 12.8206 19.7122 15.199 18.0712 17.0757L23.7938 22.7984C24.0687 23.0733 24.0687 23.5189 23.7938 23.7938C23.6564 23.9312 23.4763 24 23.2962 24C23.1161 24 22.9359 23.9313 22.7985 23.7938L17.0758 18.0712C15.1991 19.7121 12.8207 20.6086 10.3043 20.6086C7.55194 20.6086 4.96439 19.5368 3.01814 17.5905C1.07194 15.6443 9.53674e-05 13.0567 9.53674e-05 10.3043C9.53674e-05 7.55194 1.07189 4.9643 3.0181 3.01809ZM4.01353 16.5951C7.48233 20.0639 13.1263 20.0639 16.5951 16.5951C20.0639 13.1264 20.0639 7.48228 16.5951 4.01353C14.8605 2.27897 12.5828 1.41197 10.3043 1.41197C8.02636 1.41197 5.74767 2.27939 4.01349 4.01353C0.54483 7.48223 0.54483 13.1263 4.01353 16.5951Z" fill="black"/>
</g>
<defs>
<clipPath id="clip0_178_2337">
<rect width="24" height="24" fill="white"/>
</clipPath>
</defs>
</svg>
