<svg width="24" height="24" viewBox="0 0 24 24" fill="none" xmlns="http://www.w3.org/2000/svg">
<g clip-path="url(#clip0_232_3348)">
<path d="M18.7796 12.2074L19.455 10.5981C19.6053 10.24 19.4368 9.82786 19.0788 9.67763C18.7207 9.52734 18.3086 9.69586 18.1583 10.0538L17.4708 11.692C17.4542 11.7245 17.4395 11.758 17.4285 11.7929L16.7532 13.402C16.6029 13.7601 16.7714 14.1722 17.1295 14.3224C17.2183 14.3597 17.3106 14.3774 17.4013 14.3774C17.676 14.3774 17.9369 14.2154 18.0499 13.9462L18.7375 12.3079C18.7541 12.2755 18.7687 12.2422 18.7796 12.2074Z" fill="#4F4F4F"/>
<path d="M23.472 12C23.472 9.27839 21.436 7.02361 18.8073 6.67814V0.703125C18.8073 0.314812 18.4924 0 18.1041 0H5.49789C5.31138 0 5.13255 0.0741094 5.00069 0.206016L0.733754 4.47352C0.601941 4.60533 0.527832 4.7842 0.527832 4.97062V23.2969C0.527832 23.6852 0.842644 24 1.23096 24H18.1041C18.4924 24 18.8073 23.6852 18.8073 23.2969V17.3219C21.436 16.9764 23.472 14.7216 23.472 12ZM4.79477 2.4008V4.26698H2.92886L4.79477 2.4008ZM1.93408 22.5938V5.67319H5.49789C5.88621 5.67319 6.20102 5.35838 6.20102 4.97006V1.40625H17.401V6.67814C14.7722 7.02361 12.7362 9.27839 12.7362 12C12.7362 14.7216 14.7722 16.9764 17.401 17.3219V22.5938H1.93408ZM18.1041 15.9617C15.9197 15.9617 14.1424 14.1845 14.1424 12C14.1424 9.81548 15.9197 8.03831 18.1041 8.03831C20.2886 8.03831 22.0658 9.81548 22.0658 12C22.0658 14.1845 20.2886 15.9617 18.1041 15.9617Z" fill="#4F4F4F"/>
<path d="M16.1607 10.3359C15.793 10.3359 15.4406 10.6593 15.4576 11.039C15.4747 11.42 15.7666 11.7421 16.1607 11.7421C16.5285 11.7421 16.8809 11.4188 16.8639 11.039C16.8468 10.6581 16.5549 10.3359 16.1607 10.3359Z" fill="#4F4F4F"/>
<path d="M20.0475 12.2579C19.6797 12.2579 19.3273 12.5812 19.3443 12.961C19.3614 13.3419 19.6533 13.6641 20.0475 13.6641C20.4152 13.6641 20.7676 13.3407 20.7506 12.961C20.7335 12.58 20.4416 12.2579 20.0475 12.2579Z" fill="#4F4F4F"/>
<path d="M4.51074 8.48569H12.3501C12.7384 8.48569 13.0532 8.17087 13.0532 7.78256C13.0532 7.39425 12.7384 7.07944 12.3501 7.07944H4.51074C4.12243 7.07944 3.80762 7.39425 3.80762 7.78256C3.80762 8.17087 4.12238 8.48569 4.51074 8.48569Z" fill="#4F4F4F"/>
<path d="M4.51074 11.2984H10.8031C11.1914 11.2984 11.5062 10.9836 11.5062 10.5952C11.5062 10.2069 11.1914 9.89212 10.8031 9.89212H4.51074C4.12243 9.89212 3.80762 10.2069 3.80762 10.5952C3.80762 10.9836 4.12238 11.2984 4.51074 11.2984Z" fill="#4F4F4F"/>
<path d="M4.51074 14.1111H10.8031C11.1914 14.1111 11.5062 13.7963 11.5062 13.4079C11.5062 13.0196 11.1914 12.7048 10.8031 12.7048H4.51074C4.12243 12.7048 3.80762 13.0196 3.80762 13.4079C3.80762 13.7963 4.12238 14.1111 4.51074 14.1111Z" fill="#4F4F4F"/>
<path d="M13.0532 16.2206C13.0532 15.8323 12.7384 15.5175 12.3501 15.5175H4.51074C4.12243 15.5175 3.80762 15.8323 3.80762 16.2206C3.80762 16.6089 4.12243 16.9237 4.51074 16.9237H12.3501C12.7384 16.9237 13.0532 16.6089 13.0532 16.2206Z" fill="#4F4F4F"/>
<path d="M15.2726 19.7365H12.0273C11.639 19.7365 11.3242 20.0513 11.3242 20.4396C11.3242 20.8279 11.639 21.1427 12.0273 21.1427H15.2726C15.661 21.1427 15.9758 20.8279 15.9758 20.4396C15.9758 20.0513 15.661 19.7365 15.2726 19.7365Z" fill="#4F4F4F"/>
</g>
<defs>
<clipPath id="clip0_232_3348">
<rect width="24" height="24" fill="white"/>
</clipPath>
</defs>
</svg>
