<svg width="32" height="32" viewBox="0 0 32 32" fill="none" xmlns="http://www.w3.org/2000/svg">
<g clip-path="url(#clip0_121_1319)">
<path d="M31.8587 6.84598C31.6695 6.53823 31.3234 6.36379 30.963 6.39504L29.3674 6.53404L30.8925 3.45947C31.0742 3.09329 31.0024 2.6521 30.7142 2.36228C30.4258 2.07247 29.985 1.9986 29.618 2.17835L25.5813 4.15529C23.0873 2.83866 19.9715 3.22947 17.8275 5.18254C16.0381 6.81254 15.0976 9.31924 15.273 11.819C10.5961 11.3502 6.63737 8.6733 4.29649 4.34791C4.14118 4.06098 3.84999 3.87329 3.52455 3.85022C3.19849 3.82754 2.88437 3.97204 2.69024 4.23435C1.23836 6.19573 1.13649 8.88499 2.27468 11.0974C1.96093 11.0182 1.62705 10.9109 1.2568 10.7872C0.939612 10.6812 0.589924 10.7491 0.335361 10.9661C0.0807977 11.1831 -0.0415775 11.5176 0.0128601 11.8476C0.463236 14.5781 2.05549 16.6766 4.57074 17.9188C4.24324 18.0328 3.90905 18.1254 3.56924 18.1963C3.23162 18.2666 2.95824 18.5136 2.85418 18.8424C2.75012 19.1712 2.83149 19.5306 3.06712 19.7824C4.87843 21.7185 7.49494 22.6715 9.35344 23.1286C7.24031 24.7834 4.95924 25.0603 1.64461 24.9465C1.26092 24.9349 0.907424 25.151 0.746112 25.4988C0.584861 25.8467 0.647424 26.2573 0.905112 26.5414C2.28686 28.0645 7.321 29.7818 12.613 29.9106C12.8223 29.9157 13.0358 29.9184 13.2538 29.9184C16.9695 29.9183 21.8802 29.1218 25.405 25.597C28.073 22.9291 29.7417 19.8578 30.3648 16.4687C30.868 13.7314 30.55 11.5394 30.3972 10.4859C30.3859 10.4084 30.3739 10.3262 30.3642 10.2544L31.8567 7.84873C32.0471 7.54186 32.0479 7.15373 31.8587 6.84598ZM28.5084 10.7599C28.7915 12.7114 29.6531 18.6499 24.0555 24.2475C20.8018 27.5011 16.0625 28.0854 12.6594 28.0027C9.75557 27.9321 7.15819 27.3767 5.27568 26.7433C6.04 26.6496 6.72112 26.505 7.36406 26.3051C9.1365 25.7542 10.6339 24.7629 12.0763 23.1855C12.3167 22.9225 12.3906 22.5476 12.268 22.2131C12.1454 21.8786 11.8467 21.6403 11.4933 21.595C10.5834 21.4784 7.84925 21.0181 5.69625 19.533C6.31668 19.2793 6.91506 18.9617 7.48644 18.5827C7.79987 18.3747 7.962 18.0021 7.90025 17.631C7.83856 17.26 7.56475 16.9597 7.20087 16.8643C5.43868 16.4023 3.31193 15.3686 2.33124 13.0609C2.95749 13.1706 3.63843 13.1972 4.36468 13.0344C4.70131 12.959 4.97106 12.7077 5.07006 12.3772C5.16912 12.0467 5.08212 11.6885 4.84249 11.4404C3.62224 10.1765 3.16593 8.35511 3.55743 6.79654C4.83956 8.67036 6.46387 10.2474 8.32488 11.4133C10.7056 12.9049 13.4842 13.7292 16.3605 13.7969C16.6532 13.8031 16.934 13.6753 17.1203 13.4486C17.3066 13.2219 17.3782 12.9221 17.3145 12.6356C16.8196 10.4109 17.5255 8.0393 19.1127 6.59348C20.759 5.09379 23.192 4.86629 25.0293 6.0406C25.3099 6.21992 25.6638 6.23998 25.963 6.09348L27.9343 5.12798L26.9025 7.20804C26.7492 7.51711 26.7746 7.88486 26.969 8.1698C27.1634 8.45473 27.496 8.61292 27.8402 8.58274L29.2303 8.46167L28.5899 9.49386C28.375 9.8403 28.4195 10.1477 28.5084 10.7599Z" fill="white"/>
</g>
<defs>
<clipPath id="clip0_121_1319">
<rect width="32" height="32" fill="white"/>
</clipPath>
</defs>
</svg>
