<svg width="28" height="32" viewBox="0 0 28 32" fill="none" xmlns="http://www.w3.org/2000/svg">
<path d="M13.772 15.4145C15.8896 15.4145 17.7231 14.655 19.2217 13.1565C20.7197 11.6582 21.4795 9.82493 21.4795 7.70702C21.4795 5.58983 20.72 3.75634 19.2214 2.25756C17.7229 0.75952 15.8894 0 13.772 0C11.6541 0 9.8208 0.75952 8.32251 2.25781C6.82422 3.7561 6.06445 5.58959 6.06445 7.70702C6.06445 9.82493 6.82422 11.6584 8.32251 13.1567C9.82129 14.6548 11.6548 15.4145 13.772 15.4145ZM9.64868 3.58373C10.7983 2.43408 12.147 1.87524 13.772 1.87524C15.3967 1.87524 16.7456 2.43408 17.8955 3.58373C19.0452 4.73363 19.6042 6.08251 19.6042 7.70702C19.6042 9.33201 19.0452 10.6806 17.8955 11.8305C16.7456 12.9804 15.3967 13.5393 13.772 13.5393C12.1475 13.5393 10.7988 12.9802 9.64868 11.8305C8.49878 10.6809 7.9397 9.33201 7.9397 7.70702C7.9397 6.08251 8.49878 4.73363 9.64868 3.58373Z" fill="white"/>
<path d="M27.2581 24.6064C27.2148 23.9829 27.1274 23.3027 26.9988 22.5844C26.8689 21.8608 26.7017 21.1767 26.5015 20.5515C26.2944 19.9052 26.0134 19.2671 25.6655 18.6555C25.3049 18.0207 24.8811 17.468 24.4055 17.0132C23.9082 16.5373 23.2993 16.1548 22.5952 15.8757C21.8936 15.5981 21.116 15.4575 20.2842 15.4575C19.9575 15.4575 19.6416 15.5915 19.0315 15.9887C18.656 16.2336 18.2168 16.5168 17.7266 16.83C17.3074 17.0971 16.7395 17.3474 16.0381 17.5739C15.3538 17.7954 14.6589 17.9077 13.9729 17.9077C13.2874 17.9077 12.5925 17.7954 11.9077 17.5739C11.207 17.3476 10.6389 17.0974 10.2205 16.8303C9.73486 16.52 9.29541 16.2368 8.91431 15.9885C8.30469 15.5913 7.98877 15.4572 7.66211 15.4572C6.83008 15.4572 6.05273 15.5981 5.35132 15.8759C4.64771 16.1545 4.03857 16.5371 3.54077 17.0134C3.06519 17.4685 2.64136 18.021 2.28101 18.6555C1.93359 19.2671 1.65234 19.905 1.44531 20.5517C1.24536 21.177 1.07812 21.8608 0.948242 22.5844C0.819336 23.3017 0.732178 23.9821 0.688965 24.6071C0.646484 25.2182 0.625 25.8542 0.625 26.4968C0.625 28.1672 1.15601 29.5195 2.20312 30.5168C3.2373 31.5009 4.60547 31.9999 6.26978 31.9999H21.678C23.3418 31.9999 24.71 31.5009 25.7444 30.5168C26.7917 29.5202 27.3228 28.1674 27.3228 26.4965C27.3225 25.8518 27.3008 25.2158 27.2581 24.6064ZM24.4514 29.1581C23.7681 29.8085 22.8608 30.1247 21.6777 30.1247H6.26978C5.08643 30.1247 4.1792 29.8085 3.49609 29.1584C2.82593 28.5205 2.50024 27.6496 2.50024 26.4968C2.50024 25.8972 2.52002 25.3051 2.55957 24.7368C2.59814 24.1792 2.677 23.5666 2.79395 22.9157C2.90942 22.2729 3.0564 21.6696 3.2312 21.1235C3.39893 20.5998 3.62769 20.0813 3.91138 19.5817C4.18213 19.1057 4.49365 18.6972 4.8374 18.3681C5.15894 18.0603 5.56421 17.8083 6.04175 17.6194C6.4834 17.4445 6.97974 17.3488 7.51855 17.3344C7.58423 17.3694 7.70117 17.436 7.89062 17.5595C8.27612 17.8108 8.72046 18.0974 9.21167 18.4111C9.76538 18.7641 10.4788 19.083 11.3311 19.3581C12.2024 19.6399 13.0911 19.7829 13.9731 19.7829C14.8552 19.7829 15.7441 19.6399 16.615 19.3584C17.468 19.0827 18.1812 18.7641 18.7356 18.4106C19.2383 18.0893 19.6702 17.811 20.0557 17.5595C20.2451 17.4362 20.3621 17.3694 20.4277 17.3344C20.9668 17.3488 21.4631 17.4445 21.905 17.6194C22.3823 17.8083 22.7876 18.0605 23.1091 18.3681C23.4529 18.697 23.7644 19.1054 24.0352 19.582C24.3191 20.0813 24.5481 20.6001 24.7156 21.1233C24.8906 21.6701 25.0378 22.2731 25.1531 22.9155C25.2698 23.5676 25.3489 24.1804 25.3875 24.737C25.4272 25.3032 25.4473 25.8955 25.4475 26.4968C25.4473 27.6498 25.1216 28.5205 24.4514 29.1581Z" fill="white"/>
</svg>
