<svg width="259" height="175" viewBox="0 0 259 175" fill="none" xmlns="http://www.w3.org/2000/svg">
<g clip-path="url(#clip0_424_5070)">
<path d="M147.489 19.6646C148.006 23.1514 147.477 26.7132 145.968 29.8989C144.459 33.0845 142.039 35.7507 139.013 37.5597C135.988 39.3688 132.494 40.2393 128.974 40.0611C125.453 39.8829 122.065 38.664 119.238 36.5586C116.411 34.4533 114.272 31.5563 113.092 28.2346C111.913 24.9129 111.746 21.3158 112.612 17.899C113.479 14.4822 115.339 11.3994 117.959 9.04101C120.579 6.6826 123.84 5.15469 127.328 4.65079C129.638 4.31271 131.991 4.43288 134.255 5.00444C136.518 5.576 138.646 6.58776 140.518 7.98194C142.391 9.37612 143.97 11.1254 145.166 13.1299C146.362 15.1345 147.152 17.355 147.489 19.6646Z" fill="#F5F5F5"/>
<path d="M143.3 20.275C143.692 22.9312 143.287 25.6439 142.136 28.0697C140.986 30.4955 139.141 32.5253 136.836 33.9023C134.531 35.2793 131.87 35.9415 129.188 35.8051C126.507 35.6686 123.926 34.7397 121.773 33.1359C119.62 31.5321 117.991 29.3256 117.092 26.7955C116.193 24.2654 116.066 21.5257 116.725 18.923C117.384 16.3203 118.801 13.9717 120.796 12.1745C122.79 10.3773 125.273 9.21234 127.93 8.82703C131.486 8.31142 135.101 9.2271 137.982 11.3732C140.864 13.5193 142.776 16.7207 143.3 20.275Z" fill="#EBEBEB"/>
<path d="M143.237 19.8553C143.156 19.8553 143.012 19.2872 142.647 18.2908C142.137 16.8919 141.413 15.5804 140.502 14.4027C139.877 13.6008 139.166 12.87 138.382 12.2233C137.475 11.4886 136.477 10.873 135.414 10.3916C134.841 10.1296 134.25 9.90998 133.646 9.73443C132.362 9.36165 131.03 9.18441 129.694 9.20867C128.295 9.2357 126.908 9.48178 125.585 9.93795C124.944 10.161 124.321 10.4317 123.72 10.7478C123.14 11.0519 122.584 11.4006 122.058 11.7908C121.549 12.1618 121.07 12.5715 120.625 13.0162C119.059 14.5479 117.895 16.4407 117.233 18.5282C116.782 19.9473 116.553 21.4276 116.554 22.9166C116.554 23.9808 116.622 24.5744 116.554 24.5872C116.486 24.5999 116.291 24.0275 116.164 22.942C116.001 21.3931 116.128 19.8274 116.537 18.3247C116.814 17.2888 117.209 16.2886 117.716 15.344C118.318 14.2582 119.066 13.2597 119.938 12.376C120.408 11.8902 120.915 11.4422 121.456 11.0361C122.016 10.606 122.61 10.2217 123.232 9.88707C123.876 9.53743 124.547 9.23969 125.238 8.99667C125.951 8.7528 126.68 8.56148 127.421 8.42427C128.165 8.29736 128.918 8.22649 129.673 8.21227C130.405 8.20017 131.137 8.24838 131.861 8.35643C132.559 8.45528 133.248 8.61128 133.921 8.82283C134.568 9.0051 135.199 9.23905 135.808 9.52243C137.921 10.5258 139.741 12.056 141.091 13.966C141.987 15.2368 142.64 16.663 143.016 18.172C143.287 19.2363 143.296 19.8468 143.237 19.8553Z" fill="#E0E0E0"/>
<path d="M132.56 30.0102L132.934 32.3464L130.847 32.6772L130.487 30.4088C128.405 30.6123 126.319 30.2858 125.03 29.5608L125.772 26.8344C127.1 27.4864 128.575 27.7788 130.05 27.6824L129.491 24.2056C127.091 24.0148 124.381 23.6544 123.907 20.678C123.555 18.4689 124.852 16.315 128.083 15.4161L127.714 13.1011L129.796 12.7661L130.161 15.0388C131.664 14.8831 133.182 15.0865 134.591 15.6324L133.96 18.3629C132.89 17.9497 131.748 17.7537 130.602 17.7863L131.17 21.3309C133.565 21.5005 136.232 21.8652 136.703 24.8035C137.051 26.9659 135.766 29.0944 132.56 30.0102ZM129.024 21.1401L128.549 18.1721C127.485 18.5961 127.146 19.2745 127.256 19.9614C127.366 20.6483 128.036 20.996 129.024 21.1401ZM133.408 25.5836C133.294 24.8544 132.624 24.5576 131.678 24.388L132.141 27.2627C133.124 26.8684 133.493 26.2536 133.387 25.5836H133.408Z" fill="#E0E0E0"/>
<path d="M240.405 96.328C240.405 96.328 236.457 94.0469 232.374 103.405C228.291 112.762 226.862 118.1 226.862 118.1C226.862 118.1 225.751 120.076 224.373 118.915C222.995 117.753 220.981 114.327 218.806 115.099C216.542 115.896 215.94 118.512 216.606 122.26C217.271 126.008 218.429 134.285 218.531 135.031C218.632 135.777 218.276 136.879 217.208 136.235C216.139 135.59 209.843 129.379 207.07 132.542C204.297 135.705 207.871 145.851 208.244 146.958C208.617 148.065 208.418 148.573 207.897 148.887C207.375 149.201 205.454 146.911 203.593 145.215C201.732 143.519 199.273 141.883 197.827 143.841C196.381 145.8 196.347 153.593 204.475 165.711L208.609 171.088L215.393 170.303C229.771 167.759 235.351 162.324 235.745 159.924C236.139 157.524 233.269 156.888 230.759 156.723C228.249 156.557 225.247 156.761 225.128 156.167C225.009 155.574 225.217 155.09 226.277 154.581C227.337 154.073 237.123 149.612 237.479 145.419C237.835 141.225 228.999 141.005 227.786 140.683C226.574 140.36 227.138 139.33 227.736 138.893C228.333 138.457 235.109 133.543 238.272 131.423C241.435 129.303 242.902 127.051 241.906 124.867C240.947 122.747 237.093 123.693 235.3 123.506C233.506 123.32 234.155 121.149 234.155 121.149C234.155 121.149 237.004 116.409 240.914 106.979C244.823 97.5492 240.328 96.2814 240.328 96.2814" fill="#EBEBEB"/>
<path d="M208.859 169.68C211.759 162.765 215.842 153.25 220.387 142.748C224.933 132.245 229.041 122.748 231.975 115.849L235.448 107.679L236.393 105.457L236.644 104.884C236.703 104.753 236.737 104.689 236.737 104.689C236.718 104.759 236.696 104.827 236.669 104.893L236.436 105.474C236.228 105.995 235.923 106.746 235.533 107.713C234.744 109.654 233.582 112.457 232.141 115.913C229.228 122.828 225.145 132.368 220.608 142.841C216.071 153.314 211.954 162.85 209.02 169.744" fill="#E0E0E0"/>
<path d="M221.41 119.979C221.495 120.12 221.563 120.271 221.613 120.428C221.728 120.721 221.885 121.149 222.075 121.7C222.448 122.765 222.923 124.244 223.419 125.894L224.691 130.113C224.844 130.613 224.971 131.037 225.077 131.385C225.136 131.537 225.176 131.697 225.196 131.859C225.11 131.72 225.042 131.57 224.992 131.414C224.874 131.117 224.717 130.689 224.535 130.142C224.17 129.074 223.716 127.598 223.22 125.94L221.948 121.734L221.558 120.462C221.485 120.309 221.435 120.147 221.41 119.979Z" fill="#E0E0E0"/>
<path d="M225.802 131.944C225.802 131.885 228.796 130.766 232.531 129.443C236.267 128.12 239.315 127.098 239.315 127.162C239.315 127.225 236.322 128.34 232.586 129.663C228.851 130.986 225.823 131.987 225.802 131.944Z" fill="#E0E0E0"/>
<path d="M218.098 147.729C218.261 147.691 218.427 147.672 218.594 147.674L219.955 147.594C221.1 147.526 222.686 147.424 224.428 147.25C226.171 147.076 227.744 146.877 228.88 146.716L230.229 146.534C230.393 146.499 230.561 146.485 230.729 146.491C230.575 146.556 230.412 146.601 230.246 146.623C229.932 146.691 229.474 146.78 228.906 146.881C227.774 147.081 226.201 147.305 224.45 147.484C222.699 147.662 221.113 147.729 219.959 147.755C219.383 147.755 218.921 147.755 218.598 147.755C218.431 147.769 218.263 147.76 218.098 147.729Z" fill="#E0E0E0"/>
<path d="M211.742 137.804C211.742 137.804 211.861 137.922 212.035 138.164C212.209 138.406 212.459 138.753 212.76 139.194C213.358 140.068 214.176 141.289 215.066 142.642C215.957 143.994 216.762 145.228 217.322 146.127C217.606 146.576 217.831 146.945 217.983 147.2C218.072 147.332 218.145 147.474 218.2 147.624C218.086 147.517 217.988 147.396 217.907 147.263C217.733 147.021 217.483 146.67 217.182 146.233C216.584 145.355 215.766 144.138 214.876 142.781C213.985 141.425 213.18 140.195 212.62 139.296C212.336 138.847 212.111 138.482 211.958 138.223C211.87 138.092 211.798 137.952 211.742 137.804Z" fill="#E0E0E0"/>
<path d="M203.169 150.893C203.304 151.035 203.427 151.19 203.534 151.355C203.779 151.707 204.093 152.148 204.466 152.673C205.242 153.793 206.302 155.349 207.46 157.07C208.617 158.792 209.656 160.365 210.398 161.505L211.267 162.866C211.382 163.029 211.48 163.202 211.56 163.384C211.421 163.241 211.298 163.085 211.191 162.917L210.262 161.599C209.487 160.479 208.427 158.927 207.265 157.202C206.103 155.476 205.068 153.907 204.326 152.767C203.979 152.224 203.69 151.766 203.457 151.406C203.342 151.246 203.245 151.074 203.169 150.893Z" fill="#E0E0E0"/>
<path d="M211.441 163.027C211.649 162.978 211.86 162.948 212.073 162.938L213.769 162.777C215.219 162.637 217.225 162.442 219.43 162.163C221.634 161.883 223.627 161.586 225.069 161.357L226.765 161.09C226.973 161.046 227.184 161.023 227.397 161.022C227.197 161.093 226.991 161.145 226.782 161.179C226.383 161.268 225.807 161.387 225.086 161.518C223.653 161.789 221.66 162.116 219.451 162.391C217.242 162.667 215.211 162.845 213.773 162.938C213.044 162.985 212.455 163.019 212.048 163.032C211.846 163.049 211.643 163.048 211.441 163.027Z" fill="#E0E0E0"/>
<path d="M89.7617 125.016L8.95156 99.8645C7.95414 99.554 7.12088 98.8601 6.63505 97.9354C6.14922 97.0107 6.05061 95.9308 6.36092 94.9333L21.9005 45.0243C22.0528 44.5284 22.3016 44.0675 22.6327 43.6681C22.9638 43.2688 23.3706 42.9388 23.8297 42.6972C24.2888 42.4557 24.7911 42.3073 25.3077 42.2606C25.8244 42.2139 26.3452 42.2698 26.8401 42.4252L107.655 67.5811C108.651 67.8915 109.483 68.5849 109.968 69.5089C110.453 70.4328 110.551 71.5117 110.241 72.508L94.6801 122.43C94.3706 123.425 93.6787 124.256 92.7564 124.741C91.8341 125.226 90.7569 125.325 89.7617 125.016Z" fill="#E0E0E0"/>
<path d="M94.2263 78.0623C93.8505 79.2679 93.1257 80.3351 92.1434 81.1288C91.1612 81.9226 89.9657 82.4072 88.708 82.5215C87.4503 82.6358 86.187 82.3746 85.0777 81.771C83.9685 81.1673 83.0632 80.2483 82.4762 79.1301C81.8893 78.0119 81.6471 76.7448 81.7802 75.489C81.9134 74.2332 82.4159 73.0451 83.2243 72.0748C84.0327 71.1046 85.1106 70.3959 86.3218 70.0383C87.5329 69.6806 88.8229 69.6902 90.0287 70.0656C90.8297 70.3145 91.5739 70.7189 92.2185 71.2556C92.8631 71.7924 93.3956 72.4509 93.7855 73.1937C94.1753 73.9364 94.4149 74.7487 94.4906 75.5841C94.5662 76.4195 94.4764 77.2616 94.2263 78.0623Z" fill="white"/>
<path d="M94.68 85.0498C94.2875 84.9984 93.9003 84.9133 93.5224 84.7954C91.9108 84.285 90.558 83.1728 89.7456 81.6903C88.9332 80.2078 88.7237 78.4691 89.1608 76.836C89.5979 75.203 90.6478 73.8014 92.0922 72.9228C93.5365 72.0443 95.264 71.7565 96.9151 72.1194C98.5662 72.4823 100.014 73.4679 100.957 74.8711C101.9 76.2743 102.265 77.987 101.977 79.6528C101.689 81.3186 100.77 82.8093 99.4107 83.8145C98.0515 84.8198 96.3571 85.2622 94.68 85.0498ZM96.2615 72.3722C95.1049 72.2272 93.9309 72.4151 92.8774 72.9139C91.8238 73.4127 90.9344 74.2018 90.3136 75.1883C89.6928 76.1749 89.3663 77.3182 89.3725 78.4838C89.3787 79.6494 89.7172 80.7891 90.3485 81.7691C90.9797 82.7491 91.8773 83.5286 92.9361 84.0163C93.9949 84.5039 95.1708 84.6794 96.3258 84.5222C97.4808 84.3649 98.5669 83.8814 99.4568 83.1285C100.347 82.3755 101.003 81.3844 101.349 80.2713C101.831 78.72 101.677 77.041 100.922 75.603C100.167 74.1649 98.872 73.0853 97.3215 72.6011C96.9681 72.4948 96.6064 72.4182 96.2403 72.3722H96.2615Z" fill="white"/>
<path d="M19.4541 80.4406L17.9362 85.3421L17.4316 85.1852L18.8181 80.7332L17.6648 80.3728L17.8048 79.9233L19.4541 80.4406Z" fill="white"/>
<path d="M23.1088 86.4657L22.9689 86.9152L19.5303 85.8425L19.6448 85.4863L22.3032 84.1253C23.024 83.7479 23.2318 83.4511 23.3378 83.1161C23.5159 82.548 23.2233 82.0731 22.4898 81.8441C22.2445 81.7513 21.9814 81.7149 21.7201 81.7377C21.4588 81.7604 21.2059 81.8417 20.9804 81.9756L20.7175 81.5516C21.0114 81.3827 21.339 81.2808 21.6768 81.2529C22.0147 81.2251 22.3545 81.272 22.6721 81.3905C23.6685 81.7 24.1434 82.4038 23.889 83.2221C23.7406 83.6928 23.465 84.0701 22.617 84.4941L20.4376 85.6135L23.1088 86.4657Z" fill="white"/>
<path d="M28.5359 87.229L27.5522 86.928L27.1537 88.2L26.6491 88.0389L27.0477 86.7669L24.2832 85.9189L24.3934 85.5542L28.0059 83.1162L28.5656 83.2901L25.0718 85.6729L27.1918 86.3386L27.5438 85.2023L28.0314 85.3549L27.6794 86.4913L28.6589 86.7965L28.5359 87.229Z" fill="white"/>
<path d="M36.0496 89.5697L35.0702 89.2644L34.6674 90.5364L34.1628 90.3795L34.5656 89.1075L31.7969 88.2595L31.9114 87.8949L35.5196 85.4526L36.0793 85.6265L32.5898 88.0136L34.7098 88.675L35.0617 87.543L35.5535 87.6956L35.1974 88.8277L36.181 89.133L36.0496 89.5697Z" fill="white"/>
<path d="M40.3829 90.7482C40.1242 91.5962 39.3398 92.0542 38.1399 91.681C37.4882 91.5022 36.9298 91.0804 36.5796 90.5023L36.9485 90.1801C37.2377 90.6859 37.7145 91.0575 38.2756 91.2146C39.1236 91.4775 39.679 91.2146 39.8656 90.6126C40.0521 90.0105 39.7893 89.4678 38.5427 89.0777L37.4997 88.7554L38.5173 86.3726L41.2012 87.2206L41.0613 87.67L38.8183 86.9704L38.1654 88.4841L38.7971 88.6791C40.2726 89.1201 40.6542 89.8833 40.3829 90.7482Z" fill="white"/>
<path d="M45.2333 92.2364C44.9492 93.1565 44.0461 93.5084 43.1133 93.2244C41.8116 92.8004 41.3834 91.6937 41.8668 90.1461C42.384 88.4798 43.5628 87.8904 44.8984 88.306C45.3071 88.4147 45.6791 88.6315 45.9753 88.9335L45.6488 89.2769C45.411 89.0212 45.105 88.8388 44.7669 88.7512C43.7112 88.4204 42.8165 88.8911 42.4052 90.2224C42.3627 90.3547 42.3273 90.4892 42.2992 90.6252C42.525 90.3981 42.8122 90.2418 43.1255 90.1756C43.4388 90.1093 43.7647 90.1359 44.0631 90.2521C45.0128 90.5574 45.4962 91.3418 45.2333 92.2364ZM44.733 92.088C44.9323 91.4436 44.5846 90.8839 43.8299 90.6464C43.0752 90.409 42.4264 90.7185 42.2356 91.3249C42.066 91.8676 42.3586 92.5163 43.2024 92.7792C43.3472 92.8439 43.5042 92.8771 43.6628 92.8768C43.8215 92.8765 43.9782 92.8425 44.1228 92.7772C44.2674 92.712 44.3966 92.6168 44.5017 92.498C44.6069 92.3792 44.6857 92.2395 44.733 92.088Z" fill="white"/>
<path d="M51.9284 94.3818C51.6698 95.2002 50.8812 95.6538 49.6982 95.2765C49.0443 95.0976 48.4832 94.676 48.1294 94.0977L48.4983 93.7755C48.791 94.2862 49.2744 94.6597 49.8424 94.8143C50.6522 95.0687 51.2204 94.8143 51.4069 94.2207C51.5935 93.6271 51.2967 93.1183 50.3893 92.8342L50.0374 92.724L50.1519 92.3551L52.0429 91.0831L49.5328 90.303L49.6728 89.8535L52.8273 90.8372L52.7128 91.1934L50.7836 92.5077C51.8182 92.8809 52.1701 93.5974 51.9284 94.3818Z" fill="white"/>
<path d="M56.8595 95.8575C56.5754 96.7734 55.6723 97.1295 54.7183 96.8412C53.4166 96.4172 52.9884 95.3106 53.4717 93.763C53.989 92.0966 55.1677 91.5115 56.5033 91.927C56.9124 92.0352 57.2845 92.2521 57.5803 92.5546L57.2538 92.898C57.0164 92.6409 56.7104 92.457 56.3719 92.368C55.3119 92.0415 54.4215 92.5079 54.0102 93.8393C53.9671 93.9786 53.9317 94.1201 53.9042 94.2633C54.1289 94.0358 54.4151 93.8789 54.7277 93.8119C55.0403 93.7448 55.3657 93.7706 55.6638 93.8859C56.639 94.1742 57.1393 94.9586 56.8595 95.8575ZM56.3592 95.7134C56.5585 95.0731 56.2108 94.5092 55.4561 94.276C54.7013 94.0428 54.0526 94.3438 53.8618 94.9544C53.6922 95.4929 53.9805 96.1416 54.8285 96.4087C54.9737 96.4733 55.1309 96.5064 55.2898 96.5058C55.4486 96.5052 55.6056 96.4709 55.7502 96.4052C55.8949 96.3395 56.0239 96.2439 56.1289 96.1246C56.2339 96.0053 56.3124 95.8652 56.3592 95.7134Z" fill="white"/>
<path d="M62.4561 93.8222L62.3416 94.1783L58.8775 98.0876L58.3306 97.9138L61.7226 94.0978L59.204 93.3134L58.9157 94.2292L58.4196 94.0723L58.8436 92.707L62.4561 93.8222Z" fill="white"/>
<path d="M69.4522 96.0017L69.3419 96.3621L65.8736 100.267L65.3267 100.098L68.7187 96.2815L66.1747 95.4971L65.8906 96.4172L65.3903 96.2603L65.8143 94.895L69.4522 96.0017Z" fill="white"/>
<path d="M73.1749 101.043C72.9035 101.912 72.0004 102.222 70.8302 101.857C69.6599 101.493 69.1087 100.729 69.3801 99.8602C69.4619 99.58 69.6376 99.3365 69.8777 99.1705C70.1178 99.0045 70.4077 98.9262 70.6987 98.9486C70.4948 98.8043 70.3432 98.5978 70.2667 98.36C70.1903 98.1222 70.1931 97.866 70.2747 97.6299C70.5207 96.8328 71.3559 96.5487 72.3947 96.871C73.4335 97.1932 73.9678 97.9055 73.7219 98.7027C73.6532 98.9475 73.5061 99.163 73.3031 99.3162C73.1002 99.4694 72.8525 99.5518 72.5983 99.5507C72.8507 99.6958 73.0457 99.9232 73.1506 100.195C73.2556 100.467 73.2641 100.766 73.1749 101.043ZM72.6619 100.874C72.8484 100.271 72.4456 99.733 71.5764 99.4616C70.7072 99.1903 70.0797 99.4107 69.8804 100.013C69.6811 100.615 70.0839 101.162 70.9531 101.429C71.8223 101.696 72.4711 101.484 72.6619 100.874ZM71.7036 99.0631C72.4668 99.3005 73.0265 99.097 73.1919 98.567C73.3572 98.037 72.9883 97.5282 72.2506 97.295C71.5128 97.0618 70.9362 97.2526 70.7666 97.7995C70.597 98.3465 70.9362 98.8256 71.7036 99.0631Z" fill="white"/>
<path d="M78.2882 101.416C77.771 103.082 76.5923 103.667 75.2567 103.252C74.8472 103.145 74.4748 102.928 74.1797 102.624L74.5062 102.281C74.7422 102.539 75.0489 102.722 75.3881 102.807C76.4439 103.137 77.3385 102.671 77.7498 101.34C77.7879 101.225 77.8219 101.085 77.8558 100.916C77.63 101.143 77.3428 101.299 77.0295 101.365C76.7162 101.432 76.3903 101.405 76.0919 101.289C75.121 100.988 74.6207 100.199 74.9005 99.3045C75.1803 98.4098 76.0877 98.0325 77.0205 98.3208C78.3434 98.7236 78.7716 99.8472 78.2882 101.416ZM77.8982 100.225C78.0678 99.6861 77.7752 99.0331 76.9315 98.7702C76.7865 98.7063 76.6297 98.6735 76.4712 98.6742C76.3128 98.6749 76.1563 98.7089 76.0118 98.7741C75.8674 98.8393 75.7384 98.9342 75.6331 99.0526C75.5278 99.171 75.4487 99.3103 75.4008 99.4614C75.1973 100.106 75.545 100.67 76.3039 100.903C77.0629 101.136 77.7201 100.818 77.8982 100.208V100.225Z" fill="white"/>
<path d="M84.0124 100.534L82.486 105.44L81.9814 105.283L83.3679 100.827L82.2104 100.467L82.3503 100.017L84.0124 100.534Z" fill="white"/>
<path d="M87.6671 106.559L87.5272 107.009L84.0801 105.936L84.1903 105.58L86.8488 104.219C87.5738 103.846 87.7816 103.549 87.8876 103.21C88.0614 102.646 87.7731 102.171 87.0396 101.938C86.7945 101.844 86.5317 101.808 86.2704 101.83C86.0092 101.852 85.7562 101.932 85.5302 102.065L85.2715 101.641C85.5658 101.473 85.8935 101.371 86.2313 101.344C86.5692 101.317 86.9088 101.365 87.2262 101.484C88.2183 101.793 88.6932 102.493 88.4388 103.311C88.2904 103.782 88.0148 104.159 87.1668 104.583L84.9917 105.703L87.6671 106.559Z" fill="white"/>
<path d="M92.365 106.971C92.1106 107.789 91.3177 108.243 90.1305 107.865C89.4791 107.684 88.9203 107.263 88.5659 106.687L88.9348 106.364C89.2294 106.872 89.7099 107.244 90.2746 107.403C91.0887 107.658 91.6569 107.403 91.8434 106.81C92.03 106.216 91.7332 105.707 90.8258 105.423L90.4739 105.313L90.5884 104.944L92.4794 103.672L89.9694 102.892L90.1093 102.442L93.2638 103.422L93.1536 103.782L91.2202 105.092C92.2547 105.47 92.6066 106.186 92.365 106.971Z" fill="white"/>
<path d="M53.1438 100.291L52.481 102.42L91.7545 114.645L92.4174 112.516L53.1438 100.291Z" fill="white"/>
<path d="M70.9519 110.5L70.2891 112.63L90.4339 118.9L91.0968 116.771L70.9519 110.5Z" fill="white"/>
<g opacity="0.5">
<path d="M36.0854 67.4743L23.6203 63.5943C22.5113 63.2491 21.3325 63.8683 20.9873 64.9772L18.4052 73.2724C18.06 74.3814 18.6792 75.5603 19.7882 75.9055L32.2532 79.7855C33.3622 80.1307 34.5411 79.5115 34.8863 78.4026L37.4683 70.1074C37.8135 68.9984 37.1943 67.8195 36.0854 67.4743Z" fill="#EBEBEB"/>
</g>
<path d="M18.8394 71.8716L19.0853 71.083L27.5653 73.7245C27.8005 73.8045 28.0494 73.8366 28.2973 73.8189C28.5452 73.8012 28.787 73.7341 29.0085 73.6214C29.23 73.5088 29.4267 73.3529 29.587 73.163C29.7473 72.9731 29.868 72.7531 29.9419 72.5158C30.0158 72.2785 30.0414 72.0289 30.0173 71.7816C29.9931 71.5342 29.9197 71.2942 29.8014 71.0757C29.683 70.8572 29.5221 70.6646 29.3281 70.5093C29.1341 70.354 28.911 70.2391 28.6719 70.1714L20.1919 67.5299L20.4378 66.7412L28.9178 69.3827C29.2649 69.479 29.589 69.644 29.8711 69.8679C30.1531 70.0919 30.3873 70.3702 30.5597 70.6864C30.732 71.0026 30.8391 71.3503 30.8745 71.7087C30.91 72.0671 30.873 72.4289 30.7659 72.7728C30.6588 73.1166 30.4836 73.4354 30.2509 73.7102C30.0182 73.9851 29.7326 74.2104 29.4111 74.3727C29.0896 74.535 28.7388 74.6311 28.3795 74.6552C28.0202 74.6794 27.6596 74.631 27.3194 74.5131L18.8394 71.8716Z" fill="#E0E0E0"/>
<path d="M30.1538 72.7375L29.9058 73.5229L35.7021 75.3534L35.9501 74.5679L30.1538 72.7375Z" fill="#E0E0E0"/>
<path d="M69.0981 66.636L26.7153 53.4434L25.5837 57.0788L67.9665 70.2715L69.0981 66.636Z" fill="white"/>
<path d="M39.8694 148.688C40.1952 150.891 39.8599 153.142 38.906 155.155C37.9521 157.168 36.4225 158.852 34.5107 159.996C32.5989 161.139 30.3909 161.689 28.1662 161.577C25.9415 161.465 23.8002 160.695 22.0131 159.365C20.226 158.036 18.8737 156.206 18.1271 154.107C17.3806 152.008 17.2734 149.735 17.8193 147.576C18.3651 145.416 19.5394 143.467 21.1934 141.975C22.8475 140.483 24.907 139.515 27.1113 139.194C28.5723 138.98 30.0613 139.055 31.4932 139.416C32.9251 139.778 34.2719 140.417 35.4566 141.299C36.6413 142.18 37.6408 143.286 38.3979 144.554C39.1551 145.822 39.6551 147.227 39.8694 148.688Z" fill="#F5F5F5"/>
<path d="M37.2197 149.074C37.4681 150.754 37.2124 152.47 36.485 154.004C35.7577 155.539 34.5913 156.823 33.1337 157.695C31.676 158.566 29.9926 158.986 28.2965 158.9C26.6004 158.814 24.9679 158.227 23.6057 157.213C22.2434 156.199 21.2127 154.803 20.644 153.203C20.0752 151.603 19.9941 149.87 20.4108 148.223C20.8274 146.577 21.7232 145.091 22.9847 143.954C24.2462 142.817 25.8167 142.08 27.4974 141.836C29.7461 141.509 32.0329 142.087 33.8558 143.444C35.6786 144.801 36.8884 146.826 37.2197 149.074Z" fill="#EBEBEB"/>
<path d="M37.1771 148.806C37.0187 148.491 36.8936 148.16 36.804 147.819C36.4806 146.934 36.023 146.105 35.4472 145.359C34.3511 143.935 32.8307 142.896 31.1055 142.391C30.709 142.272 30.3034 142.186 29.8928 142.133C29.4713 142.076 29.0461 142.05 28.6208 142.056C28.1789 142.07 27.7384 142.112 27.3022 142.184C26.871 142.266 26.446 142.378 26.0302 142.519C25.6247 142.659 25.2307 142.831 24.8515 143.032C24.1332 143.413 23.4734 143.896 22.8926 144.465C22.3654 144.981 21.9078 145.564 21.5315 146.199C21.2038 146.755 20.9379 147.345 20.7387 147.958C20.456 148.856 20.313 149.791 20.3147 150.731C20.3549 151.084 20.3549 151.439 20.3147 151.791C20.1623 151.464 20.0786 151.109 20.0687 150.748C19.9692 149.768 20.0496 148.778 20.3062 147.827C20.4874 147.167 20.7434 146.53 21.0694 145.928C21.4516 145.237 21.925 144.601 22.4771 144.036C22.7736 143.729 23.094 143.445 23.4353 143.188C23.7905 142.918 24.1662 142.676 24.5589 142.463C24.9678 142.244 25.3931 142.057 25.8309 141.904C26.2822 141.749 26.7442 141.627 27.2131 141.539C27.684 141.458 28.1602 141.413 28.6378 141.403C29.1003 141.398 29.5625 141.429 30.02 141.497C30.4625 141.559 30.8993 141.656 31.3259 141.789C31.7343 141.915 32.1325 142.07 32.5174 142.256C33.854 142.89 35.0046 143.858 35.8585 145.067C36.4283 145.87 36.8451 146.771 37.0881 147.725C37.196 148.075 37.2264 148.444 37.1771 148.806Z" fill="#E0E0E0"/>
<path d="M30.423 155.23L30.6605 156.706L29.3418 156.918L29.1129 155.48C27.9373 155.633 26.7426 155.45 25.6658 154.955L26.1322 153.229C26.9732 153.635 27.9053 153.816 28.8373 153.755L28.4854 151.554C26.9632 151.436 25.2545 151.211 24.9534 149.324C24.7287 147.929 25.5513 146.568 27.595 145.996L27.3618 144.533L28.6762 144.321L28.9094 145.758C29.8603 145.66 30.8208 145.79 31.712 146.136L31.3134 147.861C30.6379 147.601 29.9173 147.477 29.1934 147.497L29.5538 149.74C31.0717 149.846 32.755 150.079 33.0518 151.936C33.2638 153.305 32.454 154.649 30.423 155.23ZM28.1758 149.621L27.8748 147.747C27.2006 148.018 26.9844 148.446 27.0565 148.879C27.1285 149.311 27.5653 149.528 28.1758 149.621ZM30.9488 152.432C30.8767 151.97 30.4527 151.783 29.8549 151.673L30.1474 153.492C30.7834 153.242 31.0166 152.852 30.9488 152.432Z" fill="#E0E0E0"/>
<path d="M208.07 153.377C207.248 154.548 205.649 154.162 204.911 153.445C204.174 152.729 203.856 151.69 203.571 150.698C202.919 148.438 202.266 146.063 202.749 143.757C202.866 143.059 203.173 142.406 203.635 141.87C203.87 141.607 204.17 141.41 204.504 141.298C204.839 141.187 205.197 141.164 205.543 141.234C206.349 141.446 206.849 142.239 207.209 142.989C208.276 145.204 208.835 147.629 208.846 150.087C208.846 151.232 208.715 152.432 208.07 153.377Z" fill="#426E8A"/>
<g opacity="0.2">
<path d="M208.07 153.377C207.248 154.548 205.649 154.162 204.911 153.445C204.174 152.729 203.856 151.69 203.571 150.698C202.919 148.438 202.266 146.063 202.749 143.757C202.866 143.059 203.173 142.406 203.635 141.87C203.87 141.607 204.17 141.41 204.504 141.298C204.839 141.187 205.197 141.164 205.543 141.234C206.349 141.446 206.849 142.239 207.209 142.989C208.276 145.204 208.835 147.629 208.846 150.087C208.846 151.232 208.715 152.432 208.07 153.377Z" fill="black"/>
</g>
<path d="M204.992 159.322C203.613 158.674 202.063 158.486 200.57 158.784C199.754 158.855 198.987 159.199 198.39 159.759C197.843 160.361 197.742 161.421 198.365 161.938C198.77 162.211 199.257 162.334 199.743 162.286C200.909 162.286 202.206 162.065 203.135 162.769C203.669 163.172 204.021 163.838 204.661 164.041C204.98 164.114 205.313 164.081 205.611 163.948C205.909 163.815 206.156 163.589 206.315 163.303C206.621 162.718 206.688 162.037 206.501 161.404C206.428 160.964 206.253 160.547 205.991 160.186C205.729 159.824 205.387 159.529 204.992 159.322Z" fill="#426E8A"/>
<path d="M210.326 155.061C209.905 154.508 209.624 153.862 209.509 153.177C209.394 152.492 209.447 151.79 209.664 151.13C210.112 149.806 210.918 148.632 211.992 147.738C213.209 146.655 214.624 145.82 216.16 145.279C216.755 145.039 217.394 144.931 218.034 144.961C218.354 144.979 218.664 145.075 218.938 145.241C219.213 145.406 219.442 145.636 219.607 145.911C220.031 146.759 219.628 147.764 219.183 148.59C218.383 150.052 217.467 151.447 216.444 152.763C215.626 153.818 214.685 154.882 213.434 155.34C212.183 155.798 210.89 155.764 210.22 154.916" fill="#426E8A"/>
<path d="M208.126 171.084C208.086 170.908 208.062 170.729 208.054 170.549C208.015 170.164 207.969 169.676 207.909 169.095C207.836 168.383 207.727 167.676 207.583 166.975C207.391 166.116 207.131 165.274 206.807 164.456C206.494 163.639 206.065 162.871 205.535 162.175C204.812 161.21 203.735 160.569 202.542 160.395C202.361 160.39 202.182 160.364 202.007 160.318C202.188 160.301 202.37 160.301 202.55 160.318C203.045 160.357 203.528 160.484 203.979 160.691C204.641 161.011 205.222 161.478 205.675 162.057C206.23 162.762 206.678 163.545 207.006 164.38C207.338 165.211 207.596 166.069 207.778 166.945C207.915 167.66 208.01 168.382 208.062 169.108C208.109 169.723 208.126 170.223 208.134 170.571C208.151 170.741 208.148 170.914 208.126 171.084Z" fill="#263238"/>
<path d="M208.028 169.964C208.018 169.883 208.018 169.8 208.028 169.718C208.028 169.532 208.028 169.294 208.028 169.01C208.028 168.395 208.028 167.505 207.994 166.407C207.939 164.211 207.752 161.183 207.388 157.851C207.023 154.518 206.54 151.52 206.086 149.371C205.98 148.832 205.874 148.349 205.777 147.92C205.679 147.492 205.599 147.128 205.522 146.831C205.446 146.534 205.399 146.326 205.357 146.144C205.333 146.064 205.318 145.981 205.314 145.898C205.35 145.973 205.379 146.051 205.399 146.131L205.607 146.81C205.696 147.106 205.789 147.471 205.895 147.895C206.001 148.319 206.124 148.798 206.239 149.337C206.844 152.137 207.299 154.968 207.604 157.817C207.973 161.158 208.134 164.177 208.151 166.394C208.151 167.497 208.151 168.387 208.113 169.002C208.113 169.29 208.079 169.523 208.07 169.71C208.064 169.796 208.05 169.881 208.028 169.964Z" fill="#263238"/>
<path d="M208.011 164.1C207.993 163.855 207.993 163.608 208.011 163.362C208.04 162.888 208.104 162.201 208.24 161.361C208.401 160.376 208.617 159.401 208.888 158.44C209.214 157.262 209.622 156.109 210.11 154.988C210.956 152.925 212.171 151.032 213.697 149.404C213.962 149.125 214.246 148.863 214.545 148.62C214.676 148.514 214.791 148.404 214.905 148.319L215.236 148.09C215.432 147.942 215.639 147.808 215.855 147.691C215.14 148.258 214.459 148.867 213.815 149.515C212.344 151.156 211.162 153.036 210.322 155.073C209.837 156.186 209.426 157.329 209.092 158.495C208.774 159.568 208.562 160.556 208.401 161.387C208.24 162.218 208.159 162.9 208.104 163.371C208.093 163.616 208.062 163.86 208.011 164.1Z" fill="#263238"/>
<path d="M115.88 130.468L50.2533 61.051C49.922 60.6991 49.7436 60.2303 49.7571 59.7472C49.7706 59.264 49.9749 58.8059 50.3254 58.4731L93.4081 17.7522C93.582 17.5876 93.7867 17.4589 94.0105 17.3734C94.2342 17.288 94.4726 17.2474 94.712 17.2541C94.9513 17.2608 95.1871 17.3146 95.4057 17.4124C95.6243 17.5103 95.8215 17.6502 95.986 17.8242L161.608 87.2458C161.94 87.5976 162.118 88.0665 162.105 88.5496C162.091 89.0327 161.887 89.4909 161.536 89.8237L118.462 130.528C118.289 130.694 118.085 130.825 117.861 130.912C117.638 130.999 117.399 131.041 117.159 131.036C116.919 131.03 116.682 130.977 116.463 130.88C116.243 130.783 116.045 130.643 115.88 130.468Z" fill="#426E8A"/>
<g opacity="0.3">
<path d="M115.88 130.468L50.2533 61.051C49.922 60.6991 49.7436 60.2303 49.7571 59.7472C49.7706 59.264 49.9749 58.8059 50.3254 58.4731L93.4081 17.7522C93.582 17.5876 93.7867 17.4589 94.0105 17.3734C94.2342 17.288 94.4726 17.2474 94.712 17.2541C94.9513 17.2608 95.1871 17.3146 95.4057 17.4124C95.6243 17.5103 95.8215 17.6502 95.986 17.8242L161.608 87.2458C161.94 87.5976 162.118 88.0665 162.105 88.5496C162.091 89.0327 161.887 89.4909 161.536 89.8237L118.462 130.528C118.289 130.694 118.085 130.825 117.861 130.912C117.638 130.999 117.399 131.041 117.159 131.036C116.919 131.03 116.682 130.977 116.463 130.88C116.243 130.783 116.045 130.643 115.88 130.468Z" fill="black"/>
</g>
<path d="M161.125 86.737L96.4568 18.333C96.2296 18.0918 95.957 17.8977 95.6547 17.762C95.3524 17.6262 95.0262 17.5515 94.695 17.542C94.3637 17.5326 94.0338 17.5886 93.7243 17.7069C93.4147 17.8252 93.1315 18.0034 92.8909 18.2313L80.6543 29.8022C80.5333 29.9153 80.4421 30.0565 80.3888 30.2134C80.3356 30.3702 80.3219 30.5377 80.349 30.7011C81.5744 37.5445 86.4673 43.6628 92.3016 47.7162C99.3485 52.6134 107.701 55.1956 115.622 58.4646C123.542 61.7337 131.526 66.0415 136.287 73.1859C140.777 79.9318 141.837 88.2973 144.123 96.0819C144.744 98.1969 145.521 100.263 146.446 102.264C146.514 102.409 146.615 102.536 146.741 102.635C146.867 102.734 147.015 102.801 147.172 102.832C147.329 102.863 147.491 102.855 147.645 102.811C147.799 102.767 147.941 102.687 148.058 102.578L161.028 90.3155C161.271 90.0879 161.466 89.8143 161.602 89.5107C161.739 89.207 161.814 88.8794 161.823 88.5466C161.832 88.2138 161.775 87.8825 161.655 87.5719C161.536 87.2613 161.355 86.9775 161.125 86.737Z" fill="#426E8A"/>
<path d="M95.5024 38.2397C94.9173 38.7951 94.1372 38.6637 93.2976 37.7606L91.644 36.0095L95.036 32.8125L96.5964 34.4661C97.3977 35.3141 97.4444 36.0815 96.9313 36.5861C96.7807 36.7354 96.5905 36.8387 96.3832 36.8837C96.176 36.9288 95.9601 36.9138 95.7611 36.8405C95.8807 37.0691 95.9202 37.3311 95.8733 37.5847C95.8264 37.8384 95.6958 38.069 95.5024 38.2397ZM95.1717 34.1481L94.3746 34.9028L95.1039 35.6957C95.4643 36.0773 95.795 36.1579 96.0621 35.9077C96.3292 35.6575 96.2614 35.3268 95.901 34.9452L95.1717 34.1481ZM94.8368 37.3747C95.1208 37.1076 95.053 36.7599 94.6672 36.3529L93.8192 35.4413L92.9712 36.2299L93.8192 37.1458C94.2177 37.5528 94.5484 37.6503 94.8368 37.3917V37.3747Z" fill="white"/>
<path d="M97.9703 41.25L96.4821 39.6769L95.473 40.0628L94.7183 39.2614L99.5264 37.5654L100.256 38.3414L98.3053 43.052L97.5251 42.2294L97.9703 41.25ZM98.3307 40.4401L99.1194 38.6805L97.3174 39.3674L98.3307 40.4401Z" fill="white"/>
<path d="M104.949 43.328L101.557 46.525L100.959 45.872L101.421 42.2468L99.365 44.176L98.6357 43.4001L102.028 40.2031L102.643 40.8518L102.176 44.4728L104.233 42.5309L104.949 43.328Z" fill="white"/>
<path d="M104.818 47.2837H103.915L103.067 48.0935L102.312 47.3091L105.704 44.1079L106.438 44.8881L104.856 46.3806H107.854L108.676 47.2286L105.844 47.254L105.378 50.5358L104.53 49.6242L104.818 47.2837Z" fill="white"/>
<path d="M80.8321 50.9087L80.264 50.2855L79.416 51.0571L79.1149 50.7391L79.9332 49.9675L78.2754 48.2163L78.5044 47.9959L82.1211 47.6948L82.456 48.051L78.9495 48.3605L80.2215 49.7088L80.9381 49.0262L81.2307 49.3399L80.5141 50.0183L81.0992 50.6374L80.8321 50.9087Z" fill="white"/>
<path d="M83.0668 53.118C82.5453 53.6056 81.7948 53.6099 81.0825 52.8594C80.6815 52.4619 80.4466 51.9269 80.4253 51.3627L80.8239 51.2779C80.8293 51.7674 81.0273 52.235 81.375 52.5796C81.8626 53.0968 82.3672 53.152 82.753 52.7873C83.1389 52.4227 83.1219 51.9393 82.5792 51.3669L82.3672 51.1464L82.6046 50.9217L84.4957 50.7648L82.9947 49.1748L83.2788 48.9077L85.1656 50.9048L84.9409 51.1168L83.0032 51.2821C83.5968 51.9817 83.5629 52.6559 83.0668 53.118Z" fill="white"/>
<path d="M85.4622 55.6239C84.9322 56.1242 84.1902 56.1454 83.4567 55.3865C83.0554 54.9913 82.8216 54.4569 82.8037 53.894L83.2023 53.8092C83.2109 54.2876 83.4056 54.7439 83.745 55.0812C84.2411 55.6112 84.7626 55.6493 85.14 55.2889C85.5173 54.9285 85.564 54.4409 84.8092 53.6396L84.1817 52.9781L85.8777 51.668L87.4847 53.364L87.2006 53.6311L85.8735 52.2319L84.7796 53.0587L85.1569 53.4827C86.0431 54.3816 86.0092 55.0854 85.4622 55.6239Z" fill="white"/>
<path d="M88.0616 58.329C87.9268 58.455 87.7671 58.5514 87.5929 58.6122C87.4186 58.6729 87.2336 58.6967 87.0497 58.6819C86.8658 58.6672 86.6869 58.6142 86.5246 58.5264C86.3623 58.4386 86.2201 58.318 86.107 58.1721C85.3268 57.3453 85.4752 56.3574 86.4547 55.4289C87.5104 54.4325 88.6044 54.4876 89.4015 55.3313C89.657 55.5769 89.8403 55.8878 89.9315 56.2302L89.5499 56.3447C89.4863 56.0604 89.3385 55.8018 89.1259 55.6027C88.4941 54.9328 87.6588 54.9073 86.8151 55.7045C86.743 55.7723 86.6582 55.8613 86.5734 55.9589C86.829 55.8848 87.1007 55.8875 87.3548 55.9666C87.6088 56.0458 87.834 56.1979 88.0023 56.4041C88.5874 57.0189 88.6298 57.7948 88.0616 58.329ZM87.7564 58.0237C88.1804 57.6379 88.1422 57.0909 87.6885 56.6118C87.6074 56.5037 87.505 56.4135 87.3876 56.3466C87.2702 56.2797 87.1403 56.2376 87.006 56.2229C86.8716 56.2082 86.7357 56.2212 86.6066 56.2611C86.4775 56.301 86.358 56.367 86.2554 56.4549C85.912 56.7772 85.8568 57.3665 86.3656 57.9008C86.4441 58.0068 86.5442 58.0951 86.6593 58.1596C86.7744 58.2241 86.9019 58.2635 87.0333 58.2751C87.1648 58.2867 87.2972 58.2703 87.4218 58.227C87.5465 58.1837 87.6605 58.1144 87.7564 58.0237Z" fill="white"/>
<path d="M93.48 65.9186L93.7556 64.2565L92.0596 64.4346L91.7246 64.0784L93.798 63.8664L94.099 61.916L94.4382 62.2722L94.1838 63.8367L95.7611 63.6714L96.0876 64.0191L94.1245 64.2141L93.8065 66.279L93.48 65.9186Z" fill="white"/>
<path d="M95.7191 68.2887L95.9947 66.6224L94.2987 66.8005L93.9595 66.4443L96.0328 66.2365L96.3381 64.2861L96.6731 64.6381L96.4229 66.2026L97.996 66.0415L98.3267 66.3892L96.3593 66.5842L96.0413 68.6491L95.7191 68.2887Z" fill="white"/>
<path d="M97.9575 70.6544L98.2331 68.9923L96.5371 69.1704L96.2021 68.8143L98.2713 68.6065L98.5766 66.6519L98.9115 67.008L98.6614 68.5726L100.239 68.4115L100.565 68.7549L98.5977 68.9499L98.2797 71.0148L97.9575 70.6544Z" fill="white"/>
<path d="M100.192 73.0079L100.467 71.3459L98.7715 71.5239L98.4365 71.1678L100.506 70.9558L100.811 69.0054L101.146 69.3615L100.896 70.9261L102.473 70.7607L102.799 71.1084L100.832 71.3035L100.518 73.3683L100.192 73.0079Z" fill="white"/>
<path d="M107.93 81.2037L108.206 79.5417L106.51 79.7197L106.175 79.3636L108.244 79.1558L108.549 77.2012L108.884 77.5573L108.634 79.1219L110.211 78.9565L110.538 79.3042L108.57 79.4993L108.252 81.5641L107.93 81.2037Z" fill="white"/>
<path d="M110.169 83.5739L110.445 81.9075L108.749 82.0856L108.414 81.7337L110.483 81.5217L110.788 79.5713L111.123 79.9275L110.873 81.492L112.45 81.3266L112.777 81.6743L110.809 81.8694L110.491 83.9343L110.169 83.5739Z" fill="white"/>
<path d="M112.407 85.944L112.687 84.2776L110.991 84.4557L110.656 84.0996L112.725 83.8918L113.031 81.9414L113.366 82.2933L113.115 83.8579L114.693 83.6968L115.019 84.0402L113.052 84.2352L112.738 86.3001L112.407 85.944Z" fill="white"/>
<path d="M114.65 88.3102L114.926 86.6481L113.23 86.8262L112.895 86.47L114.964 86.2623L115.269 84.3076L115.609 84.6638L115.354 86.2283L116.932 86.063L117.258 86.4107L115.291 86.6057L114.977 88.6706L114.65 88.3102Z" fill="white"/>
<path d="M124.699 92.7195L121.596 95.6578L121.291 95.3356L124.114 92.6686L123.423 91.9393L123.707 91.668L124.699 92.7195Z" fill="white"/>
<path d="M125.127 97.6C124.61 98.0918 123.855 98.0918 123.143 97.3413C122.742 96.9438 122.507 96.4088 122.486 95.8446L122.884 95.7598C122.892 96.25 123.09 96.7181 123.436 97.0657C123.923 97.5788 124.432 97.6381 124.818 97.2735C125.204 96.9088 125.187 96.4255 124.64 95.8488L124.432 95.6284L124.665 95.4079L126.556 95.2468L125.055 93.661L125.339 93.3896L127.226 95.3867L127.001 95.6029L125.068 95.7683C125.662 96.4764 125.632 97.1378 125.127 97.6Z" fill="white"/>
<path d="M127.973 100.767L127.383 100.144L126.569 100.916L126.264 100.598L127.082 99.826L125.424 98.0749L125.658 97.8544L129.27 97.5576L129.605 97.9095L126.098 98.2191L127.37 99.5674L128.087 98.889L128.384 99.1985L127.663 99.8769L128.252 100.5L127.973 100.767Z" fill="white"/>
<path d="M129.703 103.667L129.419 103.934L127.358 101.755L127.587 101.543L130.072 101.636C130.75 101.662 131.021 101.53 131.233 101.331C131.594 100.988 131.577 100.525 131.127 100.059C130.987 99.892 130.811 99.7587 130.612 99.6691C130.413 99.5795 130.196 99.536 129.978 99.5418V99.1178C130.26 99.1147 130.54 99.1739 130.796 99.2912C131.053 99.4084 131.28 99.5809 131.462 99.7962C132.056 100.428 132.115 101.128 131.594 101.619C131.297 101.899 130.945 102.043 130.144 102.043L128.104 101.971L129.703 103.667Z" fill="white"/>
<path d="M69.5158 53.5038C69.6847 53.3632 69.8911 53.2751 70.1095 53.2507C70.328 53.2262 70.5488 53.2663 70.7446 53.366C70.9405 53.4657 71.1028 53.6207 71.2114 53.8118C71.3201 54.0028 71.3703 54.2215 71.356 54.4408L70.932 54.4154C70.9444 54.318 70.9348 54.2191 70.904 54.126C70.8732 54.0328 70.8219 53.9477 70.7539 53.8769C70.6949 53.8146 70.6241 53.7644 70.5457 53.7294C70.4673 53.6944 70.3828 53.6751 70.297 53.6728C70.1236 53.668 69.9555 53.7323 69.8296 53.8515C69.7036 53.9707 69.6302 54.135 69.6254 54.3084C69.6206 54.4817 69.6849 54.6499 69.8041 54.7758C69.8711 54.8479 69.9536 54.9038 70.0455 54.9391C70.1374 54.9743 70.2361 54.9881 70.3341 54.9793V55.4033C70.1744 55.4104 70.0152 55.3813 69.8683 55.3182C69.7215 55.255 69.5908 55.1595 69.4861 55.0387C69.3824 54.9386 69.3005 54.8183 69.2454 54.6851C69.1904 54.5519 69.1634 54.4088 69.1662 54.2648C69.169 54.1207 69.2015 53.9788 69.2616 53.8478C69.3218 53.7169 69.4083 53.5998 69.5158 53.5038Z" fill="white"/>
<path d="M71.5468 56.472L70.8939 55.7852L70.4699 55.9548L70.1392 55.6028L72.2592 54.8608L72.5772 55.2L71.7292 57.2649L71.3603 56.896L71.5468 56.472ZM71.7037 56.1201L72.0472 55.3484L71.2585 55.6495L71.7037 56.1201Z" fill="white"/>
<path d="M72.734 58.3712L72.8739 57.6928L72.5898 57.396L72.1658 57.7861L71.8394 57.4427L73.3234 56.0435L73.9297 56.6837C74.3028 57.078 74.3325 57.5317 73.9975 57.8327C73.9022 57.9322 73.7781 57.9992 73.6427 58.0243C73.5073 58.0494 73.3674 58.0314 73.2428 57.9727L73.0817 58.7528L72.734 58.3712ZM73.6329 56.9127L73.3658 56.6328L72.8485 57.1204L73.1156 57.4003C73.3106 57.608 73.5099 57.6207 73.671 57.4723C73.8322 57.3239 73.8279 57.1204 73.6329 56.8957V56.9127Z" fill="white"/>
<path d="M73.3486 58.7277L73.7175 58.6005C73.7531 58.8392 73.8612 59.0612 74.027 59.2365C74.2178 59.44 74.362 59.457 74.451 59.3722C74.7266 59.1093 73.7217 58.4309 74.2729 57.9094C74.5273 57.672 74.9259 57.6762 75.3245 58.096C75.5 58.2724 75.6233 58.494 75.6806 58.7362L75.3202 58.8761C75.2762 58.6818 75.1827 58.5022 75.0489 58.3546C74.8538 58.1511 74.7054 58.1468 74.6249 58.2316C74.3535 58.4903 75.3542 59.1772 74.8114 59.6902C74.5613 59.9234 74.1585 59.9192 73.7557 59.4952C73.5463 59.2858 73.4045 59.0185 73.3486 58.7277Z" fill="white"/>
<path d="M77.9279 60.8939L76.4439 62.2974L76.1217 61.9539L76.728 61.3773L76.092 60.7031L75.4857 61.2797L75.1592 60.9363L76.6432 59.5371L76.9654 59.8763L76.3803 60.4317L77.0163 61.1059L77.6014 60.5505L77.9279 60.8939Z" fill="white"/>
<path d="M77.4318 61.8568C77.5856 61.6936 77.7848 61.5803 78.0037 61.5316C78.2226 61.4829 78.4511 61.5011 78.6595 61.5838C78.868 61.6665 79.0468 61.8099 79.1727 61.9954C79.2987 62.1809 79.3661 62.4 79.3661 62.6242C79.3661 62.8485 79.2987 63.0676 79.1727 63.2531C79.0468 63.4386 78.868 63.582 78.6595 63.6647C78.4511 63.7474 78.2226 63.7656 78.0037 63.7169C77.7848 63.6682 77.5856 63.5549 77.4318 63.3917C77.3279 63.2927 77.2452 63.1736 77.1887 63.0417C77.1322 62.9098 77.103 62.7678 77.103 62.6242C77.103 62.4807 77.1322 62.3387 77.1887 62.2068C77.2452 62.0749 77.3279 61.9558 77.4318 61.8568ZM78.636 63.1288C78.7016 63.0735 78.755 63.0052 78.7928 62.9282C78.8306 62.8511 78.8519 62.7671 78.8555 62.6814C78.8591 62.5957 78.8448 62.5102 78.8136 62.4302C78.7824 62.3503 78.7349 62.2778 78.6742 62.2172C78.5874 62.1206 78.4739 62.0521 78.348 62.0203C78.2222 61.9886 78.0897 61.9951 77.9676 62.039C77.8454 62.0829 77.7391 62.1622 77.6622 62.2668C77.5853 62.3713 77.5414 62.4965 77.5359 62.6262C77.5305 62.7558 77.5639 62.8842 77.6317 62.9949C77.6996 63.1055 77.7989 63.1934 77.917 63.2474C78.035 63.3013 78.1665 63.3188 78.2946 63.2977C78.4226 63.2766 78.5415 63.2178 78.636 63.1288Z" fill="white"/>
<path d="M79.9547 63.0396L80.2769 63.383L79.0728 64.5278L79.7766 65.2698L79.4968 65.5327L78.4707 64.4472L79.9547 63.0396Z" fill="white"/>
<path d="M81.1629 64.3203L81.7989 64.9945C81.9042 65.0887 81.9889 65.2038 82.0475 65.3325C82.1062 65.4612 82.1374 65.6006 82.1394 65.742C82.1414 65.8833 82.114 66.0236 82.0589 66.1538C82.0039 66.2841 81.9225 66.4015 81.8197 66.4986C81.717 66.5958 81.5952 66.6705 81.4621 66.7182C81.329 66.7658 81.1874 66.7853 81.0464 66.7755C80.9053 66.7656 80.7679 66.7266 80.6427 66.6609C80.5175 66.5952 80.4073 66.5042 80.3191 66.3937L79.6831 65.7195L81.1629 64.3203ZM80.582 66.1096C80.6318 66.1884 80.6983 66.2552 80.7768 66.3055C80.8554 66.3557 80.944 66.388 81.0364 66.4002C81.1288 66.4124 81.2227 66.4042 81.3116 66.376C81.4004 66.3479 81.482 66.3005 81.5506 66.2374C81.6191 66.1742 81.6729 66.0967 81.7082 66.0105C81.7435 65.9242 81.7594 65.8312 81.7548 65.7381C81.7501 65.645 81.7251 65.5541 81.6814 65.4717C81.6378 65.3894 81.5765 65.3177 81.5021 65.2616L81.2053 64.9478L80.2894 65.8001L80.582 66.1096Z" fill="white"/>
<path d="M82.698 68.344L82.4224 68.6068L81.3369 67.4578L82.8209 66.0586L83.8767 67.178L83.6053 67.4366L82.8676 66.6607L82.5453 66.9617L83.194 67.6528L82.9269 67.903L82.2782 67.2161L81.9348 67.5384L82.698 68.344Z" fill="white"/>
<path d="M83.5753 69.8366L83.7152 69.1624L83.4311 68.8656L83.0071 69.2557L82.6807 68.9122L84.1647 67.5088L84.771 68.1533C85.1441 68.5476 85.1738 69.0013 84.8388 69.3023C84.7436 69.4018 84.6194 69.4688 84.484 69.4939C84.3486 69.519 84.2087 69.5009 84.0841 69.4422L83.923 70.2224L83.5753 69.8366ZM84.4742 68.378L84.2071 68.0981L83.694 68.59L83.9569 68.8698C84.1562 69.0776 84.3512 69.0903 84.5123 68.9377C84.6735 68.785 84.6692 68.59 84.4742 68.378Z" fill="white"/>
<path d="M63.5837 58.8122L64.3723 58.7614C64.3341 58.904 64.3312 59.0537 64.3637 59.1978C64.3962 59.3418 64.4631 59.4758 64.5589 59.5882C64.809 59.851 65.1016 59.8426 65.4069 59.5458L66.7637 58.2738L65.8139 57.2689L66.3439 56.7686L67.917 58.4306L66.0641 60.1775C65.356 60.8474 64.6776 60.8178 64.0416 60.1478C63.867 59.9759 63.7348 59.7658 63.6553 59.534C63.5758 59.3022 63.5513 59.0551 63.5837 58.8122Z" fill="white"/>
<path d="M65.848 61.191C65.9525 61.0921 66.0922 61.0387 66.2361 61.0427C66.38 61.0467 66.5165 61.1076 66.6154 61.2122C66.7144 61.3168 66.7677 61.4564 66.7638 61.6003C66.7598 61.7443 66.6988 61.8807 66.5942 61.9797C66.5424 62.0287 66.4815 62.067 66.4149 62.0924C66.3483 62.1179 66.2774 62.13 66.2061 62.128C66.1348 62.126 66.0647 62.1101 65.9996 62.081C65.9345 62.0519 65.8758 62.0103 65.8268 61.9585C65.7778 61.9067 65.7395 61.8458 65.714 61.7792C65.6885 61.7126 65.6765 61.6416 65.6784 61.5704C65.6804 61.4991 65.6964 61.4289 65.7255 61.3638C65.7546 61.2987 65.7962 61.24 65.848 61.191Z" fill="white"/>
<path d="M73.4547 64.2649L69.715 66.0287L69.0451 65.3206L70.385 62.8657L67.841 64.0444L67.1753 63.3406L69.1426 59.7026L69.7914 60.3853L68.3922 62.9293L71.0379 61.7039L71.6146 62.3145L70.2069 64.8797L72.8611 63.6331L73.4547 64.2649Z" fill="white"/>
<path d="M73.7219 64.5492C73.7719 64.5025 73.8312 64.4667 73.8959 64.4443C73.9606 64.4218 74.0292 64.413 74.0975 64.4186C74.1658 64.4242 74.2321 64.444 74.2923 64.4767C74.3524 64.5094 74.4051 64.5543 74.4469 64.6086C74.4986 64.6518 74.5408 64.7053 74.5707 64.7657C74.6007 64.8261 74.6178 64.8921 74.621 64.9594C74.6242 65.0267 74.6134 65.094 74.5892 65.1569C74.5651 65.2199 74.5282 65.2772 74.4808 65.3251C74.4307 65.3741 74.3709 65.4121 74.3052 65.4365C74.2395 65.461 74.1694 65.4713 74.0994 65.4669C74.0295 65.4625 73.9612 65.4435 73.8991 65.411C73.837 65.3785 73.7824 65.3334 73.7388 65.2785C73.6874 65.2332 73.6459 65.1778 73.6169 65.1156C73.5879 65.0535 73.5721 64.9861 73.5706 64.9175C73.569 64.849 73.5816 64.7809 73.6076 64.7175C73.6337 64.6541 73.6726 64.5968 73.7219 64.5492ZM73.1325 65.2488L73.7346 65.8848L71.5383 67.9581L70.9404 67.3221L73.1325 65.2488Z" fill="white"/>
<path d="M75.125 65.6895L75.7271 66.3255L72.6997 69.1917L72.0977 68.5557L75.125 65.6895Z" fill="white"/>
<path d="M76.2827 66.915L76.8848 67.551L73.8575 70.413L73.2554 69.777L76.2827 66.915Z" fill="white"/>
<path d="M77.1984 68.2252C77.2494 68.1796 77.3092 68.1448 77.3741 68.123C77.439 68.1012 77.5076 68.0928 77.5758 68.0983C77.644 68.1039 77.7104 68.1233 77.7709 68.1553C77.8314 68.1873 77.8848 68.2313 77.9277 68.2846C77.9787 68.3289 78.0201 68.3832 78.0494 68.444C78.0786 68.5049 78.0952 68.5711 78.0979 68.6386C78.1007 68.7061 78.0897 68.7734 78.0655 68.8365C78.0414 68.8996 78.0046 68.957 77.9574 69.0054C77.8512 69.0897 77.7175 69.1316 77.5822 69.123C77.4469 69.1143 77.3197 69.0557 77.2251 68.9585C77.1306 68.8613 77.0755 68.7325 77.0706 68.597C77.0656 68.4615 77.1112 68.329 77.1984 68.2252ZM76.6091 68.9291L77.2112 69.5651L75.0191 71.6384L74.417 71.0024L76.6091 68.9291Z" fill="white"/>
<path d="M78.6611 73.0078L77.3891 74.1907L76.8252 73.5971L77.1008 73.3385C76.9247 73.3648 76.7448 73.3432 76.58 73.2761C76.4151 73.209 76.2713 73.0987 76.1637 72.9569C75.6761 72.4438 75.6719 71.8672 76.0535 71.511C76.4351 71.1549 76.9651 71.1634 77.5969 71.829L78.076 72.3378C78.3516 72.0792 78.3558 71.7654 78.0293 71.422C77.8146 71.1984 77.5336 71.0498 77.228 70.998L77.4569 70.3535C77.9042 70.4634 78.3087 70.704 78.6187 71.0446C79.2717 71.6764 79.3268 72.359 78.6611 73.0078ZM77.5036 72.9018L77.7283 72.6898L77.3043 72.2658C77.0245 71.9647 76.8252 71.9774 76.6768 72.1131C76.5284 72.2488 76.5411 72.499 76.7531 72.7237C76.8453 72.8262 76.9677 72.8966 77.1027 72.9248C77.2376 72.9531 77.378 72.9375 77.5036 72.8806V72.9018Z" fill="white"/>
<path d="M82.7146 77.2477L81.4426 78.4349L80.8448 77.7989L82.0023 76.7049C82.3542 76.37 82.367 76.0562 82.1253 75.8018C81.8836 75.5474 81.485 75.4881 81.0907 75.8569L79.9925 76.9L79.3905 76.264L80.548 75.1701C80.9042 74.8309 80.9211 74.5256 80.6709 74.2627C80.4208 73.9998 80.0349 73.9532 79.6406 74.3263L78.5679 75.3778L77.9658 74.7418L80.1579 72.6685L80.7345 73.2748L80.4802 73.5165C80.6579 73.5141 80.8339 73.5509 80.9958 73.6242C81.1578 73.6975 81.3016 73.8054 81.4172 73.9405C81.5583 74.0749 81.6621 74.2436 81.7186 74.4301C81.775 74.6166 81.7822 74.8146 81.7394 75.0047C81.9466 74.9899 82.1544 75.0227 82.347 75.1006C82.5395 75.1785 82.7117 75.2994 82.8503 75.4541C83.3294 75.9757 83.3803 76.6286 82.7146 77.2477Z" fill="white"/>
<path d="M81.998 78.613L82.6553 78.3925C82.7341 78.7537 82.91 79.0864 83.164 79.355C83.4396 79.6476 83.622 79.6857 83.7449 79.5712C84.1011 79.232 82.4729 78.2526 83.3591 77.4216C83.7831 77.0315 84.4233 77.129 85.0296 77.7692C85.3116 78.0573 85.5196 78.4094 85.636 78.7953L84.983 79.0116C84.9149 78.7154 84.7684 78.4431 84.559 78.2229C84.2919 77.9388 84.0841 77.9007 83.9696 78.0067C83.5965 78.3628 85.212 79.3465 84.347 80.1606C83.923 80.5464 83.2913 80.4447 82.651 79.7875C82.3329 79.461 82.1075 79.0556 81.998 78.613Z" fill="white"/>
<path d="M107.332 103.133C108.273 102.242 109.299 102.259 109.965 102.959C110.631 103.659 110.588 104.689 109.643 105.579C108.697 106.47 107.68 106.457 107.01 105.753C106.34 105.049 106.391 104.023 107.332 103.133ZM109.028 104.914C109.677 104.303 109.732 103.82 109.418 103.489C109.104 103.158 108.625 103.188 107.977 103.803C107.328 104.418 107.273 104.897 107.582 105.223C107.892 105.55 108.367 105.528 109.015 104.914H109.028Z" fill="white"/>
<path d="M111.64 108.755C111.059 109.306 110.241 109.179 109.669 108.573C108.927 107.784 108.956 106.826 109.876 105.957C110.864 105.024 111.996 105.109 112.789 105.957C113.061 106.228 113.255 106.568 113.349 106.94L112.632 107.152C112.579 106.898 112.452 106.665 112.268 106.483C112.171 106.367 112.051 106.273 111.915 106.208C111.779 106.143 111.63 106.109 111.48 106.107C111.329 106.105 111.18 106.135 111.042 106.196C110.904 106.258 110.781 106.348 110.682 106.461C111.038 106.49 111.369 106.657 111.602 106.928C111.727 107.044 111.827 107.184 111.897 107.339C111.967 107.495 112.005 107.663 112.008 107.833C112.012 108.004 111.981 108.173 111.918 108.332C111.855 108.49 111.76 108.634 111.64 108.755ZM111.004 108.145C111.065 108.087 111.113 108.016 111.145 107.938C111.177 107.86 111.192 107.776 111.188 107.692C111.185 107.607 111.164 107.525 111.126 107.449C111.089 107.374 111.036 107.307 110.97 107.254C110.919 107.187 110.855 107.131 110.781 107.09C110.707 107.049 110.626 107.024 110.542 107.015C110.458 107.007 110.374 107.016 110.293 107.042C110.213 107.067 110.139 107.109 110.076 107.165C110.015 107.226 109.968 107.298 109.938 107.378C109.907 107.458 109.894 107.543 109.899 107.628C109.904 107.713 109.926 107.797 109.966 107.873C110.005 107.948 110.06 108.015 110.126 108.068C110.177 108.136 110.24 108.192 110.314 108.233C110.387 108.274 110.469 108.299 110.552 108.306C110.636 108.313 110.721 108.303 110.8 108.275C110.879 108.247 110.952 108.203 111.013 108.145H111.004Z" fill="white"/>
<path d="M115.456 107.691L115.995 108.255L110.877 110.544L110.343 109.976L115.456 107.691Z" fill="white"/>
<path d="M115.075 113.106L114.536 113.615L112.488 111.456L112.912 111.054L114.994 111.172C115.135 111.2 115.281 111.196 115.421 111.162C115.561 111.127 115.692 111.063 115.804 110.973C116.029 110.761 116.012 110.481 115.723 110.18C115.62 110.06 115.488 109.968 115.34 109.912C115.192 109.856 115.032 109.837 114.875 109.858L114.731 109.082C115.03 109.047 115.332 109.087 115.612 109.197C115.891 109.307 116.139 109.485 116.334 109.714C116.936 110.354 117.008 111.083 116.491 111.575C116.215 111.838 115.889 111.999 115.138 111.948L113.9 111.876L115.075 113.106Z" fill="white"/>
<path d="M117.826 115.891L117.402 115.429L116.805 115.993L116.194 115.348L116.796 114.784L115.342 113.245L115.787 112.821L118.869 112.457L119.527 113.148L116.627 113.521L117.352 114.288L117.886 113.784L118.475 114.407L117.941 114.911L118.365 115.378L117.826 115.891Z" fill="white"/>
<path d="M131.22 80.5764C132.831 78.1003 132.2 74.81 130.037 72.8003C129.379 72.1798 128.617 71.6803 127.786 71.3248C125.721 70.4768 122.986 71.0916 121.901 73.0504C121.015 74.6489 121.371 76.646 121.994 78.3632C122.643 80.1652 123.69 82.0053 125.475 82.7049C127.26 83.4045 129.257 82.7643 130.538 81.4329C130.794 81.1716 131.023 80.8846 131.22 80.5764Z" fill="#426E8A"/>
<path d="M170.546 81.5981H62.1167C58.0328 81.5981 54.7222 84.9088 54.7222 88.9927V163.629C54.7222 167.713 58.0328 171.024 62.1167 171.024H170.546C174.63 171.024 177.941 167.713 177.941 163.629V88.9927C177.941 84.9088 174.63 81.5981 170.546 81.5981Z" fill="#426E8A"/>
<path d="M177.941 88.9929C177.941 88.9929 177.941 88.9039 177.941 88.7258C177.933 88.4601 177.907 88.1952 177.864 87.9329C177.716 86.9006 177.345 85.9127 176.779 85.037C176.364 84.3928 175.855 83.814 175.27 83.3198C174.554 82.7334 173.736 82.2849 172.857 81.9969C172.62 81.9163 172.369 81.8697 172.119 81.7976C171.869 81.7255 171.602 81.7171 171.335 81.6747L170.517 81.6365H165.946L121.735 81.6704H91.2073H74.1964H63.041C62.2882 81.6403 61.5342 81.6829 60.7896 81.7976C59.2901 82.0729 57.916 82.8149 56.8633 83.9176C56.3317 84.4669 55.8922 85.0983 55.5616 85.7875C55.2208 86.4763 54.9973 87.2171 54.9002 87.9795C54.827 88.7546 54.8029 89.5335 54.8281 90.3115V102.264C54.8281 108.726 54.8281 115.316 54.8281 122.035V163.587C54.8307 165.361 55.4754 167.073 56.6428 168.408C57.7944 169.735 59.3912 170.596 61.133 170.829C62.0015 170.904 62.8736 170.928 63.7448 170.901H130.805H165.848H169.927C170.593 170.922 171.259 170.878 171.916 170.77C172.562 170.645 173.188 170.434 173.777 170.142C174.069 169.999 174.353 169.837 174.625 169.659C174.89 169.472 175.145 169.271 175.388 169.057C176.11 168.422 176.698 167.649 177.118 166.784C177.538 165.92 177.782 164.98 177.835 164.02C177.877 158.932 177.835 154.039 177.86 149.375C177.86 130.719 177.89 115.607 177.898 105.168C177.898 99.9491 177.898 95.8999 177.92 93.1481C177.92 91.7786 177.92 90.7313 177.92 90.0232C177.92 89.3151 177.92 88.959 177.92 88.959C177.92 88.959 177.92 89.3194 177.92 90.0232C177.92 90.7271 177.92 91.7786 177.92 93.1481C177.92 95.8999 177.92 99.9321 177.941 105.168C177.941 115.607 177.941 130.71 177.975 149.375C177.975 154.039 178.004 158.927 177.975 164.028C177.903 165.335 177.488 166.601 176.771 167.696C176.413 168.246 175.985 168.748 175.499 169.188C175.249 169.408 174.987 169.614 174.714 169.803C174.441 169.985 174.158 170.151 173.866 170.299C173.264 170.601 172.624 170.817 171.962 170.944C171.294 171.056 170.617 171.102 169.94 171.079H165.861H130.817H92.0893H63.7279C62.8466 171.107 61.9646 171.081 61.0864 171.003C59.2918 170.767 57.6459 169.882 56.4605 168.514C55.2636 167.143 54.6012 165.386 54.5949 163.566C54.5949 149.324 54.5949 135.425 54.5949 122.014V102.264C54.5949 99.036 54.5949 95.8419 54.5949 92.6817V90.32C54.5696 89.532 54.5951 88.7431 54.6712 87.9583C54.7715 87.175 55.0022 86.414 55.3539 85.7069C55.6927 84.9966 56.1453 84.3464 56.6937 83.7819C57.2367 83.2236 57.8597 82.7492 58.5424 82.3743C59.2286 82.01 59.9663 81.7526 60.7302 81.6111L61.3026 81.522L61.875 81.4923C62.2608 81.4711 62.6382 81.4923 63.0156 81.4923H91.1819H121.71L165.92 81.5305H170.47L171.297 81.5729C171.564 81.6195 171.831 81.6492 172.085 81.7043C172.34 81.7595 172.59 81.8231 172.827 81.9079C173.713 82.1996 174.537 82.654 175.257 83.2477C175.846 83.7465 176.356 84.3311 176.771 84.9819C177.334 85.865 177.699 86.8605 177.839 87.899C177.882 88.1625 177.905 88.429 177.907 88.6961C177.941 88.9039 177.941 88.9929 177.941 88.9929Z" fill="#263238"/>
<path d="M173.625 87.1102C174.466 86.9633 175.327 86.9633 176.169 87.1102C175.327 87.2572 174.466 87.2572 173.625 87.1102Z" fill="#263238"/>
<path d="M163.245 87.1102C164.972 86.9633 166.708 86.9633 168.435 87.1102C166.708 87.2572 164.972 87.2572 163.245 87.1102Z" fill="#263238"/>
<path d="M152.87 87.1103C154.595 86.9632 156.33 86.9632 158.055 87.1103C156.33 87.2574 154.595 87.2574 152.87 87.1103Z" fill="#263238"/>
<path d="M142.49 87.1102C144.217 86.9633 145.953 86.9633 147.68 87.1102C145.953 87.2572 144.217 87.2572 142.49 87.1102Z" fill="#263238"/>
<path d="M132.115 87.1103C133.84 86.9632 135.575 86.9632 137.3 87.1103C135.575 87.2574 133.84 87.2574 132.115 87.1103Z" fill="#263238"/>
<path d="M121.735 87.1102C123.462 86.9633 125.198 86.9633 126.925 87.1102C125.198 87.2572 123.462 87.2572 121.735 87.1102Z" fill="#263238"/>
<path d="M111.36 87.1103C113.085 86.9632 114.82 86.9632 116.545 87.1103C114.82 87.2574 113.085 87.2574 111.36 87.1103Z" fill="#263238"/>
<path d="M100.98 87.1102C102.707 86.9633 104.443 86.9633 106.17 87.1102C104.443 87.2572 102.707 87.2572 100.98 87.1102Z" fill="#263238"/>
<path d="M90.6011 87.1102C92.3279 86.9633 94.064 86.9633 95.7908 87.1102C94.064 87.2572 92.3279 87.2572 90.6011 87.1102Z" fill="#263238"/>
<path d="M80.2256 87.1102C81.0818 87.0019 81.9455 86.965 82.8077 87C83.6743 86.9643 84.5422 87.0012 85.4026 87.1102C84.5425 87.2217 83.6743 87.2586 82.8077 87.2204C81.9455 87.2579 81.0815 87.221 80.2256 87.1102Z" fill="#263238"/>
<path d="M69.8462 87.1102C70.7066 87.0012 71.5745 86.9643 72.4411 87C73.3076 86.9643 74.1756 87.0012 75.036 87.1102C74.1758 87.2217 73.3076 87.2586 72.4411 87.2204C71.5745 87.2586 70.7064 87.2217 69.8462 87.1102Z" fill="#263238"/>
<path d="M62.1166 89.6542C62.0049 88.8112 61.968 87.9598 62.0064 87.1102L62.1166 87H63.1045L63.9144 87.0254C64.1655 87.0163 64.4166 87.042 64.6606 87.1018C64.4171 87.1645 64.1657 87.1917 63.9144 87.1823L63.1045 87.2035H62.6297H62.1166L62.2269 87.0933C62.2636 87.9485 62.2267 88.8053 62.1166 89.6542Z" fill="#263238"/>
<path d="M62.1165 99.1647C62.005 98.377 61.9681 97.5806 62.0063 96.786C61.9682 95.9928 62.0051 95.1979 62.1165 94.4116C62.2254 95.1981 62.2623 95.9928 62.2268 96.786C62.2624 97.5806 62.2255 98.3768 62.1165 99.1647Z" fill="#263238"/>
<path d="M62.1166 108.675C61.9696 107.094 61.9696 105.503 62.1166 103.922C62.2636 105.503 62.2636 107.094 62.1166 108.675Z" fill="#263238"/>
<path d="M62.1166 118.186C61.9696 116.603 61.9696 115.011 62.1166 113.428C62.2636 115.011 62.2636 116.603 62.1166 118.186Z" fill="#263238"/>
<path d="M62.1166 127.704C61.9696 126.122 61.9696 124.529 62.1166 122.947C62.2636 124.529 62.2636 126.122 62.1166 127.704Z" fill="#263238"/>
<path d="M62.1166 137.202C61.9696 135.621 61.9696 134.03 62.1166 132.449C62.2636 134.03 62.2636 135.621 62.1166 137.202Z" fill="#263238"/>
<path d="M62.1166 146.712C61.9696 145.131 61.9696 143.54 62.1166 141.959C62.2636 143.54 62.2636 145.131 62.1166 146.712Z" fill="#263238"/>
<path d="M62.1166 156.222C61.9696 154.641 61.9696 153.05 62.1166 151.469C62.2636 153.05 62.2636 154.641 62.1166 156.222Z" fill="#263238"/>
<path d="M64.6605 163.524C63.8171 163.633 62.9661 163.669 62.1165 163.634C61.896 163.413 62.0529 163.57 62.0062 163.519V163.015C62.0062 162.849 62.0062 162.693 62.0062 162.536C62.0062 162.256 62.0062 161.989 62.0062 161.726C61.994 161.476 62.0212 161.225 62.0868 160.984C62.1468 161.226 62.1725 161.476 62.1631 161.726C62.1631 161.989 62.1631 162.256 62.1885 162.536C62.1885 162.693 62.1885 162.849 62.1885 163.015C62.1885 163.095 62.1885 163.18 62.1885 163.265V163.519C62.1377 163.473 62.2988 163.634 62.0783 163.413C62.9406 163.373 63.8048 163.41 64.6605 163.524Z" fill="#263238"/>
<path d="M74.8873 163.524C74.0439 163.632 73.1929 163.669 72.3433 163.634C71.4937 163.669 70.6427 163.632 69.7993 163.524C70.6425 163.413 71.4937 163.376 72.3433 163.414C73.1929 163.376 74.0441 163.413 74.8873 163.524Z" fill="#263238"/>
<path d="M85.1144 163.524C84.271 163.632 83.42 163.669 82.5704 163.634C81.7208 163.669 80.8698 163.632 80.0264 163.524C80.8695 163.413 81.7208 163.376 82.5704 163.414C83.42 163.376 84.2712 163.413 85.1144 163.524Z" fill="#263238"/>
<path d="M95.3415 163.524C93.6402 163.671 91.9293 163.671 90.228 163.524C91.9293 163.377 93.6402 163.377 95.3415 163.524Z" fill="#263238"/>
<path d="M105.568 163.524C103.867 163.671 102.156 163.671 100.455 163.524C102.156 163.377 103.867 163.377 105.568 163.524Z" fill="#263238"/>
<path d="M115.795 163.524C114.094 163.671 112.383 163.671 110.682 163.524C112.383 163.377 114.094 163.377 115.795 163.524Z" fill="#263238"/>
<path d="M126.022 163.524C124.321 163.671 122.61 163.671 120.909 163.524C122.61 163.377 124.321 163.377 126.022 163.524Z" fill="#263238"/>
<path d="M136.232 163.524C134.531 163.671 132.82 163.671 131.119 163.524C132.82 163.377 134.531 163.377 136.232 163.524Z" fill="#263238"/>
<path d="M146.476 163.524C144.774 163.671 143.064 163.671 141.362 163.524C143.064 163.377 144.774 163.377 146.476 163.524Z" fill="#263238"/>
<path d="M156.703 163.524C155.001 163.671 153.291 163.671 151.589 163.524C153.291 163.377 155.001 163.377 156.703 163.524Z" fill="#263238"/>
<path d="M166.934 163.524C165.232 163.671 163.522 163.671 161.82 163.524C163.522 163.377 165.232 163.377 166.934 163.524Z" fill="#263238"/>
<path d="M174.591 163.524C173.749 163.671 172.889 163.671 172.047 163.524C172.889 163.377 173.749 163.377 174.591 163.524Z" fill="#263238"/>
<g opacity="0.3">
<path d="M97.2237 131.198C97.2237 131.198 97.2491 135.438 95.9517 137.982C94.6542 140.526 94.2557 141.535 91.5421 142.519C88.8285 143.502 54.688 147.255 54.688 147.255V135.735L97.2237 131.198Z" fill="black"/>
</g>
<g opacity="0.3">
<path d="M96.6261 115.213C96.6261 115.213 97.0162 110.884 86.1575 109.277C73.7386 107.441 54.7222 105.186 54.7222 105.186V113.373L96.6261 115.213Z" fill="black"/>
</g>
<path d="M91.1736 111.287H55.8502C52.4992 111.287 49.7827 114.003 49.7827 117.354V133.169C49.7827 136.52 52.4992 139.237 55.8502 139.237H91.1736C94.5246 139.237 97.241 136.52 97.241 133.169V117.354C97.241 114.003 94.5246 111.287 91.1736 111.287Z" fill="#426E8A"/>
<path d="M55.8499 139.232C55.8499 139.232 55.727 139.232 55.4895 139.232C55.1338 139.219 54.7802 139.171 54.4338 139.088C53.8671 138.961 53.3227 138.749 52.8183 138.461C52.1275 138.071 51.5209 137.548 51.0333 136.922C50.4157 136.137 50.0006 135.212 49.8249 134.229C49.7366 133.669 49.7025 133.101 49.7231 132.533C49.7231 131.948 49.7231 131.338 49.7231 130.706C49.7231 128.183 49.7231 125.313 49.7231 122.137C49.7231 120.547 49.7231 118.889 49.7231 117.151C49.7516 116.234 49.985 115.336 50.4062 114.521C50.8273 113.707 51.4256 112.997 52.1569 112.444C52.9256 111.853 53.8262 111.457 54.7815 111.291C55.2661 111.21 55.7574 111.176 56.2485 111.189H63.8805H91.2031C92.1234 111.187 93.0325 111.392 93.8633 111.788C94.694 112.184 95.4251 112.762 96.0027 113.479C96.7677 114.416 97.2369 115.56 97.3511 116.765C97.3977 117.363 97.3807 117.943 97.385 118.524C97.385 119.686 97.385 120.838 97.385 121.98V128.709C97.385 129.807 97.385 130.897 97.385 131.969C97.385 132.512 97.4062 133.038 97.385 133.581C97.3695 133.849 97.3369 134.117 97.2875 134.382C97.2297 134.643 97.159 134.9 97.0755 135.154C96.7302 136.146 96.1374 137.034 95.3532 137.734C94.569 138.434 93.6192 138.922 92.5938 139.152C92.3489 139.208 92.1012 139.252 91.8518 139.283C91.6016 139.305 91.3515 139.313 91.1013 139.322H86.7977H76.4097L61.3662 139.283L57.2746 139.262H56.2146H55.8499C55.8499 139.262 55.9729 139.262 56.2146 139.262H57.2746L61.3662 139.241L76.4097 139.207H86.7977H89.6427C90.6095 139.182 91.5974 139.288 92.5471 139.037C93.5304 138.803 94.438 138.322 95.1854 137.642C95.9328 136.961 96.4955 136.102 96.8211 135.145C97.1857 134.166 97.1348 133.101 97.1348 132.024V128.764C97.1348 126.568 97.1348 124.32 97.1348 122.035V118.579C97.1348 117.999 97.1348 117.409 97.1051 116.841C96.9909 115.679 96.5383 114.577 95.8035 113.67C95.4336 113.221 95.0059 112.823 94.5315 112.487C94.0387 112.162 93.5037 111.907 92.9415 111.728C92.3722 111.562 91.7832 111.473 91.1903 111.465H63.8678H56.2358C55.7547 111.452 55.2734 111.485 54.7984 111.562C53.8734 111.722 53.0007 112.104 52.2544 112.673C51.5431 113.209 50.9607 113.897 50.5498 114.687C50.139 115.477 49.9101 116.35 49.88 117.24C49.8588 118.965 49.88 120.632 49.88 122.222C49.88 125.397 49.88 128.268 49.88 130.791C49.88 131.422 49.88 132.033 49.88 132.618C49.8586 133.178 49.8899 133.739 49.9733 134.293C50.1768 135.449 50.7113 136.521 51.5121 137.379C52.3129 138.237 53.3455 138.844 54.4847 139.126C54.8281 139.212 55.1786 139.266 55.5319 139.288L55.8499 139.232Z" fill="#263238"/>
<path d="M82.9437 136.472C88.5544 136.472 93.1028 131.924 93.1028 126.313C93.1028 120.703 88.5544 116.154 82.9437 116.154C77.333 116.154 72.7847 120.703 72.7847 126.313C72.7847 131.924 77.333 136.472 82.9437 136.472Z" fill="#263238"/>
<path d="M85.5469 134.611C86.4063 134.292 87.2213 133.865 87.9722 133.339C88.7709 132.753 89.4648 132.036 90.0243 131.219C90.7209 130.227 91.182 129.089 91.3723 127.893C91.5626 126.696 91.4771 125.471 91.1225 124.312C90.8454 123.361 90.4065 122.464 89.825 121.662C89.2771 120.929 88.6357 120.27 87.917 119.703C87.917 119.703 87.9806 119.729 88.0824 119.796C88.2393 119.894 88.3907 120 88.5361 120.114C89.07 120.535 89.5461 121.024 89.9522 121.569C90.5617 122.376 91.0239 123.285 91.3175 124.253C91.6946 125.439 91.789 126.697 91.5932 127.927C91.3973 129.156 90.9167 130.323 90.1897 131.333C89.6128 132.159 88.8952 132.877 88.0697 133.453C87.5155 133.846 86.9107 134.161 86.2719 134.39C86.1002 134.456 85.9246 134.512 85.7462 134.556C85.684 134.587 85.6163 134.606 85.5469 134.611Z" fill="#FAFAFA"/>
<path d="M241.986 61.1952C242.33 64.895 241.568 68.6135 239.797 71.8798C238.026 75.1461 235.325 77.8132 232.037 79.5434C228.748 81.2735 225.021 81.9889 221.326 81.5987C217.63 81.2086 214.134 79.7306 211.28 77.3519C208.425 74.9732 206.341 71.8008 205.291 68.2367C204.241 64.6725 204.272 60.8768 205.381 57.3305C206.49 53.7841 208.626 50.6467 211.52 48.3155C214.413 45.9843 217.933 44.5643 221.634 44.2352C226.581 43.7899 231.503 45.3256 235.319 48.5054C239.134 51.6852 241.532 56.2491 241.986 61.1952Z" fill="#426E8A"/>
<g opacity="0.3">
<path d="M237.492 61.1357C237.407 61.1357 237.292 60.5294 236.966 59.4397C236.509 57.9371 235.822 56.5141 234.931 55.2209C234.315 54.3382 233.604 53.5263 232.811 52.7999C231.903 51.9661 230.891 51.2535 229.8 50.6799C229.213 50.3705 228.604 50.1054 227.977 49.887C227.326 49.6579 226.658 49.4779 225.98 49.3485C225.281 49.2143 224.572 49.1335 223.86 49.1069C223.124 49.0818 222.387 49.1115 221.655 49.1959C220.925 49.2866 220.203 49.4282 219.493 49.6199C218.805 49.8176 218.133 50.0671 217.483 50.3661C216.251 50.932 215.108 51.6747 214.091 52.5709C213.167 53.3829 212.352 54.3107 211.666 55.3312C211.07 56.2265 210.575 57.1849 210.19 58.1889C209.632 59.6557 209.305 61.2007 209.224 62.7681C209.16 63.8875 209.198 64.515 209.109 64.5277C209.02 64.5405 208.867 63.9214 208.795 62.7681C208.715 61.1285 208.939 59.4881 209.457 57.9303C210.227 55.5873 211.592 53.4837 213.417 51.8247C214.493 50.8389 215.711 50.02 217.029 49.3952C217.727 49.0653 218.45 48.7916 219.192 48.5769C219.956 48.3583 220.735 48.1982 221.524 48.0977C222.313 48.0078 223.108 47.9767 223.902 48.0045C224.675 48.0389 225.443 48.1325 226.201 48.2843C227.63 48.5756 229.007 49.0786 230.288 49.7768C232.455 50.9549 234.282 52.6723 235.592 54.763C236.468 56.1519 237.078 57.6918 237.39 59.3041C237.568 60.4997 237.568 61.1357 237.492 61.1357Z" fill="black"/>
</g>
<g opacity="0.3">
<path d="M225.662 71.2187L225.921 73.6948L223.708 73.928L223.458 71.5155C221.253 71.6087 219.082 71.1423 217.767 70.3198L218.7 67.4917C220.062 68.2459 221.596 68.6331 223.152 68.6153L222.766 64.9223C220.252 64.5788 217.424 64.0488 217.093 60.8815C216.847 58.5368 218.344 56.349 221.795 55.5858L221.541 53.1308L223.754 52.9019L224.005 55.3102C225.596 55.2355 227.182 55.5377 228.635 56.1921L227.816 59.0159C226.713 58.5209 225.523 58.25 224.314 58.2188L224.704 61.9797C227.218 62.2977 230.004 62.8277 230.326 65.9568C230.568 68.2719 229.088 70.4385 225.662 71.2187ZM222.436 61.6702L222.105 58.5283C220.964 58.9142 220.566 59.6053 220.642 60.3346C220.719 61.0639 221.427 61.4624 222.436 61.6702ZM226.794 66.6055C226.714 65.8296 226.027 65.4777 225.043 65.2445L225.361 68.2973C226.443 67.9411 226.867 67.3136 226.794 66.6055Z" fill="black"/>
</g>
<path d="M209.05 64.1758C209.064 64.2127 209.074 64.2512 209.08 64.2903C209.08 64.3794 209.114 64.4896 209.139 64.6253C209.165 64.7609 209.19 64.9602 209.224 65.168C209.258 65.4167 209.308 65.6631 209.372 65.9058C209.982 68.5486 211.322 70.9669 213.239 72.8848L213.909 73.4953C214.024 73.5929 214.13 73.7031 214.253 73.8006L214.63 74.0805C214.884 74.267 215.134 74.4748 215.406 74.6486L216.254 75.1617C217.468 75.8475 218.775 76.3544 220.133 76.6669C223.075 77.3396 226.154 77.0559 228.923 75.857C230.202 75.3021 231.395 74.5652 232.463 73.6692L233.201 73.012C233.439 72.7915 233.625 72.5414 233.858 72.3124C233.964 72.1979 234.075 72.0834 234.176 71.969C234.278 71.8545 234.367 71.723 234.465 71.6043C234.647 71.3584 234.829 71.121 235.012 70.8835C235.63 69.9732 236.146 68.9978 236.551 67.9749C237.137 66.4858 237.47 64.9096 237.539 63.3109C237.555 63.061 237.555 62.8103 237.539 62.5604C237.539 62.3484 237.539 62.1618 237.539 62.0092C237.539 61.8566 237.539 61.759 237.539 61.67C237.535 61.6305 237.535 61.5908 237.539 61.5513C237.543 61.5893 237.543 61.6277 237.539 61.6658C237.539 61.7548 237.539 61.8693 237.564 62.005C237.59 62.1406 237.564 62.3442 237.594 62.5604C237.613 62.8116 237.613 63.0639 237.594 63.3151C237.559 64.9272 237.245 66.521 236.665 68.0258C236.27 69.0709 235.755 70.0668 235.13 70.9938L234.6 71.7358C234.503 71.8587 234.414 71.9902 234.312 72.1089L233.99 72.4608C233.774 72.694 233.566 72.9442 233.324 73.1689L232.582 73.843C231.5 74.7558 230.292 75.507 228.995 76.0733C226.191 77.2918 223.071 77.5801 220.091 76.8958C218.711 76.5759 217.386 76.0559 216.156 75.3525L215.308 74.831C215.033 74.6529 214.783 74.4409 214.524 74.2543L214.147 73.966C214.024 73.8685 213.913 73.754 213.795 73.6522L213.108 73.0078C212.329 72.211 211.642 71.3292 211.06 70.379C210.216 69.004 209.617 67.4935 209.288 65.9142C209.227 65.6703 209.185 65.4223 209.16 65.1722C209.135 64.9602 209.114 64.7737 209.093 64.621C209.071 64.4684 209.067 64.3709 209.054 64.2818C209.05 64.2467 209.048 64.2112 209.05 64.1758Z" fill="#263238"/>
<path d="M215.52 116.531C214.587 118.477 213.097 120.103 211.239 121.201C209.382 122.3 207.24 122.823 205.085 122.704C202.93 122.585 200.859 121.829 199.134 120.532C197.409 119.235 196.107 117.456 195.394 115.419C194.681 113.382 194.588 111.179 195.128 109.089C195.668 106.999 196.815 105.117 198.425 103.68C200.035 102.242 202.036 101.315 204.173 101.016C206.311 100.716 208.489 101.057 210.432 101.997C211.72 102.617 212.874 103.485 213.827 104.551C214.78 105.617 215.514 106.86 215.986 108.21C216.459 109.56 216.661 110.989 216.581 112.417C216.501 113.845 216.14 115.243 215.52 116.531Z" fill="#426E8A"/>
<g opacity="0.3">
<path d="M213.311 115.17C213.355 114.831 213.434 114.497 213.549 114.174C213.767 113.289 213.849 112.375 213.79 111.465C213.744 110.841 213.632 110.224 213.455 109.624C213.247 108.941 212.952 108.287 212.578 107.678C212.375 107.35 212.15 107.037 211.903 106.741C211.099 105.78 210.083 105.016 208.935 104.511C208.544 104.34 208.14 104.198 207.727 104.087C207.325 103.981 206.915 103.906 206.502 103.862C206.103 103.817 205.702 103.803 205.302 103.82C204.916 103.835 204.532 103.879 204.153 103.951C203.45 104.079 202.767 104.299 202.122 104.604C201.558 104.874 201.025 105.204 200.532 105.588C199.817 106.156 199.195 106.831 198.687 107.589C198.522 107.891 198.328 108.175 198.106 108.437C198.158 108.091 198.284 107.759 198.475 107.466C198.923 106.616 199.527 105.858 200.256 105.232C200.756 104.797 201.307 104.424 201.897 104.121C202.576 103.773 203.299 103.517 204.047 103.362C204.883 103.189 205.741 103.143 206.591 103.226C207.037 103.271 207.479 103.35 207.914 103.464C208.36 103.584 208.796 103.737 209.219 103.922C209.641 104.111 210.048 104.332 210.436 104.583C210.811 104.829 211.165 105.104 211.496 105.406C211.819 105.695 212.117 106.012 212.387 106.351C212.647 106.672 212.883 107.012 213.091 107.369C213.481 108.032 213.779 108.745 213.977 109.489C214.145 110.129 214.238 110.786 214.252 111.448C214.276 112.402 214.123 113.352 213.799 114.25C213.701 114.587 213.535 114.901 213.311 115.17Z" fill="black"/>
</g>
<g opacity="0.3">
<path d="M204.407 116.68L203.801 117.99L202.626 117.447L203.22 116.175C202.194 115.657 201.333 114.863 200.735 113.881L202.045 112.749C202.5 113.532 203.15 114.184 203.932 114.64L204.844 112.681C203.686 111.761 202.436 110.65 203.216 108.976C203.792 107.733 205.187 107.085 207.138 107.733L207.744 106.432L208.914 106.979L208.321 108.251C209.138 108.686 209.84 109.31 210.369 110.07L209.097 111.24C208.694 110.664 208.181 110.174 207.587 109.798L206.663 111.791C207.82 112.698 209.05 113.797 208.283 115.45C207.736 116.68 206.353 117.303 204.407 116.68ZM205.641 110.951L206.417 109.289C205.73 109.141 205.323 109.366 205.145 109.752C204.967 110.137 205.204 110.54 205.641 110.943V110.951ZM206.349 114.717C206.536 114.293 206.302 113.924 205.878 113.512L205.128 115.132C205.768 115.268 206.192 115.081 206.349 114.708V114.717Z" fill="black"/>
</g>
<path d="M198.217 108.2C198.217 108.2 198.09 108.543 197.882 109.166C197.601 110.049 197.469 110.971 197.492 111.897C197.508 112.534 197.595 113.166 197.75 113.784C197.935 114.497 198.207 115.185 198.56 115.832C198.962 116.531 199.462 117.169 200.044 117.727C201.303 118.935 202.915 119.707 204.645 119.932C205.443 120.036 206.253 120.024 207.049 119.898C208.404 119.681 209.684 119.128 210.771 118.291C211.506 117.727 212.143 117.047 212.658 116.277C213.01 115.726 213.176 115.395 213.197 115.408C213.171 115.492 213.136 115.573 213.091 115.649C212.983 115.879 212.863 116.103 212.73 116.319C212.236 117.12 211.606 117.829 210.869 118.414C209.774 119.296 208.47 119.88 207.083 120.11C206.267 120.247 205.435 120.263 204.615 120.157C203.735 120.034 202.877 119.781 202.071 119.406C201.275 119.014 200.542 118.505 199.896 117.897C199.301 117.323 198.792 116.666 198.386 115.946C198.017 115.292 197.732 114.594 197.538 113.869C197.389 113.236 197.31 112.589 197.305 111.939C197.295 110.999 197.451 110.065 197.767 109.179C197.85 108.939 197.949 108.706 198.064 108.48C198.104 108.38 198.155 108.287 198.217 108.2Z" fill="#263238"/>
<path d="M35.5067 114.984C36.0233 118.471 35.4937 122.032 33.985 125.217C32.4762 128.402 30.0563 131.068 27.0315 132.877C24.0067 134.686 20.5131 135.557 16.993 135.38C13.473 135.202 10.0849 133.984 7.25769 131.879C4.43047 129.775 2.29133 126.878 1.11111 123.557C-0.0691084 120.236 -0.237315 116.64 0.627792 113.223C1.4929 109.806 3.35241 106.723 5.97086 104.364C8.58932 102.005 11.8489 100.476 15.337 99.9703C17.6472 99.6316 20.0015 99.7512 22.2655 100.322C24.5294 100.894 26.6587 101.905 28.5317 103.299C30.4046 104.694 31.9846 106.443 33.1814 108.448C34.3782 110.453 35.1683 112.674 35.5067 114.984Z" fill="#426E8A"/>
<g opacity="0.3">
<path d="M31.2497 115.162C31.1692 115.162 31.025 114.598 30.6604 113.602C30.1527 112.2 29.4288 110.887 28.5149 109.709C27.8891 108.908 27.1782 108.178 26.3949 107.53C25.4891 106.793 24.4914 106.178 23.4269 105.698C22.8551 105.436 22.264 105.217 21.6588 105.045C21.0306 104.854 20.3884 104.712 19.7381 104.621C19.0666 104.53 18.389 104.49 17.7114 104.503C17.0135 104.52 16.3177 104.588 15.6296 104.706C14.942 104.831 14.2646 105.007 13.6028 105.232C12.962 105.456 12.3385 105.727 11.7372 106.042C11.1569 106.347 10.6012 106.697 10.0752 107.089C9.56723 107.461 9.08685 107.869 8.6378 108.31C7.07639 109.845 5.91219 111.737 5.2458 113.822C4.7933 115.242 4.56583 116.724 4.57164 118.215C4.57164 119.275 4.63524 119.868 4.57164 119.881C4.50804 119.894 4.30876 119.321 4.1858 118.236C4.01856 116.687 4.14515 115.12 4.55892 113.619C4.83964 112.574 5.24388 111.566 5.76308 110.617C6.36716 109.526 7.11436 108.52 7.98484 107.627C8.45585 107.143 8.9633 106.695 9.50276 106.288C10.0641 105.859 10.6581 105.475 11.2793 105.139C11.9232 104.79 12.5938 104.494 13.2848 104.252C14.7101 103.749 16.2084 103.482 17.7199 103.464C18.4518 103.456 19.1832 103.504 19.9077 103.608C20.6075 103.707 21.2981 103.863 21.9726 104.074C22.6187 104.272 23.2494 104.517 23.8594 104.808C25.9725 105.811 27.7919 107.341 29.1424 109.251C30.0433 110.523 30.7017 111.951 31.0844 113.462C31.3048 114.56 31.3091 115.153 31.2497 115.162Z" fill="black"/>
</g>
<g opacity="0.3">
<path d="M20.5735 125.321L20.9466 127.653L18.8647 127.988L18.5001 125.716C16.4183 125.919 14.3364 125.593 13.0475 124.868L13.7852 122.141C15.1129 122.792 16.5878 123.084 18.0634 122.989L17.5079 119.512C15.1039 119.322 12.3987 118.961 11.9196 115.985C11.5677 113.776 12.8694 111.622 16.1003 110.723L15.7271 108.408L17.8132 108.077L18.1736 110.346C19.6781 110.192 21.1976 110.395 22.6087 110.939L21.9769 113.67C20.9053 113.257 19.7622 113.063 18.6146 113.097L19.1827 116.638C21.5826 116.807 24.2453 117.172 24.7159 120.11C25.0636 122.273 23.7789 124.401 20.5735 125.321ZM17.0161 116.447L16.5412 113.479C15.477 113.903 15.1378 114.581 15.248 115.268C15.3583 115.955 16.0536 116.303 17.0161 116.447ZM21.4045 120.895C21.2858 120.165 20.6201 119.864 19.6746 119.695L20.1325 122.569C21.1374 122.192 21.5105 121.56 21.4045 120.895Z" fill="black"/>
</g>
<path d="M4.4743 119.521C4.48703 119.555 4.49695 119.591 4.50398 119.627C4.52518 119.707 4.55062 119.813 4.5803 119.94L4.69054 120.449C4.73605 120.683 4.79552 120.914 4.86862 121.14C5.28987 122.596 5.95044 123.972 6.82326 125.211C7.42527 126.063 8.12071 126.845 8.89662 127.543L9.5623 128.085C9.67678 128.174 9.78702 128.272 9.90574 128.357L10.2789 128.603C10.529 128.764 10.7749 128.946 11.0421 129.099L11.8646 129.523C13.0504 130.109 14.314 130.521 15.617 130.748C17.0205 130.97 18.449 130.986 19.857 130.795C21.2596 130.568 22.6221 130.14 23.902 129.523C25.0822 128.929 26.1716 128.169 27.1371 127.267L27.7985 126.601C28.0148 126.381 28.1929 126.135 28.3879 125.91L28.672 125.567C28.7653 125.448 28.8416 125.325 28.9221 125.206C29.0875 124.965 29.2444 124.727 29.4055 124.494C29.942 123.6 30.3798 122.65 30.7114 121.662C31.1884 120.222 31.422 118.713 31.4025 117.197C31.4108 116.959 31.4009 116.721 31.3729 116.485C31.3729 116.285 31.3432 116.112 31.3347 115.963C31.3262 115.815 31.3347 115.73 31.3135 115.641C31.3079 115.604 31.3079 115.567 31.3135 115.531C31.3265 115.566 31.3337 115.603 31.3347 115.641C31.3347 115.726 31.3601 115.832 31.3771 115.959C31.3941 116.086 31.4153 116.281 31.4407 116.481C31.4731 116.718 31.4887 116.957 31.4873 117.197C31.5423 118.726 31.3299 120.253 30.8598 121.708C30.5371 122.716 30.1004 123.683 29.5581 124.592L29.079 125.312C28.9942 125.435 28.9179 125.563 28.8246 125.681L28.5405 126.029C28.3455 126.262 28.1632 126.512 27.9469 126.737C27.7307 126.962 27.5229 127.187 27.277 127.411C26.3003 128.335 25.1949 129.112 23.9953 129.718C21.398 131.022 18.4507 131.457 15.5873 130.96C14.2606 130.723 12.9752 130.294 11.7713 129.688L10.9233 129.234C10.652 129.082 10.4061 128.895 10.1517 128.73L9.7743 128.48C9.65558 128.391 9.54534 128.289 9.42662 128.2L8.7567 127.649C7.97681 126.935 7.27987 126.136 6.6791 125.266C5.80866 124.007 5.1631 122.607 4.7711 121.128C4.69836 120.899 4.64447 120.665 4.60998 120.428C4.57606 120.229 4.54638 120.059 4.5167 119.911L4.46582 119.593C4.46658 119.568 4.46942 119.544 4.4743 119.521Z" fill="#263238"/>
<path d="M259.391 171.037C259.391 171.101 196.084 171.151 118.009 171.151C39.9333 171.151 -23.3911 171.101 -23.3911 171.037C-23.3911 170.973 39.9036 170.927 118.009 170.927C196.114 170.927 259.391 170.978 259.391 171.037Z" fill="#263238"/>
<path d="M200.739 0.889589C200.824 0.879251 200.909 0.879251 200.994 0.889589L201.74 0.910789C201.905 0.910789 202.088 0.910789 202.291 0.910789L202.948 1.00407L203.72 1.11431L204.568 1.33055C206.049 1.70831 207.457 2.32714 208.736 3.16223C210.638 4.36246 212.238 5.98326 213.414 7.8997C214.59 9.81615 215.311 11.9771 215.52 14.2159C215.579 14.8856 215.593 15.5584 215.562 16.2299C215.537 16.5691 215.562 16.9168 215.495 17.2602C215.427 17.6037 215.389 17.9471 215.338 18.299C215.075 19.7257 214.604 21.1059 213.939 22.3949C213.228 23.7472 212.325 24.9897 211.259 26.0837C210.123 27.1994 208.821 28.1333 207.4 28.8524C205.93 29.6075 204.339 30.097 202.698 30.2982C202.277 30.3622 201.852 30.3976 201.426 30.4042C201.003 30.4277 200.578 30.4277 200.154 30.4042C199.299 30.3699 198.448 30.2635 197.61 30.0862C195.809 29.6995 194.095 28.9806 192.556 27.9662H192.709L187.557 30.0353L187.252 30.1583L187.341 29.8403C187.858 27.9493 188.367 26.1133 188.855 24.3283L188.88 24.464C187.483 22.6113 186.542 20.4558 186.133 18.1718C185.937 17.1096 185.87 16.0277 185.933 14.9494C185.943 14.4293 185.991 13.9105 186.078 13.3976C186.116 13.1474 186.158 12.8973 186.196 12.6471C186.234 12.3969 186.315 12.1595 186.374 11.9178C187.237 8.53277 189.273 5.56374 192.12 3.53959C193.176 2.79853 194.329 2.2051 195.545 1.77575C195.813 1.67823 196.067 1.58495 196.317 1.50015L197.046 1.31359L197.716 1.14823C197.928 1.10583 198.14 1.08463 198.331 1.05495C198.721 1.00407 199.065 0.93623 199.361 0.92351L200.12 0.89807H200.583C200.635 0.891723 200.687 0.891723 200.739 0.89807C200.688 0.90851 200.635 0.915591 200.583 0.919269L200.12 0.95319L199.37 1.00407C199.073 1.02951 198.734 1.10159 198.348 1.16095C195.554 1.64306 192.96 2.92624 190.881 4.85462C188.802 6.783 187.328 9.27358 186.637 12.0238C186.582 12.2613 186.506 12.4987 186.463 12.7404C186.421 12.9821 186.391 13.2322 186.353 13.4824C186.267 13.9839 186.221 14.4915 186.217 15.0003C186.159 16.0578 186.229 17.1184 186.425 18.1591C186.834 20.3952 187.762 22.504 189.135 24.3156L189.181 24.3792V24.4513C188.698 26.2321 188.198 28.0722 187.68 29.9633L187.464 29.7725L192.611 27.6991L192.692 27.6652L192.764 27.7118C194.268 28.7072 195.945 29.4132 197.708 29.7937C198.524 29.9672 199.354 30.0721 200.188 30.1074C200.603 30.1223 201.017 30.1138 201.431 30.082C201.841 30.0779 202.25 30.0439 202.656 29.9802C204.261 29.7873 205.818 29.3106 207.256 28.5725C208.647 27.8702 209.921 26.9578 211.034 25.8674C212.079 24.8003 212.965 23.5879 213.663 22.2677C214.32 21.0062 214.787 19.6546 215.049 18.2566C215.1 17.9132 215.155 17.574 215.206 17.239C215.257 16.9041 215.249 16.5649 215.274 16.2299C215.309 15.57 215.299 14.9084 215.244 14.2498C215.047 12.0501 214.353 9.92394 213.213 8.03239C212.073 6.14084 210.517 4.53343 208.664 3.33183C207.408 2.49845 206.024 1.87415 204.568 1.48319L203.72 1.25847L202.961 1.13127L202.308 1.02527C202.109 1.00407 201.922 0.99983 201.761 0.98287L200.99 0.927749C200.906 0.919558 200.822 0.906819 200.739 0.889589Z" fill="#263238"/>
<path d="M205.577 19.1597C205.519 19.1648 205.461 19.1648 205.403 19.1597H204.903L203.046 19.1894L196.826 19.2445H196.775V19.1936C196.724 18.8671 196.673 18.5152 196.622 18.1633C196.198 15.1486 195.808 12.4562 195.558 10.7009L195.592 10.7306H193.938H193.514H193.362C193.413 10.725 193.464 10.725 193.514 10.7306H193.938L195.592 10.6797H195.626V10.7094C195.889 12.469 196.287 15.1571 196.737 18.1675L196.885 19.1978L196.826 19.147H203.046L204.92 19.1597H205.425C205.475 19.1549 205.526 19.1549 205.577 19.1597Z" fill="#426E8A"/>
<path d="M196.957 19.3295H196.75L196.716 19.1175V19.0667L196.593 18.2187L195.512 10.8071H193.493C193.315 10.8071 193.286 10.8071 193.286 10.7478V10.7266C193.286 10.7266 193.286 10.7266 193.476 10.6969H193.9L195.457 10.6757V10.6333L195.499 10.6715H195.643V10.7478C195.641 10.7703 195.641 10.7931 195.643 10.8156L195.685 10.8538H195.647C195.91 12.6134 196.3 15.2549 196.741 18.2059L196.877 19.143H202.999H205.357C205.556 19.143 205.582 19.143 205.582 19.2066C205.582 19.2702 205.582 19.2659 205.357 19.2702H204.857L203.004 19.2956L196.911 19.3507L196.957 19.3295ZM196.957 19.2023H198.611H196.957ZM196.389 16.1919L196.813 19.0921L196.678 18.172C196.58 17.4979 196.483 16.8364 196.389 16.1919Z" fill="#426E8A"/>
<path d="M196.563 17.3958H196.737H197.237L199.107 17.3661L205.565 17.3068L205.51 17.3534C205.696 16.268 205.895 15.0892 206.103 13.8724C206.209 13.2491 206.315 12.6343 206.413 12.0449L206.472 12.1128L198.861 12.1382H196.016H195.859H196.016H196.623L198.874 12.1085L206.485 12.0449H206.553V12.1128C206.455 12.6979 206.349 13.3127 206.243 13.9402C206.035 15.1571 205.819 16.3316 205.645 17.4212V17.4679H205.599H199.141H197.271H196.771H196.597L196.563 17.3958Z" fill="#426E8A"/>
<path d="M199.107 17.4638H196.605C196.559 17.4638 196.508 17.4638 196.508 17.4044C196.508 17.345 196.559 17.3493 196.605 17.345H197.233L199.107 17.3196L205.467 17.2602L206.044 13.8682C206.145 13.2874 206.243 12.7192 206.336 12.1722L198.857 12.1977H195.838C195.783 12.1977 195.732 12.1977 195.732 12.1383C195.732 12.079 195.783 12.0832 195.838 12.079H196.601L198.857 12.045L206.374 11.9814H206.616L206.582 12.185L205.734 17.273L205.7 17.4765H205.492L199.107 17.4638ZM205.467 17.3366H204.526H205.467ZM206.459 12.1426C206.366 12.6938 206.268 13.2704 206.167 13.8386L205.594 17.2306L206.442 12.1426H206.459ZM206.37 12.0281H204.509H206.37Z" fill="#426E8A"/>
<path d="M199.027 21.5681C199.027 21.5681 199.027 21.4918 198.976 21.3603C198.922 21.1772 198.809 21.0173 198.654 20.9067C198.541 20.8272 198.411 20.7764 198.274 20.7587C198.137 20.741 197.998 20.7568 197.869 20.8049C197.713 20.8644 197.578 20.9701 197.484 21.108C197.389 21.2459 197.339 21.4093 197.339 21.5766C197.343 21.744 197.396 21.9066 197.492 22.044C197.587 22.1813 197.722 22.2872 197.878 22.3482C198.008 22.3945 198.147 22.4083 198.284 22.3883C198.421 22.3684 198.551 22.3153 198.662 22.2338C198.815 22.1193 198.926 21.9587 198.98 21.7758C199.018 21.6486 199.018 21.5681 199.027 21.5681C199.046 21.6403 199.046 21.7164 199.027 21.7886C198.986 21.9892 198.877 22.1693 198.717 22.2974C198.612 22.3816 198.49 22.4418 198.359 22.4738C198.228 22.5059 198.092 22.5089 197.96 22.4829C197.828 22.4568 197.703 22.4021 197.594 22.3228C197.486 22.2434 197.396 22.1413 197.33 22.0235C197.265 21.9057 197.227 21.775 197.217 21.6407C197.208 21.5064 197.228 21.3717 197.276 21.2459C197.324 21.1202 197.399 21.0064 197.496 20.9127C197.592 20.8189 197.708 20.7474 197.835 20.7031C197.981 20.6496 198.137 20.6343 198.29 20.6588C198.443 20.6833 198.587 20.7468 198.709 20.843C198.869 20.9699 198.981 21.148 199.027 21.3476C199.048 21.4918 199.035 21.5681 199.027 21.5681Z" fill="#426E8A"/>
<path d="M198.136 22.5516C198.029 22.5515 197.923 22.5329 197.822 22.4965C197.63 22.4314 197.464 22.3082 197.345 22.1441C197.227 21.98 197.162 21.7831 197.161 21.5806C197.159 21.3974 197.209 21.2173 197.305 21.061C197.4 20.9048 197.538 20.7787 197.703 20.6972C197.867 20.6158 198.051 20.5823 198.233 20.6006C198.415 20.6188 198.589 20.6881 198.734 20.8005C198.906 20.9341 199.025 21.1252 199.069 21.339C199.083 21.4146 199.083 21.4923 199.069 21.5679C199.081 21.6437 199.081 21.7211 199.069 21.7969C199.026 22.0113 198.909 22.2037 198.738 22.3396C198.567 22.4755 198.355 22.5502 198.136 22.5516ZM197.954 20.7199L197.843 20.7538C197.674 20.8144 197.527 20.926 197.423 21.0733C197.319 21.2205 197.264 21.3963 197.264 21.5764C197.264 21.7566 197.319 21.9323 197.423 22.0796C197.527 22.2268 197.674 22.3384 197.843 22.399L197.954 22.4286L197.848 22.3947C197.679 22.3333 197.534 22.2216 197.431 22.0749C197.329 21.9281 197.274 21.7534 197.274 21.5743C197.274 21.3952 197.329 21.2204 197.431 21.0737C197.534 20.9269 197.679 20.8153 197.848 20.7538L197.954 20.7199ZM198.157 20.8047C198.063 20.8038 197.969 20.8211 197.881 20.8556C197.736 20.9114 197.61 21.0102 197.521 21.1389C197.433 21.2676 197.385 21.4202 197.385 21.5764C197.387 21.7194 197.428 21.8592 197.504 21.9804C197.58 22.1015 197.688 22.1993 197.816 22.2629C197.944 22.3265 198.087 22.3535 198.23 22.3408C198.372 22.3282 198.509 22.2764 198.623 22.1912C198.766 22.0849 198.871 21.9366 198.925 21.7672C198.941 21.716 198.952 21.6635 198.958 21.6103C198.958 21.6103 198.958 21.5849 198.958 21.5722C198.956 21.561 198.956 21.5494 198.958 21.5382C198.95 21.4849 198.938 21.4324 198.92 21.3814C198.869 21.2108 198.763 21.0618 198.619 20.9574C198.487 20.8594 198.326 20.8059 198.161 20.8047H198.157Z" fill="#426E8A"/>
<path d="M204.657 21.5343C204.657 21.5343 204.657 21.458 204.606 21.3266C204.552 21.145 204.439 20.9867 204.284 20.8771C204.159 20.7934 204.014 20.7446 203.863 20.7356C203.713 20.7266 203.563 20.7578 203.429 20.826C203.294 20.8943 203.181 20.997 203.099 21.1237C203.018 21.2505 202.972 21.3966 202.965 21.5471C202.97 21.7142 203.024 21.8763 203.121 22.0129C203.217 22.1494 203.352 22.2544 203.508 22.3145C203.638 22.3608 203.778 22.3745 203.915 22.3546C204.051 22.3346 204.181 22.2816 204.293 22.2C204.445 22.0871 204.556 21.9279 204.611 21.7463C204.649 21.6149 204.649 21.5343 204.657 21.5343C204.675 21.6068 204.675 21.6824 204.657 21.7548C204.62 21.9578 204.51 22.1402 204.348 22.2679C204.211 22.3742 204.047 22.4401 203.875 22.4579C203.703 22.4758 203.529 22.445 203.374 22.369C203.218 22.293 203.087 22.1749 202.996 22.0281C202.904 21.8813 202.855 21.7117 202.855 21.5386C202.855 21.3655 202.904 21.1959 202.996 21.0491C203.087 20.9023 203.218 20.7841 203.374 20.7081C203.529 20.6321 203.703 20.6013 203.875 20.6192C204.047 20.6371 204.211 20.703 204.348 20.8093C204.509 20.937 204.622 21.1168 204.666 21.3181C204.682 21.3897 204.679 21.4642 204.657 21.5343Z" fill="#426E8A"/>
<path d="M203.771 22.518C203.663 22.5191 203.555 22.5019 203.453 22.4671C203.317 22.4225 203.192 22.3486 203.087 22.2505C202.983 22.1524 202.901 22.0325 202.848 21.8993C202.794 21.7661 202.771 21.6229 202.779 21.4797C202.788 21.3365 202.827 21.1969 202.895 21.0707C202.964 20.9445 203.059 20.8348 203.174 20.7494C203.289 20.664 203.422 20.6049 203.562 20.5763C203.703 20.5477 203.848 20.5503 203.987 20.584C204.127 20.6177 204.257 20.6815 204.369 20.7711C204.54 20.9062 204.658 21.0966 204.704 21.3096C204.718 21.3852 204.718 21.4629 204.704 21.5385C204.717 21.6143 204.717 21.6917 204.704 21.7675C204.659 21.9821 204.541 22.1746 204.37 22.3121C204.199 22.4497 203.986 22.5239 203.767 22.5222L203.771 22.518ZM203.58 20.6905L203.478 20.7202C203.309 20.7808 203.162 20.8923 203.058 21.0396C202.954 21.1869 202.899 21.3626 202.899 21.5428C202.899 21.7229 202.954 21.8986 203.058 22.0459C203.162 22.1932 203.309 22.3047 203.478 22.3653L203.601 22.3992L203.483 22.3653C203.315 22.3029 203.17 22.1906 203.068 22.0436C202.966 21.8965 202.911 21.7218 202.911 21.5428C202.911 21.3637 202.966 21.189 203.068 21.0419C203.17 20.8949 203.315 20.7826 203.483 20.7202L203.58 20.6905ZM203.792 20.7711C203.698 20.7697 203.604 20.787 203.517 20.822C203.413 20.8614 203.32 20.9227 203.242 21.0015C203.165 21.0803 203.105 21.1748 203.067 21.2787C203.029 21.3826 203.014 21.4934 203.023 21.6036C203.032 21.7138 203.064 21.8208 203.118 21.9175C203.171 22.0141 203.245 22.0981 203.334 22.1637C203.423 22.2293 203.525 22.2751 203.633 22.2979C203.742 22.3206 203.853 22.3199 203.961 22.2957C204.069 22.2715 204.171 22.2244 204.259 22.1576C204.401 22.0512 204.506 21.9029 204.56 21.7336C204.574 21.6819 204.585 21.6295 204.594 21.5767C204.592 21.564 204.592 21.5512 204.594 21.5385C204.591 21.5273 204.591 21.5158 204.594 21.5046C204.594 21.4707 204.594 21.4156 204.555 21.3477C204.504 21.1771 204.399 21.0281 204.254 20.9237C204.12 20.8254 203.959 20.772 203.792 20.7711Z" fill="#426E8A"/>
</g>
<defs>
<clipPath id="clip0_424_5070">
<rect width="259" height="175" fill="white"/>
</clipPath>
</defs>
</svg>
