<svg width="131" height="130" viewBox="0 0 131 130" fill="none" xmlns="http://www.w3.org/2000/svg">
<g clip-path="url(#clip0_292_4409)">
<path d="M121.38 120.179H7.94905C3.91446 120.179 0.643555 116.908 0.643555 112.873V45.865C0.643555 34.2007 10.0994 24.7449 21.7637 24.7449H121.379C125.414 24.7449 128.685 28.0158 128.685 32.0504V112.873C128.685 116.908 125.414 120.179 121.38 120.179Z" fill="url(#paint0_linear_292_4409)"/>
<path d="M121.38 120.179H7.94905C3.91446 120.179 0.643555 116.908 0.643555 112.873V45.865C0.643555 34.2007 10.0994 24.7449 21.7637 24.7449H121.379C125.414 24.7449 128.685 28.0158 128.685 32.0504V112.873C128.685 116.908 125.414 120.179 121.38 120.179Z" fill="url(#paint1_linear_292_4409)"/>
<path d="M55.2691 98.8712L55.4755 10.8971C55.4788 9.46966 56.6386 8.31521 58.0661 8.31852L103.985 8.42609C105.413 8.4294 106.567 9.58946 106.564 11.0169L106.357 98.991C106.354 100.418 105.194 101.573 103.766 101.57L57.8474 101.462C56.4202 101.459 55.2657 100.299 55.2691 98.8712Z" fill="url(#paint2_linear_292_4409)"/>
<path d="M57.0449 96.963L57.2422 12.814C57.2453 11.4676 58.3393 10.3789 59.6857 10.382L102.356 10.4821C103.703 10.4852 104.791 11.5792 104.788 12.9256L104.591 97.0744C104.588 98.4208 103.494 99.5095 102.147 99.5064L59.4767 99.4062C58.1306 99.4032 57.0419 98.3091 57.0449 96.963Z" fill="url(#paint3_linear_292_4409)"/>
<path d="M90.7454 93.727C90.7556 89.4125 94.2613 85.9231 98.5758 85.9333C98.7529 85.9338 98.9288 85.9402 99.1029 85.9524C99.939 86.0111 100.65 85.3524 100.652 84.5143L100.79 25.467C100.792 24.6289 100.085 23.9669 99.2482 24.0217C99.0741 24.0332 98.8982 24.0388 98.7211 24.0383C94.4066 24.0281 90.9172 20.5224 90.9272 16.208C90.9272 16.2029 90.9272 16.1978 90.9272 16.1927C90.9308 15.3823 90.2945 14.7158 89.4842 14.7137L72.537 14.674C71.7267 14.6722 71.0874 15.3357 71.0871 16.146V16.1613C71.077 20.4758 67.5713 23.9651 63.2568 23.9549C63.0797 23.9544 62.9038 23.9481 62.7297 23.9358C61.8936 23.8772 61.1827 24.5359 61.1809 25.374L61.0425 84.4212C61.0404 85.2594 61.7483 85.9213 62.5846 85.8665C62.7587 85.8551 62.9346 85.8495 63.1118 85.85C67.4262 85.8602 70.9156 89.3658 70.9054 93.6803V93.6956C70.9018 94.5059 71.5381 95.1725 72.3484 95.1745L89.2956 95.2143C90.1059 95.2161 90.7452 94.5526 90.7454 93.7422C90.7454 93.7371 90.7454 93.732 90.7454 93.727Z" fill="url(#paint4_linear_292_4409)"/>
<path d="M80.9159 72.7404C90.7445 72.7404 98.7121 64.7727 98.7121 54.9442C98.7121 45.1156 90.7445 37.1479 80.9159 37.1479C71.0873 37.1479 63.1196 45.1156 63.1196 54.9442C63.1196 64.7727 71.0873 72.7404 80.9159 72.7404Z" fill="url(#paint5_linear_292_4409)"/>
<path d="M91.644 61.9573C92.0682 61.6873 92.4217 61.1643 92.7041 60.385C93.0077 59.5451 93.215 58.6496 93.3297 57.7006C93.362 57.6499 93.3906 57.5982 93.4148 57.5457L94.9246 56.1432C95.0872 55.923 95.1693 55.6851 95.1698 55.4302C95.1706 55.1516 95.0895 54.9133 94.9279 54.716C94.7658 54.5182 94.5805 54.4193 94.3717 54.4188L93.3623 54.4165C93.1579 52.5363 92.5349 50.9623 91.4936 49.6952C90.4523 48.4276 88.9232 47.7921 86.9074 47.7873C86.1893 47.7855 85.535 47.865 84.9439 48.0264C84.3528 48.1869 83.8371 48.4531 83.3961 48.8234C82.9552 49.1933 82.5779 49.5463 82.2644 49.8825C82.2621 49.8848 82.26 49.8876 82.2577 49.8899C82.2577 49.8899 77.8701 54.2569 77.8678 54.2592C77.8242 54.2997 77.7834 54.3395 77.7416 54.3798L71.9189 54.366C71.9911 53.3377 72.259 52.4326 72.7244 51.6506C73.1891 50.8685 73.6245 50.2545 74.0313 49.8071C74.4376 49.36 74.6413 48.9988 74.642 48.7235C74.6431 48.308 74.4236 47.9387 73.9844 47.6147C73.5452 47.2905 73.1055 47.1286 72.6655 47.1276C71.962 47.1258 71.2679 47.5206 70.5827 48.3118L55.3518 63.4714L55.2705 98.161L91.644 61.9573Z" fill="url(#paint6_linear_292_4409)"/>
<path d="M72.6654 47.1274C73.1054 47.1284 73.5451 47.2902 73.9843 47.6145C74.4235 47.9387 74.643 48.3081 74.642 48.7235C74.6412 48.9988 74.4375 49.36 74.0312 49.8071C73.6244 50.2545 73.189 50.8686 72.7243 51.6506C72.2591 52.4329 71.991 53.3378 71.9188 54.3661L80.0823 54.3852C80.3385 53.6895 80.5427 53.156 80.6941 52.7854C80.845 52.4143 81.0665 51.9216 81.3573 51.3075C81.6482 50.6929 81.9505 50.2178 82.264 49.8823C82.5776 49.5464 82.9548 49.1931 83.3958 48.8232C83.8365 48.4526 84.3524 48.1867 84.9436 48.0261C85.5347 47.865 86.1893 47.7855 86.9071 47.787C88.9228 47.7919 90.452 48.4274 91.4933 49.695C92.5345 50.9621 93.1575 52.5361 93.362 54.4163L94.3714 54.4186C94.5804 54.4191 94.7654 54.518 94.9276 54.7158C95.0892 54.9131 95.1702 55.1514 95.1695 55.43C95.169 55.6852 95.0866 55.9227 94.9242 56.143C94.7611 56.363 94.5753 56.4728 94.3665 56.4723L93.4267 56.47C93.3765 57.8852 93.1359 59.1901 92.7038 60.3846C92.2712 61.5785 91.6727 62.1747 90.9067 62.1729C90.4889 62.1719 90.0543 62.0302 89.6024 61.7483C89.1505 61.4666 88.9251 61.0914 88.9261 60.6234C88.9267 60.4386 89.1247 59.9303 89.5216 59.1004C89.918 58.2696 90.1522 57.39 90.2239 56.4624L83.1692 56.4458C82.8195 57.368 82.4876 58.1345 82.1733 58.7453C81.859 59.3558 81.4236 60.0017 80.8659 60.6813C80.3084 61.3608 79.6067 61.8727 78.7607 62.2165C77.9146 62.5607 76.9238 62.7317 75.789 62.7291C73.7156 62.7243 72.069 62.1548 70.8488 61.021C69.6288 59.887 68.8812 58.3507 68.6061 56.4117L67.4433 56.4088C67.2381 56.4083 67.0563 56.2975 66.8968 56.0767C66.738 55.8557 66.6584 55.6176 66.6592 55.3625C66.6599 55.0839 66.7405 54.8458 66.8996 54.6493C67.0599 54.4522 67.2424 54.3541 67.4473 54.3546L68.5065 54.3571C68.5345 52.3383 69.0005 50.6277 69.9043 49.226C70.8095 47.8245 71.7292 47.1251 72.6654 47.1274ZM87.2463 51.2343C86.343 51.2323 85.6532 51.5117 85.1776 52.0737C84.7014 52.635 84.2535 53.478 83.8342 54.6031L90.1627 54.6179C89.8894 52.3658 88.9172 51.2382 87.2463 51.2343ZM71.9843 56.2113C72.3499 58.2541 73.4941 59.2783 75.4163 59.2826C76.4352 59.2849 77.2348 59.0198 77.8147 58.4876C78.3946 57.9548 78.8947 57.2021 79.3143 56.2284L71.9843 56.2113Z" fill="url(#paint7_linear_292_4409)"/>
<path d="M97.0116 20.7488C94.9709 20.744 93.3204 19.0859 93.3252 17.0451C93.33 15.0044 94.9882 13.3539 97.0289 13.3587C99.0697 13.3636 100.72 15.0217 100.715 17.0624C100.711 19.1032 99.0523 20.7537 97.0116 20.7488Z" fill="url(#paint8_linear_292_4409)"/>
<path d="M96.8334 96.6049C94.7926 96.6 93.1421 94.9419 93.147 92.9011C93.1518 90.8604 94.81 89.2099 96.8507 89.2147C98.8915 89.2196 100.542 90.8777 100.537 92.9185C100.533 94.9592 98.8741 96.6097 96.8334 96.6049Z" fill="url(#paint9_linear_292_4409)"/>
<path d="M64.9905 20.6736C67.0312 20.6736 68.6855 19.0193 68.6855 16.9785C68.6855 14.9378 67.0312 13.2835 64.9905 13.2835C62.9497 13.2835 61.2954 14.9378 61.2954 16.9785C61.2954 19.0193 62.9497 20.6736 64.9905 20.6736Z" fill="url(#paint10_linear_292_4409)"/>
<path d="M64.8122 96.5296C66.853 96.5296 68.5073 94.8752 68.5073 92.8345C68.5073 90.7938 66.853 89.1395 64.8122 89.1395C62.7715 89.1395 61.1172 90.7938 61.1172 92.8345C61.1172 94.8752 62.7715 96.5296 64.8122 96.5296Z" fill="url(#paint11_linear_292_4409)"/>
<path d="M57.8746 101.744L28.3078 18.887C27.828 17.5426 28.529 16.0637 29.8734 15.584L73.1216 0.151188C74.4659 -0.328537 75.9449 0.372443 76.4246 1.7168L105.991 84.5737C106.471 85.9183 105.77 87.397 104.426 87.8767L61.1776 103.31C59.833 103.789 58.3543 103.088 57.8746 101.744Z" fill="url(#paint12_linear_292_4409)"/>
<path d="M58.8999 99.3473L30.6185 20.0929C30.1661 18.825 30.827 17.4302 32.0952 16.9778L72.2838 2.63673C73.5517 2.18428 74.9465 2.8455 75.3989 4.11338L103.68 83.3677C104.133 84.6356 103.472 86.0304 102.204 86.4829L62.0151 100.824C60.7472 101.276 59.3524 100.615 58.8999 99.3473Z" fill="url(#paint13_linear_292_4409)"/>
<path d="M89.5185 84.9015C88.0683 80.8379 90.1871 76.3684 94.2507 74.9183C94.4177 74.8586 94.5852 74.8053 94.7531 74.7579C95.5596 74.5303 96.0057 73.67 95.7241 72.8806L75.8792 17.2678C75.5975 16.4784 74.7076 16.095 73.9391 16.4295C73.779 16.4991 73.6154 16.5638 73.4487 16.6235C69.385 18.0736 64.9156 15.9548 63.4655 11.8915C63.4637 11.8866 63.4621 11.8818 63.4604 11.8769C63.1894 11.1132 62.3653 10.7011 61.6021 10.9733L45.6407 16.6691C44.8775 16.9413 44.5002 17.7822 44.7743 18.5449C44.776 18.5497 44.7778 18.5546 44.7794 18.5592C46.2295 22.6228 44.1107 27.0923 40.0474 28.5424C39.8804 28.6021 39.7129 28.6553 39.5449 28.7027C38.7382 28.9304 38.2921 29.7907 38.574 30.5801L58.4189 86.1928C58.7006 86.9823 59.5904 87.3656 60.359 87.0312C60.519 86.9616 60.6827 86.8969 60.8494 86.8372C64.913 85.3871 69.3825 87.5058 70.8326 91.5695C70.8344 91.5743 70.8359 91.5792 70.8377 91.5837C71.1087 92.3474 71.9328 92.7596 72.696 92.4871L88.6574 86.7913C89.4206 86.5189 89.7978 85.6782 89.5238 84.9155C89.522 84.9109 89.5203 84.9063 89.5185 84.9015Z" fill="url(#paint14_linear_292_4409)"/>
<path d="M67.1498 69.5266C76.9783 69.5266 84.946 61.5589 84.946 51.7303C84.946 41.9017 76.9783 33.9341 67.1498 33.9341C57.3212 33.9341 49.3535 41.9017 49.3535 51.7303C49.3535 61.5589 57.3212 69.5266 67.1498 69.5266Z" fill="url(#paint15_linear_292_4409)"/>
<path d="M79.6177 54.7007C79.9257 54.3033 80.0814 53.6915 80.0834 52.8626C80.0852 51.9694 79.9771 51.0566 79.764 50.1247C79.7773 50.0661 79.7867 50.0077 79.7916 49.9501L80.738 48.1196C80.8165 47.8574 80.8135 47.606 80.7276 47.3656C80.634 47.1034 80.477 46.9063 80.2583 46.7753C80.0388 46.644 79.8311 46.6137 79.6343 46.6838L78.6835 47.0231C77.8551 45.3229 76.7366 44.0524 75.328 43.2123C73.9191 42.3716 72.2653 42.2908 70.3668 42.9683C69.6906 43.2097 69.1015 43.5059 68.5999 43.8574C68.0979 44.2087 67.7026 44.6334 67.413 45.1312C67.1232 45.6285 66.8877 46.0883 66.7064 46.5107C66.7052 46.5138 66.7042 46.5171 66.7029 46.5199C66.7029 46.5199 64.0511 52.1137 64.0499 52.1168C64.0226 52.1698 63.9976 52.221 63.9719 52.2728L58.4876 54.2296C58.2075 53.2376 58.1537 52.2952 58.3268 51.4018C58.4996 50.5086 58.7015 49.7834 58.933 49.2249C59.1639 48.6667 59.2335 48.2578 59.141 47.9986C59.0013 47.6073 58.6699 47.334 58.1468 47.1775C57.6238 47.021 57.1553 47.0175 56.7408 47.1653C56.0783 47.4016 55.5586 48.008 55.1816 48.9843L45.9771 68.4024L57.6358 101.074L79.6177 54.7007Z" fill="url(#paint16_linear_292_4409)"/>
<path d="M56.7407 47.1656C57.1552 47.0177 57.6237 47.0213 58.1467 47.1778C58.6698 47.3343 59.0012 47.6076 59.1408 47.9988C59.2334 48.2581 59.1638 48.6669 58.9328 49.2252C58.7014 49.7837 58.4993 50.5091 58.3267 51.4023C58.1534 52.2957 58.2074 53.2381 58.4873 54.2302L66.1759 51.4864C66.1817 50.7452 66.1932 50.1739 66.2105 49.774C66.2271 49.3735 66.2687 48.8349 66.3347 48.1589C66.4004 47.4824 66.5243 46.9328 66.7058 46.511C66.8871 46.0886 67.1226 45.6288 67.4124 45.1314C67.702 44.6336 68.0973 44.209 68.5992 43.8577C69.1009 43.5059 69.69 43.2097 70.3662 42.9686C72.2647 42.2911 73.9188 42.3719 75.3274 43.2125C76.736 44.0527 77.8547 45.3231 78.6829 47.0231L79.6337 46.6838C79.8305 46.6137 80.0382 46.644 80.2577 46.7753C80.4766 46.9063 80.6334 47.1034 80.727 47.3657C80.8126 47.6058 80.8157 47.8574 80.7372 48.1197C80.6581 48.3817 80.5205 48.5482 80.3237 48.6185L79.4384 48.9343C79.87 50.283 80.0849 51.5922 80.0826 52.8626C80.0795 54.1325 79.7178 54.8962 78.9967 55.1537C78.6034 55.2941 78.1461 55.3076 77.6256 55.1952C77.1051 55.0831 76.766 54.806 76.6088 54.3655C76.5466 54.1914 76.5611 53.6462 76.6539 52.7308C76.7459 51.815 76.6687 50.908 76.4224 50.0108L69.7782 52.3816C69.7611 53.3678 69.7081 54.2014 69.6188 54.8825C69.5296 55.5633 69.3382 56.3183 69.0435 57.1465C68.7489 57.9747 68.2615 58.6938 67.5819 59.3035C66.9021 59.9135 66.0275 60.4098 64.959 60.7911C63.0062 61.488 61.2639 61.5092 59.7322 60.8548C58.2005 60.2002 56.9772 59.0075 56.0624 57.2757L54.9671 57.6665C54.7739 57.7353 54.5651 57.6925 54.3405 57.5388C54.1162 57.3846 53.961 57.1873 53.8753 56.9472C53.7818 56.6849 53.7769 56.4335 53.8603 56.1947C53.9447 55.9551 54.0831 55.8011 54.2763 55.7321L55.2737 55.3762C54.6171 53.4667 54.4769 51.6995 54.8534 50.0745C55.2301 48.4495 55.859 47.4801 56.7407 47.1656ZM71.8513 46.0978C71.0004 46.4014 70.4457 46.8979 70.1883 47.5874C69.9301 48.2767 69.7937 49.2216 69.7797 50.4219L75.7401 48.295C74.7212 46.2683 73.425 45.5362 71.8513 46.0978ZM59.1727 55.9441C60.2079 57.7427 61.631 58.3196 63.4413 57.6736C64.4007 57.3313 65.0635 56.8111 65.4293 56.1142C65.7948 55.4165 66.0107 54.5391 66.076 53.481L59.1727 55.9441Z" fill="url(#paint17_linear_292_4409)"/>
<path d="M70.7271 14.1063C68.8051 14.7923 66.691 13.79 66.005 11.868C65.3191 9.94606 66.3214 7.8319 68.2433 7.14596C70.1653 6.46002 72.2794 7.46229 72.9654 9.38425C73.6513 11.3062 72.649 13.4204 70.7271 14.1063Z" fill="url(#paint18_linear_292_4409)"/>
<path d="M96.2207 85.55C94.2988 86.2359 92.1846 85.2336 91.4987 83.3117C90.8127 81.3897 91.815 79.2756 93.737 78.5896C95.6589 77.9037 97.7733 78.906 98.459 80.8279C99.145 82.7499 98.143 84.864 96.2207 85.55Z" fill="url(#paint19_linear_292_4409)"/>
<path d="M39.3186 25.0859C41.3593 25.0859 43.0137 23.4316 43.0137 21.3909C43.0137 19.3502 41.3593 17.6958 39.3186 17.6958C37.2779 17.6958 35.6235 19.3502 35.6235 21.3909C35.6235 23.4316 37.2779 25.0859 39.3186 25.0859Z" fill="url(#paint20_linear_292_4409)"/>
<path d="M66.0542 96.3147C64.1323 97.0007 62.0181 95.9984 61.3322 94.0765C60.6462 92.1545 61.6485 90.0403 63.5705 89.3544C65.4924 88.6685 67.6066 89.6707 68.2925 91.5927C68.9785 93.5147 67.9762 95.6288 66.0542 96.3147Z" fill="url(#paint21_linear_292_4409)"/>
<path d="M61.2973 103.566L5.44372 35.5963C4.53754 34.4933 4.69686 32.8648 5.79956 31.9583L41.2771 2.80496C42.38 1.89878 44.0086 2.05809 44.915 3.1608L100.769 71.1304C101.675 72.2334 101.516 73.8619 100.413 74.7684L64.935 103.922C63.8323 104.828 62.2035 104.669 61.2973 103.566Z" fill="url(#paint22_linear_292_4409)"/>
<path d="M61.4517 100.964L8.02657 35.9493C7.17188 34.9091 7.32202 33.373 8.36227 32.5183L41.3298 5.42735C42.37 4.57267 43.9061 4.7228 44.7607 5.76306L98.1859 70.7773C99.0406 71.8176 98.8904 73.3536 97.8502 74.2083L64.8827 101.299C63.8427 102.154 62.3064 102.004 61.4517 100.964Z" fill="url(#paint23_linear_292_4409)"/>
<path d="M85.3786 77.0113C82.6394 73.6779 83.1212 68.755 86.4545 66.0158C86.5914 65.9034 86.7311 65.7963 86.8731 65.6949C87.5552 65.2078 87.6839 64.2473 87.1517 63.5999L49.6635 17.9795C49.1313 17.3321 48.1642 17.2722 47.5542 17.8467C47.427 17.9665 47.2952 18.0828 47.1583 18.1952C43.825 20.9344 38.9021 20.4529 36.1629 17.1192C36.1596 17.1154 36.1565 17.1113 36.1532 17.1075C35.6401 16.4805 34.725 16.3714 34.0989 16.886L21.0054 27.6457C20.3793 28.1601 20.3087 29.079 20.8247 29.704C20.828 29.7078 20.831 29.7119 20.8343 29.7157C23.5735 33.0491 23.0918 37.972 19.7584 40.7112C19.6215 40.8236 19.4818 40.9307 19.3399 41.0321C18.6577 41.5192 18.529 42.4797 19.0612 43.1271L56.5497 88.7475C57.0819 89.3949 58.049 89.4548 58.659 88.88C58.7862 88.7605 58.918 88.6442 59.0549 88.5316C62.3882 85.7924 67.3111 86.2739 70.0503 89.6075C70.0536 89.6113 70.0567 89.6154 70.06 89.6192C70.5734 90.2463 71.4882 90.3554 72.1145 89.8407L85.2081 79.0811C85.8341 78.5667 85.9047 77.6477 85.3888 77.0227C85.3852 77.0192 85.3819 77.0153 85.3786 77.0113Z" fill="url(#paint24_linear_292_4409)"/>
<path d="M53.1058 71.1597C62.9344 71.1597 70.902 63.1921 70.902 53.3635C70.902 43.5349 62.9344 35.5673 53.1058 35.5673C43.2772 35.5673 35.3096 43.5349 35.3096 53.3635C35.3096 63.1921 43.2772 71.1597 53.1058 71.1597Z" fill="url(#paint25_linear_292_4409)"/>
<path d="M65.8437 51.9409C65.9989 51.4627 65.9385 50.8343 65.6601 50.0536C65.3596 49.2127 64.9492 48.3901 64.4333 47.5851C64.4259 47.5252 64.415 47.4673 64.4002 47.4115L64.6714 45.3687C64.6563 45.0952 64.5684 44.8597 64.4065 44.6627C64.2296 44.4475 64.0153 44.3152 63.7652 44.266C63.5141 44.2168 63.3084 44.2584 63.1471 44.3909L62.3671 45.0318C61.0123 43.7121 59.53 42.8949 57.9203 42.5809C56.3101 42.2663 54.7264 42.7499 53.1689 44.0297C52.6143 44.4855 52.16 44.9637 51.807 45.4643C51.4534 45.9647 51.2251 46.498 51.1211 47.0643C51.0165 47.6302 50.9505 48.1428 50.9227 48.6017C50.9225 48.605 50.9225 48.6083 50.9225 48.6116C50.9225 48.6116 50.3194 54.7726 50.3194 54.7759C50.3117 54.835 50.3056 54.8916 50.2987 54.9492L45.8 58.6461C45.2007 57.8072 44.8313 56.9387 44.6922 56.0392C44.5525 55.1401 44.4974 54.3895 44.5262 53.7853C44.5548 53.1817 44.4819 52.7736 44.3073 52.5608C44.0434 52.2399 43.6392 52.0948 43.0939 52.1244C42.549 52.1542 42.1067 52.3092 41.7667 52.5886C41.2232 53.0352 40.9392 53.7815 40.9145 54.8279L38.8218 76.2149L60.8458 103.017L65.8437 51.9409Z" fill="url(#paint26_linear_292_4409)"/>
<path d="M41.7671 52.5888C42.1071 52.3094 42.5491 52.1545 43.0943 52.1246C43.6396 52.0948 44.0439 52.2401 44.3077 52.561C44.4825 52.7736 44.5552 53.182 44.5266 53.7853C44.4978 54.3892 44.5529 55.1401 44.6926 56.0392C44.8318 56.9387 45.2011 57.8072 45.8004 58.646L52.1077 53.4631C51.8622 52.7637 51.68 52.222 51.5609 51.8399C51.4411 51.4576 51.2981 50.9365 51.1314 50.2781C50.9644 49.6192 50.8951 49.0599 50.9234 48.6019C50.9512 48.1431 51.0172 47.6307 51.1217 47.0648C51.2257 46.4984 51.4541 45.9649 51.8077 45.4648C52.161 44.9642 52.6149 44.4862 53.1696 44.0302C54.727 42.7504 56.3108 42.2671 57.921 42.5814C59.5307 42.8954 61.0132 43.7126 62.3677 45.0322L63.1477 44.3914C63.3091 44.2589 63.5151 44.2171 63.7659 44.2663C64.0162 44.3155 64.2303 44.4478 64.4072 44.6629C64.5691 44.8599 64.657 45.0955 64.6721 45.369C64.6863 45.6425 64.6132 45.8456 64.4518 45.9782L63.7256 46.5749C64.5879 47.698 65.2331 48.8576 65.6606 50.0536C66.0873 51.2496 66.0054 52.0905 65.4136 52.5768C65.0909 52.8419 64.6652 53.0094 64.1373 53.08C63.6094 53.1506 63.1967 53.0046 62.8997 52.6431C62.7825 52.5004 62.6117 51.9824 62.3892 51.0895C62.1659 50.1966 61.7866 49.3691 61.251 48.608L55.8007 53.0869C56.1183 54.0206 56.3503 54.823 56.4968 55.4942C56.6432 56.1651 56.7186 56.9402 56.7214 57.8194C56.7242 58.6983 56.5091 59.54 56.0755 60.3437C55.6422 61.1477 54.9871 61.9106 54.1104 62.6309C52.5086 63.9472 50.876 64.5567 49.2135 64.4591C47.5505 64.3615 45.9962 63.6528 44.5493 62.3327L43.6508 63.0709C43.4922 63.2011 43.2814 63.2315 43.0181 63.1627C42.7548 63.0933 42.5422 62.9603 42.3801 62.7632C42.2032 62.5481 42.1137 62.3131 42.1114 62.0602C42.1097 61.8063 42.1879 61.6144 42.3465 61.4841L43.1647 60.8117C41.9009 59.2369 41.1709 57.6213 40.9756 55.965C40.7798 54.3081 41.0439 53.1832 41.7671 52.5888ZM55.6256 46.4722C54.9277 47.0457 54.5736 47.7006 54.5647 48.4365C54.5547 49.1724 54.7462 50.1078 55.1392 51.2422L60.0285 47.2244C58.3841 45.6621 56.9167 45.4115 55.6256 46.4722ZM47.0257 60.0274C48.6081 61.3697 50.1426 61.4311 51.6277 60.2106C52.4148 59.5637 52.8624 58.8502 52.9708 58.0705C53.0789 57.2902 52.9851 56.3917 52.6886 55.3736L47.0257 60.0274Z" fill="url(#paint27_linear_292_4409)"/>
<path d="M41.3996 17.5875C43.4404 17.5875 45.0947 15.9332 45.0947 13.8924C45.0947 11.8517 43.4404 10.1974 41.3996 10.1974C39.3589 10.1974 37.7046 11.8517 37.7046 13.8924C37.7046 15.9332 39.3589 17.5875 41.3996 17.5875Z" fill="url(#paint28_linear_292_4409)"/>
<path d="M89.5593 76.1943C91.6 76.1943 93.2544 74.54 93.2544 72.4993C93.2544 70.4585 91.6 68.8042 89.5593 68.8042C87.5186 68.8042 85.8643 70.4585 85.8643 72.4993C85.8643 74.54 87.5186 76.1943 89.5593 76.1943Z" fill="url(#paint29_linear_292_4409)"/>
<path d="M16.6531 37.9228C18.6938 37.9228 20.3481 36.2685 20.3481 34.2277C20.3481 32.187 18.6938 30.5327 16.6531 30.5327C14.6123 30.5327 12.958 32.187 12.958 34.2277C12.958 36.2685 14.6123 37.9228 16.6531 37.9228Z" fill="url(#paint30_linear_292_4409)"/>
<path d="M64.8132 96.5296C66.8539 96.5296 68.5083 94.8753 68.5083 92.8346C68.5083 90.7938 66.8539 89.1395 64.8132 89.1395C62.7725 89.1395 61.1182 90.7938 61.1182 92.8346C61.1182 94.8753 62.7725 96.5296 64.8132 96.5296Z" fill="url(#paint31_linear_292_4409)"/>
<path d="M112.149 130H7.94904C3.91446 130 0.643555 126.729 0.643555 122.695V49.1872C0.643555 45.1523 3.91446 41.8817 7.94904 41.8817H112.149C116.184 41.8817 119.455 45.1523 119.455 49.1872V122.695C119.455 126.729 116.184 130 112.149 130Z" fill="url(#paint32_linear_292_4409)"/>
<path d="M119.455 122.419V97.2834H94.3193L119.455 122.419Z" fill="url(#paint33_linear_292_4409)"/>
<path d="M111.937 74.3412H95.6829C93.5933 74.3412 91.8989 76.0353 91.8989 78.1252V93.7571C91.8989 95.8467 93.593 97.5411 95.6829 97.5411H111.937C117.896 97.5411 123.535 94.846 127.278 90.2091L128.351 88.8787C129.417 87.5581 129.999 85.9119 129.999 84.2145V67.9709C129.999 66.5277 128.184 65.8866 127.278 67.0097C123.535 71.6461 117.896 74.3412 111.937 74.3412Z" fill="url(#paint34_linear_292_4409)"/>
<path d="M121.359 93.7568V93.7005L108.154 80.4958C106.696 78.9307 104.617 77.9509 102.309 77.9509C97.8966 77.9509 94.3193 81.5282 94.3193 85.941C94.3193 88.2492 95.2992 90.3274 96.8643 91.7859L102.619 97.5406H117.575C119.665 97.5406 121.359 95.8465 121.359 93.7568Z" fill="url(#paint35_linear_292_4409)"/>
<path d="M102.309 93.9312C106.722 93.9312 110.299 90.3539 110.299 85.941C110.299 81.5282 106.722 77.9509 102.309 77.9509C97.8962 77.9509 94.3188 81.5282 94.3188 85.941C94.3188 90.3539 97.8962 93.9312 102.309 93.9312Z" fill="url(#paint36_radial_292_4409)"/>
<path d="M109.442 85.941C109.442 89.88 106.248 93.0732 102.309 93.0732C98.3704 93.0732 95.1772 89.88 95.1772 85.941C95.1772 82.002 98.3704 78.8089 102.309 78.8089C106.248 78.8089 109.442 82.002 109.442 85.941Z" fill="url(#paint37_linear_292_4409)"/>
<path d="M105.883 78.7936C106.422 79.8693 106.726 81.0829 106.726 82.3678C106.726 86.7807 103.148 90.358 98.7354 90.358C97.4504 90.358 96.2368 90.0541 95.1611 89.5153C96.4729 92.1336 99.1807 93.9312 102.309 93.9312C106.721 93.9312 110.299 90.3539 110.299 85.941C110.299 82.8131 108.501 80.1053 105.883 78.7936Z" fill="url(#paint38_linear_292_4409)"/>
<path d="M107.712 82.5213C107.712 84.5717 105.293 86.2337 102.309 86.2337C99.325 86.2337 96.9062 84.5714 96.9062 82.5213C96.9062 80.4708 99.325 78.8086 102.309 78.8086C105.293 78.8089 107.712 80.4711 107.712 82.5213Z" fill="url(#paint39_linear_292_4409)"/>
</g>
<defs>
<linearGradient id="paint0_linear_292_4409" x1="100.136" y1="13.1629" x2="87.6457" y2="35.8492" gradientUnits="userSpaceOnUse">
<stop stop-color="#8A7889"/>
<stop offset="1" stop-color="#6E566E"/>
</linearGradient>
<linearGradient id="paint1_linear_292_4409" x1="109.71" y1="22.4857" x2="96.2002" y2="38.7994" gradientUnits="userSpaceOnUse">
<stop stop-color="#6E566E" stop-opacity="0"/>
<stop offset="0.2191" stop-color="#685168" stop-opacity="0.219"/>
<stop offset="1" stop-color="#564357"/>
</linearGradient>
<linearGradient id="paint2_linear_292_4409" x1="93.23" y1="50.2909" x2="27.1077" y2="76.2742" gradientUnits="userSpaceOnUse">
<stop stop-color="#4AB272"/>
<stop offset="1" stop-color="#077565"/>
</linearGradient>
<linearGradient id="paint3_linear_292_4409" x1="72.3802" y1="59.0719" x2="180.514" y2="9.06591" gradientUnits="userSpaceOnUse">
<stop stop-color="#92F37F" stop-opacity="0"/>
<stop offset="1" stop-color="#FFEE83"/>
</linearGradient>
<linearGradient id="paint4_linear_292_4409" x1="90.6278" y1="51.9547" x2="46.4754" y2="66.4127" gradientUnits="userSpaceOnUse">
<stop stop-color="#91F27F"/>
<stop offset="1" stop-color="#00B302"/>
</linearGradient>
<linearGradient id="paint5_linear_292_4409" x1="71.9367" y1="68.7937" x2="106.854" y2="15.309" gradientUnits="userSpaceOnUse">
<stop stop-color="#92F37F"/>
<stop offset="1" stop-color="#4AB272"/>
</linearGradient>
<linearGradient id="paint6_linear_292_4409" x1="71.6657" y1="67.6933" x2="88.4065" y2="30.0801" gradientUnits="userSpaceOnUse">
<stop stop-color="#4AB272" stop-opacity="0"/>
<stop offset="1" stop-color="#009245"/>
</linearGradient>
<linearGradient id="paint7_linear_292_4409" x1="82.3656" y1="53.4725" x2="72.5156" y2="68.0351" gradientUnits="userSpaceOnUse">
<stop stop-color="#4AB272"/>
<stop offset="1" stop-color="#077565"/>
</linearGradient>
<linearGradient id="paint8_linear_292_4409" x1="98.1984" y1="16.0959" x2="90.6656" y2="23.0428" gradientUnits="userSpaceOnUse">
<stop stop-color="#91F27F"/>
<stop offset="1" stop-color="#00B302"/>
</linearGradient>
<linearGradient id="paint9_linear_292_4409" x1="98.0431" y1="91.9517" x2="90.5101" y2="98.8988" gradientUnits="userSpaceOnUse">
<stop stop-color="#91F27F"/>
<stop offset="1" stop-color="#00B302"/>
</linearGradient>
<linearGradient id="paint10_linear_292_4409" x1="66.1686" y1="16.0303" x2="58.6356" y2="22.9774" gradientUnits="userSpaceOnUse">
<stop stop-color="#91F27F"/>
<stop offset="1" stop-color="#00B302"/>
</linearGradient>
<linearGradient id="paint11_linear_292_4409" x1="66.013" y1="91.8863" x2="58.4803" y2="98.8331" gradientUnits="userSpaceOnUse">
<stop stop-color="#91F27F"/>
<stop offset="1" stop-color="#00B302"/>
</linearGradient>
<linearGradient id="paint12_linear_292_4409" x1="77.0933" y1="42.853" x2="23.6296" y2="89.6541" gradientUnits="userSpaceOnUse">
<stop stop-color="#4AB272"/>
<stop offset="1" stop-color="#077565"/>
</linearGradient>
<linearGradient id="paint13_linear_292_4409" x1="60.4332" y1="58.1637" x2="145.327" y2="-25.4455" gradientUnits="userSpaceOnUse">
<stop stop-color="#92F37F" stop-opacity="0"/>
<stop offset="1" stop-color="#FFEE83"/>
</linearGradient>
<linearGradient id="paint14_linear_292_4409" x1="75.2055" y1="45.2985" x2="38.5284" y2="73.8266" gradientUnits="userSpaceOnUse">
<stop stop-color="#91F27F"/>
<stop offset="1" stop-color="#00B302"/>
</linearGradient>
<linearGradient id="paint15_linear_292_4409" x1="63.3019" y1="67.4652" x2="78.0995" y2="5.31892" gradientUnits="userSpaceOnUse">
<stop stop-color="#92F37F"/>
<stop offset="1" stop-color="#4AB272"/>
</linearGradient>
<linearGradient id="paint16_linear_292_4409" x1="62.6746" y1="66.5211" x2="65.7247" y2="25.4573" gradientUnits="userSpaceOnUse">
<stop stop-color="#4AB272" stop-opacity="0"/>
<stop offset="1" stop-color="#009245"/>
</linearGradient>
<linearGradient id="paint17_linear_292_4409" x1="67.9413" y1="49.5189" x2="63.5895" y2="66.5557" gradientUnits="userSpaceOnUse">
<stop stop-color="#4AB272"/>
<stop offset="1" stop-color="#077565"/>
</linearGradient>
<linearGradient id="paint18_linear_292_4409" x1="70.2146" y1="8.98445" x2="65.471" y2="18.0694" gradientUnits="userSpaceOnUse">
<stop stop-color="#91F27F"/>
<stop offset="1" stop-color="#00B302"/>
</linearGradient>
<linearGradient id="paint19_linear_292_4409" x1="95.7009" y1="80.4433" x2="90.957" y2="89.5284" gradientUnits="userSpaceOnUse">
<stop stop-color="#91F27F"/>
<stop offset="1" stop-color="#00B302"/>
</linearGradient>
<linearGradient id="paint20_linear_292_4409" x1="40.0417" y1="19.746" x2="35.2981" y2="28.831" gradientUnits="userSpaceOnUse">
<stop stop-color="#91F27F"/>
<stop offset="1" stop-color="#00B302"/>
</linearGradient>
<linearGradient id="paint21_linear_292_4409" x1="65.5278" y1="91.2049" x2="60.7841" y2="100.29" gradientUnits="userSpaceOnUse">
<stop stop-color="#91F27F"/>
<stop offset="1" stop-color="#00B302"/>
</linearGradient>
<linearGradient id="paint22_linear_292_4409" x1="59.4198" y1="41.6646" x2="24.9317" y2="103.805" gradientUnits="userSpaceOnUse">
<stop stop-color="#4AB272"/>
<stop offset="1" stop-color="#077565"/>
</linearGradient>
<linearGradient id="paint23_linear_292_4409" x1="48.919" y1="61.7123" x2="100.536" y2="-45.7076" gradientUnits="userSpaceOnUse">
<stop stop-color="#92F37F" stop-opacity="0"/>
<stop offset="1" stop-color="#FFEE83"/>
</linearGradient>
<linearGradient id="paint24_linear_292_4409" x1="58.4709" y1="44.6048" x2="33.6009" y2="83.8663" gradientUnits="userSpaceOnUse">
<stop stop-color="#91F27F"/>
<stop offset="1" stop-color="#00B302"/>
</linearGradient>
<linearGradient id="paint25_linear_292_4409" x1="54.7654" y1="69.4971" x2="47.6666" y2="5.99508" gradientUnits="userSpaceOnUse">
<stop stop-color="#92F37F"/>
<stop offset="1" stop-color="#4AB272"/>
</linearGradient>
<linearGradient id="paint26_linear_292_4409" x1="53.8557" y1="68.8205" x2="42.8328" y2="29.1371" gradientUnits="userSpaceOnUse">
<stop stop-color="#4AB272" stop-opacity="0"/>
<stop offset="1" stop-color="#009245"/>
</linearGradient>
<linearGradient id="paint27_linear_292_4409" x1="53.061" y1="51.0353" x2="54.7293" y2="68.5437" gradientUnits="userSpaceOnUse">
<stop stop-color="#4AB272"/>
<stop offset="1" stop-color="#077565"/>
</linearGradient>
<linearGradient id="paint28_linear_292_4409" x1="41.4864" y1="12.1129" x2="40.0951" y2="22.2689" gradientUnits="userSpaceOnUse">
<stop stop-color="#91F27F"/>
<stop offset="1" stop-color="#00B302"/>
</linearGradient>
<linearGradient id="paint29_linear_292_4409" x1="89.6538" y1="70.7501" x2="88.2625" y2="80.9064" gradientUnits="userSpaceOnUse">
<stop stop-color="#91F27F"/>
<stop offset="1" stop-color="#00B302"/>
</linearGradient>
<linearGradient id="paint30_linear_292_4409" x1="16.7272" y1="32.4513" x2="15.3359" y2="42.6077" gradientUnits="userSpaceOnUse">
<stop stop-color="#91F27F"/>
<stop offset="1" stop-color="#00B302"/>
</linearGradient>
<linearGradient id="paint31_linear_292_4409" x1="64.8948" y1="91.0885" x2="63.5035" y2="101.245" gradientUnits="userSpaceOnUse">
<stop stop-color="#91F27F"/>
<stop offset="1" stop-color="#00B302"/>
</linearGradient>
<linearGradient id="paint32_linear_292_4409" x1="27.9334" y1="33.8105" x2="95.3297" y2="143.208" gradientUnits="userSpaceOnUse">
<stop stop-color="#8A7889"/>
<stop offset="1" stop-color="#6E566E"/>
</linearGradient>
<linearGradient id="paint33_linear_292_4409" x1="118.525" y1="116.547" x2="104.779" y2="93.7953" gradientUnits="userSpaceOnUse">
<stop stop-color="#6E566E" stop-opacity="0"/>
<stop offset="0.2191" stop-color="#685168" stop-opacity="0.219"/>
<stop offset="1" stop-color="#564357"/>
</linearGradient>
<linearGradient id="paint34_linear_292_4409" x1="109.751" y1="75.1426" x2="113.574" y2="93.7504" gradientUnits="userSpaceOnUse">
<stop stop-color="#FF7044"/>
<stop offset="1" stop-color="#F82814"/>
</linearGradient>
<linearGradient id="paint35_linear_292_4409" x1="113.928" y1="96.3795" x2="104.448" y2="88.1752" gradientUnits="userSpaceOnUse">
<stop stop-color="#F82814" stop-opacity="0"/>
<stop offset="1" stop-color="#C0272D"/>
</linearGradient>
<radialGradient id="paint36_radial_292_4409" cx="0" cy="0" r="1" gradientUnits="userSpaceOnUse" gradientTransform="translate(100.008 82.8725) scale(9.95571 9.9557)">
<stop stop-color="#FFD945"/>
<stop offset="0.4169" stop-color="#FFD744"/>
<stop offset="0.6278" stop-color="#FFCF3F"/>
<stop offset="0.7926" stop-color="#FFC237"/>
<stop offset="0.9326" stop-color="#FFAF2C"/>
<stop offset="1" stop-color="#FFA325"/>
</radialGradient>
<linearGradient id="paint37_linear_292_4409" x1="103.697" y1="87.329" x2="94.139" y2="77.7709" gradientUnits="userSpaceOnUse">
<stop stop-color="#FFD945" stop-opacity="0"/>
<stop offset="1" stop-color="#FBED21"/>
</linearGradient>
<linearGradient id="paint38_linear_292_4409" x1="105.703" y1="86.241" x2="120.587" y2="73.6428" gradientUnits="userSpaceOnUse">
<stop stop-color="#E87264" stop-opacity="0"/>
<stop offset="1" stop-color="#FF7044"/>
</linearGradient>
<linearGradient id="paint39_linear_292_4409" x1="102.309" y1="83.4838" x2="102.309" y2="75.9491" gradientUnits="userSpaceOnUse">
<stop stop-color="white" stop-opacity="0"/>
<stop offset="1" stop-color="white"/>
</linearGradient>
<clipPath id="clip0_292_4409">
<rect width="130" height="130" fill="white" transform="translate(0.320801)"/>
</clipPath>
</defs>
</svg>
